<?xml version="1.0" encoding="UTF-8" standalone="no"?>
<svg
   xmlns:dc="http://purl.org/dc/elements/1.1/"
   xmlns:cc="http://creativecommons.org/ns#"
   xmlns:rdf="http://www.w3.org/1999/02/22-rdf-syntax-ns#"
   xmlns:svg="http://www.w3.org/2000/svg"
   xmlns="http://www.w3.org/2000/svg"
   viewBox="0 0 642.17334 172.98666"
   height="172.98666"
   width="642.17334"
   xml:space="preserve"
   id="svg2"
   version="1.1"><metadata
     id="metadata8"><rdf:RDF><cc:Work
         rdf:about=""><dc:format>image/svg+xml</dc:format><dc:type
           rdf:resource="http://purl.org/dc/dcmitype/StillImage" /></cc:Work></rdf:RDF></metadata><defs
     id="defs6" /><g
     transform="matrix(1.3333333,0,0,-1.3333333,0,172.98667)"
     id="g10"><g
       transform="scale(0.1)"
       id="g12"><path
         id="path14"
         style="fill:#2e3187;fill-opacity:1;fill-rule:nonzero;stroke:none"
         d="M 2314.58,865.164 C 2279.1,766.16 2181.3,777.82 2181.3,777.82 l -133.52,-0.05 52.71,196.152 c 0,0 84.51,-0.43 140.34,-0.43 68.33,0 93.13,-54.265 73.75,-108.328 z m 280.42,91.66 c 21.68,171.676 -109.16,243.336 -272.5,243.336 -76.67,0 -429.17,0 -429.17,0 L 1640,276.832 h 272.71 l 76.68,284.668 217.28,-1.328 c 0,0 336.48,-14.238 388.33,396.652" /><path
         id="path16"
         style="fill:#2e3187;fill-opacity:1;fill-rule:nonzero;stroke:none"
         d="m 1037.08,947.664 h 248.75 L 1183.38,553.531 c 0,0 -25.54,-87.89 56.68,-94.668 64.94,-5.371 113.27,72.129 129.11,124.629 20.8,68.942 101.66,364.172 101.66,364.172 h 256.25 l -195,-670.832 h -223.75 l 27.5,95.84 c 0,0 -114.16,-139.184 -283.75,-122.5 -150.748,14.808 -163.744,124.16 -137.627,260.566 12.82,66.973 122.627,436.926 122.627,436.926" /><path
         id="path18"
         style="fill:#2e3187;fill-opacity:1;fill-rule:nonzero;stroke:none"
         d="m 2824.28,413.492 c -42.61,-10.82 -94.28,-16.66 -104.53,22.031 -28.14,106.094 220.25,137.149 220.25,137.149 1.68,-96.66 -83.02,-150.859 -115.72,-159.18 z M 3200,607.672 c 32.78,111.582 74.2,217.258 40.84,275.82 -51.05,89.641 -143.34,97.512 -278.34,97.512 -149.16,0 -333.32,-28.34 -393.32,-226.68 93.32,0 248.32,0 248.32,0 0,0 22.62,74.707 115.84,70 82.5,-4.16 77.99,-60.937 47.58,-92.304 -53.32,-55 -200.58,-24.504 -363.67,-81.09 -142.5,-49.43 -192.36,-236.813 -161.41,-311.598 30,-72.5 85.88,-81.75 161.25,-89.16 121.06,-11.891 213.87,55.605 257.08,95.215 0,-43.985 1.15,-68.555 1.15,-68.555 h 261.31 l -0.63,24.59 c 0,0 -23.28,6.172 -20.68,38.887 1.89,23.964 47.03,139.199 84.68,267.363" /><path
         id="path20"
         style="fill:#2e3187;fill-opacity:1;fill-rule:nonzero;stroke:none"
         d="M 685.906,867.273 C 650.637,785.582 541.305,794.871 541.305,794.871 l -127.297,0.594 46.484,172.988 c 0,0 113.887,-0.43 169.719,-0.43 59.785,0 78.461,-48.015 55.695,-100.75 z m 289.305,117.891 c 21.668,171.656 -129.375,214.996 -292.707,214.996 -76.668,0 -429.168,0 -429.168,0 L 0,276.832 h 272.711 l 85.148,313.496 152.977,-1.25 c 0,0 63.125,3.672 64.375,-55.625 1.332,-63.242 -46.875,-179.375 -43.75,-256.621 36.25,0 280.156,0 280.156,0 l -0.625,24.59 c 0,0 -23.281,6.172 -20.683,38.887 1.078,13.613 16.109,56.679 35.777,114.765 11.852,25.606 29.75,86.348 28.094,135.821 -2.067,61.753 -40.805,90.402 -96.676,110.46 174.168,40.84 217.707,283.809 217.707,283.809" /><path
         id="path22"
         style="fill:#2e3187;fill-opacity:1;fill-rule:nonzero;stroke:none"
         d="m 3318.34,947.664 h 253.34 V 545.172 l 219.16,402.492 h 232.5 L 3554.59,133.922 c 0,0 -43.51,-68.2618 -97.5,-104.3712 C 3412.74,-0.140625 3358.23,1.19141 3341.57,0 c -92.6,0.800781 -204.28,1.05078 -204.28,1.05078 l 53.87,193.96922 87.18,0.152 c 0,0 39.89,4.066 55.32,23.75 14.68,18.75 22.18,37.5 22.18,65 0,41.23 -37.5,663.742 -37.5,663.742" /><path
         id="path24"
         style="fill:#278043;fill-opacity:1;fill-rule:nonzero;stroke:none"
         d="M 4348.34,1102.66 4055.84,85.1719 4603.34,593.922 Z" /><path
         id="path26"
         style="fill:#f06019;fill-opacity:1;fill-rule:nonzero;stroke:none"
         d="M 4160.84,1102.66 3868.34,85.1719 4415.84,593.922 Z" /><path
         id="path28"
         style="fill:#100f0d;fill-opacity:1;fill-rule:nonzero;stroke:none"
         d="m 4705.42,1287.38 c -55.59,0 -100.83,-45.24 -100.83,-100.84 0,-55.59 45.24,-100.83 100.83,-100.83 55.6,0 100.83,45.24 100.83,100.83 0,55.6 -45.23,100.84 -100.83,100.84 z m 0,-211.67 c -61.12,0 -110.83,49.72 -110.83,110.83 0,61.11 49.71,110.84 110.83,110.84 61.11,0 110.83,-49.73 110.83,-110.84 0,-61.11 -49.72,-110.83 -110.83,-110.83" /><path
         id="path30"
         style="fill:#100f0d;fill-opacity:1;fill-rule:nonzero;stroke:none"
         d="m 4651.65,1145.16 v 69.32 h -25.88 v 9.28 h 62.28 v -9.28 h -25.99 v -69.32 h -10.41" /><path
         id="path32"
         style="fill:#100f0d;fill-opacity:1;fill-rule:nonzero;stroke:none"
         d="m 4703.87,1145.16 v 78.6 h 15.67 l 18.59,-55.65 c 1.72,-5.17 2.97,-9.06 3.77,-11.63 0.88,2.86 2.28,7.06 4.18,12.6 l 18.81,54.68 h 13.98 v -78.6 h -10.02 v 65.79 l -22.83,-65.79 h -9.37 l -22.74,66.92 v -66.92 h -10.04" /></g></g></svg>