<svg width="250" height="159" viewBox="0 0 250 159" fill="none" xmlns="http://www.w3.org/2000/svg">
<path fill-rule="evenodd" clip-rule="evenodd" d="M249.575 18.648C249.575 6.66668 243.348 0.722691 231.271 0.722691H18.4292C12.3912 0.722691 7.95677 2.3267 5.03229 5.62803C1.73021 8.9307 0.126038 13.176 0.126038 18.648V140.165C0.126038 145.636 1.73021 149.787 5.03229 153.183C8.42864 156.485 12.7688 158.091 18.4292 158.091H231.271C243.348 158.091 249.575 152.053 249.575 140.165V18.648ZM231.271 3.55202C241.272 3.55202 246.367 8.64802 246.367 18.648V140.165C246.367 150.259 241.272 155.26 231.271 155.26H18.4292C13.6172 155.26 9.93853 153.845 7.20156 151.015C4.37188 148.279 2.95625 144.505 2.95625 140.165V18.648C2.95625 8.64802 7.95677 3.55202 18.4292 3.55202H231.271" fill="#225385"/>
<path fill-rule="evenodd" clip-rule="evenodd" d="M20.1271 10.5347C16.0708 10.5347 13.5235 11.1947 12.1084 12.6093C10.8817 14.2133 10.3156 16.8547 10.3156 20.724V47.0453H239.385V20.724C239.385 13.836 235.988 10.5347 229.196 10.5347H20.1271" fill="#225385"/>
<path fill-rule="evenodd" clip-rule="evenodd" d="M10.3156 137.711C10.3156 144.693 13.6172 148.279 20.1271 148.279H229.196C235.988 148.279 239.385 144.693 239.385 137.711V111.39H10.3156V137.711Z" fill="#F19D1C"/>
<path fill-rule="evenodd" clip-rule="evenodd" d="M86.1688 58.2734C86.1688 59.5 85.9803 60.4427 85.5084 61.1027L68.9979 89.8787L67.9604 54.7827H41.5437L50.4125 59.028C52.9593 60.632 54.2807 62.7067 54.2807 65.3494L56.7333 102.616H69.6584L100.604 54.7827H84.7536C85.6973 55.632 86.1688 56.952 86.1688 58.2734" fill="#225385"/>
<path fill-rule="evenodd" clip-rule="evenodd" d="M192.968 56.1974L194.005 54.7827H177.872C178.439 55.348 178.627 55.632 178.627 55.82C178.439 56.5747 178.061 57.0467 177.872 57.612L154.38 100.445C153.815 101.201 153.248 101.86 152.588 102.616H165.891L165.231 101.201C165.231 99.9735 165.891 97.7094 167.305 94.5022L170.136 89.2183H183.816C184.381 93.6527 184.76 97.3318 184.948 100.068L183.816 102.616H200.327L197.873 99.0303L192.968 56.1974ZM183.155 82.5198H173.344L181.74 66.3867L183.155 82.5198Z" fill="#225385"/>
<path fill-rule="evenodd" clip-rule="evenodd" d="M142.397 52.3294C137.304 52.3294 132.964 53.744 129.095 56.5747C124.851 59.028 122.775 62.1414 122.775 66.0094C122.775 70.4427 124.284 74.312 127.303 77.2364L136.455 83.5574C139.757 85.9162 141.361 87.9916 141.361 89.8787C141.361 91.6714 140.511 93.275 138.908 94.5022C137.304 95.7276 135.512 96.2943 133.248 96.2943C129.945 96.2943 124.284 93.9355 116.454 89.5959V98.3698C122.585 102.049 128.53 103.936 134.285 103.936C139.757 103.936 144.38 102.427 148.343 99.0303C152.588 95.9167 154.663 92.2375 154.663 88.1807C154.663 84.7839 153.153 81.6708 149.757 78.3688L140.983 72.048C138.059 69.688 136.455 67.6134 136.455 66.0094C136.455 62.3307 138.625 60.4427 143.059 60.4427C146.077 60.4427 150.512 62.1414 156.456 65.7267L158.249 56.5747C153.248 53.744 148.059 52.3294 142.397 52.3294" fill="#225385"/>
<path fill-rule="evenodd" clip-rule="evenodd" d="M107.303 102.616C107.114 100.634 106.735 98.8416 106.547 96.9547L118.529 58.2734L121.359 54.7827H104.095C104.283 55.632 104.472 56.764 104.66 57.612C104.66 58.4614 104.66 59.5 104.472 60.4427L92.4901 98.747L90.0369 102.616H107.303Z" fill="#225385"/>
</svg>
