<svg width="469" height="217" viewBox="0 0 469 217" fill="none" xmlns="http://www.w3.org/2000/svg">
<path d="M454.854 148.75C454.837 149.881 454.805 150.986 454.77 152.092C454.715 153.198 454.663 154.283 454.614 155.366C454.475 157.69 454.284 159.99 454.044 162.226C453.748 165.102 453.386 167.934 452.972 170.656C452.851 171.43 452.729 172.182 452.607 172.934C452.555 173.244 452.503 173.532 452.451 173.818L452.416 173.974C452.35 174.372 452.28 174.77 452.211 175.168C452.159 175.544 452.089 175.92 452.02 176.276C451.762 177.646 451.484 178.996 451.209 180.302C451.192 180.412 451.157 180.522 451.139 180.634C451.105 180.766 451.087 180.898 451.053 181.032C450.74 182.514 450.413 183.93 450.086 185.324C449.634 187.206 449.168 188.998 448.702 190.744C448.563 191.254 448.427 191.764 448.288 192.25C448.079 192.98 447.874 193.71 447.682 194.418C447.682 194.418 447.682 194.418 447.682 194.44C447.491 195.016 447.335 195.546 447.164 196.1C446.904 196.984 446.626 197.826 446.368 198.666C445.971 199.906 445.572 201.1 445.192 202.206C445.106 202.472 445.019 202.716 444.932 202.958C444.761 203.468 444.587 203.954 444.431 204.418C444.086 205.392 443.742 206.322 443.412 207.184C443.085 208.048 442.772 208.866 442.479 209.618C441.373 212.406 440.438 214.708 440.024 215.704C439.885 216.058 439.798 216.256 439.798 216.256C439.798 216.256 13.9141 216.322 13.8971 216.3C2.64416 184.108 15.4009 159.504 42.0899 131.692C62.0724 110.827 99.1846 103.614 89.5046 59.5625C78.0787 7.63342 132.062 -9.35951 185.942 6.85886C228.084 19.5368 266.873 64.5408 296.088 49.4509C352.695 20.2006 379.836 33.2325 395.514 41.6626C396.015 41.9284 396.516 42.1937 396.999 42.4813C399.298 43.7643 401.615 45.2245 403.948 46.8403C404.435 47.1717 404.915 47.5256 405.419 47.8799C407.043 49.0529 408.685 50.314 410.327 51.6634C411.088 52.3053 411.85 52.9468 412.626 53.6102C412.678 53.6546 412.747 53.6987 412.799 53.7651C413.853 54.672 414.907 55.6018 415.964 56.5972C417.189 57.748 418.416 58.9428 419.661 60.2036C421.856 62.4161 424.054 64.8058 426.266 67.3503C427.111 68.3243 427.942 69.3197 428.787 70.3374C429.775 71.51 430.724 72.7048 431.642 73.9219C432.488 75.0504 433.319 76.1788 434.112 77.307C434.39 77.6831 434.665 78.0812 434.943 78.4799C435.618 79.4535 436.255 80.4489 436.894 81.4222C437.482 82.3294 438.035 83.2589 438.588 84.1657C438.797 84.5204 439.002 84.874 439.211 85.2056C439.541 85.7812 439.868 86.3342 440.181 86.9093C440.852 88.1264 441.51 89.3212 442.115 90.5383C442.946 92.1534 443.724 93.7685 444.448 95.3843C444.553 95.6044 444.657 95.8264 444.761 96.0706C444.848 96.2685 444.932 96.4683 445.019 96.6666C445.262 97.2206 445.502 97.7966 445.745 98.3484C447.37 102.265 448.754 106.202 449.912 110.14C449.981 110.384 450.048 110.628 450.12 110.872C450.239 111.271 450.343 111.668 450.447 112.066C450.656 112.796 450.847 113.526 451.035 114.257C451.209 114.964 451.38 115.695 451.554 116.402C451.571 116.492 451.606 116.602 451.623 116.69C451.762 117.288 451.881 117.863 452.02 118.46C452.245 119.522 452.468 120.584 452.66 121.646C452.972 123.328 453.247 124.989 453.491 126.668C453.508 126.824 453.54 127.002 453.557 127.157C453.783 128.772 453.974 130.365 454.145 131.958C454.736 137.667 454.941 143.286 454.854 148.75Z" fill="#EDF4FF"/>
<path d="M52.7584 216.046C52.7584 216.046 56.3581 202.856 68.1276 201.984C79.8973 201.114 86.4373 189.41 98.5992 192.148C110.761 194.886 111.675 206.378 116.795 209.548C119.321 211.112 126.873 210.132 135.051 209.152C143.45 208.144 152.511 207.138 157.464 208.888C167.241 212.344 171.822 203.744 180.914 200.026C190.008 196.306 195.972 201.406 202.514 207.206C209.056 213.008 218.213 206.554 217.812 215.774L52.7584 216.046Z" fill="#B8E0AF"/>
<path d="M209.444 149.548C175.688 148.294 140.083 107.614 129.934 95.138H118.399H209.444V149.548Z" fill="#DFE9F9"/>
<path d="M118.451 85.716L118.43 89.38L117.836 199.548C117.835 199.812 117.761 200.026 117.671 200.026H117.626C117.448 200.026 117.303 199.608 117.298 199.084L116.475 92.742L116.421 85.716H118.451Z" fill="#E58638"/>
<path d="M118.451 85.7159L118.43 89.38C117.888 89.88 117.11 90.8659 116.475 92.7419L116.421 85.7159H118.451Z" fill="#CC621B"/>
<path d="M209.444 204.03H198.82C195.119 201.026 191.377 198.76 186.894 198.76C185.044 198.76 183.067 199.146 180.914 200.026C178.306 201.092 176.07 202.56 173.975 204.03H112.383C109.721 199.518 106.586 193.946 98.5992 192.148C98.0015 192.014 97.4189 191.914 96.8472 191.846V95.138H116.493L117.298 199.084C117.302 199.608 117.448 200.026 117.626 200.026H117.67C117.761 200.026 117.835 199.812 117.836 199.548L118.399 95.138H129.934C140.083 107.614 175.687 148.294 209.444 149.548V204.03Z" fill="#D4E0F2"/>
<path d="M198.82 204.03H173.975C176.07 202.56 178.306 201.092 180.914 200.026C183.067 199.146 185.044 198.76 186.894 198.76C191.377 198.76 195.119 201.026 198.82 204.03ZM112.383 204.03H96.8472V191.846C97.4189 191.914 98.0015 192.014 98.5992 192.148C106.586 193.946 109.721 199.518 112.383 204.03Z" fill="#C2D9D5"/>
<path d="M117.671 200.026H117.626C117.448 200.026 117.303 199.608 117.298 199.084L116.493 95.138H118.399L117.836 199.548C117.835 199.812 117.761 200.026 117.671 200.026Z" fill="#D8A47E"/>
<path d="M239.66 215.378H228.556C227.96 214.732 228.968 213.266 230.02 213.166C230.477 213.122 231.055 213.244 231.714 213.424C231.866 210.826 232.741 199.148 236.028 199.618C239.725 200.144 236.028 204.76 234.983 207.494C234.21 209.518 233.392 212.422 233.018 213.792C233.32 213.876 233.63 213.958 233.947 214.032C234.437 212.106 236.261 205.628 238.579 206.004C241.302 206.446 240.208 209.044 238.278 210.586C236.863 211.72 235.123 213.332 234.299 214.11C234.998 214.256 235.728 214.354 236.468 214.332C238.371 214.276 239.3 214.992 239.66 215.378Z" fill="#B8E0AF"/>
<path d="M21.7614 214.552C21.1586 213.34 19.3447 210.194 16.9286 210.612C14.2961 211.064 19.8359 213.286 21.532 214.562C21.1554 214.568 20.8315 214.53 20.5937 214.422C19.4598 213.904 17.5179 214.896 16.897 215.244H27.6917C27.6172 214.914 27.4226 214.374 26.9198 213.98C26.7426 213.842 26.3864 213.822 25.9264 213.868C26.5683 212.9 27.014 209.806 25.2272 210.602C23.9219 211.182 23.9254 213.074 24.0536 214.192C23.7758 214.248 23.4942 214.304 23.2159 214.354C22.6786 210.848 20.7776 200.574 16.9247 200.3C13.0187 200.022 20.237 210.956 22.6403 214.452C22.3325 214.5 22.0359 214.536 21.7614 214.552Z" fill="#B8E0AF"/>
<path d="M199.303 186.566L199.239 190.198L198.792 215.51C198.789 215.668 198.688 215.792 198.566 215.792C198.353 215.792 198.178 215.578 198.17 215.308L197.444 191.342L197.298 186.566H199.303Z" fill="#CC621B"/>
<path d="M199.303 186.566L199.239 190.198C198.673 190.44 198.006 190.806 197.444 191.342L197.298 186.566H199.303Z" fill="#B25414"/>
<path d="M109.149 186.566L109.085 190.198L108.637 215.51C108.635 215.668 108.534 215.792 108.411 215.792C108.199 215.792 108.024 215.578 108.016 215.308L107.289 191.342L107.145 186.566H109.149Z" fill="#CC621B"/>
<path d="M109.149 186.566L109.085 190.198C108.52 190.44 107.852 190.806 107.289 191.342L107.145 186.566H109.149Z" fill="#B25414"/>
<path d="M204.066 187.784H102.383C101.742 187.784 101.216 187.112 101.216 186.29V178.78C101.216 177.958 101.742 177.286 102.383 177.286H204.066C204.706 177.286 205.233 177.958 205.233 178.78V186.29C205.233 187.112 204.706 187.784 204.066 187.784Z" fill="#E58638"/>
<path d="M452.211 175.168C452.159 175.544 452.09 175.92 452.021 176.276C451.762 177.646 451.485 178.996 451.209 180.302C451.192 180.412 451.157 180.524 451.14 180.634C451.105 180.766 451.088 180.9 451.054 181.032C450.743 182.514 450.415 183.93 450.086 185.324C449.635 187.206 449.168 188.998 448.702 190.744C448.564 191.254 448.426 191.764 448.287 192.25C448.08 192.98 447.873 193.71 447.683 194.418C447.683 194.418 447.683 194.418 447.683 194.44C447.493 195.016 447.337 195.546 447.165 196.1C446.906 196.984 446.629 197.826 446.367 198.666C445.973 199.906 445.573 201.1 445.193 202.206C445.106 202.472 445.02 202.716 444.934 202.958C444.761 203.468 444.588 203.954 444.433 204.418H419.887V175.168H452.211Z" fill="#8E3900"/>
<path d="M337.701 204.408H292.192V175.164H337.701V204.408Z" fill="#8E3900"/>
<path d="M300.214 198.53C300.214 188.996 306.251 181.266 313.701 181.266C321.15 181.266 327.187 188.996 327.187 198.53C327.187 208.064 321.15 215.792 313.701 215.792C306.251 215.792 300.214 208.064 300.214 198.53Z" fill="#233862"/>
<path d="M320.774 198.53C320.774 200.548 320.258 202.41 319.386 203.914C318.099 206.144 316.031 207.586 313.7 207.586C309.791 207.586 306.623 203.532 306.623 198.53C306.623 194.648 308.531 191.336 311.211 190.048C311.986 189.676 312.825 189.472 313.7 189.472C317.608 189.472 320.774 193.526 320.774 198.53Z" fill="#466AA5"/>
<path d="M454.145 131.958C453.974 130.364 453.783 128.772 453.557 127.157C453.54 127.002 453.508 126.824 453.491 126.668C453.247 124.988 452.972 123.328 452.66 121.646L265.888 77.3066C265.612 77.3066 265.318 77.3066 265.042 77.3296C264.988 77.3296 264.92 77.3511 264.868 77.3511C264.748 77.3511 264.643 77.3737 264.54 77.3737H264.523C264.471 77.3951 264.418 77.3951 264.367 77.3951C264.298 77.4178 264.229 77.4178 264.178 77.4396C263.659 77.506 263.14 77.639 262.621 77.7939C262.552 77.8162 262.482 77.838 262.413 77.8599C262.396 77.8825 262.379 77.8825 262.362 77.8825C262.257 77.927 262.154 77.9485 262.068 77.9926C261.999 78.0148 261.929 78.037 261.86 78.0589C261.757 78.1034 261.653 78.1479 261.549 78.1919C261.446 78.2364 261.342 78.2805 261.239 78.325C261.187 78.3472 261.134 78.3913 261.065 78.4132C260.962 78.4573 260.84 78.5244 260.72 78.59C260.634 78.6345 260.529 78.6786 260.443 78.7453C260.287 78.8116 260.149 78.9002 259.993 78.9887C259.907 79.0547 259.821 79.0992 259.716 79.1655C259.665 79.2096 259.596 79.2319 259.545 79.276C259.423 79.3645 259.32 79.4313 259.215 79.4976C259.112 79.5862 259.009 79.6521 258.904 79.7407C258.801 79.807 258.715 79.8738 258.61 79.9623C258.593 79.9842 258.576 79.9842 258.559 80.0064C258.456 80.0724 258.368 80.161 258.282 80.2273C258.196 80.3163 258.11 80.3826 258.023 80.4712C257.937 80.5375 257.85 80.6039 257.764 80.6924C257.712 80.7369 257.66 80.8029 257.59 80.847C257.367 81.0686 257.142 81.3117 256.934 81.5552C256.882 81.5993 256.831 81.6438 256.796 81.6882C256.726 81.7761 256.657 81.8431 256.606 81.9087C256.537 81.9973 256.466 82.064 256.398 82.1526L256.018 82.6392C255.949 82.7278 255.879 82.8163 255.827 82.9049C255.741 82.9931 255.673 83.1039 255.602 83.1925C255.568 83.2589 255.516 83.3256 255.465 83.3912C255.378 83.5464 255.292 83.6791 255.206 83.8122C255.154 83.8785 255.12 83.9445 255.067 84.0116C255.032 84.0994 254.981 84.1657 254.946 84.2324C254.86 84.3873 254.773 84.5204 254.687 84.6746C254.653 84.7413 254.618 84.8076 254.584 84.8962C254.531 84.9625 254.496 85.0292 254.462 85.1178C254.393 85.2279 254.324 85.3605 254.254 85.4936C254.254 85.5158 254.254 85.5158 254.237 85.5158C254.22 85.5822 254.185 85.6267 254.168 85.6923C254.117 85.7812 254.082 85.8698 254.031 85.9583C253.996 86.0465 253.96 86.091 253.943 86.1796C253.926 86.1796 253.926 86.2011 253.926 86.2011C253.909 86.2682 253.875 86.3341 253.84 86.4005C253.789 86.5113 253.735 86.6443 253.684 86.7544C253.632 86.9093 253.564 87.0646 253.512 87.2195C253.46 87.3518 253.407 87.4848 253.373 87.6175C253.339 87.6842 253.321 87.7506 253.287 87.8165C253.27 87.9047 253.253 87.9715 253.218 88.0378C253.165 88.1931 253.131 88.3258 253.079 88.481C253.045 88.613 252.993 88.746 252.959 88.9009C252.942 88.9669 252.907 89.0555 252.888 89.144C252.871 89.2108 252.854 89.2771 252.837 89.3434C252.82 89.3879 252.82 89.432 252.803 89.4757C252.785 89.5428 252.768 89.631 252.751 89.6974C252.717 89.8082 252.699 89.919 252.665 90.0291C252.648 90.1176 252.629 90.2062 252.612 90.2948C252.595 90.3834 252.577 90.4497 252.56 90.5383C252.371 91.401 252.198 92.286 252.007 93.2166C251.973 93.3704 251.938 93.5246 251.904 93.6806C251.696 94.6523 251.488 95.6485 251.282 96.6666C251.229 96.8663 251.195 97.0883 251.143 97.3085C251.126 97.4185 251.109 97.5086 251.092 97.5964C251.023 97.9066 250.953 98.2164 250.901 98.5266C250.832 98.8364 250.763 99.1663 250.693 99.4765C250.693 99.5206 250.676 99.5643 250.659 99.6325C250.642 99.7863 250.607 99.9423 250.573 100.097C250.539 100.228 250.521 100.34 250.504 100.45C250.434 100.738 250.382 101.004 250.331 101.291C250.245 101.668 250.176 102.044 250.089 102.421C250.037 102.709 249.968 103.017 249.917 103.326C249.726 104.234 249.535 105.162 249.346 106.093C249.259 106.557 249.173 107.001 249.07 107.465C248.982 107.928 248.879 108.394 248.793 108.858C248.706 109.322 248.603 109.789 248.515 110.253C248.429 110.672 248.36 111.092 248.274 111.514C248.032 112.73 247.79 113.946 247.565 115.142C247.479 115.606 247.392 116.048 247.306 116.492C247.271 116.647 247.254 116.8 247.22 116.935C247.134 117.399 247.046 117.84 246.96 118.284C246.943 118.372 246.943 118.438 246.926 118.526C246.857 118.881 246.787 119.234 246.718 119.588C246.684 119.744 246.667 119.898 246.632 120.032C246.562 120.43 246.493 120.806 246.425 121.182C246.39 121.426 246.339 121.646 246.303 121.868C246.217 122.266 246.148 122.642 246.079 123.04C246.079 123.062 246.079 123.108 246.062 123.13C246.028 123.35 245.992 123.572 245.957 123.77C245.94 123.814 245.94 123.839 245.94 123.882C245.906 124.058 245.871 124.237 245.837 124.413C245.803 124.612 245.768 124.832 245.732 125.033C245.646 125.453 245.578 125.851 245.509 126.27C245.492 126.36 245.473 126.471 245.456 126.58C245.37 127.068 245.284 127.576 245.196 128.065C245.179 128.241 245.145 128.416 245.11 128.594C245.11 128.638 245.093 128.682 245.093 128.726C245.059 128.882 245.042 129.058 245.007 129.215C244.99 129.28 244.99 129.346 244.973 129.412C244.939 129.656 244.902 129.9 244.851 130.142V130.164C244.834 130.32 244.799 130.452 244.782 130.608C244.713 131.072 244.643 131.514 244.574 131.958C244.212 134.258 243.935 136.272 243.779 137.886C242.932 146.028 242.604 155.078 242.518 163.84C242.501 167.602 242.518 171.296 242.57 174.814C242.587 176.408 242.621 177.956 242.656 179.462C242.76 183.754 242.898 187.714 243.037 191.166C243.123 193.178 243.226 194.994 243.296 196.608C243.537 201.012 246.373 204.42 249.812 204.42H297.521C297.504 204.352 297.504 204.286 297.487 204.22C297.087 202.406 296.899 200.502 296.899 198.534C296.899 190.258 300.547 183.068 305.903 179.462C308.167 177.934 310.727 177.072 313.443 177.004C316.327 176.96 319.06 177.846 321.445 179.462C326.75 183.024 330.415 190.082 330.502 198.224C330.519 200.304 330.311 202.316 329.914 204.22C329.897 204.286 329.88 204.352 329.88 204.42H356.051H421.529H425.003C424.589 202.538 424.346 200.57 424.346 198.534C424.346 186.474 431.987 176.718 441.391 176.718C445.019 176.718 448.389 178.156 451.14 180.634C451.157 180.524 451.192 180.412 451.209 180.302C451.484 178.996 451.762 177.646 452.02 176.276C452.089 175.92 452.159 175.544 452.211 175.168C452.28 174.77 452.35 174.372 452.416 173.974L452.451 173.818C452.503 173.532 452.555 173.244 452.607 172.934C452.729 172.182 452.851 171.43 452.972 170.656C453.386 167.934 453.748 165.102 454.044 162.226C454.284 159.99 454.475 157.69 454.614 155.366C454.663 154.283 454.718 153.198 454.77 152.092C454.805 150.986 454.837 149.88 454.854 148.75C454.941 143.286 454.736 137.667 454.145 131.958Z" fill="#ED7D2B"/>
<path d="M273.23 183.356H264.895C264.059 183.356 263.375 182.48 263.375 181.41C263.375 180.338 264.059 179.464 264.895 179.464H273.23C274.066 179.464 274.75 180.338 274.75 181.41C274.75 182.48 274.066 183.356 273.23 183.356Z" fill="#FFB93E"/>
<path d="M454.145 131.958C454.145 131.958 244.659 131.154 244.568 131.626C244.21 133.524 243.937 135.181 243.771 136.508C242.706 145.072 242.442 154.906 242.526 163.848C242.548 166.188 242.593 168.468 242.656 170.644H379.387V170.656H452.972C453.386 167.934 453.748 165.102 454.044 162.226C454.284 159.99 454.475 157.69 454.614 155.366C454.663 154.283 454.718 153.198 454.77 152.092C454.805 150.986 454.837 149.881 454.854 148.75C454.941 143.286 454.736 137.667 454.145 131.958Z" fill="#F99746"/>
<path d="M245.976 191.171H242.403C241.631 191.171 240.999 190.362 240.999 189.371V176.621C240.999 175.632 241.631 174.821 242.403 174.821H245.976C246.75 174.821 247.381 175.632 247.381 176.621V189.371C247.381 190.362 246.75 191.171 245.976 191.171Z" fill="#FFB93E"/>
<path d="M454.146 131.958C453.976 130.364 453.785 128.772 453.56 127.156C453.542 127.002 453.508 126.824 453.49 126.668C453.248 124.988 452.97 123.328 452.661 121.646C452.47 120.584 452.247 119.522 452.022 118.46C451.883 117.862 451.762 117.288 451.623 116.69C451.606 116.602 451.571 116.492 451.554 116.402C451.38 115.694 451.21 114.964 451.036 114.256C450.846 113.526 450.655 112.796 450.447 112.066C450.345 111.668 450.241 111.27 450.12 110.872C450.051 110.628 449.981 110.384 449.912 110.142C448.753 106.202 447.371 102.264 445.747 98.3483C445.504 97.7963 445.261 97.2202 445.021 96.6664C444.935 96.468 444.848 96.2683 444.761 96.0703C444.657 95.8261 444.553 95.6042 444.449 95.384C443.723 93.7683 442.946 92.153 442.116 90.538C441.509 89.3208 440.853 88.1261 440.18 86.9093C439.868 86.3339 439.541 85.7808 439.211 85.2055C439.003 84.8736 438.798 84.5199 438.59 84.1655C438.038 83.2587 437.483 82.3289 436.896 81.4221C436.254 80.4487 435.616 79.453 434.942 78.4796C434.668 78.0808 434.39 77.683 434.113 77.3064H321.41L321.399 77.2968H265.884C265.604 77.2968 265.323 77.3072 265.045 77.3294C264.984 77.3345 264.922 77.3412 264.861 77.3464C264.756 77.3567 264.65 77.3667 264.544 77.3804L264.515 77.3841C264.465 77.3908 264.415 77.3959 264.365 77.4044H264.359C264.298 77.413 264.236 77.4233 264.173 77.4337C263.65 77.5158 263.134 77.639 262.628 77.7963C262.556 77.8185 262.483 77.8425 262.411 77.8662C262.392 77.8717 262.375 77.8784 262.356 77.8851C262.259 77.9176 262.161 77.9539 262.064 77.9894C261.997 78.0134 261.929 78.0393 261.864 78.0649C261.761 78.1059 261.655 78.1489 261.55 78.1933C261.447 78.2377 261.342 78.2839 261.239 78.3316C261.183 78.3557 261.126 78.3812 261.072 78.4104C260.958 78.4652 260.842 78.5214 260.728 78.5817C260.631 78.6313 260.534 78.6824 260.439 78.7353C260.291 78.8178 260.143 78.9032 259.998 78.992C259.904 79.0468 259.812 79.1049 259.722 79.163C259.661 79.2026 259.6 79.2418 259.539 79.2828C259.431 79.3546 259.323 79.4283 259.217 79.5052C259.111 79.5807 259.005 79.6576 258.9 79.7361L258.898 79.7379C258.805 79.8097 258.709 79.8833 258.614 79.9584C258.592 79.9755 258.572 79.9928 258.551 80.0099C258.461 80.0816 258.37 80.1571 258.279 80.2341C258.193 80.3077 258.106 80.3828 258.02 80.4598C257.936 80.5367 257.851 80.6137 257.767 80.6925C257.711 80.7457 257.656 80.7987 257.6 80.8516C257.37 81.0739 257.145 81.3048 256.926 81.546C256.883 81.5938 256.837 81.6437 256.794 81.6951C256.728 81.7684 256.662 81.8438 256.598 81.9189C256.533 81.9944 256.468 82.0695 256.406 82.148C256.275 82.3089 256.144 82.4732 256.016 82.6408C255.95 82.7281 255.886 82.8173 255.82 82.9061C255.748 83.0034 255.679 83.101 255.611 83.2002C255.564 83.2668 255.518 83.3338 255.473 83.4022C255.379 83.5373 255.29 83.6741 255.204 83.8129C255.161 83.8813 255.117 83.9513 255.073 84.0212C255.03 84.0915 254.987 84.1632 254.945 84.2335C254.861 84.3771 254.776 84.5225 254.693 84.6698C254.654 84.7415 254.614 84.8133 254.575 84.8873C254.536 84.9598 254.497 85.0331 254.458 85.1074C253.211 85.1637 251.778 85.3353 250.305 85.7283C244.811 87.1934 241.339 91.0741 240.228 96.9701L239.559 96.888C238.669 96.7803 237.858 97.5562 237.687 98.6802L234.748 118.112C234.553 119.402 235.269 120.626 236.289 120.752L240.526 121.268C241.483 121.386 242.331 120.488 242.422 119.266L243.884 99.6521C243.971 98.4763 243.326 97.4281 242.426 97.2461C243.384 91.9321 245.783 87.9448 250.789 86.5996C251.893 86.3025 252.964 86.1922 253.936 86.1878L253.933 86.1941C253.901 86.2607 253.872 86.3291 253.845 86.3976C253.792 86.5174 253.742 86.6388 253.692 86.7601C253.631 86.9107 253.57 87.0613 253.512 87.2134C253.464 87.3436 253.416 87.4753 253.368 87.607C253.344 87.6788 253.318 87.751 253.294 87.8227C253.268 87.896 253.244 87.9681 253.22 88.0418C253.172 88.1868 253.125 88.334 253.079 88.4813C253.039 88.6178 252.998 88.7547 252.958 88.8935C252.936 88.9774 252.911 89.061 252.89 89.145C252.872 89.2116 252.854 89.2782 252.837 89.3467C252.826 89.3877 252.815 89.427 252.804 89.468C252.786 89.5435 252.767 89.6205 252.748 89.6959C252.722 89.8051 252.697 89.9131 252.672 90.0241C252.651 90.1166 252.631 90.2106 252.611 90.3049C252.597 90.3819 252.578 90.4585 252.562 90.5373C252.38 91.403 252.192 92.2958 252 93.2141C251.969 93.3661 251.936 93.52 251.904 93.6743C251.7 94.644 251.492 95.64 251.281 96.656C251.236 96.8761 251.19 97.0963 251.144 97.3183C251.131 97.3764 251.118 97.4341 251.106 97.494C251.073 97.6583 251.039 97.8222 251.004 97.9861C250.967 98.1663 250.929 98.3483 250.894 98.5303C250.829 98.8422 250.764 99.1582 250.698 99.4741C250.689 99.5222 250.678 99.5722 250.667 99.6203C250.629 99.8082 250.59 99.994 250.553 100.18C250.534 100.272 250.515 100.36 250.498 100.45C250.44 100.728 250.384 101.004 250.326 101.284L250.325 101.296C250.248 101.668 250.17 102.044 250.094 102.42H311.175V131.958H454.146Z" fill="#233862"/>
<path d="M454.146 131.958C453.976 130.364 453.785 128.772 453.56 127.156C453.542 127.002 453.508 126.824 453.49 126.668C453.248 124.988 452.97 123.328 452.661 121.646C452.47 120.584 452.247 119.522 452.022 118.46C451.883 117.862 451.762 117.288 451.623 116.69C451.606 116.602 451.571 116.492 451.554 116.402C451.38 115.694 451.21 114.964 451.036 114.256C450.846 113.526 450.655 112.796 450.447 112.066C450.345 111.668 450.241 111.27 450.12 110.872C450.051 110.628 449.981 110.384 449.912 110.142C448.753 106.202 447.371 102.264 445.747 98.3483C445.504 97.7963 445.261 97.2203 445.021 96.6664C444.935 96.4681 444.848 96.2683 444.761 96.0704C444.657 95.8262 444.553 95.6042 444.449 95.3841C443.723 93.7684 442.946 92.153 442.116 90.538H333.805H252.561C252.371 91.4008 252.198 92.2855 252.008 93.2163C251.973 93.3702 251.939 93.5242 251.904 93.6803C251.697 94.6522 251.489 95.6482 251.283 96.6664C251.229 96.8662 251.195 97.0882 251.144 97.3083C251.126 97.4182 251.109 97.5081 251.092 97.5961C251.023 97.9062 250.953 98.2162 250.901 98.5263C250.833 98.8363 250.764 99.1664 250.694 99.4764C250.694 99.5201 250.676 99.5641 250.659 99.6322C250.642 99.7861 250.607 99.9422 250.573 100.096C250.539 100.228 250.522 100.34 250.505 100.45C250.434 100.738 250.383 101.004 250.331 101.29C250.245 101.668 250.176 102.044 250.089 102.42C250.037 102.708 249.968 103.016 249.917 103.326C249.726 104.234 249.536 105.162 249.347 106.092C249.259 106.556 249.173 107 249.07 107.464C248.983 107.928 248.879 108.394 248.793 108.858C248.706 109.322 248.603 109.788 248.515 110.252C248.429 110.672 248.361 111.092 248.275 111.514C248.033 112.73 247.79 113.946 247.565 115.142C247.479 115.606 247.392 116.048 247.306 116.492C247.272 116.646 247.254 116.8 247.22 116.934C247.134 117.398 247.047 117.84 246.961 118.284C246.943 118.372 246.943 118.438 246.926 118.526C246.858 118.88 246.787 119.234 246.719 119.588C246.684 119.744 246.667 119.898 246.632 120.032C246.562 120.43 246.493 120.806 246.425 121.182C246.39 121.426 246.339 121.646 246.303 121.868C246.217 122.266 246.148 122.642 246.08 123.04C246.08 123.062 246.079 123.108 246.062 123.13C246.028 123.35 245.992 123.572 245.958 123.77C245.94 123.814 245.94 123.838 245.94 123.882C245.906 124.058 245.872 124.236 245.837 124.412C245.803 124.612 245.768 124.832 245.733 125.032C245.647 125.452 245.578 125.85 245.509 126.27C245.492 126.36 245.473 126.47 245.456 126.58C245.37 127.068 245.284 127.576 245.197 128.064C245.179 128.24 245.145 128.416 245.111 128.594C245.111 128.638 245.094 128.682 245.094 128.726C245.059 128.882 245.042 129.058 245.007 129.214C244.99 129.28 244.99 129.346 244.973 129.412C244.939 129.656 244.903 129.9 244.851 130.142V130.164C244.834 130.32 244.8 130.452 244.783 130.608C244.714 131.072 244.644 131.514 244.575 131.958L249.658 131.98H251.576L262.051 132.002L274.998 132.024H277.313L353.526 132.2C353.509 132.112 353.492 132.024 353.457 131.958H454.146Z" fill="#38568A"/>
<path d="M278.854 100.38C278.944 98.4817 277.768 96.8777 276.283 96.8777H264.51C256.934 96.8777 251.714 104.562 250.79 114.44L248.057 157.348C247.963 158.818 248.869 160.076 250.022 160.076H274.151C275.17 160.076 276.01 159.064 276.074 157.764L278.854 100.38Z" fill="#38568A"/>
<path d="M276.55 103.108L274.539 140.852L273.833 154.058C273.833 155.758 272.756 157.136 271.43 157.136H252.627C249.326 157.136 250.307 150.866 250.574 146.91L252.652 115.888C252.652 115.29 252.675 114.698 252.724 114.114C253.365 106.184 258.257 100.016 264.198 100.016H271.245C272.675 100.016 276.55 100.016 276.55 103.108Z" fill="#466AA5"/>
<path d="M320.774 198.53C320.774 200.548 320.258 202.41 319.386 203.914C311.53 201.142 311.012 193.526 311.211 190.048C311.986 189.676 312.825 189.472 313.7 189.472C317.608 189.472 320.774 193.526 320.774 198.53Z" fill="#5F87C1"/>
<path d="M450.087 185.324C449.637 187.206 449.17 188.998 448.703 190.744C448.565 191.254 448.428 191.764 448.287 192.25C448.081 192.98 447.874 193.71 447.682 194.418C447.682 194.418 447.682 194.418 447.682 194.44C447.493 195.016 447.339 195.546 447.164 196.1C446.906 196.984 446.628 197.826 446.37 198.666C445.972 199.906 445.573 201.1 445.195 202.206C445.109 202.472 445.02 202.716 444.934 202.958C444.763 203.468 444.591 203.954 444.433 204.418C444.089 205.392 443.742 206.322 443.413 207.184C443.086 208.048 442.774 208.866 442.481 209.618C441.375 212.406 440.441 214.708 440.026 215.704C434.787 215.04 430.449 210.526 428.704 204.418C428.185 202.582 427.907 200.592 427.907 198.534C427.907 188.998 433.942 181.276 441.393 181.276C444.694 181.276 447.734 182.802 450.087 185.324Z" fill="#233862"/>
<path d="M447.683 194.418C447.683 194.418 447.683 194.418 447.683 194.44C447.492 195.016 447.338 195.546 447.164 196.1C446.904 196.984 446.628 197.826 446.368 198.666C445.972 199.906 445.573 201.1 445.194 202.206C445.108 202.472 445.02 202.716 444.934 202.958C444.76 203.468 444.589 203.954 444.433 204.418C444.088 205.392 443.743 206.322 443.412 207.184C442.773 207.45 442.101 207.582 441.391 207.582C439.247 207.582 437.328 206.366 436.031 204.418C434.959 202.848 434.321 200.79 434.321 198.534C434.321 194.64 436.222 191.342 438.902 190.038C439.68 189.684 440.51 189.462 441.391 189.462C444.139 189.462 446.525 191.476 447.683 194.418Z" fill="#466AA5"/>
<path d="M447.682 194.418C447.682 194.418 447.682 194.418 447.682 194.44C447.491 195.016 447.338 195.546 447.164 196.1C446.904 196.984 446.628 197.826 446.368 198.666C445.972 199.906 445.573 201.1 445.194 202.206C445.108 202.472 445.02 202.716 444.934 202.958C439.127 199.662 438.728 193.178 438.902 190.038C439.68 189.684 440.51 189.462 441.391 189.462C444.139 189.462 446.525 191.476 447.682 194.418Z" fill="#5F87C1"/>
<path d="M274.538 140.852L273.834 154.057C273.834 155.758 272.757 157.136 271.43 157.136H252.626C249.326 157.136 250.307 150.866 250.575 146.91L252.651 115.888C252.651 115.29 252.676 114.698 252.725 114.114C256.001 123.888 262.566 137.286 274.538 140.852Z" fill="#3F6098"/>
<path d="M341.646 126.66H306.588C305.109 126.66 303.899 125.112 303.899 123.22V99.5181C303.899 97.6264 305.109 96.0783 306.588 96.0783H341.646C343.125 96.0783 344.335 97.6264 344.335 99.5181V123.22C344.335 125.112 343.125 126.66 341.646 126.66Z" fill="#466AA5"/>
<path d="M297.567 126.66H281.858C280.833 126.66 279.995 125.586 279.995 124.274V98.4636C279.995 97.1516 280.833 96.0774 281.858 96.0774H297.567C298.592 96.0774 299.429 97.1516 299.429 98.4636V124.274C299.429 125.586 298.592 126.66 297.567 126.66Z" fill="#466AA5"/>
<path d="M387.031 126.66H351.971C350.491 126.66 349.283 125.112 349.283 123.22V99.5181C349.283 97.6264 350.491 96.0784 351.971 96.0784H387.031C388.508 96.0784 389.718 97.6264 389.718 99.5181V123.22C389.718 125.112 388.508 126.66 387.031 126.66Z" fill="#466AA5"/>
<path d="M431.8 126.66H396.739C395.26 126.66 394.05 125.112 394.05 123.22V99.5183C394.05 97.6261 395.26 96.0781 396.739 96.0781H431.8C433.277 96.0781 434.487 97.6261 434.487 99.5183V123.22C434.487 125.112 433.277 126.66 431.8 126.66Z" fill="#466AA5"/>
<path d="M452.664 121.646C452.972 123.328 453.249 124.988 453.492 126.667H441.565C440.079 126.667 438.869 125.119 438.869 123.217V99.5195C438.869 97.6175 440.079 96.0694 441.565 96.0694H444.763C444.85 96.2674 444.936 96.4673 445.02 96.6654C445.263 97.2196 445.505 97.7956 445.748 98.3475C447.373 102.264 448.755 106.201 449.913 110.141C449.982 110.384 450.054 110.627 450.121 110.871C450.242 111.27 450.346 111.668 450.45 112.065C450.657 112.796 450.848 113.526 451.038 114.256C451.212 114.964 451.382 115.694 451.555 116.402C451.572 116.491 451.607 116.601 451.624 116.689C451.763 117.287 451.884 117.862 452.023 118.459C452.248 119.522 452.473 120.583 452.664 121.646Z" fill="#466AA5"/>
<path d="M156.852 117.164C156.198 115.894 153.603 116.604 151.055 118.752C148.506 120.9 146.97 123.672 147.625 124.942C148.278 126.214 150.873 125.502 153.422 123.354C155.97 121.206 157.506 118.434 156.852 117.164Z" fill="#233862"/>
<path d="M143.539 164.378L144.042 164.418C144.038 164.404 144.239 153.172 145.008 148.628C146.442 140.16 150.191 133.532 150.231 133.476L149.331 133.106C149.286 133.168 148.575 134.578 147.569 137.178C146.642 139.574 145.15 143.566 144.491 148.214C143.841 152.804 143.52 164.318 143.539 164.378Z" fill="#233862"/>
<path d="M152.631 117.064C152.631 117.064 149.344 116.166 147.766 119.59C146.188 123.012 146.098 128.962 145.047 130.908C143.995 132.852 142.139 141.064 144.111 142.902C146.084 144.74 158.239 142.834 158.922 141.996C159.603 141.158 158.88 132.536 157.692 130.038C156.505 127.54 159.398 115.792 152.631 117.064Z" fill="#A53D38"/>
<path d="M158.225 158.604C155.906 149.12 158.52 143.494 158.269 138.75C158.081 135.196 158.619 135.106 158.136 134.13C157.645 133.138 154.942 132.52 154.694 132.49C154.502 132.36 154.456 131.254 154.458 130.164C154.461 128.858 154.539 127.472 154.539 127.472L151.095 126.598L150.891 126.546C150.9 129.612 150.27 131.624 149.813 132.096C149.386 132.152 147.548 132.416 146.417 132.96C145.991 133.164 145.666 133.408 145.553 133.694C144.608 136.082 143.664 142.106 143 146.404C142.63 148.8 142.348 150.66 142.202 151.054C141.791 152.152 140.536 158.2 139.466 161.186L140.647 161.244C140.647 161.244 145.347 153.056 145.758 150.818C145.888 150.11 146.202 148.712 146.57 147.136C147.384 149.998 147.803 151.202 147.783 152.316C147.756 153.76 146.991 155.058 145.394 159.646C144.509 162.182 160.592 168.29 158.225 158.604Z" fill="#FFB27D"/>
<path d="M149.428 203.676C149.655 204.828 149.905 205.928 150.159 206.95C150.214 207.168 150.267 207.384 150.322 207.594C150.348 207.7 150.377 207.804 150.403 207.906C150.456 208.108 150.509 208.306 150.561 208.5C150.63 208.754 150.698 209 150.767 209.238C150.816 209.416 150.866 209.59 150.916 209.758C151.67 212.35 152.302 213.99 152.302 213.99L153.805 213.858C153.805 213.858 153.241 210.422 153.128 205.498C153.123 205.322 153.12 205.146 153.117 204.966C153.113 204.584 153.108 204.196 153.108 203.798C153.108 203.636 153.109 203.47 153.109 203.304C153.141 199.064 153.55 194.054 154.859 189.27C155.923 185.38 156.694 181.74 157.252 178.452C159.053 167.836 158.63 160.86 158.63 160.86L150.172 162.128L149.778 162.186C149.742 167.158 149.642 173.91 149.555 179.188C149.539 180.104 149.525 180.976 149.511 181.786C149.453 185.176 149.409 187.492 149.409 187.492C147.783 191.974 148.373 198.3 149.428 203.676Z" fill="#FFB27D"/>
<path d="M154.539 127.472C154.539 127.472 154.461 128.858 154.458 130.164C152.531 130.094 151.513 127.846 151.095 126.598L154.539 127.472Z" fill="#EF9E67"/>
<path d="M159.792 154.482C159.792 154.482 159.391 161.638 159.525 162.492C159.658 163.346 159.481 166.394 158.567 166.956C157.653 167.516 155.848 152.782 159.792 154.482Z" fill="#FFB27D"/>
<path d="M155.181 128.708C155.181 128.708 150.623 128.804 150.62 125.17C150.617 121.536 150.027 119.1 152.937 118.886C155.847 118.67 156.414 120.056 156.645 121.27C156.877 122.482 156.367 128.59 155.181 128.708Z" fill="#FFB27D"/>
<path d="M155.014 118.796C155.014 118.796 153.766 123.06 151.85 123.69C149.934 124.322 149.103 123.664 149.103 123.664C149.103 123.664 150.573 122.17 150.878 119.562C150.878 119.562 154.072 116.768 155.014 118.796Z" fill="#A53D38"/>
<path d="M154.705 119.142C154.705 119.142 155.636 120.094 155.864 121.02C156.091 121.946 156.192 123.85 156.627 123.786C156.627 123.786 157.567 120.888 156.509 119.248C155.389 117.51 154.705 119.142 154.705 119.142Z" fill="#A53D38"/>
<path d="M158.202 134.246C158.202 134.246 161.663 153.122 160.594 154.724C159.525 156.326 156.784 156.582 156.384 156.24C155.983 155.898 158.202 134.246 158.202 134.246Z" fill="#FFA412"/>
<path d="M154.877 119.286C154.877 119.286 153.988 123.752 151.572 125.182C151.572 125.182 153.988 122.438 154.194 119.492C154.398 116.544 154.877 119.286 154.877 119.286Z" fill="#A53D38"/>
<path d="M144.577 202.744C145.064 209.386 147.205 213.682 147.205 213.682L147.936 214.534C147.936 214.534 148.602 209.67 149.083 204.102C149.541 198.808 150.169 193.208 150.88 191.498C151.942 188.944 152.725 183.72 153.288 178.202C154.219 169.068 154.55 159.126 154.55 159.126L145.973 158.582C145.111 160.436 144.736 163.482 144.647 166.942C144.553 170.582 144.777 174.682 145.088 178.346C145.52 183.476 146.125 187.752 146.264 188.712L146.266 188.718C146.284 188.844 146.255 188.97 146.209 189.084C144.503 193.408 144.256 198.354 144.577 202.744Z" fill="#FFB27D"/>
<path d="M157.466 201.358C150.08 204.91 138.967 200.796 138.967 200.796C138.967 200.796 139.377 197.858 139.977 193.588C141.488 182.872 144.206 163.774 144.684 161.748C145.353 158.92 147.783 152.316 147.783 152.316C148.92 152.802 150.1 153.056 151.223 153.164C154.469 153.476 157.253 152.584 157.253 152.584C157.253 152.584 157.705 154.524 158.673 158.58C159.641 162.638 157.466 201.358 157.466 201.358Z" fill="#BC3F3F"/>
<path d="M158.634 141.526C158.266 146.194 157.253 152.526 157.253 152.526C156.694 152.904 156.125 153.182 155.556 153.378C151.636 154.742 147.784 152.26 147.784 152.26C147.784 152.26 147.778 152.116 147.767 151.942C147.759 151.796 147.748 151.634 147.736 151.514C147.706 151.25 146.777 148.418 146.777 148.418C146.777 148.418 146.741 148.638 146.68 149.014C146.339 151.084 145.172 157.892 144.456 158.506C144.042 158.86 142.716 158.864 141.47 158.43C140.173 157.98 138.967 157.05 138.967 155.542C138.967 153.608 141.713 144.868 143.691 138.88L143.692 138.872C144.745 135.678 145.358 133.458 146.164 133.21C146.164 133.21 151.583 136.032 154.584 135.6C155.616 135.45 157.508 134.336 158.088 134.058C158.105 134.08 158.122 134.104 158.136 134.128C158.149 134.146 158.159 134.164 158.17 134.184C158.183 134.204 158.192 134.226 158.202 134.246C158.642 135.074 158.572 136.45 158.595 136.976C158.639 138.002 158.8 139.436 158.634 141.526Z" fill="#FFB93E"/>
<path d="M146.775 148.464C146.775 148.464 147.706 151.306 147.736 151.57C147.748 151.69 147.759 151.854 147.769 151.998C148.217 152.468 148.761 152.824 149.316 153.04C150.889 153.65 151.573 149.788 151.48 147.862C151.386 145.934 149.159 140.434 148.419 140.32C147.678 140.208 146.775 148.464 146.775 148.464Z" fill="#FFA412"/>
<path d="M146.68 149.06C146.741 148.684 146.775 148.464 146.775 148.464C146.727 148.666 146.695 148.866 146.68 149.06Z" fill="#E58638"/>
<path d="M153.178 153.814C156.052 153.814 157.191 152.782 157.278 152.696L157.464 150.964C157.438 150.99 153.581 153.954 147.616 151.116L147.742 152.428C150.036 153.52 151.686 153.814 153.178 153.814Z" fill="#A53232"/>
<path d="M138.967 155.608C138.967 157.122 140.173 158.054 141.47 158.506C139.684 155.784 143.591 139.318 143.691 138.898C141.713 144.904 138.967 153.67 138.967 155.608Z" fill="#FFA412"/>
<path d="M151.436 215.604H152.397C152.717 215.54 152.955 215.42 153.284 215.366C153.786 215.282 154.016 215.544 154.061 215.604L154.07 215.616H158.147C158.25 215.43 158.152 214.994 158.055 214.676C157.989 214.458 157.848 214.294 157.673 214.228C157.241 214.068 156.389 213.926 155.608 213.022C155.169 212.514 153.488 211.154 153.488 211.154L153.478 211.152C153.442 211.152 153.266 211.222 152.502 212.048C152.106 212.474 151.433 211.446 151.433 211.446C151.433 211.446 151.306 211.58 151.211 211.83C151.136 212.026 151.08 212.296 151.123 212.63C151.184 213.1 150.989 213.974 150.831 214.566C150.738 214.924 150.656 215.178 150.656 215.178C150.656 215.178 150.611 215.472 151.436 215.604Z" fill="#233862"/>
<path d="M151.211 211.83C151.441 212.036 151.923 212.442 152.245 212.496C152.678 212.57 153.488 211.154 153.488 211.154L153.478 211.152C153.442 211.152 153.266 211.222 152.502 212.048C152.106 212.474 151.433 211.446 151.433 211.446C151.433 211.446 151.306 211.58 151.211 211.83Z" fill="#466AA5"/>
<path d="M151.436 215.604H152.397C152.717 215.54 152.955 215.42 153.284 215.366C153.786 215.282 154.016 215.544 154.061 215.604L154.07 215.616H158.147C158.25 215.43 158.152 214.994 158.055 214.676C157.931 214.534 157.895 215.288 157.828 215.408C157.759 215.528 154.502 215.452 154.314 215.276C154.127 215.1 153.561 214.794 152.775 215.036C152.091 215.244 151.081 214.708 150.831 214.566C150.738 214.924 150.656 215.178 150.656 215.178C150.656 215.178 150.611 215.472 151.436 215.604Z" fill="#466AA5"/>
<path d="M146.316 215.604H147.275C147.597 215.54 147.834 215.42 148.164 215.366C148.664 215.282 148.895 215.544 148.941 215.604L148.95 215.616H153.027C153.128 215.43 153.03 214.994 152.934 214.676C152.869 214.458 152.727 214.294 152.552 214.228C152.12 214.068 151.267 213.926 150.488 213.022C150.048 212.514 148.367 211.154 148.367 211.154L148.358 211.152C148.32 211.152 148.145 211.222 147.381 212.048C146.984 212.474 146.311 211.446 146.311 211.446C146.311 211.446 146.184 211.58 146.091 211.83C146.014 212.026 145.959 212.296 146.003 212.63C146.064 213.1 145.867 213.974 145.711 214.566C145.616 214.924 145.536 215.178 145.536 215.178C145.536 215.178 145.491 215.472 146.316 215.604Z" fill="#233862"/>
<path d="M146.091 211.83C146.32 212.036 146.803 212.442 147.123 212.496C147.556 212.57 148.367 211.154 148.367 211.154L148.358 211.152C148.32 211.152 148.145 211.222 147.381 212.048C146.984 212.474 146.311 211.446 146.311 211.446C146.311 211.446 146.184 211.58 146.091 211.83Z" fill="#466AA5"/>
<path d="M146.316 215.604H147.275C147.597 215.54 147.834 215.42 148.164 215.366C148.664 215.282 148.895 215.544 148.941 215.604L148.95 215.616H153.027C153.128 215.43 153.03 214.994 152.934 214.676C152.809 214.534 152.775 215.288 152.706 215.408C152.638 215.528 149.381 215.452 149.194 215.276C149.005 215.1 148.441 214.794 147.655 215.036C146.969 215.244 145.961 214.708 145.711 214.566C145.616 214.924 145.536 215.178 145.536 215.178C145.536 215.178 145.491 215.472 146.316 215.604Z" fill="#466AA5"/>
<path d="M139.977 193.588C141.488 182.872 144.206 163.774 144.684 161.748C145.353 158.92 147.783 152.316 147.783 152.316C148.92 152.802 150.1 153.056 151.223 153.164C151.353 155.474 152.303 178.572 139.977 193.588Z" fill="#A53232"/>
<path d="M151.488 164.43L150.986 164.382C150.992 164.368 151.969 153.108 151.681 148.434C151.147 139.724 148.127 132.452 148.092 132.388L149.023 132.176C149.061 132.244 149.617 133.776 150.342 136.548C151.011 139.104 152.072 143.35 152.238 148.11C152.402 152.81 151.513 164.374 151.488 164.43Z" fill="#233862"/>
<path d="M145.398 161.958C145.398 161.958 145.886 160.42 146.663 160.036L150.627 160.992C150.627 160.992 149.648 162.184 149.556 162.962L145.398 161.958Z" fill="#D2E4FF"/>
<path d="M150.375 170.64L143.6 169.006C143.281 168.93 143.072 168.536 143.131 168.13L143.978 162.38C144.038 161.972 144.345 161.704 144.663 161.782L151.438 163.416C151.756 163.492 151.966 163.886 151.906 164.292L151.059 170.042C151 170.45 150.692 170.718 150.375 170.64Z" fill="#233862"/>
<path d="M147.9 164.118L144.659 164.082L144.697 158.766L147.936 158.802L147.9 164.118Z" fill="#E58638"/>
<path d="M147.714 164.116L144.475 164.08L144.511 158.764L147.75 158.8L147.714 164.116Z" fill="#EE9849"/>
<path d="M147.197 166.198L144.625 163.678L147.148 159.456L149.722 161.976L147.197 166.198Z" fill="#578E9B"/>
<path d="M146.909 165.916L144.336 163.396L146.861 159.174L149.434 161.696L146.909 165.916Z" fill="#74ACBE"/>
<path d="M148.719 170.242L142.233 168.676C141.834 168.58 141.573 168.09 141.648 167.58L142.441 162.2C142.516 161.69 142.898 161.356 143.297 161.452L149.783 163.016C150.181 163.112 150.442 163.604 150.367 164.112L149.575 169.492C149.5 170.002 149.117 170.338 148.719 170.242Z" fill="#2B478B"/>
<path d="M147.186 121.788C147.186 121.788 145.113 116.504 148.009 114.416C150.908 112.328 153.03 113.148 154.623 115.702L147.186 121.788Z" fill="#233862"/>
<path d="M158.861 115.122C158.264 113.898 156.177 114.096 153.659 115.416C152.673 115.93 151.625 116.618 150.573 117.458C149.264 118.504 148.123 119.646 147.23 120.766C145.561 122.854 144.748 124.852 145.288 125.96C145.453 126.298 145.702 126.518 146.073 126.644C146.442 125.626 147.502 124.672 147.802 123.88C148.227 122.758 149.298 120.726 151.263 119.158C152.77 117.954 154.27 117.246 155.303 117.16C155.903 117.112 156.347 117.272 156.541 117.672C156.692 117.984 156.677 118.406 156.52 118.894C156.667 119.21 156.834 119.656 156.972 120.25C158.605 118.186 159.395 116.218 158.861 115.122Z" fill="#2B478B"/>
<path d="M139.466 161.186C139.466 161.186 138.341 162.656 138.163 162.828C137.985 162.998 137.779 164.518 137.941 164.68C138.264 165.002 138.499 164.258 139.01 163.888C139.52 163.516 139.811 162.998 139.811 163.168C139.811 163.34 139.164 163.996 139.243 164.138C139.323 164.28 140.202 163.496 140.402 163.326C140.602 163.154 140.647 161.244 140.647 161.244L139.466 161.186Z" fill="#FFB27D"/>
<path d="M129.084 125.316L129.355 125.29L129.685 123.928C130.956 119.896 129.82 118.426 129.032 117.746C128.042 116.89 126.988 116.758 126.988 116.758C126.402 116.65 125.898 116.682 125.465 116.814H125.46C120.716 115.562 120.263 126.756 120.968 127.438C121.674 128.12 123.383 128.042 123.383 128.042C123.289 127.924 123.187 127.66 123.187 127.66C123.704 128.202 125.233 128.01 125.233 128.01C124.637 127.194 124.447 126.414 124.461 125.732L125.699 125.62C126.013 126.65 126.5 127.66 126.945 128.09C127.763 128.882 129.402 128.682 129.402 128.682C129.326 128.578 129.267 128.246 129.267 128.246C129.326 128.458 129.623 128.602 129.623 128.602C129.827 128.602 130.249 128.336 130.249 128.336C130.249 128.336 129.286 128.332 129.084 125.316Z" fill="#233862"/>
<path d="M131.08 154.164C134.801 152.952 138.891 145.564 138.891 145.564L137.843 144.4C136.759 146.038 132.249 148.856 132.249 148.856C132.273 147.358 132.242 145.992 132.168 144.748C131.668 136.296 129.179 133.48 128.499 132.862C128.39 132.762 128.327 132.72 128.327 132.72C128.327 132.72 128.324 132.782 128.32 132.898C128.31 133.15 128.292 133.656 128.274 134.35C128.136 139.522 127.971 155.178 131.08 154.164Z" fill="#FFB27D"/>
<path d="M137.843 144.4C137.859 144.2 137.964 141.296 138.414 140.744C138.865 140.192 139.755 139.438 140.011 139.5C140.266 139.56 141.134 141.408 140.725 142.682C140.314 143.956 138.891 145.564 138.891 145.564L137.843 144.4Z" fill="#FFB27D"/>
<path d="M136.919 144.738L139.369 144.868C139.45 144.874 139.519 144.792 139.522 144.688L139.719 138.708C139.722 138.604 139.658 138.516 139.577 138.512L137.126 138.38C137.045 138.376 136.976 138.456 136.973 138.56L136.778 144.542C136.774 144.646 136.837 144.734 136.919 144.738Z" fill="#F1A34F"/>
<path d="M137.555 144.772L139.778 144.89C139.922 144.898 140.044 144.756 140.05 144.57L140.236 138.882C140.242 138.696 140.13 138.54 139.986 138.534L137.763 138.414C137.619 138.406 137.497 138.55 137.491 138.734L137.305 144.424C137.299 144.608 137.411 144.764 137.555 144.772Z" fill="#D86713"/>
<path d="M140.197 139.722C140.197 139.722 139.528 138.766 138.86 139.496C138.192 140.226 138.905 141.784 139.484 142.21C140.064 142.636 140.25 142.858 140.25 142.858L140.197 139.722Z" fill="#FFB27D"/>
<path d="M122.978 203.302C123.205 204.456 123.454 205.554 123.708 206.578C123.763 206.796 123.816 207.012 123.871 207.222C123.898 207.328 123.925 207.432 123.952 207.534C124.005 207.736 124.058 207.934 124.111 208.128C124.179 208.382 124.248 208.628 124.316 208.866C124.366 209.044 124.416 209.216 124.465 209.386C125.219 211.976 125.851 213.618 125.851 213.618L127.355 213.486C127.355 213.486 126.79 210.05 126.677 205.126C126.673 204.95 126.67 204.774 126.667 204.594C126.661 204.212 126.657 203.824 126.657 203.426C126.657 203.264 126.658 203.098 126.659 202.932C126.689 198.692 127.1 193.682 128.408 188.896C129.472 185.008 130.244 181.368 130.802 178.08C132.602 167.464 132.179 160.488 132.179 160.488L123.721 161.756L123.327 161.814C123.291 166.786 123.192 173.538 123.104 178.816C123.089 179.732 123.075 180.604 123.061 181.414C123.003 184.802 122.958 187.12 122.958 187.12C121.332 191.602 121.923 197.928 122.978 203.302Z" fill="#CB7D45"/>
<path d="M118.942 159.274C120.541 154.686 121.305 153.388 121.332 151.944C121.353 150.802 120.913 149.57 120.059 146.55C119.858 145.838 119.719 145.106 119.634 144.366C118.958 138.544 121.589 132.25 123.224 131.82C123.679 131.666 124.45 129.564 124.44 126.174L124.645 126.226L128.088 127.098C128.088 127.098 128.01 128.486 128.007 129.792C128.005 130.88 128.051 131.988 128.244 132.118C128.492 132.148 128.717 132.206 128.717 132.206C128.717 132.206 131.63 134.824 131.819 138.376C132.07 143.122 129.456 148.746 131.774 158.232C134.141 167.918 118.059 161.81 118.942 159.274Z" fill="#FFB27D"/>
<path d="M128.088 127.098C128.088 127.098 128.01 128.486 128.007 129.792C126.081 129.722 125.062 127.474 124.645 126.226L128.088 127.098Z" fill="#EF9E67"/>
<path d="M128.731 128.336C128.731 128.336 124.173 128.432 124.17 124.798C124.167 121.164 123.576 118.728 126.487 118.514C129.397 118.298 129.963 119.684 130.195 120.896C130.427 122.11 129.917 128.218 128.731 128.336Z" fill="#FFB27D"/>
<path d="M128.563 118.424C128.563 118.424 127.315 122.688 125.399 123.318C123.484 123.948 122.653 123.292 122.653 123.292C122.653 123.292 124.122 121.798 124.427 119.19C124.427 119.19 127.621 116.394 128.563 118.424Z" fill="#233862"/>
<path d="M128.253 118.77C128.253 118.77 129.185 119.722 129.413 120.648C129.64 121.574 129.742 123.478 130.176 123.414C130.176 123.414 131.116 120.516 130.059 118.876C128.939 117.138 128.253 118.77 128.253 118.77Z" fill="#233862"/>
<path d="M113.014 164.148L114.383 164.672C114.383 164.672 118.897 155.086 119.307 152.592C119.441 151.78 119.769 150.154 120.152 148.334C120.945 144.562 121.968 139.948 121.968 139.948L122.305 138.08L123.454 131.712C123.454 131.712 121.254 132 119.967 132.688C119.54 132.916 119.215 133.188 119.102 133.506C118.156 136.166 117.213 142.882 116.549 147.672C116.18 150.342 115.897 152.416 115.75 152.854C115.34 154.08 114.086 160.82 113.014 164.148Z" fill="#FFB27D"/>
<path d="M128.426 118.914C128.426 118.914 127.537 123.38 125.121 124.81C125.121 124.81 127.537 122.066 127.742 119.118C127.948 116.172 128.426 118.914 128.426 118.914Z" fill="#233862"/>
<path d="M118.126 202.37C118.613 209.014 120.754 213.31 120.754 213.31L121.485 214.162C121.485 214.162 122.151 209.298 122.632 203.73C123.09 198.436 123.718 192.836 124.429 191.126C125.491 188.572 126.274 183.348 126.837 177.83C127.768 168.696 128.099 158.754 128.099 158.754L119.523 158.208C118.661 160.064 118.285 163.108 118.196 166.57C118.102 170.208 118.326 174.31 118.636 177.974C119.07 183.104 119.674 187.38 119.814 188.34L119.815 188.346C119.834 188.472 119.805 188.598 119.759 188.712C118.052 193.036 117.805 197.982 118.126 202.37Z" fill="#D9935C"/>
<path d="M128.133 144.02C128.326 150.05 129.031 156.02 131.082 155.636C133.596 155.166 134.25 152.164 134.384 149.932C134.467 148.542 134.347 147.45 134.347 147.45C134.347 147.45 133.11 147.444 132.91 147.208C131.96 146.084 132.242 135.066 131.772 133.922C131.301 132.778 128.249 132.042 128.249 132.042C128.249 132.042 127.942 138.062 128.133 144.02Z" fill="#ED7D2B"/>
<path d="M128.133 144.02C128.326 150.05 129.031 156.02 131.082 155.636C133.596 155.166 134.25 152.164 134.384 149.932C133.767 149.892 132.68 149.698 132.248 148.856C131.63 147.65 129.702 139.882 129.702 139.882C129.702 139.882 128.944 141.626 128.133 144.02Z" fill="#ED7D2B"/>
<path d="M122.978 203.302C123.205 204.456 123.454 205.554 123.708 206.578C123.763 206.796 123.816 207.012 123.871 207.222C123.898 207.328 123.925 207.432 123.952 207.534C124.005 207.736 124.058 207.934 124.111 208.128C124.179 208.382 124.248 208.628 124.316 208.866C124.366 209.044 124.416 209.216 124.465 209.386C125.219 211.976 125.851 213.618 125.851 213.618L127.355 213.486C127.355 213.486 126.79 210.05 126.677 205.126C126.673 204.95 126.67 204.774 126.667 204.594C126.661 204.212 126.657 203.824 126.657 203.426C126.657 203.264 126.658 203.098 126.659 202.932C126.689 198.692 127.1 193.682 128.408 188.896C129.472 185.008 130.244 181.368 130.802 178.08C129.908 178.316 129.121 178.074 126.837 177.83C126.597 177.804 125.449 179.622 124.316 182.03C124.258 185.418 122.958 187.12 122.958 187.12C121.332 191.602 121.923 197.928 122.978 203.302Z" fill="#233862"/>
<path d="M118.126 202.37C118.613 209.014 120.754 213.31 120.754 213.31L121.485 214.162C121.485 214.162 122.151 209.298 122.632 203.73C123.09 198.436 123.718 192.836 124.429 191.126C125.491 188.572 126.274 183.348 126.837 177.83C126.048 178.25 123.362 179.342 118.636 177.974C119.07 183.104 119.674 187.38 119.814 188.34L119.815 188.346C119.834 188.472 119.805 188.598 119.759 188.712C118.052 193.036 117.805 197.982 118.126 202.37Z" fill="#2B478B"/>
<path d="M116.484 170.048C116.484 170.048 118.278 170.758 120.921 171.226C124.193 171.804 128.768 172.012 132.854 170.048C132.854 170.048 133.19 162.266 132.222 158.21C131.254 154.152 130.802 152.212 130.802 152.212C130.802 152.212 126.923 153.456 122.984 152.49C122.431 152.356 121.877 152.176 121.332 151.944C121.332 151.944 118.902 158.548 118.234 161.376C117.566 164.206 116.484 170.048 116.484 170.048Z" fill="#2B478B"/>
<path d="M116.484 170.048C116.484 170.048 118.278 170.758 120.921 171.226C125.768 167.708 123.404 152.904 123.404 152.904C123.26 152.756 123.12 152.618 122.984 152.49C122.431 152.356 121.877 152.176 121.332 151.944C121.332 151.944 118.902 158.548 118.234 161.376C117.566 164.206 116.484 170.048 116.484 170.048Z" fill="#233862"/>
<path d="M112.516 155.236C112.516 156.75 113.723 157.682 115.019 158.134C116.265 158.57 117.591 158.564 118.006 158.208C118.722 157.594 119.888 150.766 120.229 148.688C120.29 148.312 120.325 148.092 120.325 148.092C120.325 148.092 121.255 150.934 121.285 151.198C121.298 151.318 121.309 151.48 121.318 151.626C121.327 151.8 121.333 151.944 121.333 151.944C121.333 151.944 126.382 155.206 130.802 152.21C130.802 152.21 132.599 138.918 131.819 136.63C131.431 135.494 129.409 133.148 128.6 132.136C128.419 131.908 128.436 131.458 128.507 131.046C128.565 130.698 128.321 130.392 128.052 130.482C127.531 130.656 126.595 130.626 125.593 130.204C125.093 129.996 124.577 129.69 124.089 129.264C123.947 129.14 123.754 129.254 123.733 129.472C123.656 130.264 123.469 131.712 123.128 131.712C122.657 131.708 119.447 132.212 119.212 132.72C119.13 132.898 118.296 135.314 117.242 138.516L117.24 138.524C115.263 144.532 112.516 153.298 112.516 155.236Z" fill="#F99746"/>
<path d="M120.325 148.092C120.325 148.092 121.255 150.934 121.285 151.198C121.298 151.318 121.309 151.48 121.318 151.626C121.767 152.096 122.311 152.452 122.865 152.666C124.439 153.278 125.123 149.416 125.029 147.488C124.935 145.562 122.709 140.062 121.968 139.948C121.227 139.834 120.325 148.092 120.325 148.092Z" fill="#ED7D2B"/>
<path d="M120.229 148.688C120.29 148.312 120.325 148.092 120.325 148.092C120.276 148.294 120.244 148.494 120.229 148.688Z" fill="#E58638"/>
<path d="M126.683 153.676C129.556 153.676 130.74 152.41 130.828 152.324L131.014 150.592C130.986 150.618 127.131 153.582 121.165 150.744L121.291 152.056C123.586 153.146 125.191 153.676 126.683 153.676Z" fill="#B64C41"/>
<path d="M112.516 155.236C112.516 156.75 113.723 157.682 115.019 158.134C113.233 155.412 117.14 138.946 117.24 138.524C115.263 144.532 112.516 153.298 112.516 155.236Z" fill="#ED7D2B"/>
<path d="M123.128 131.712C123.128 131.712 125.531 133.66 127.35 133.198C127.35 133.198 127.786 132.846 127.184 132.49C126.619 132.158 125.304 131.174 125.592 130.204C125.093 129.996 124.577 129.69 124.089 129.264C123.947 129.14 123.754 129.254 123.732 129.472C123.656 130.264 123.469 131.712 123.128 131.712Z" fill="#ED7D2B"/>
<path d="M124.986 215.232H125.946C126.267 215.168 126.504 215.048 126.834 214.992C127.335 214.908 127.565 215.172 127.611 215.232L127.62 215.244H131.696C131.799 215.056 131.7 214.622 131.604 214.304C131.539 214.086 131.397 213.922 131.222 213.856C130.79 213.696 129.938 213.554 129.157 212.65C128.718 212.142 127.037 210.782 127.037 210.782L127.028 210.78C126.991 210.78 126.816 210.85 126.051 211.676C125.656 212.102 124.982 211.074 124.982 211.074C124.982 211.074 124.855 211.208 124.761 211.456C124.685 211.654 124.629 211.924 124.673 212.258C124.734 212.728 124.538 213.602 124.381 214.192C124.286 214.55 124.206 214.804 124.206 214.804C124.206 214.804 124.16 215.1 124.986 215.232Z" fill="#233862"/>
<path d="M124.761 211.456C124.99 211.664 125.473 212.07 125.794 212.124C126.227 212.196 127.037 210.782 127.037 210.782L127.028 210.78C126.991 210.78 126.815 210.85 126.051 211.676C125.655 212.102 124.982 211.074 124.982 211.074C124.982 211.074 124.855 211.208 124.761 211.456Z" fill="#466AA5"/>
<path d="M124.986 215.232H125.946C126.267 215.168 126.504 215.048 126.834 214.992C127.335 214.908 127.565 215.172 127.611 215.232L127.62 215.244H131.696C131.799 215.056 131.7 214.622 131.604 214.304C131.48 214.162 131.445 214.916 131.377 215.034C131.308 215.156 128.051 215.078 127.863 214.904C127.675 214.728 127.111 214.422 126.324 214.662C125.64 214.872 124.631 214.336 124.381 214.192C124.286 214.55 124.206 214.804 124.206 214.804C124.206 214.804 124.16 215.1 124.986 215.232Z" fill="#466AA5"/>
<path d="M119.865 215.232H120.825C121.146 215.168 121.383 215.048 121.713 214.992C122.214 214.908 122.444 215.172 122.49 215.232L122.499 215.244H126.575C126.678 215.056 126.579 214.622 126.483 214.304C126.418 214.086 126.276 213.922 126.101 213.856C125.669 213.696 124.817 213.554 124.036 212.65C123.597 212.142 121.916 210.782 121.916 210.782L121.907 210.78C121.87 210.78 121.695 210.85 120.93 211.676C120.535 212.102 119.861 211.074 119.861 211.074C119.861 211.074 119.734 211.208 119.64 211.456C119.564 211.654 119.509 211.924 119.552 212.258C119.613 212.728 119.417 213.602 119.26 214.192C119.165 214.55 119.085 214.804 119.085 214.804C119.085 214.804 119.039 215.1 119.865 215.232Z" fill="#233862"/>
<path d="M119.64 211.456C119.869 211.664 120.353 212.07 120.673 212.124C121.106 212.196 121.916 210.782 121.916 210.782L121.907 210.78C121.87 210.78 121.695 210.85 120.93 211.676C120.535 212.102 119.861 211.074 119.861 211.074C119.861 211.074 119.734 211.208 119.64 211.456Z" fill="#466AA5"/>
<path d="M119.865 215.232H120.825C121.146 215.168 121.383 215.048 121.713 214.992C122.214 214.908 122.444 215.172 122.49 215.232L122.499 215.244H126.575C126.678 215.056 126.579 214.622 126.483 214.304C126.359 214.162 126.324 214.916 126.256 215.034C126.188 215.156 122.93 215.078 122.742 214.904C122.554 214.728 121.99 214.422 121.203 214.662C120.519 214.872 119.51 214.336 119.26 214.192C119.165 214.55 119.085 214.804 119.085 214.804C119.085 214.804 119.039 215.1 119.865 215.232Z" fill="#466AA5"/>
<path d="M109.624 171.612C109.718 171.002 110.053 170.506 110.509 170.29C111.248 169.938 112.457 169.622 113.944 170.182C116.455 171.126 116.7 173.102 116.534 174.522C116.368 175.942 116.86 178.206 116.788 179.818C116.716 181.428 116.355 185.476 114.497 185.262C112.638 185.05 106.647 182.988 106.647 182.988C106.647 182.988 105.612 180.468 107.738 176.816C108.999 174.648 109.458 172.676 109.624 171.612Z" fill="#233862"/>
<path d="M110.774 169.75L111.271 169.808C111.271 169.806 111.328 169.368 111.557 169.09C111.732 168.878 111.975 168.802 112.277 168.864C112.563 168.924 112.769 169.092 112.874 169.362C113.021 169.744 112.939 170.234 112.938 170.24L113.423 170.382C113.429 170.35 113.569 169.552 113.315 168.882C113.141 168.418 112.829 168.152 112.397 168.048C111.951 167.958 111.575 168.096 111.277 168.462C110.867 168.968 110.778 169.718 110.774 169.75Z" fill="#233862"/>
<path d="M105.415 182.63C105.415 182.63 111.407 184.696 113.267 184.904C115.126 185.12 115.488 181.074 115.556 179.456C115.629 177.85 115.139 175.584 115.302 174.162C115.336 173.892 115.355 173.594 115.34 173.294C115.292 172.026 114.738 170.586 112.716 169.826C111.225 169.264 110.019 169.586 109.277 169.936C108.824 170.152 108.485 170.646 108.391 171.254C108.369 171.378 108.349 171.53 108.323 171.678C108.11 172.808 107.616 174.564 106.505 176.46C104.378 180.11 105.415 182.63 105.415 182.63Z" fill="#2B478B"/>
<path d="M114.651 179.796C114.651 179.796 113.818 180.824 112.692 180.462C111.566 180.1 111.04 178.75 111.04 178.75L114.651 179.796Z" fill="#233862"/>
<path d="M110.307 178.538C110.307 178.538 109.473 179.566 108.348 179.204C107.222 178.842 106.695 177.492 106.695 177.492L110.307 178.538Z" fill="#233862"/>
<path d="M108.391 171.254C108.369 171.378 108.349 171.53 108.323 171.678C108.8 172.94 109.705 174.55 111.237 174.924C113.842 175.574 115.34 173.294 115.34 173.294C115.292 172.026 114.738 170.586 112.716 169.826C111.225 169.264 110.019 169.586 109.277 169.936C108.824 170.152 108.485 170.646 108.391 171.254Z" fill="#233862"/>
<path d="M111.2 175.624C111.363 175.67 111.527 175.538 111.564 175.33L111.625 174.984C111.662 174.776 111.559 174.566 111.396 174.52C111.233 174.472 111.069 174.604 111.032 174.814L110.971 175.158C110.934 175.366 111.037 175.576 111.2 175.624Z" fill="#D86713"/>
<path d="M113.111 163.856C113.111 163.856 112.695 165.11 112.262 165.46C111.829 165.81 111.417 166.652 111.327 167.328C111.162 168.572 111.906 169.342 112.453 169.342C113.001 169.342 113.524 168.388 113.845 166.106C113.863 165.982 114.382 164.672 114.382 164.672L113.111 163.856Z" fill="#FFB27D"/>
<path d="M194.338 215.792L194.678 169.156C194.678 169.156 194.972 165.798 197.261 165.798C199.703 165.798 199.844 169.156 199.844 169.156C199.844 169.156 199.809 169.448 199.558 169.448C199.295 169.448 199.253 169.156 199.253 169.156C199.253 169.156 199.144 166.568 197.261 166.568C195.497 166.568 195.27 169.156 195.27 169.156V215.792H194.338Z" fill="#233862"/>
<path d="M195.584 215.792H194.064L194.2 213.76C194.2 213.76 194.188 213.478 194.494 213.462C194.78 213.446 195.342 213.394 195.395 213.616C195.442 213.808 195.584 215.792 195.584 215.792Z" fill="#233862"/>
<path d="M197.28 163.326L197.384 163.994C197.384 163.994 199.959 163.982 200.563 167.514C200.563 167.514 200.725 168.984 199.897 168.67C199.069 168.358 199.198 167.606 198.025 167.196C196.853 166.784 196.089 166.47 195.911 165.378L195.719 164.162L197.28 163.326Z" fill="#FFB27D"/>
<path d="M188.172 134.41C188.172 134.41 188.853 137.842 189.441 140.98C189.677 142.244 189.898 143.46 190.055 144.384C190.214 145.334 190.303 145.976 190.269 146.048C189.758 147.11 190.692 153.584 191.43 155.934C191.495 156.142 191.584 156.388 191.692 156.658C192.725 159.25 195.475 164.334 195.475 164.334C195.475 164.334 196.25 164.438 196.758 164.194C197.18 163.988 197.469 163.326 197.469 163.326C197.223 162.82 196.228 156.836 194.948 153.482C194.402 152.046 193.595 138.732 192.534 136.94C191.65 135.444 188.172 134.41 188.172 134.41Z" fill="#F99746"/>
<path d="M190.269 146.048C189.758 147.11 190.692 153.584 191.43 155.934C191.495 156.142 191.584 156.388 191.692 156.658C192.68 151.07 191.044 143.156 191.044 143.156C190.636 143.362 190.309 143.794 190.055 144.384C190.214 145.334 190.303 145.976 190.269 146.048Z" fill="#ED7D2B"/>
<path d="M183.119 210.656C183.119 210.656 182.856 215.712 183.603 215.784C183.702 215.792 187.388 215.792 187.388 215.792H192.139C192.139 215.792 192.059 214.308 190.684 214C189.309 213.694 187.008 212.458 186.175 210.132C185.3 207.684 183.119 210.656 183.119 210.656Z" fill="#0F2949"/>
<path d="M175.97 210.656C175.97 210.656 175.708 215.712 176.455 215.784C176.553 215.792 180.238 215.792 180.238 215.792H184.991C184.991 215.792 184.911 214.308 183.536 214C182.161 213.694 179.859 212.458 179.027 210.132C178.152 207.684 175.97 210.656 175.97 210.656Z" fill="#163560"/>
<path d="M182.894 198.468C182.777 200.606 182.539 203.356 182.624 205.834C182.742 209.3 182.828 212.222 182.828 212.222C184.614 213 187.889 212.056 187.889 212.056C187.889 212.056 189.05 203.298 190.008 196.306C190.438 193.174 190.794 190.464 190.927 189.184C191.356 185.048 190.469 163.056 190.469 163.056C190.469 163.056 185.638 159.092 183.642 161.136C181.647 163.178 180.419 165.174 183.634 187.554C183.878 189.25 183.156 193.678 182.894 198.468Z" fill="#2B478B"/>
<path d="M182.894 198.468C182.777 200.606 182.563 204.028 182.647 206.506C184.327 204.232 187.636 199.432 190.008 196.306C190.438 193.174 190.794 190.464 190.927 189.184C191.356 185.048 190.469 163.056 190.469 163.056C190.469 163.056 185.638 159.092 183.642 161.136C181.647 163.178 180.419 165.174 183.634 187.554C183.878 189.25 183.156 193.678 182.894 198.468Z" fill="#233862"/>
<path d="M186.103 163.502C186.103 163.502 185.669 185.518 184.991 189.6C184.314 193.682 180.775 212.368 180.775 212.368C180.775 212.368 177.459 212.754 175.727 211.804C175.727 211.804 175.838 203.15 176.425 198.066C176.975 193.316 177.959 188.972 177.819 187.256C175.956 164.628 177.3 162.758 179.413 160.918C181.525 159.076 186.103 163.502 186.103 163.502Z" fill="#2B478B"/>
<path d="M179.547 165.43C179.547 165.43 180.697 168.382 178.488 170.636C178.488 170.636 177.53 171.474 177.383 170.386C177.236 169.296 177.406 169.676 177.175 168.148C176.944 166.62 177.239 165.04 177.927 164.352L179.547 165.43Z" fill="#FFB27D"/>
<path d="M189.233 129.422C189.233 129.422 187.906 132.002 188.17 134.41L186.208 140.462L182.667 133.534C182.667 133.534 184.538 130.928 185.236 127.376L189.233 129.422Z" fill="#FFB27D"/>
<path d="M189.814 131.624C189.814 131.624 184.984 131.892 184.897 128.18C184.809 124.47 183.505 122.002 187.116 121.676C190.086 121.406 191.073 122.992 191.339 124.222C191.603 125.452 191.605 131.426 189.814 131.624Z" fill="#FFB27D"/>
<path d="M177.991 164.564C179.028 164.686 180.458 164.84 182.191 164.98C182.538 165.008 182.895 165.034 183.264 165.062C188.497 165.436 190.578 164.352 190.578 164.352C190.578 164.352 190.716 164.208 190.672 163.422C190.445 159.37 189.773 158.174 189.855 157.404C190.036 155.674 193.316 141.556 193.316 141.556C193.316 141.556 193.378 137.096 189.503 135.002C189.105 134.786 188.664 134.596 188.177 134.438C188.006 135.016 187.542 135.98 186.352 135.802C184.592 135.54 183.341 134.212 182.803 133.53C182.706 133.53 182.667 133.534 182.667 133.534C182.536 134.008 182.434 134.504 182.342 135.006C182.025 136.76 181.839 138.604 180.998 139.982C180.169 141.344 179.459 142.686 178.853 144C178.35 145.092 177.917 146.164 177.547 147.21C174.117 156.914 176.77 164.416 177.991 164.564Z" fill="#F99746"/>
<path d="M177.991 164.564C179.028 164.686 180.458 164.84 182.191 164.98C182.695 154.076 179.225 143.606 179.225 143.606C179.095 143.722 178.97 143.854 178.853 144C178.248 144.75 177.828 145.866 177.547 147.21C176.514 152.154 177.378 160.184 177.991 164.564Z" fill="#ED7D2B"/>
<path d="M191.37 128.084C191.37 128.084 192.311 132.858 190.716 133.532C189.12 134.204 184.884 133.664 184.886 127.812C184.886 127.812 187.109 129.508 188.17 129.466C189.233 129.422 189.917 128.638 190.898 129.25C190.898 129.25 191.258 129.22 191.37 128.084Z" fill="#2B478B"/>
<path d="M182.667 133.534C182.667 133.534 179.292 133.632 177.508 136.602C176.142 138.878 174.697 151.092 174.697 152.93C174.697 154.77 176.236 164.918 177.097 166.02C177.097 166.02 177.655 166.204 178.398 166.02C179.189 165.826 179.653 165.24 179.653 165.24C179.653 165.24 179.225 153.942 179.225 152.882C179.225 151.348 182.973 141.956 182.973 141.956C182.973 141.956 184.917 137.484 182.667 133.534Z" fill="#F99746"/>
<path d="M185.123 122.83C185.205 122.45 185.57 122.252 185.57 122.252C188.291 120.734 190.277 122.394 190.277 122.394C188.609 119.53 184.586 120.132 183.739 122.714C182.355 126.934 184.886 127.812 184.886 127.812C184.886 127.812 187.414 126.452 185.95 124.748C185.466 124.184 185.231 123.682 185.153 123.244C185.127 123.098 185.119 122.96 185.123 122.83Z" fill="#2B478B"/>
<path d="M79.0124 204.032L78.4227 207.206L77.6399 211.418H75.1941L75.0486 207.384L74.936 204.272L79.0124 204.032Z" fill="#FFB27D"/>
<path d="M86.7627 134.904C86.7627 134.904 88.6977 132.252 89.956 134.33C91.2142 136.41 92.6088 137.812 94.5396 139.41C96.4703 141.008 92.8333 153.538 90.4147 153.28C87.9961 153.024 78.1274 143.146 86.7627 134.904Z" fill="#ED7D2B"/>
<path d="M77.1266 133.642C77.6096 133.18 82.0574 131.226 86.3938 133.148C90.7303 135.07 83.035 140.426 83.035 140.426L80.541 140.562L77.1266 133.642Z" fill="#A53232"/>
<path d="M79.9577 130.022C79.9577 130.022 79.8714 133.436 79.5302 134.964L76.8292 142.416L86.9964 139.324L84.5717 135.036C84.5717 135.036 83.8397 130.46 84.2236 128.766C84.6075 127.074 79.9577 130.022 79.9577 130.022Z" fill="#FFB27D"/>
<path d="M79.943 130.494C79.943 130.492 80.7469 132.972 82.2613 132.916C83.7757 132.862 84.1203 130.67 84.1203 130.67L79.943 130.494Z" fill="#ED985F"/>
<path d="M79.0389 128.488C79.0389 128.488 78.5498 125.364 78.2086 124.416C77.8673 123.47 77.583 119.248 81.3655 119.03C81.3655 119.03 82.8158 119.248 83.612 118.628C83.612 118.628 83.612 119.248 83.4131 119.466C83.4131 119.466 84.7212 119.066 85.745 120.522C86.7689 121.978 85.0626 127.074 85.148 128.276L79.0389 128.488Z" fill="#2C3A64"/>
<path d="M82.0877 131.96C80.9903 131.934 78.9706 130.064 78.9706 127.748V124.134C78.9706 123.288 79.4314 122.596 79.9945 122.596H84.181C84.7441 122.596 85.2047 123.288 85.2047 124.134V127.544C85.2047 129.972 83.3461 131.988 82.0877 131.96Z" fill="#FFB27D"/>
<path d="M78.9706 126.064C78.9706 126.064 78.9764 123.892 80.3203 123.558C81.6639 123.224 84.6714 124.616 85.0981 123.034C85.5247 121.45 79.2849 121.478 78.9706 122.488C78.6566 123.498 78.9706 126.064 78.9706 126.064Z" fill="#2C3A64"/>
<path d="M89.8147 162.94L83.8628 163.416C83.8287 163.344 83.7902 163.344 83.7477 163.426L81.9966 163.566L74.5336 162.968C74.5336 162.968 72.6567 173.936 73.3941 188.548C73.6292 193.21 74.0027 199.436 74.0791 203.894H79.615C80.278 198.372 81.2012 192.666 81.6136 190.3C81.8009 189.226 81.9748 188.16 82.137 187.108C82.2848 188.308 82.3797 189.282 82.3777 189.89C82.3745 190.86 82.5958 192.406 82.9022 194.268C83.3327 196.892 83.932 200.144 84.3094 203.304H89.9256C89.99 198.952 90.6988 193.016 90.76 188.548C90.9225 176.632 89.8147 162.94 89.8147 162.94Z" fill="#2B478B"/>
<path d="M73.7831 168.59C73.7831 168.59 75.915 171.896 81.7075 171.418C87.5 170.942 90.2636 169.65 90.2636 169.65L73.7831 168.59Z" fill="#233862"/>
<path d="M90.2636 169.65C88.3713 169.98 75.4991 170.836 73.7831 168.59C72.067 166.342 76.5844 135.682 76.5844 135.682C76.5844 135.682 77.0961 135.494 77.9592 135.286C78.3994 135.178 78.9303 135.068 79.5313 134.976C79.5386 135.216 79.6874 138.83 82.0317 140.322C82.0317 140.322 84.8475 138.878 84.5716 135.034C84.5685 134.99 84.5644 134.946 84.5595 134.904C84.9353 134.954 85.3158 135.022 85.698 135.106C86.4702 135.276 87.2522 135.516 88.0278 135.844C88.0278 135.844 92.1558 169.322 90.2636 169.65Z" fill="#BC3F3F"/>
<path d="M73.8916 153.822C73.8153 153.95 74.3284 154.894 75.0525 156.106C76.5419 158.598 78.9244 162.224 78.9244 162.224C78.8925 163.454 78.7583 164.248 78.7583 164.248C75.4856 162.268 73.273 160.416 71.8061 158.93C69.7441 156.838 69.1526 155.466 69.1526 155.466C72.4592 137.562 76.7016 135.698 76.7016 135.698L78.0858 146.488C78.0858 146.488 74.1233 153.434 73.8916 153.822Z" fill="#BC3F3F"/>
<path d="M85.698 135.106L84.8452 138.426L83.7084 140.562L82.0767 141.696L80.5409 140.562L77.9592 135.286C78.3994 135.178 78.9303 135.068 79.5313 134.976C79.5386 135.216 79.6873 138.83 82.0317 140.322C82.0317 140.322 84.8475 138.878 84.5716 135.034C84.5684 134.99 84.5644 134.946 84.5595 134.904C84.9353 134.954 85.3158 135.022 85.698 135.106Z" fill="#EE9849"/>
<path d="M78.9247 162.226C78.9239 162.26 78.9232 162.294 78.9214 162.328C78.9142 162.554 78.9038 162.766 78.891 162.96C78.8089 163.104 78.718 163.242 78.6189 163.37C78.4686 163.564 78.306 163.728 78.1403 163.866C78.0575 163.816 77.9746 163.762 77.8933 163.712C75.0903 161.934 73.1402 160.282 71.8063 158.93C72.6527 158.596 73.8386 157.834 75.0527 156.106C76.5417 158.598 78.9247 162.226 78.9247 162.226Z" fill="#FFB27D"/>
<path d="M95.1773 154.808C95.1773 154.808 94.6066 156.194 92.5761 158.336C91.1317 159.858 88.9472 161.764 85.7047 163.822C85.7047 163.822 85.5586 163.032 85.5084 161.804C85.5084 161.804 87.8362 158.12 89.2881 155.592C89.9939 154.362 90.4928 153.406 90.4147 153.28C90.2303 152.984 87.7464 148.802 86.6381 146.938C86.3167 146.396 86.1115 146.05 86.1115 146.05L87.5145 135.442C87.5145 135.442 91.6036 136.988 95.1773 154.808Z" fill="#BC3F3F"/>
<path d="M92.5758 158.336C91.258 159.724 89.3239 161.432 86.533 163.284C86.4638 163.33 86.3938 163.376 86.3231 163.422C85.9666 162.872 85.7502 162.216 85.6183 161.63C85.665 161.556 85.7253 161.458 85.7992 161.342C86.4678 160.274 88.1477 157.576 89.2877 155.592C90.5266 157.29 91.7245 158.022 92.5758 158.336Z" fill="#FFB27D"/>
<path d="M84.5596 134.904C82.6818 134.646 80.92 134.762 79.5313 134.976L79.5305 134.964C79.5305 134.964 84.1847 131.28 84.5596 134.904Z" fill="#FFB27D"/>
<path d="M79.8917 145.324H79.7963L79.726 139.582H79.9672L79.8917 145.324Z" fill="#BBD4FF"/>
<path d="M79.7868 145.174C79.6997 145.342 79.5041 145.898 79.634 145.956C79.7638 146.014 79.9916 146.018 80.0527 145.94C80.1136 145.862 79.951 144.858 79.7868 145.174Z" fill="#EE9849"/>
<path d="M84.2975 145.324H84.2021L84.1316 139.582H84.373L84.2975 145.324Z" fill="#BBD4FF"/>
<path d="M84.1923 145.174C84.1053 145.342 83.9098 145.898 84.0395 145.956C84.1694 146.014 84.3972 146.018 84.4583 145.94C84.5194 145.862 84.3566 144.858 84.1923 145.174Z" fill="#EE9849"/>
<path d="M80.5409 140.562L76.5845 135.682C76.5845 135.682 75.6937 134.874 77.1016 133.664C78.5095 132.454 80.5409 140.562 80.5409 140.562Z" fill="#A53232"/>
<path d="M83.7081 140.562L87.6645 135.682C87.6645 135.682 88.5553 134.874 87.1475 133.664C85.7395 132.454 83.7081 140.562 83.7081 140.562Z" fill="#A53232"/>
<path d="M88.6739 163.89C87.9031 163.974 87.2603 163.726 86.7639 163.158C86.6803 163.064 86.6038 162.962 86.533 162.854C86.1421 162.27 85.9224 161.532 85.7992 160.912C85.6577 160.202 85.6424 159.644 85.6424 159.632L85.6392 159.49H79.2489L79.253 159.642C79.278 160.522 79.1669 161.276 78.9214 161.898C78.8 162.208 78.6447 162.486 78.4564 162.728C78.2827 162.952 78.0905 163.134 77.8933 163.28C77.0381 163.914 76.0864 163.89 76.0742 163.89L75.9561 163.884V167.34H88.7985V163.876L88.6739 163.89Z" fill="#A53232"/>
<path d="M90.4147 153.28C90.4147 153.28 86.8525 147.298 89.6722 145.556C90.7916 144.864 92.3674 153.074 91.5227 153.846C90.6778 154.62 89.2877 155.592 89.2877 155.592L90.4147 153.28Z" fill="#A53232"/>
<path d="M74.3016 151.864C74.3016 151.864 75.5392 144.352 74.4533 145.126C73.3672 145.898 71.7581 152.644 72.6028 153.416C73.4475 154.188 74.8378 155.162 74.8378 155.162L74.3016 151.864Z" fill="#A53232"/>
<path d="M89.9152 153.264C88.2885 150.678 87.681 146.482 87.7639 142.15C87.8261 138.898 88.1746 135.962 88.1974 135.86L89.5314 137.19C89.5261 137.214 88.7657 138.994 88.7067 142.158C88.653 145.052 88.546 147.256 89.8239 152.294L89.9152 153.264Z" fill="#ED7D2B"/>
<path d="M77.5642 205.492L74.6981 205.49C74.4446 205.526 74.0475 205.052 74.0475 204.372C74.0475 204.372 74.0414 202.742 73.9574 202.452C73.5886 201.182 74.1371 201.114 74.668 201.114H79.8974C80.4285 201.114 79.615 203.214 79.615 203.894L79.8033 204.786C79.8033 205.464 78.0952 205.492 77.5642 205.492Z" fill="#233862"/>
<path d="M77.6399 211.418L78.4227 207.208C76.6399 207.992 75.413 207.556 75.0486 207.384L75.1941 211.418C75.1941 211.418 74.5685 213.494 74.3977 214.004C74.2271 214.512 74.2271 216.046 74.2271 216.046H78.1233C78.1233 216.046 78.1517 214.55 78.1233 213.93C78.0949 213.312 77.64 211.42 77.6399 211.418Z" fill="#233862"/>
<path d="M84.9755 204.032L85.5651 207.208L86.348 211.418H88.7937L88.9394 207.384L89.0519 204.272L84.9755 204.032Z" fill="#FFB27D"/>
<path d="M86.4236 205.492L89.2897 205.49C89.5434 205.526 89.9405 205.052 89.9405 204.372C89.9405 204.372 89.9464 202.742 90.0306 202.452C90.3992 201.182 89.8509 201.114 89.3198 201.114H84.0905C83.5595 201.114 84.373 203.214 84.373 203.894L84.1847 204.786C84.1847 205.464 85.8927 205.492 86.4236 205.492Z" fill="#233862"/>
<path d="M89.5855 214.004C89.4149 213.494 88.7896 211.42 88.7892 211.418H88.7938L88.9394 207.384C88.5749 207.556 87.348 207.992 85.5652 207.208L86.348 211.418H86.3433C86.3433 211.418 85.8883 213.312 85.86 213.93C85.8316 214.55 85.86 216.046 85.86 216.046H89.7561C89.7561 216.046 89.7561 214.512 89.5855 214.004Z" fill="#233862"/>
<path d="M38.6253 216.054H35.0261L36.4508 112.16L36.6647 96.578H38.3686L38.3994 110.596L38.6253 216.054Z" fill="#E58638"/>
<path d="M38.3994 110.596C37.8288 110.958 37.1511 111.468 36.4508 112.16L36.6647 96.578H38.3686L38.3994 110.596Z" fill="#CC6E2E"/>
<path d="M46.3939 98.994H27.2577C26.6561 98.994 26.1641 98.364 26.1641 97.594V63.068C26.1641 62.298 26.6561 61.668 27.2577 61.668H46.3939C46.9953 61.668 47.4873 62.298 47.4873 63.068V97.594C47.4873 98.364 46.9953 98.994 46.3939 98.994Z" fill="#F99746"/>
<path d="M45.2661 97.25H28.3855C27.8466 97.25 27.4056 96.684 27.4056 95.994V64.588C27.4056 63.898 27.8466 63.334 28.3855 63.334H45.2661C45.805 63.334 46.2458 63.898 46.2458 64.588V95.994C46.2458 96.684 45.805 97.25 45.2661 97.25Z" fill="#EDF4FF"/>
<path d="M32.0703 77.434C31.7398 77.434 31.4719 77.09 31.4719 76.668C31.4719 76.244 31.7398 75.902 32.0703 75.902C32.4009 75.902 32.6687 76.244 32.6687 76.668C32.6687 77.09 32.4009 77.434 32.0703 77.434ZM32.2981 74.97C31.3778 74.776 30.5934 75.782 30.7444 76.958C30.8358 77.672 31.2853 78.248 31.8425 78.364C32.7628 78.558 33.5472 77.554 33.3964 76.376C33.3048 75.662 32.8555 75.088 32.2981 74.97Z" fill="#ED7D2B"/>
<path d="M41.1895 77.4239C40.7842 77.5039 40.4392 77.0619 40.503 76.5439C40.5425 76.2219 40.7492 75.9579 41.0014 75.9099C41.4055 75.8319 41.7472 76.272 41.6853 76.788C41.6467 77.11 41.4411 77.3739 41.1895 77.4239ZM41.3241 74.9699C40.403 74.7759 39.6169 75.7799 39.7681 76.9599C39.8595 77.6719 40.3092 78.2479 40.8667 78.3639C41.7866 78.5579 42.5695 77.556 42.4202 76.378C42.3295 75.664 41.881 75.0879 41.3241 74.9699Z" fill="#ED7D2B"/>
<path d="M42.7966 71.826C42.7966 72.082 42.635 72.288 42.4355 72.288H40.3506C40.1511 72.288 39.9894 72.082 39.9894 71.826V70.146C39.9894 69.892 40.1511 69.684 40.3506 69.684H42.4355C42.635 69.684 42.7966 69.892 42.7966 70.146V71.826ZM39.3233 71.826C39.3233 72.082 39.1616 72.288 38.9622 72.288H36.8767C36.6772 72.288 36.5156 72.082 36.5156 71.826V70.146C36.5156 69.892 36.6772 69.684 36.8767 69.684H38.9622C39.1616 69.684 39.3233 69.892 39.3233 70.146V71.826ZM35.8716 71.826C35.8716 72.082 35.7099 72.288 35.5103 72.288H33.4255C33.226 72.288 33.0644 72.082 33.0644 71.826V70.146C33.0644 69.892 33.226 69.684 33.4255 69.684H35.5103C35.7099 69.684 35.8716 69.892 35.8716 70.146V71.826ZM32.4258 71.826C32.4258 72.082 32.2642 72.288 32.0647 72.288H30.5483C30.3133 72.288 30.166 71.964 30.2822 71.702L30.9622 70.176C31.098 69.872 31.35 69.684 31.6235 69.684H32.0642C32.2639 69.684 32.4258 69.892 32.4258 70.148V71.826ZM42.9503 69.114H31.3C31.016 69.114 30.7508 69.296 30.5939 69.6L29.3428 72.014C29.2317 72.228 29.1724 72.48 29.1724 72.736V75.774C29.1724 76.268 29.4852 76.668 29.8711 76.668C30.1344 76.668 30.3567 76.434 30.4242 76.108C30.617 75.176 31.2811 74.488 32.0703 74.488C32.841 74.488 33.4917 75.142 33.7017 76.042C33.7889 76.414 34.0602 76.668 34.3646 76.668H38.8944C39.1578 76.668 39.3805 76.434 39.448 76.108C39.641 75.176 40.3049 74.488 41.0939 74.488C41.8708 74.488 42.5258 75.154 42.7303 76.064C42.8116 76.424 43.0767 76.668 43.3706 76.668H43.8714C44.2071 76.668 44.4791 76.32 44.4791 75.89V72.548C44.4791 72.39 44.4572 72.234 44.4144 72.086L43.7646 69.84C43.6385 69.404 43.3135 69.114 42.9503 69.114Z" fill="#ED7D2B"/>
<path d="M34.1489 85.466C34.4311 85.466 34.6013 85.338 34.6013 85.052C34.6013 84.802 34.4559 84.648 34.1281 84.648H33.3894V85.466H34.1489ZM33.9788 83.968C34.2609 83.968 34.4394 83.852 34.4394 83.564C34.4394 83.32 34.29 83.182 34.0202 83.182H33.3894V83.968H33.9788ZM32.7667 82.464H34.1156C34.4477 82.464 34.7091 82.582 34.8752 82.794C35.008 82.964 35.0744 83.172 35.0744 83.436C35.0744 83.856 34.9 84.09 34.6925 84.24C35.0288 84.404 35.2363 84.654 35.2363 85.164C35.2363 85.844 34.8047 86.184 34.1489 86.184H32.7667V82.464Z" fill="#ED7D2B"/>
<path d="M35.7175 84.59V82.464H36.3568V84.568C36.3568 85.174 36.5933 85.488 36.9835 85.488C37.3736 85.488 37.61 85.1839 37.61 84.5959V82.464H38.2492V84.564C38.2492 85.69 37.7555 86.2419 36.9752 86.2419C36.1949 86.2419 35.7175 85.684 35.7175 84.59Z" fill="#ED7D2B"/>
<path d="M38.7015 85.642L39.0794 85.062C39.3408 85.338 39.6147 85.514 39.9467 85.514C40.2081 85.514 40.3659 85.382 40.3659 85.152C40.3659 84.946 40.2662 84.84 39.7806 84.68C39.1954 84.488 38.8178 84.282 38.8178 83.532C38.8178 82.858 39.2411 82.412 39.8347 82.412C40.2579 82.412 40.619 82.582 40.9137 82.884L40.5817 83.5C40.3244 83.272 40.0712 83.134 39.8262 83.134C39.5815 83.134 39.4528 83.278 39.4528 83.468C39.4528 83.714 39.5773 83.792 40.0795 83.958C40.6689 84.154 41.0009 84.426 41.0009 85.084C41.0009 85.822 40.5609 86.236 39.9342 86.236C39.4942 86.236 39.0503 86.04 38.7015 85.642Z" fill="#ED7D2B"/>
<path d="M31.2332 92.0159L31.611 91.438C31.8724 91.714 32.1464 91.888 32.4783 91.888C32.7399 91.888 32.8975 91.756 32.8975 91.528C32.8975 91.32 32.798 91.214 32.3124 91.054C31.7272 90.864 31.3496 90.656 31.3496 89.908C31.3496 89.232 31.7728 88.7859 32.3663 88.7859C32.7896 88.7859 33.1507 88.9559 33.4453 89.2599L33.1133 89.8759C32.8561 89.6479 32.6028 89.508 32.358 89.508C32.1132 89.508 31.9844 89.6519 31.9844 89.844C31.9844 90.0879 32.1089 90.1679 32.6111 90.3319C33.2005 90.5299 33.5325 90.8 33.5325 91.458C33.5325 92.198 33.0925 92.6119 32.466 92.6119C32.026 92.6119 31.5819 92.4139 31.2332 92.0159Z" fill="#ED7D2B"/>
<path d="M34.703 89.594H33.8189V88.84H36.2259V89.594H35.342V92.558H34.703V89.594Z" fill="#ED7D2B"/>
<path d="M38.8822 90.7C38.8822 90.062 38.517 89.53 38.0023 89.53C37.4878 89.53 37.1308 90.052 37.1308 90.7C37.1308 91.336 37.4959 91.868 38.0106 91.868C38.5253 91.868 38.8822 91.348 38.8822 90.7ZM36.4626 90.7C36.4626 89.642 37.1142 88.776 38.0106 88.776C38.9072 88.776 39.5505 89.632 39.5505 90.7C39.5505 91.756 38.8987 92.6219 38.0023 92.6219C37.1059 92.6219 36.4626 91.766 36.4626 90.7Z" fill="#ED7D2B"/>
<path d="M41.2645 90.714C41.5841 90.714 41.7708 90.47 41.7708 90.142C41.7708 89.774 41.5716 89.578 41.252 89.578H40.7581V90.714H41.2645ZM40.1191 88.84H41.306C41.9991 88.84 42.4183 89.366 42.4183 90.136C42.4183 90.996 41.8953 91.442 41.2438 91.442H40.7581V92.558H40.1191V88.84Z" fill="#ED7D2B"/>
<path d="M40.3673 215.794H33.2841L33.7909 203.234C33.8192 202.534 34.2712 201.984 34.8194 201.984H38.7686C39.3522 201.984 39.8336 202.57 39.8637 203.316L40.3673 215.794Z" fill="#E58638"/>
<path d="M36.5511 215.794H33.2841L33.7952 203.132C33.8211 202.488 34.2358 201.984 34.7386 201.984H35.7572C36.588 201.984 37.245 202.886 37.188 203.946L36.5511 215.794Z" fill="#CC6E2E"/>
<path d="M66.3008 85.716L66.2487 89.886L64.6962 215.248C64.6927 215.55 64.5003 215.792 64.2644 215.792H64.1489C63.6836 215.792 63.3034 215.318 63.2928 214.722L61.142 93.712L61.0003 85.716H66.3008Z" fill="#E58638"/>
<path d="M66.3008 85.716L66.2487 89.886C64.8306 90.454 62.8006 91.576 61.142 93.712L61.0003 85.716H66.3008Z" fill="#CC621B"/>
<path d="M212.095 85.716L212.042 89.886L210.491 215.248C210.486 215.55 210.294 215.792 210.058 215.792H209.942C209.478 215.792 209.097 215.318 209.086 214.722L206.936 93.712L206.794 85.716H212.095Z" fill="#E58638"/>
<path d="M212.095 85.716L212.042 89.886C210.625 90.454 208.594 91.576 206.936 93.712L206.794 85.716H212.095Z" fill="#CC621B"/>
<path d="M219.125 70.048V84.818C219.125 85.1 219.064 85.364 218.958 85.594C218.725 86.094 218.277 86.434 217.761 86.434H56.3181C55.5683 86.434 54.9556 85.706 54.9556 84.818V70.048C54.9556 69.16 55.5683 68.434 56.3181 68.434H217.761C218.513 68.434 219.125 69.16 219.125 70.048Z" fill="#ED7D2B"/>
<path d="M219.125 70.048V84.818C219.125 85.1 219.064 85.364 218.958 85.594C218.472 85.88 217.978 86.16 217.475 86.434H149.306C132.597 81.224 115.958 74.168 103.745 68.434H217.761C218.513 68.434 219.125 69.16 219.125 70.048Z" fill="#F99746"/>
<path d="M60.1089 207.206C60.1089 207.206 55.565 198.324 52.7584 200.026C49.9518 201.728 60.1089 207.206 60.1089 207.206Z" fill="#B8E0AF"/>
<path d="M61.3786 205.492C61.3786 205.492 61.1112 199.076 59.6411 199.334C58.1711 199.59 61.3786 205.492 61.3786 205.492Z" fill="#B8E0AF"/>
<path d="M467.627 216.832H1.2766C0.985332 216.832 0.74707 216.526 0.74707 216.154V215.922C0.74707 215.55 0.985332 215.244 1.2766 215.244H467.627C467.919 215.244 468.157 215.55 468.157 215.922V216.154C468.157 216.526 467.919 216.832 467.627 216.832Z" fill="#2E3552"/>
</svg>
