<svg width="527" height="288" viewBox="0 0 527 288" fill="none" xmlns="http://www.w3.org/2000/svg">
<path d="M206 0.999963C211.715 3.39796 219.831 1.99996 226 1.99996C220.285 -0.398037 212.169 0.999963 206 0.999963Z" fill="#FDDFD7"/>
<path d="M182 2C183.248 2.685 183.548 2.749 185 3C183.752 2.315 183.452 2.251 182 2Z" fill="#F9E3DA"/>
<path d="M185 2C187.052 2.874 188.747 2.953 191 3C188.948 2.126 187.253 2.047 185 2Z" fill="#FEA38F"/>
<path d="M191 2C192.769 2.779 194.036 2.912 196 3C194.231 2.221 192.964 2.088 191 2Z" fill="#F17458"/>
<path d="M179 4.99998C177.466 6.02298 177.598 5.80498 177 6.99998C179.106 7.64398 180.795 7.90598 183 7.99998C177.578 9.61698 171.608 9.70698 166 8.99998C166 14.303 168.112 24.494 164 28C166.747 28.829 168 28.988 168 26C174.758 30.566 181.321 29.159 189 29C189 22.458 189.862 15.301 188 8.99998C191.577 9.44998 194.49 9.96498 198 8.99998C196.059 8.04898 194.102 7.56098 192 6.99998C194.418 6.27798 196.472 6.05198 199 5.99998C197.752 5.31498 197.452 5.25098 196 4.99998L199 2.99998C196.598 2.17798 195.616 2.74598 193 2.99998C188.455 3.44198 182.405 1.65198 178.167 3.49998C176.298 4.31398 178.799 4.91198 179 4.99998Z" fill="#F04F32"/>
<path d="M198 2.00004C201.699 3.55204 206.017 3.00004 210 3.00004H233C229.301 1.44804 224.983 2.00004 221 2.00004H198Z" fill="#EF431D"/>
<path d="M215 3.00001C215 9.09601 217.586 22.379 212 26C218.028 29.244 229.132 27 236 27C234.579 21.03 235.731 14.855 234 9.00001C236.709 9.64801 239.216 9.94201 242 10C240.752 9.31501 240.452 9.25101 239 9.00001C243.292 7.54701 247.476 7.03701 252 7.00001C242.88 -0.302991 225.924 3.00001 215 3.00001Z" fill="#F15431"/>
<path d="M235 2C236.769 2.779 238.036 2.912 240 3C238.231 2.221 236.964 2.088 235 2Z" fill="#EE755C"/>
<path d="M240 2C241.506 2.683 242.315 2.826 244 3C242.494 2.317 241.685 2.174 240 2Z" fill="#F3AF95"/>
<path d="M244 2C245.248 2.685 245.548 2.749 247 3C245.752 2.315 245.452 2.251 244 2Z" fill="#F4E4DF"/>
<path d="M170.667 3.333C170.222 3.778 171.278 3.72202 171.333 3.66702C171.778 3.22202 170.722 3.278 170.667 3.333Z" fill="#FBD8CE"/>
<path d="M172 3C173.248 3.685 173.548 3.749 175 4C173.752 3.315 173.452 3.251 172 3Z" fill="#F6A697"/>
<path d="M175 3C176.248 3.685 176.548 3.749 178 4C176.752 3.315 176.452 3.251 175 3Z" fill="#F3765E"/>
<path d="M196 4C197.248 4.685 197.548 4.749 199 5C196.582 5.722 194.528 5.948 192 6C194.057 7.582 195.388 7.826 198 8C194.491 9.723 191.829 9.29 188 9C189.551 15.513 189 22.341 189 29C197.45 29.879 206.686 27.55 215 26V3C208.592 3 202.322 2.826 196 4Z" fill="#F05131"/>
<path d="M241 2.99999C243.89 4.21299 246.874 3.99799 250 3.99999C247.11 2.78699 244.126 3.00199 241 2.99999Z" fill="#F0471D"/>
<path d="M252 6.00001C249.582 6.72201 247.528 6.94801 245 7.00001C248.302 9.88001 252.315 9.57001 255 6.00001C257.858 7.15501 259.928 7.23501 263 7.00001C257.415 12.769 259 20.446 259 28L263 27C261.814 28.186 261.416 28.528 260 29C260.991 31.706 261.713 34.132 262 37L261 35C259.407 36.896 257.954 38.48 256 40C257.809 40.574 258.069 40.465 260 40C256.532 54.568 259 72.049 259 87V179C259 192.118 261.045 207.21 258 220L254 219C256.178 220.723 258.75 222.014 260.606 224.133C268.48 233.119 260.751 242.49 259.245 252.17C258.201 258.877 259 266.218 259 273C269.265 274.085 279.681 272 290 272C286.212 270.255 282.276 269.778 279 267C276.591 267.272 274.419 267.201 272 267C273.479 266.014 273.203 266 275 266V195V178C274.994 174.895 275.407 172.103 273 170C275.314 167.333 274.441 165.317 275.306 162.083C275.877 159.946 277.35 158.326 277.361 156C277.387 150.664 275.528 145.584 276.083 140C276.784 132.959 278.913 125.094 277.917 118C277.448 114.662 275.131 112.508 275 109C274.23 88.399 275 67.617 275 47V21C275 18.007 275.938 13.104 274.278 10.472C270.151 3.93101 263.643 5.20401 257 4.52801C255.256 4.35001 251.233 2.65701 249.833 4.30601C248.642 5.70801 251.622 5.91901 252 6.00001Z" fill="#F0572E"/>
<path d="M251.667 3.333C251.222 3.778 252.278 3.72202 252.333 3.66702C252.778 3.22202 251.722 3.278 251.667 3.333Z" fill="#E97D62"/>
<path d="M253 3C254.248 3.685 254.548 3.749 256 4C254.752 3.315 254.452 3.251 253 3Z" fill="#FAAC95"/>
<path d="M162.667 4.333C162.222 4.778 163.278 4.72202 163.333 4.66702C163.778 4.22202 162.722 4.278 162.667 4.333Z" fill="#F7CBC0"/>
<path d="M164.667 4.333C164.222 4.778 165.278 4.72202 165.333 4.66702C165.778 4.22202 164.722 4.278 164.667 4.333Z" fill="#FF9289"/>
<path d="M137 10C137 17.007 140.21 32.508 132 35C132.791 36.761 132.962 36.545 132 38C133.778 38.955 134.021 38.766 135 37C144.101 40.444 158.554 34.573 168 32.804C171.851 32.083 175.721 32.241 179 30C175.119 28.807 171.678 27.766 168 26C167.64 28.693 166.56 28.38 164 28C165.479 27.014 165.203 27 167 27C165.595 21.099 166 15.032 166 9.00001C171.638 10.459 177.264 9.04701 183 9.00001C181.158 7.66001 176.867 8.04701 179 5.00001C170.244 2.91501 159.657 4.44802 151 6.70102C146.098 7.97702 142.17 9.88901 137 10Z" fill="#EF4E32"/>
<path d="M256 4C257.506 4.683 258.315 4.826 260 5C258.494 4.317 257.685 4.174 256 4Z" fill="#EE3F14"/>
<path d="M261.667 4.333C261.222 4.778 262.278 4.72202 262.333 4.66702C262.778 4.22202 261.722 4.278 261.667 4.333Z" fill="#FA8068"/>
<path d="M263.667 4.333C263.222 4.778 264.278 4.72202 264.333 4.66702C264.778 4.22202 263.722 4.278 263.667 4.333Z" fill="#FAB9AB"/>
<path d="M155 5C156.248 5.685 156.548 5.749 158 6C156.752 5.315 156.452 5.251 155 5Z" fill="#F4C8B4"/>
<path d="M269 5C270.248 5.685 270.548 5.749 272 6C270.752 5.315 270.452 5.251 269 5Z" fill="#FA8F77"/>
<path d="M149 6C150.248 6.685 150.548 6.749 152 7C150.752 6.315 150.452 6.251 149 6Z" fill="#F8B6B4"/>
<path d="M255 6C250.122 10.296 244.934 7.706 239 8C240.248 8.685 240.548 8.749 242 9C239.097 9.737 236.951 9.529 234 9C235.104 13.637 233.186 22.954 236.603 26.397C238.929 28.741 243.938 28.541 247 29.084C252.938 30.137 257.356 32.095 261 37C262.177 33.96 261.387 31.887 260 29C261.797 29 261.521 28.986 263 28C261.341 27.594 260.758 27.691 259 28C259 20.001 258.181 13.693 263 7C260.085 7.084 257.778 6.909 255 6Z" fill="#F1552F"/>
<path d="M271 6C272.506 6.683 273.315 6.826 275 7C273.494 6.317 272.685 6.174 271 6Z" fill="#EC4116"/>
<path d="M275.667 6.333C275.222 6.778 276.278 6.72202 276.333 6.66702C276.778 6.22202 275.722 6.278 275.667 6.333Z" fill="#EF755D"/>
<path d="M277.667 6.333C277.222 6.778 278.278 6.72202 278.333 6.66702C278.778 6.22202 277.722 6.278 277.667 6.333Z" fill="#EDC3B4"/>
<path d="M144.667 7.333C144.222 7.778 145.278 7.72202 145.333 7.66702C145.778 7.22202 144.722 7.278 144.667 7.333Z" fill="#F8A38C"/>
<path d="M113 16C114.248 16.685 114.548 16.749 116 17C113.551 25.285 115 35.386 115 44C123.192 45.147 131.049 40.645 139 39C137.624 38.089 136.56 37.596 135 37C133.777 38.195 133.58 38.316 132 39C133.455 37.32 133.969 37.057 132 36C140.226 31.998 137 17.962 137 10C140.993 9.96704 144.304 9.55904 148 8.00004C144.443 7.15904 140.563 8.45304 137 9.21104C129.286 10.851 119.743 11.762 113 16Z" fill="#EF4B32"/>
<path d="M271 7C272.028 8.743 273.691 10.307 274.416 12.211C276.907 18.754 275 29.041 275 36V90C275 98.15 273.155 108.61 277 116C281.661 109.591 281.114 97.925 282.333 90C282.637 88.024 284.147 86.05 284.667 84C287.157 74.176 290.646 64.686 295.833 56C297.883 52.568 300.191 49.849 303 47C304.254 45.729 306.219 44.387 306.333 42.5C306.372 41.862 303.842 41.981 304 42L307 40C303.887 39.319 303.005 41.245 302 44C296.512 39.207 298 32.803 298 26C298 22.47 298.992 18.855 295 18C297.902 16.641 300.073 16.17 301 13L305 15C304.54 11.281 300.358 11.205 297 10.37C288.343 8.22 279.91 7 271 7Z" fill="#F0582F"/>
<path d="M282.667 7.333C282.222 7.778 283.278 7.72202 283.333 7.66702C283.778 7.22202 282.722 7.278 282.667 7.333Z" fill="#F8AA99"/>
<path d="M139.667 8.333C139.222 8.778 140.278 8.72202 140.333 8.66702C140.778 8.22202 139.722 8.278 139.667 8.333Z" fill="#EF9E93"/>
<path d="M288 8L289 9L288 8Z" fill="#F7A085"/>
<path d="M135 9L136 10L135 9Z" fill="#F5A69B"/>
<path d="M293.667 9.333C293.222 9.778 294.278 9.72202 294.333 9.66702C294.778 9.22202 293.722 9.278 293.667 9.333Z" fill="#FFDED8"/>
<path d="M130 10L131 11L130 10Z" fill="#F9C7B4"/>
<path d="M131 10L132 11L131 10Z" fill="#F98878"/>
<path d="M297 10L298 11L297 10Z" fill="#F8A18D"/>
<path d="M126 11L127 12L126 11Z" fill="#FCAFA2"/>
<path d="M301 11L302 12L301 11Z" fill="#F7927A"/>
<path d="M302 11L303 12L302 11Z" fill="#FFC6B4"/>
<path d="M122 12L123 13L122 12Z" fill="#FABDBC"/>
<path d="M305 12L306 13L305 12Z" fill="#FA8F6C"/>
<path d="M306 12L307 13L306 12Z" fill="#FFCBB8"/>
<path d="M301 13C299.421 15.605 297.943 16.219 295 17C296.248 17.685 296.548 17.749 298 18C298 25.589 295.073 39.265 302 44C303.409 41.436 304.403 40.33 307 39C305.814 40.186 305.416 40.528 304 41C308.344 42.678 311.848 40.026 316 38.753C320.309 37.432 325.506 37.193 330 37C327.138 35.624 324.162 35.251 321 35C321.001 27.064 321.53 22.839 330 21L329 24L338 23C331.923 18.454 322.292 16.804 315 14.884C311.332 13.918 308.224 12.757 305 15C303.406 13.703 302.982 13.465 301 13Z" fill="#F25B2E"/>
<path d="M309 13L310 14L309 13Z" fill="#F99F86"/>
<path d="M115 14L116 15L115 14Z" fill="#FEB6AC"/>
<path d="M313 14L314 15L313 14Z" fill="#F0B095"/>
<path d="M112 15L113 16L112 15Z" fill="#FC908D"/>
<path d="M317 15L318 16L317 15Z" fill="#FFC4BC"/>
<path d="M108 16L109 17L108 16Z" fill="#FBC8B9"/>
<path d="M109 16L110 17L109 16Z" fill="#F07962"/>
<path d="M90 23C91.906 26.049 91 30.315 91 34C91 43.002 91.627 52.17 90 61L118 45C116.752 44.315 116.452 44.251 115 44C115 35.17 113.946 25.626 116 17C107.044 15.528 98.377 20.274 90 23Z" fill="#EF4A34"/>
<path d="M320 16L321 17L320 16Z" fill="#FBAC96"/>
<path d="M105 17L106 18L105 17Z" fill="#FCCBB7"/>
<path d="M106 17L107 18L106 17Z" fill="#EC795E"/>
<path d="M323 17L324 18L323 17Z" fill="#F49480"/>
<path d="M102 18L103 19L102 18Z" fill="#F3C0B9"/>
<path d="M327 18L328 19L327 18Z" fill="#F8C8BD"/>
<path d="M99 19L100 20L99 19Z" fill="#F0C1BB"/>
<path d="M100 19L101 20L100 19Z" fill="#FC796E"/>
<path d="M330 19L331 20L330 19Z" fill="#F0BBA5"/>
<path d="M97 20L98 21L97 20Z" fill="#FA8C73"/>
<path d="M333 20L334 21L333 20Z" fill="#FCB8AA"/>
<path d="M94 21L95 22L94 21Z" fill="#F19B88"/>
<path d="M321 35L330 36C327.894 36.644 326.205 36.906 324 37C331.013 40.683 339.37 41.466 347 43.373C355.279 45.443 363.579 48.756 372 50L374 46L370 45C371.479 44.014 371.203 44 373 44C371.494 43.317 370.685 43.174 369 43C371.78 41.51 373.848 41.089 377 41C374.387 39.902 371.836 40.007 369 40C370.801 39.438 372.122 39.176 374 39L368 35C369.944 35.402 370.056 35.402 372 35C367.203 31.411 360.6 29.995 355 27.947C349.964 26.105 344.412 23.194 339 22.818C335.695 22.588 332.297 23.731 329 24C329.986 22.521 330 22.797 330 21C320.973 22.252 321 26.935 321 35Z" fill="#F15D2D"/>
<path d="M336 21L337 22L336 21Z" fill="#FABCA3"/>
<path d="M91 22L92 23L91 22Z" fill="#F3B7B3"/>
<path d="M339 22L340 23L339 22Z" fill="#FBB9A2"/>
<path d="M89 23L90 24L89 23Z" fill="#EF7D71"/>
<path d="M342 23L343 24L342 23Z" fill="#F0B89D"/>
<path d="M86 24L87 25L86 24Z" fill="#FFB0B9"/>
<path d="M80 29C80.768 30.314 80.686 30.232 82 31C79.982 31.34 79.032 31.323 77 31C74.04 33.009 70.255 33.241 67 35C67.584 36.742 67.584 37.258 67 39L71 40C66.459 43.094 67 46.877 67 52V76V150C67 162.201 65.167 176.099 68 188C65.333 183.002 66 177.552 66 172V145V41C63.523 44.27 64 47.999 64 52V72V154V175C64 179.001 64.477 182.73 62 186C67.493 196.588 79.39 202.583 90 207L91 192C88.805 190.318 88.488 187.795 86.762 185.575C80.668 177.732 74.676 169.01 72.629 159C71.839 155.137 72.493 151.061 71.745 147.17C70.471 140.543 67.507 130.93 72 125C70.788 119.851 72.098 116.081 72.83 111C74.497 99.437 75.491 86.708 80.49 76C83.238 70.113 88.786 65.314 90.442 59C93.386 47.778 89.292 35.372 92 24C86.925 24.28 84.529 27.399 80 29Z" fill="#F04734"/>
<path d="M345 24L346 25L345 24Z" fill="#F3BDA8"/>
<path d="M84 25L85 26L84 25Z" fill="#F1827E"/>
<path d="M348 25L349 26L348 25Z" fill="#FCD1B7"/>
<path d="M81 26L82 27L81 26Z" fill="#FBC7B7"/>
<path d="M35 55L40 53C39.014 54.479 39 54.203 39 56C41.441 58.966 40.92 63.378 42 67C40.203 67 40.478 67.014 39 68C41.164 68.676 42.732 68.387 45 68C43.723 69.915 43.723 69.085 45 71L49 70V68C42.398 62.501 47.986 56.921 46 50C49.365 54.441 48 61.61 48 67L52 66C52.768 67.314 52.686 67.232 54 68L50 69C50.062 70.739 49.522 71.375 49 73C56.386 78.503 56.957 88.338 56.999 97C57.034 104.221 55.591 110.879 55.09 118C54.166 131.108 53.848 143.872 54.004 157C54.098 164.911 55.219 183 64 186V90C64 74.438 61.391 56.159 65 41C67.945 50.963 66 63.631 66 74V151C66 162.541 63.725 176.92 67 188C67.828 184.551 67.006 180.598 67 177V154V78V52C67.002 47.318 66.546 43.456 71 41C69.623 40.089 68.56 39.596 67 39C68.237 37.051 68.237 36.949 67 35C70.132 33.763 74.883 33.479 77 31C78.801 31.562 80.122 31.824 82 32L80 29C82.543 28.474 83.535 28.122 85 26C72.553 28.219 59.501 36.928 49 43.692C43.932 46.957 38.693 50.186 35 55Z" fill="#EF4534"/>
<path d="M79 27L80 28L79 27Z" fill="#FAA38A"/>
<path d="M205 27C208.163 28.327 211.586 28 215 28C211.837 26.673 208.414 27 205 27Z" fill="#EF401E"/>
<path d="M216 27C217.506 27.683 218.315 27.826 220 28C218.494 27.317 217.685 27.174 216 27Z" fill="#EA745C"/>
<path d="M220 27C223.959 28.661 228.737 28 233 28C229.041 26.339 224.263 27 220 27Z" fill="#F7AA95"/>
<path d="M233 27C234.506 27.683 235.315 27.826 237 28C235.494 27.317 234.685 27.174 233 27Z" fill="#F6774C"/>
<path d="M353 27L354 28L353 27Z" fill="#F3906D"/>
<path d="M77 28L78 29L77 28Z" fill="#F67D7B"/>
<path d="M197 28C199.052 28.874 200.747 28.953 203 29C200.948 28.126 199.253 28.047 197 28Z" fill="#FB3A1E"/>
<path d="M204 28C205.248 28.685 205.548 28.749 207 29C205.752 28.315 205.452 28.251 204 28Z" fill="#EE7B5F"/>
<path d="M207.667 28.333C207.222 28.778 208.278 28.722 208.333 28.667C208.778 28.222 207.722 28.278 207.667 28.333Z" fill="#F4AD9B"/>
<path d="M209 28C210.248 28.685 210.548 28.749 212 29C210.752 28.315 210.452 28.251 209 28Z" fill="#FFD8CF"/>
<path d="M212 28.424C182.633 32.28 153.419 33.52 125 43C111.583 47.476 97.796 53.348 88.104 64.001C80.759 72.074 77.677 82.467 75.92 93C72.639 112.663 71.076 132.129 72.925 152C74.096 164.579 77.645 178.39 88.004 186.61C97.78 194.367 112.21 196.27 124 199.13C146.743 204.646 169.775 206.499 193 208.09C207.725 209.098 224.766 210.159 239 205.239C252.274 200.651 253 187.016 253 175C253 147.55 252.203 120.36 250.961 93C250.472 82.243 250.784 64.843 239 60.008C233.832 57.888 223.57 57.126 219.858 62.228C217.867 64.966 217.952 68.775 218.015 72C218.337 88.345 226.294 103.803 227.946 120C228.813 128.506 226.182 143.38 214 139.397C206.04 136.795 200.319 128.853 196.208 122C184.066 101.764 183.335 74.526 201.171 57.289C209.908 48.846 221.92 43.378 234 42.171C240.707 41.5 252.34 43.664 257.663 38.49C263.003 33.299 252.496 30.431 249 29.668C237.453 27.149 223.713 26.887 212 28.424Z" fill="white"/>
<path d="M241 28C242.248 28.685 242.548 28.749 244 29C242.752 28.315 242.452 28.251 241 28Z" fill="#F8B3AE"/>
<path d="M356 28L357 29L356 28Z" fill="#F3A68F"/>
<path d="M75 29L76 30L75 29Z" fill="#F98577"/>
<path d="M179 30C182.941 31.538 187.77 30.035 192 30C187.863 28.264 183.312 29.2 179 30Z" fill="#EC3F1B"/>
<path d="M193.667 29.333C193.222 29.778 194.278 29.722 194.333 29.667C194.778 29.222 193.722 29.278 193.667 29.333Z" fill="#F67A66"/>
<path d="M195.667 29.333C195.222 29.778 196.278 29.722 196.333 29.667C196.778 29.222 195.722 29.278 195.667 29.333Z" fill="#EFA899"/>
<path d="M197 29C198.248 29.685 198.548 29.749 200 30C198.752 29.315 198.452 29.251 197 29Z" fill="#FFDAD0"/>
<path d="M248 29L249 30L248 29Z" fill="#F8CBC3"/>
<path d="M249 29L250 30L249 29Z" fill="#FA9A82"/>
<path d="M359 29L360 30L359 29Z" fill="#F4C9B0"/>
<path d="M184.667 30.333C184.222 30.778 185.278 30.722 185.333 30.667C185.778 30.222 184.722 30.278 184.667 30.333Z" fill="#FC7567"/>
<path d="M186.667 30.333C186.222 30.778 187.278 30.722 187.333 30.667C187.778 30.222 186.722 30.278 186.667 30.333Z" fill="#F1A099"/>
<path d="M188.667 30.333C188.222 30.778 189.278 30.722 189.333 30.667C189.778 30.222 188.722 30.278 188.667 30.333Z" fill="#F9E2DA"/>
<path d="M252 30L253 31L252 30Z" fill="#FBCDBE"/>
<path d="M253 30L254 31L253 30Z" fill="#F78363"/>
<path d="M362 30L363 31L362 30Z" fill="#FBD9C1"/>
<path d="M177 31C178.248 31.685 178.548 31.749 180 32C178.752 31.315 178.452 31.251 177 31Z" fill="#F9A293"/>
<path d="M255 31L256 32L255 31Z" fill="#FAC9BA"/>
<path d="M364 31L365 32L364 31Z" fill="#FAA08A"/>
<path d="M169 32C170.248 32.685 170.548 32.749 172 33C170.752 32.315 170.452 32.251 169 32Z" fill="#F28A71"/>
<path d="M257 32L258 33L257 32Z" fill="#FBC5B8"/>
<path d="M367 32L368 33L367 32Z" fill="#FFBDAF"/>
<path d="M164 33C165.248 33.685 165.548 33.749 167 34C165.752 33.315 165.452 33.251 164 33Z" fill="#F4BEB4"/>
<path d="M65 34L66 35L65 34Z" fill="#F06D5C"/>
<path d="M158 34C159.248 34.685 159.548 34.749 161 35C159.752 34.315 159.452 34.251 158 34Z" fill="#FBB2B4"/>
<path d="M372 34L373 35L372 34Z" fill="#FBA188"/>
<path d="M153.667 35.333C153.222 35.778 154.278 35.722 154.333 35.667C154.778 35.222 153.722 35.278 153.667 35.333Z" fill="#F7C1BE"/>
<path d="M368 35C369.667 37.08 371.391 37.423 374 38C372.199 38.562 370.878 38.824 369 39C371.613 40.098 374.165 39.993 377 40L369 42C370.506 42.683 371.315 42.826 373 43C371.521 43.986 371.797 44 370 44C371.458 45.081 372.248 45.436 374 46C372.664 47.826 372.31 48.753 372 51C392.992 55.856 413.216 65.654 433 74.15C440.898 77.542 451.442 85.064 460 85L457 83L462 81C459.801 79.722 457.841 78.774 456 77L460 78C458.999 76.076 458.923 75.902 457 75L458 72C437.425 64.994 417.984 53.343 398 44.719C388.304 40.535 378.626 35.652 368 35Z" fill="#F2622D"/>
<path d="M375 35L376 36L375 35Z" fill="#F6CAB4"/>
<path d="M61 36L62 37L61 36Z" fill="#FA847E"/>
<path d="M148 36L149 37L148 36Z" fill="#FF887D"/>
<path d="M149.667 36.333C149.222 36.778 150.278 36.722 150.333 36.667C150.778 36.222 149.722 36.278 149.667 36.333Z" fill="#F3E9DD"/>
<path d="M377 36L378 37L377 36Z" fill="#FB9871"/>
<path d="M59 37L60 38L59 37Z" fill="#F99D92"/>
<path d="M144 37L145 38L144 37Z" fill="#F9A194"/>
<path d="M259 37L260 38L259 37Z" fill="#FFAD96"/>
<path d="M380 37L381 38L380 37Z" fill="#FBBAA9"/>
<path d="M57 38L58 39L57 38Z" fill="#FFBAB9"/>
<path d="M140 38L141 39L140 38Z" fill="#EFA997"/>
<path d="M258 38L259 39L258 38Z" fill="#F1BCC2"/>
<path d="M315 38C319.217 39.769 324.459 39 329 39C324.783 37.231 319.541 38 315 38Z" fill="#F04A17"/>
<path d="M382 38L383 39L382 38Z" fill="#FF895F"/>
<path d="M383 38L384 39L383 38Z" fill="#FCD3C3"/>
<path d="M136 39L137 40L136 39Z" fill="#F3A091"/>
<path d="M257 39L258 40L257 39Z" fill="#FE826C"/>
<path d="M314 39L315 40L314 39Z" fill="#F8A686"/>
<path d="M315.667 39.333C315.222 39.778 316.278 39.722 316.333 39.667C316.778 39.222 315.722 39.278 315.667 39.333Z" fill="#F9DFE4"/>
<path d="M317 39.44C302.363 41.774 294.728 55.308 289.811 68C279.355 94.988 277.863 124.41 278.001 153C278.065 166.264 278.859 193.106 298 190.814C307.602 189.664 314.671 181.577 320.961 175C334.645 160.689 346.247 143.456 361.015 130.289C386.927 107.187 424.875 109.609 457 114.92C469.367 116.964 481.583 119.733 494 121.424C497.791 121.94 505.36 123.49 507.214 118.772C509.12 113.921 503.28 110.283 499.999 108.029C489.652 100.92 478.203 95.354 467 89.753C433.514 73.012 397.962 58.095 362 47.576C348.361 43.586 331.401 37.143 317 39.44Z" fill="white"/>
<path d="M325.667 39.333C325.222 39.778 326.278 39.722 326.333 39.667C326.778 39.222 325.722 39.278 325.667 39.333Z" fill="#F7DBD4"/>
<path d="M327.667 39.333C327.222 39.778 328.278 39.722 328.333 39.667C328.778 39.222 327.722 39.278 327.667 39.333Z" fill="#FFA68B"/>
<path d="M385 39L386 40L385 39Z" fill="#F5AD8F"/>
<path d="M54 40L55 41L54 40Z" fill="#F38181"/>
<path d="M132 40L133 41L132 40Z" fill="#F97D74"/>
<path d="M254 40L255 41L254 40Z" fill="#F8B7AF"/>
<path d="M238 46C234.051 45.534 229.935 45.371 226 46C227.001 47.924 227.078 48.099 229 49L228 47C230.715 47.305 233.272 47.159 236 47C235.095 50.062 234.042 54.597 236.028 57.502C237.391 59.495 240.09 60.241 241.958 61.648C244.805 63.794 246.742 66.721 248.069 70C250.85 76.866 250.59 84.742 251.09 92C251.597 99.375 253.25 106.668 253.897 114C254.54 121.298 253.284 128.726 253.88 136C255.347 153.93 256.637 172.411 252.098 190C250.707 195.392 247.651 200.13 242.997 203.298C240.868 204.747 237.714 205.318 236.179 207.51C234.255 210.257 235 214.827 235 218C242.899 218 250.207 218.947 258 220C259.607 214.564 259 208.64 259 203V173V87C259 71.686 257.2 55.081 260 40C255.582 40.687 251.369 41.995 247 42.74C243.146 43.397 240.456 42.594 238 46Z" fill="#F05630"/>
<path d="M311 40L312 41L311 40Z" fill="#FBAE9E"/>
<path d="M333.667 40.333C333.222 40.778 334.278 40.722 334.333 40.667C334.778 40.222 333.722 40.278 333.667 40.333Z" fill="#EDB195"/>
<path d="M52 41L53 42L52 41Z" fill="#FCB2AE"/>
<path d="M129 41L130 42L129 41Z" fill="#F09891"/>
<path d="M247.667 41.333C247.222 41.778 248.278 41.722 248.333 41.667C248.778 41.222 247.722 41.278 247.667 41.333Z" fill="#FDD5C8"/>
<path d="M249.667 41.333C249.222 41.778 250.278 41.722 250.333 41.667C250.778 41.222 249.722 41.278 249.667 41.333Z" fill="#FD9675"/>
<path d="M309 41L310 42L309 41Z" fill="#F4B6A6"/>
<path d="M339 41L340 42L339 41Z" fill="#F5AE9A"/>
<path d="M390 41L391 42L390 41Z" fill="#FEC099"/>
<path d="M126 42L127 43L126 42Z" fill="#F4B6A4"/>
<path d="M231.667 42.333C231.222 42.778 232.278 42.722 232.333 42.667C232.778 42.222 231.722 42.278 231.667 42.333Z" fill="#F4A899"/>
<path d="M233 42C234.248 42.685 234.548 42.749 236 43C234.752 42.315 234.452 42.251 233 42Z" fill="#F6785E"/>
<path d="M236 42C240.217 43.769 245.459 43 250 43C245.783 41.231 240.541 42 236 42Z" fill="#EF4015"/>
<path d="M307 42L308 43L307 42Z" fill="#EEA496"/>
<path d="M343 42L344 43L343 42Z" fill="#FFBCA5"/>
<path d="M392 42L393 43L392 42Z" fill="#FA9C7A"/>
<path d="M49 43L50 44L49 43Z" fill="#F5A39E"/>
<path d="M123 43L124 44L123 43Z" fill="#F4B2A7"/>
<path d="M226 43L227 44L226 43Z" fill="#F9B8A5"/>
<path d="M205 62C206.803 60.46 206.832 59.403 207 57C208.862 63.299 208 70.463 208 77V112C208 117.803 209.623 126.218 206 131C207.324 133.687 208.313 134.676 211 136C210.455 134.365 210.635 134.545 209 134C211.168 132.287 212.332 131.539 215 131V104C215 100.38 215.277 97.872 217 95L218 96C217.353 93.057 216.96 83.345 215 83C217.198 77.845 216.469 73.268 217.569 68C218.318 64.412 220.576 61.634 221 58C225.7 57.127 230.23 57 235 57C235.01 53.545 235.198 50.368 236 47H228L229 49L226 46C230.29 45.639 237.128 47.694 239 43C227.603 43 220.083 44.702 211 50C209.093 51.113 203.942 52.408 203 55C202.24 57.089 204.968 59.968 206 61L205 62Z" fill="#F05332"/>
<path d="M306 43L307 44L306 43Z" fill="#FAD4BC"/>
<path d="M347 43L348 44L347 43Z" fill="#F7BAAC"/>
<path d="M395 43L396 44L395 43Z" fill="#F9CFBB"/>
<path d="M120 44L121 45L120 44Z" fill="#F39A8C"/>
<path d="M222 44L223 45L222 44Z" fill="#FAC4B1"/>
<path d="M351 44L352 45L351 44Z" fill="#F7BE9C"/>
<path d="M397 44L398 45L397 44Z" fill="#F3B196"/>
<path d="M46 45L47 46L46 45Z" fill="#EE958D"/>
<path d="M117 45L118 46L117 45Z" fill="#EF7E6B"/>
<path d="M219 45L220 46L219 45Z" fill="#EFBFB4"/>
<path d="M220 45L221 46L220 45Z" fill="#FE8463"/>
<path d="M355 45L356 46L355 45Z" fill="#FFA081"/>
<path d="M399 45L400 46L399 45Z" fill="#F89281"/>
<path d="M115 46L116 47L115 46Z" fill="#F7A997"/>
<path d="M217 46L218 47L217 46Z" fill="#F59791"/>
<path d="M358 46L359 47L358 46Z" fill="#FDBEA9"/>
<path d="M43 47L44 48L43 47Z" fill="#ED9E95"/>
<path d="M113 47L114 48L113 47Z" fill="#F5C1B9"/>
<path d="M215 47L216 48L215 47Z" fill="#FB7D62"/>
<path d="M361 47L362 48L361 47Z" fill="#F5CDC0"/>
<path d="M362 47L363 48L362 47Z" fill="#F9916E"/>
<path d="M404 47L405 48L404 47Z" fill="#F6CAB6"/>
<path d="M365 48L366 49L365 48Z" fill="#F88D78"/>
<path d="M406 48L407 49L406 48Z" fill="#F5AA92"/>
<path d="M40 49L41 50L40 49Z" fill="#FDCCBD"/>
<path d="M108 49L109 50L108 49Z" fill="#EE8373"/>
<path d="M211 49L212 50L211 49Z" fill="#F99178"/>
<path d="M368 49L369 50L368 49Z" fill="#F3A792"/>
<path d="M408 49L409 50L408 49Z" fill="#F7A07B"/>
<path d="M39 50L40 51L39 50Z" fill="#FB8569"/>
<path d="M46 50C46.936 56.313 42.065 64.176 49 68V70L45 71V68L39 69C40.186 67.814 40.584 67.472 42 67C40.929 62.511 40.286 57.604 40 53C23.057 59.654 28 83.45 28 98H26V65C24.448 68.699 25 73.017 25 77V98H23V81L17 79C17.768 80.314 17.686 80.232 19 81C17.138 87.299 18 94.463 18 101C18 115.209 19.03 129.846 18 144C25.292 141.289 26.734 134.129 27.741 127C29.837 112.152 29.672 97.19 35.426 83C36.859 79.467 38.741 75.789 42.019 73.63C44.902 71.73 49.483 72.737 50 69H54L52 66L48 67C48 62.233 49.786 53.308 46 50Z" fill="#EF4335"/>
<path d="M106 50L107 51L106 50Z" fill="#F48777"/>
<path d="M209 50L210 51L209 50Z" fill="#E9A799"/>
<path d="M371 50L372 51L371 50Z" fill="#EFA27E"/>
<path d="M298 51L299 52L298 51Z" fill="#FFAE97"/>
<path d="M374 51L375 52L374 51Z" fill="#F8A587"/>
<path d="M413 51L414 52L413 51Z" fill="#F6C6B2"/>
<path d="M206 52L207 53L206 52Z" fill="#F7BAA7"/>
<path d="M377 52L378 53L377 52Z" fill="#F79F88"/>
<path d="M415 52L416 53L415 52Z" fill="#FFC3BC"/>
<path d="M35 53L36 54L35 53Z" fill="#ED9F9B"/>
<path d="M101 53L102 54L101 53Z" fill="#FFBABC"/>
<path d="M380 53L381 54L380 53Z" fill="#FF9D8A"/>
<path d="M417 53L418 54L417 53Z" fill="#FCAD9C"/>
<path d="M34 54L35 55L34 54Z" fill="#F0847B"/>
<path d="M99 54L100 55L99 54Z" fill="#F48576"/>
<path d="M296 54L297 55L296 54Z" fill="#F3AB99"/>
<path d="M383 54L384 55L383 54Z" fill="#F79571"/>
<path d="M419 54L420 55L419 54Z" fill="#F69B79"/>
<path d="M0 126C2.103 128.762 1.899 131.839 3.228 135C6.434 142.624 13.148 146.316 21 144C19.502 143.521 19.65 143.6 18 144C19.59 129.766 18 114.372 18 100C18 93.482 19.558 85.041 17 79L23 81V98H25V65C27.946 74.968 26 87.623 26 98H28C28 88.212 26.261 76.53 28.599 67C29.754 62.29 32.646 59.056 35 55C30.21 57.234 26.671 61.201 23.039 65C12.529 75.995 4.577 91.039 1.515 106C0.172999 112.554 1.232 119.366 0 126Z" fill="#EE4234"/>
<path d="M385 55L386 56L385 55Z" fill="#EEC7BC"/>
<path d="M421 55L422 56L421 55Z" fill="#F59E81"/>
<path d="M96 56L97 57L96 56Z" fill="#F88579"/>
<path d="M201 56L202 57L201 56Z" fill="#F0BDAE"/>
<path d="M188 100C190.145 103.178 189.837 107.322 191.079 111C194.529 121.212 201.177 134.321 212 138L206 131C210.014 127.492 208 117.06 208 112V57C207.033 58.808 206.302 60.418 205 62C204.957 59.915 204.42 58.065 204 56C195.376 60.055 189.574 71.699 188.785 81C188.239 87.439 189.526 93.59 188 100Z" fill="#F05131"/>
<path d="M388 56L389 57L388 56Z" fill="#FCC1AE"/>
<path d="M200 57L201 58L200 57Z" fill="#FFC1B1"/>
<path d="M221 58C225.132 59.271 230.585 58 235 58C230.683 56.188 225.473 56.935 221 58Z" fill="#F0411A"/>
<path d="M426 57L427 58L426 57Z" fill="#F7D5C1"/>
<path d="M29 58L30 59L29 58Z" fill="#FCBABB"/>
<path d="M199 58L200 59L199 58Z" fill="#EECAAB"/>
<path d="M224.667 58.333C224.222 58.778 225.278 58.722 225.333 58.667C225.778 58.222 224.722 58.278 224.667 58.333Z" fill="#F1B89D"/>
<path d="M226 58C227.248 58.685 227.548 58.749 229 59C227.752 58.315 227.452 58.251 226 58Z" fill="#FFE0DB"/>
<path d="M231 58C232.248 58.685 232.548 58.749 234 59C232.752 58.315 232.452 58.251 231 58Z" fill="#F8E2DB"/>
<path d="M234.667 58.333C234.222 58.778 235.278 58.722 235.333 58.667C235.778 58.222 234.722 58.278 234.667 58.333Z" fill="#FF8D72"/>
<path d="M394 58L395 59L394 58Z" fill="#F49973"/>
<path d="M395 58C396.751 59.255 397.857 59.614 400 60C398.25 58.745 397.143 58.386 395 58Z" fill="#FB5812"/>
<path d="M428 58L429 59L428 58Z" fill="#F9CCBE"/>
<path d="M28 59L29 60L28 59Z" fill="#FAC4C2"/>
<path d="M92 59L93 60L92 59Z" fill="#EE7C66"/>
<path d="M222 59L223 60L222 59Z" fill="#FEC5C8"/>
<path d="M238 59L239 60L238 59Z" fill="#F6A790"/>
<path d="M293 59L294 60L293 59Z" fill="#F99178"/>
<path d="M396 59L397 60L396 59Z" fill="#FBC7BA"/>
<path d="M430 59L431 60L430 59Z" fill="#F8CCB4"/>
<path d="M27 60L28 61L27 60Z" fill="#FCB1AC"/>
<path d="M91 60L92 61L91 60Z" fill="#F68571"/>
<path d="M240 60L241 61L240 60Z" fill="#EECFA9"/>
<path d="M399 60L400 61L399 60Z" fill="#FAA17D"/>
<path d="M432 60L433 61L432 60Z" fill="#FDB594"/>
<path d="M26 61L27 62L26 61Z" fill="#F67F76"/>
<path d="M90 61L91 62L90 61Z" fill="#EF8876"/>
<path d="M242 61L243 62L242 61Z" fill="#EA8F75"/>
<path d="M292 61L293 62L292 61Z" fill="#F88D75"/>
<path d="M434 61L435 62L434 61Z" fill="#F4B490"/>
<path d="M25 62L26 63L25 62Z" fill="#F27F79"/>
<path d="M89 62L90 63L89 62Z" fill="#FA8977"/>
<path d="M196 62L197 63L196 62Z" fill="#F1776B"/>
<path d="M243 62L244 63L243 62Z" fill="#F8AEBA"/>
<path d="M404 62L405 63L404 62Z" fill="#FFBD9D"/>
<path d="M436 62L437 63L436 62Z" fill="#F39A73"/>
<path d="M24 63L25 64L24 63Z" fill="#F78580"/>
<path d="M88 63L89 64L88 63Z" fill="#F08874"/>
<path d="M195 63L196 64L195 63Z" fill="#F8B4B9"/>
<path d="M244 63L245 64L244 63Z" fill="#F7C8B3"/>
<path d="M407 63L408 64L407 63Z" fill="#F79A69"/>
<path d="M438 63L439 64L438 63Z" fill="#F89B7D"/>
<path d="M23 64L24 65L23 64Z" fill="#FFBFB7"/>
<path d="M218 64L219 65L218 64Z" fill="#F6B6A7"/>
<path d="M245 64L246 65L245 64Z" fill="#F79A7E"/>
<path d="M409 64L410 65L409 64Z" fill="#FFBFB3"/>
<path d="M22 65L23 66L22 65Z" fill="#F4BDCE"/>
<path d="M194 65L195 66L194 65Z" fill="#FF7360"/>
<path d="M412 65L413 66L412 65Z" fill="#F89A6C"/>
<path d="M21 66L22 67L21 66Z" fill="#F6C3B6"/>
<path d="M193 66L194 67L193 66Z" fill="#F8D3C2"/>
<path d="M290 66L291 67L290 66Z" fill="#F3B9A4"/>
<path d="M414 66L415 67L414 66Z" fill="#F7BAB9"/>
<path d="M445 66L446 67L445 66Z" fill="#F9C6B3"/>
<path d="M217 67V73C217.951 70.715 217.951 69.285 217 67Z" fill="#EF7351"/>
<path d="M417 67L418 68L417 67Z" fill="#F69075"/>
<path d="M447 67L448 68L447 67Z" fill="#F8CDAB"/>
<path d="M84 68L85 69L84 68Z" fill="#F5958B"/>
<path d="M192 68L193 69L192 68Z" fill="#EFABA0"/>
<path d="M289 68L290 69L289 68Z" fill="#FF8A6C"/>
<path d="M419 68L420 69L419 68Z" fill="#F3AB97"/>
<path d="M449 68L450 69L449 68Z" fill="#FDB28B"/>
<path d="M421 69L422 70L421 69Z" fill="#F4D0BF"/>
<path d="M451 69L452 70L451 69Z" fill="#FB937C"/>
<path d="M18 70L19 71L18 70Z" fill="#E57668"/>
<path d="M83 70L84 71L83 70Z" fill="#FECEC7"/>
<path d="M191 70L192 71L191 70Z" fill="#FFC6B7"/>
<path d="M248 70L249 71L248 70Z" fill="#EE9A73"/>
<path d="M424 70L425 71L424 70Z" fill="#F89F7F"/>
<path d="M453 70L454 71L453 70Z" fill="#F4947A"/>
<path d="M17 71L18 72L17 71Z" fill="#ECB1A4"/>
<path d="M248.333 71.667C248.278 71.722 248.222 72.778 248.667 72.333C248.722 72.278 248.778 71.222 248.333 71.667Z" fill="#FCDBD9"/>
<path d="M288 71L289 72L288 71Z" fill="#F09F83"/>
<path d="M426 71L427 72L426 71Z" fill="#FFC7B2"/>
<path d="M43 72L44 73L43 72Z" fill="#FA7B6F"/>
<path d="M44 72C45.506 72.683 46.315 72.826 48 73C46.494 72.317 45.685 72.174 44 72Z" fill="#FFD8DA"/>
<path d="M48 72L49 73L48 72Z" fill="#F67F70"/>
<path d="M429 72L430 73L429 72Z" fill="#E98F61"/>
<path d="M458 72L459 73L458 72Z" fill="#FDD2BD"/>
<path d="M41 73L42 74L41 73Z" fill="#F2807F"/>
<path d="M50 73L51 74L50 73Z" fill="#F88F8D"/>
<path d="M81 73L82 74L81 73Z" fill="#F8837E"/>
<path d="M190 73L191 74L190 73Z" fill="#F78A7C"/>
<path d="M431 73L432 74L431 73Z" fill="#F6A668"/>
<path d="M457 73C457.84 74.861 458.798 76.334 460 78L456 77C457.666 79.38 459.123 79.682 462 80L457 83C458.248 83.685 458.548 83.749 460 84C460.592 88.494 469.181 90.768 473 92.773C481.443 97.206 490.048 101.726 498 107C501.17 109.102 505.486 111.432 507.213 115.005C508.399 117.459 507.026 119.555 506.648 122C505.94 126.575 505.032 131.356 505 136C504.901 150.332 505 164.668 505 179C505 187.169 503.991 196.041 506 204L499 206C504.743 208.236 512.583 203.787 517.999 201.677C520.588 200.668 523.257 199.652 524.397 196.892C527.024 190.527 525 179.837 525 173V132C525.002 127.369 526.038 122.581 525.674 118C523.969 96.53 496.274 90.615 480 82.742C472.757 79.237 464.956 74.418 457 73Z" fill="#F26B29"/>
<path d="M460 73L461 74L460 73Z" fill="#F8CBB6"/>
<path d="M40 74L41 75L40 74Z" fill="#F9C7BF"/>
<path d="M217 74C216.796 77.201 215.953 79.949 215 83L216.5 82.833C217.106 87.482 216.469 91.151 218 96C214.557 96.514 215.021 100.944 215 104C214.938 112.999 215 122.001 215 131C212.16 130.859 211.381 131.33 209 133C210.304 135.378 211.571 138.101 214.21 139.257C220.653 142.079 226.926 136.292 227.246 130C227.938 116.381 224.646 104.091 221.373 91C219.997 85.495 219.448 79.092 217 74Z" fill="#F05330"/>
<path d="M249.333 74.667C249.278 74.722 249.222 75.778 249.667 75.333C249.722 75.278 249.778 74.222 249.333 74.667Z" fill="#EB7352"/>
<path d="M287 74L288 75L287 74Z" fill="#FD9D8C"/>
<path d="M433 74L434 75L433 74Z" fill="#F8CAAF"/>
<path d="M462 74L463 75L462 74Z" fill="#F1C099"/>
<path d="M14 75L15 76L14 75Z" fill="#FFC8C0"/>
<path d="M39 75L40 76L39 75Z" fill="#F9C6BE"/>
<path d="M80 75L81 76L80 75Z" fill="#F6897F"/>
<path d="M436 75L437 76L436 75Z" fill="#F4905A"/>
<path d="M464 75L465 76L464 75Z" fill="#F4B692"/>
<path d="M38 76L39 77L38 76Z" fill="#FD9397"/>
<path d="M53 76L54 77L53 76Z" fill="#FBA49A"/>
<path d="M189 76L190 77L189 76Z" fill="#EF8B70"/>
<path d="M249.333 76.667C249.278 76.722 249.222 77.778 249.667 77.333C249.722 77.278 249.778 76.222 249.333 76.667Z" fill="#F7B5A2"/>
<path d="M438 76L439 77L438 76Z" fill="#FB9B78"/>
<path d="M466 76L467 77L466 76Z" fill="#EF9C76"/>
<path d="M13 77L14 78L13 77Z" fill="#F48277"/>
<path d="M218.333 77.667C218.278 77.722 218.222 78.778 218.667 78.333C218.722 78.278 218.778 77.222 218.333 77.667Z" fill="#FA9D84"/>
<path d="M286 77L287 78L286 77Z" fill="#F69D83"/>
<path d="M440 77L441 78L440 77Z" fill="#EDB694"/>
<path d="M468 77L469 78L468 77Z" fill="#F09871"/>
<path d="M37 78L38 79L37 78Z" fill="#F8A894"/>
<path d="M54 78L55 79L54 78Z" fill="#FF8F85"/>
<path d="M79 78L80 79L79 78Z" fill="#F6C3C1"/>
<path d="M442 78L443 79L442 78Z" fill="#F8D0BB"/>
<path d="M188 79L189 80L188 79Z" fill="#FCC6C5"/>
<path d="M445 79L446 80L445 79Z" fill="#F48D5F"/>
<path d="M473 79L474 80L473 79Z" fill="#F5C8BE"/>
<path d="M11 80L12 81L11 80Z" fill="#FFBFB9"/>
<path d="M36 80L37 81L36 80Z" fill="#FD9892"/>
<path d="M78 80L79 81L78 80Z" fill="#F1786E"/>
<path d="M188.333 80.667C188.278 80.722 188.222 81.778 188.667 81.333C188.722 81.278 188.778 80.222 188.333 80.667Z" fill="#F67159"/>
<path d="M285 80L286 81L285 80Z" fill="#F28B6E"/>
<path d="M447 80L448 81L447 80Z" fill="#F7A36D"/>
<path d="M475 80L476 81L475 80Z" fill="#F5CEAC"/>
<path d="M78 81L79 82L78 81Z" fill="#FCBDB4"/>
<path d="M285 81L286 82L285 81Z" fill="#FBC0B5"/>
<path d="M449 81L450 82L449 81Z" fill="#FFB49A"/>
<path d="M477 81L478 82L477 81Z" fill="#F1B59E"/>
<path d="M10 82L11 83L10 82Z" fill="#F09A92"/>
<path d="M35 82L36 83L35 82Z" fill="#EE8582"/>
<path d="M55.333 82.667C55.278 82.722 55.222 83.778 55.667 83.333C55.722 83.278 55.778 82.222 55.333 82.667Z" fill="#F29F9A"/>
<path d="M219.333 82.667C219.278 82.722 219.222 83.778 219.667 83.333C219.722 83.278 219.778 82.222 219.333 82.667Z" fill="#F5A086"/>
<path d="M250.333 82.667C250.278 82.722 250.222 83.778 250.667 83.333C250.722 83.278 250.778 82.222 250.333 82.667Z" fill="#EF836C"/>
<path d="M451 82L452 83L451 82Z" fill="#F3B498"/>
<path d="M479 82L480 83L479 82Z" fill="#F5B696"/>
<path d="M188 83V99C189.812 94.681 189.812 87.319 188 83Z" fill="#EE411E"/>
<path d="M453 83L454 84L453 83Z" fill="#F8CBB4"/>
<path d="M481 83L482 84L481 83Z" fill="#F69B7A"/>
<path d="M9 84L10 85L9 84Z" fill="#F09F96"/>
<path d="M55 84V87C55.696 85.446 55.696 85.554 55 84Z" fill="#FFD1D2"/>
<path d="M77 84L78 85L77 84Z" fill="#F99589"/>
<path d="M187 84V87C187.696 85.446 187.696 85.554 187 84Z" fill="#FCDFDA"/>
<path d="M250.333 84.667C250.278 84.722 250.222 85.778 250.667 85.333C250.722 85.278 250.778 84.222 250.333 84.667Z" fill="#F1A99B"/>
<path d="M284 84L285 85L284 84Z" fill="#FD8D70"/>
<path d="M455 84L456 85L455 84Z" fill="#FFC8BB"/>
<path d="M483 84L484 85L483 84Z" fill="#F69671"/>
<path d="M34 85L35 86L34 85Z" fill="#ED9185"/>
<path d="M284 85L285 86L284 85Z" fill="#FFC5B8"/>
<path d="M8 86L9 87L8 86Z" fill="#F6A49F"/>
<path d="M250 86V89C250.696 87.446 250.696 87.554 250 86Z" fill="#FFE5DF"/>
<path d="M460 86L461 87L460 86Z" fill="#FB8B5F"/>
<path d="M488 86L489 87L488 86Z" fill="#F6CDBC"/>
<path d="M187 87V94C188.059 91.466 188.059 89.534 187 87Z" fill="#F6A493"/>
<path d="M220 87L221 88L220 87Z" fill="#F7AB96"/>
<path d="M462 87L463 88L462 87Z" fill="#F2A071"/>
<path d="M490 87L491 88L490 87Z" fill="#FCC4AE"/>
<path d="M7 88L8 89L7 88Z" fill="#F8A096"/>
<path d="M33 88L34 89L33 88Z" fill="#F28782"/>
<path d="M76.333 88.667C76.278 88.722 76.222 89.778 76.667 89.333C76.722 89.278 76.778 88.222 76.333 88.667Z" fill="#FAA294"/>
<path d="M282 88V92C282.71 90.24 282.71 89.76 282 88Z" fill="#F3441B"/>
<path d="M283 88L284 89L283 88Z" fill="#FA9179"/>
<path d="M464 88L465 89L464 88Z" fill="#FC9A73"/>
<path d="M492 88L493 89L492 88Z" fill="#F1B697"/>
<path d="M33 89L34 90L33 89Z" fill="#F7D1C6"/>
<path d="M56 89V110C58.153 104.869 58.153 94.131 56 89Z" fill="#EB361A"/>
<path d="M466 89L467 90L466 89Z" fill="#FB9E79"/>
<path d="M494 89L495 90L494 89Z" fill="#FDB78B"/>
<path d="M6 90L7 91L6 90Z" fill="#F7C2B9"/>
<path d="M468 90L469 91L468 90Z" fill="#F99C71"/>
<path d="M496 90L497 91L496 90Z" fill="#F1A06B"/>
<path d="M221 91L222 92L221 91Z" fill="#FAAD9B"/>
<path d="M470 91L471 92L470 91Z" fill="#FC9E73"/>
<path d="M498 91L499 92L498 91Z" fill="#F79E73"/>
<path d="M32 92L33 93L32 92Z" fill="#ED938C"/>
<path d="M472 92L473 93L472 92Z" fill="#F79B6C"/>
<path d="M5 93L6 94L5 93Z" fill="#FA7D80"/>
<path d="M282.333 93.667C282.278 93.722 282.222 94.778 282.667 94.333C282.722 94.278 282.778 93.222 282.333 93.667Z" fill="#F4D2CC"/>
<path d="M474 93L475 94L474 93Z" fill="#F39D7A"/>
<path d="M503 93L504 94L503 93Z" fill="#F9CEBB"/>
<path d="M75.333 94.667C75.278 94.722 75.222 95.778 75.667 95.333C75.722 95.278 75.778 94.222 75.333 94.667Z" fill="#FDC2BE"/>
<path d="M187 94V97C187.696 95.446 187.696 95.554 187 94Z" fill="#FFD4D7"/>
<path d="M476 94L477 95L476 94Z" fill="#EF9F6D"/>
<path d="M505 94L506 95L505 94Z" fill="#F9CCB5"/>
<path d="M4 95L5 96L4 95Z" fill="#FBBABE"/>
<path d="M222 95L223 96L222 95Z" fill="#F7A797"/>
<path d="M251 95V99C251.71 97.24 251.71 96.76 251 95Z" fill="#F5A68F"/>
<path d="M507 95L508 96L507 95Z" fill="#F8B296"/>
<path d="M31 96L32 97L31 96Z" fill="#F28884"/>
<path d="M509 96L510 97L509 96Z" fill="#F4BB95"/>
<path d="M31 97L32 98L31 97Z" fill="#FFBEB7"/>
<path d="M511 97L512 98L511 97Z" fill="#F9C2BB"/>
<path d="M3 98L4 99L3 98Z" fill="#F9ADAC"/>
<path d="M223 98L224 99L223 98Z" fill="#FFCFC3"/>
<path d="M281.333 98.667C281.278 98.722 281.222 99.778 281.667 99.333C281.722 99.278 281.778 98.222 281.333 98.667Z" fill="#FCC3B2"/>
<path d="M483 98L484 99L483 98Z" fill="#F9CAB3"/>
<path d="M74 99V102C74.696 100.446 74.696 100.554 74 99Z" fill="#F4A495"/>
<path d="M223 99L224 100L223 99Z" fill="#F69D88"/>
<path d="M251 99V102C251.696 100.446 251.696 100.554 251 99Z" fill="#FFE4DB"/>
<path d="M485 99L486 100L485 99Z" fill="#F4B99E"/>
<path d="M188.333 100.667C188.278 100.722 188.222 101.778 188.667 101.333C188.722 101.278 188.778 100.222 188.333 100.667Z" fill="#F4A3A0"/>
<path d="M189 100V104C189.71 102.24 189.71 101.759 189 100Z" fill="#F03718"/>
<path d="M487 100L488 101L487 100Z" fill="#FBA57F"/>
<path d="M516 100L517 101L516 100Z" fill="#FCDCBF"/>
<path d="M2 101L3 102L2 101Z" fill="#FEBEB9"/>
<path d="M30.333 101.667C30.278 101.722 30.222 102.778 30.667 102.333C30.722 102.278 30.778 101.222 30.333 101.667Z" fill="#F3ACAA"/>
<path d="M517 101L518 102L517 101Z" fill="#F5A983"/>
<path d="M2 102L3 103L2 102Z" fill="#F27464"/>
<path d="M55 103V108C55.83 105.969 55.83 105.03 55 103Z" fill="#F7D8D9"/>
<path d="M224 103L225 104L224 103Z" fill="#EC9B88"/>
<path d="M252 103V107C252.71 105.24 252.71 104.759 252 103Z" fill="#F43F13"/>
<path d="M492 103L493 104L492 103Z" fill="#F7AE9B"/>
<path d="M280.333 104.667C280.278 104.722 280.222 105.778 280.667 105.333C280.722 105.278 280.778 104.222 280.333 104.667Z" fill="#FCB4A8"/>
<path d="M494 104L495 105L494 104Z" fill="#F3905E"/>
<path d="M1 105L2 106L1 105Z" fill="#FFAAAD"/>
<path d="M73.333 105.667C73.278 105.722 73.222 106.778 73.667 106.333C73.722 106.278 73.778 105.222 73.333 105.667Z" fill="#F77772"/>
<path d="M189 105L190 106L189 105Z" fill="#F58E6F"/>
<path d="M521 105L522 106L521 105Z" fill="#FFA379"/>
<path d="M189 106L190 107L189 106Z" fill="#F8C1C5"/>
<path d="M497 106L498 107L497 106Z" fill="#F8B797"/>
<path d="M517 106V194H513C514.248 194.685 514.548 194.749 516 195C515.536 197.172 514.895 198.958 514 201C516.466 199.972 517.441 199.579 518 197C525.835 195.692 523 183.139 523 177C523 155.961 523.567 134.968 524 114C522.686 114.768 522.768 114.686 522 116C520.962 111.405 522.05 107.938 517 106Z" fill="#F26D2A"/>
<path d="M29 107V111C29.71 109.24 29.71 108.76 29 107Z" fill="#EA6662"/>
<path d="M73 107V110C73.696 108.446 73.696 108.554 73 107Z" fill="#F7C9BD"/>
<path d="M225 107L226 108L225 107Z" fill="#F3AC9E"/>
<path d="M55 108V112C55.71 110.24 55.71 109.759 55 108Z" fill="#F49A97"/>
<path d="M252 108V113C252.83 110.969 252.83 110.03 252 108Z" fill="#F96D60"/>
<path d="M500 108L501 109L500 108Z" fill="#FFB491"/>
<path d="M523 108L524 109L523 108Z" fill="#FBAF8E"/>
<path d="M190 109L191 110L190 109Z" fill="#F3B4A0"/>
<path d="M0.333002 110.667C0.278002 110.722 0.222016 111.778 0.667016 111.333C0.722016 111.278 0.778002 110.222 0.333002 110.667Z" fill="#FF9994"/>
<path d="M253 110V136C255.477 130.097 255.477 115.903 253 110Z" fill="#EE4517"/>
<path d="M278 110V118C279.161 115.23 279.161 112.77 278 110Z" fill="#F3491B"/>
<path d="M279.333 110.667C279.278 110.722 279.222 111.778 279.667 111.333C279.722 111.278 279.778 110.222 279.333 110.667Z" fill="#FB9482"/>
<path d="M503 110L504 111L503 110Z" fill="#EF9F77"/>
<path d="M524 110L525 111L524 110Z" fill="#F4D4B3"/>
<path d="M29 111V115C29.71 113.241 29.71 112.759 29 111Z" fill="#EDA89E"/>
<path d="M226 111L227 112L226 111Z" fill="#F3BFA8"/>
<path d="M504 111L505 112L504 111Z" fill="#FFC6BD"/>
<path d="M0.333002 112.667C0.278002 112.722 0.222016 113.778 0.667016 113.333C0.722016 113.278 0.778002 112.222 0.333002 112.667Z" fill="#EC625C"/>
<path d="M55 112V115C55.696 113.446 55.696 113.554 55 112Z" fill="#FD6056"/>
<path d="M191 112L192 113L191 112Z" fill="#F2BAB1"/>
<path d="M279.333 112.667C279.278 112.722 279.222 113.778 279.667 113.333C279.722 113.278 279.778 112.222 279.333 112.667Z" fill="#FACCC1"/>
<path d="M400 112C401.248 112.685 401.548 112.749 403 113C401.752 112.315 401.452 112.251 400 112Z" fill="#FFE4D6"/>
<path d="M403 112C404.506 112.683 405.315 112.826 407 113C405.494 112.317 404.685 112.174 403 112Z" fill="#F8AC8E"/>
<path d="M407 112C411.724 113.982 417.91 113 423 113C418.276 111.018 412.09 112 407 112Z" fill="#F38053"/>
<path d="M423 112C425.332 112.985 427.457 112.981 430 113C427.668 112.015 425.543 112.019 423 112Z" fill="#F3B498"/>
<path d="M430 112C431.506 112.683 432.315 112.826 434 113C432.494 112.317 431.685 112.174 430 112Z" fill="#FFE7D2"/>
<path d="M72.333 113.667C72.278 113.722 72.222 114.778 72.667 114.333C72.722 114.278 72.778 113.222 72.333 113.667Z" fill="#F26054"/>
<path d="M252 113V119C252.951 116.715 252.951 115.285 252 113Z" fill="#F9AD95"/>
<path d="M393 113C394.248 113.685 394.548 113.749 396 114C394.752 113.315 394.451 113.251 393 113Z" fill="#FCCCBC"/>
<path d="M379 118C380.248 118.685 380.548 118.749 382 119C379.834 130.665 381 143.165 381 155V217C381 227.976 382.55 240.288 380 251C387.185 249.924 394.237 246.609 401 244C399.752 243.315 399.452 243.251 398 243V122C394.895 129.399 397 140.993 397 149V211V231C397 235.661 397.485 239.587 394 243C395.692 237.275 395 230.94 395 225V194C395 171.912 393.236 149.01 395.058 127.004C395.451 122.251 398.73 118.896 399 114H439C433.784 111.811 426.619 113 421 113C406.127 113 393.262 113.361 379 118Z" fill="#F1612C"/>
<path d="M439 113C440.248 113.685 440.548 113.749 442 114C440.752 113.315 440.452 113.251 439 113Z" fill="#F58352"/>
<path d="M442 113C443.248 113.685 443.548 113.749 445 114C443.752 113.315 443.452 113.251 442 113Z" fill="#F8B79F"/>
<path d="M445.667 113.333C445.222 113.778 446.278 113.722 446.333 113.667C446.778 113.222 445.722 113.278 445.667 113.333Z" fill="#FDE0D6"/>
<path d="M0 114V124C1.346 120.793 1.346 117.207 0 114Z" fill="#EC2B1D"/>
<path d="M192 114L193 115L192 114Z" fill="#FA8C70"/>
<path d="M389.667 114.333C389.222 114.778 390.278 114.722 390.333 114.667C390.778 114.222 389.722 114.278 389.667 114.333Z" fill="#F8A18B"/>
<path d="M399 114C398.537 118.15 395.737 121.039 395.144 125.039C394.054 132.402 395 140.559 395 148V195C395 210.256 397.539 228.136 394 243C397.349 240.829 396.992 237.787 397 234V213V122C400.523 133.917 398 149.581 398 162V243C406.945 243.88 415.52 238.315 424 236C422.003 235.065 419.32 234.659 418.027 232.683C416.473 230.309 417.001 226.689 417 224V205V114H399Z" fill="#F2622D"/>
<path d="M417 114V202V224C417 226.693 416.228 231.125 418.028 233.397C421.459 237.729 431.005 233.299 435 232C432.413 230.935 430.679 231.219 428 232C427.238 230.128 425.828 228.569 427 227C425.494 226.317 424.685 226.174 423 226V114H417Z" fill="#F1642C"/>
<path d="M423 114V226H427C425.466 227.023 425.598 226.805 425 228C426.855 229.277 430.07 230.888 431.228 227.681C432.025 225.472 431.07 222.307 431.015 220C430.878 214.34 431 208.662 431 203V114H423Z" fill="#F3642C"/>
<path d="M431 114V197C431 207.953 433.791 222.64 428 232C432.008 231.045 440.004 228.599 443.911 229.637C447.418 230.568 449.85 234.819 453.004 236.633C462.071 241.848 475.432 239.466 479 229C467.669 232.591 458.008 225.726 455.549 213.83C454.784 210.126 455.905 205.777 456 202C455.315 203.248 455.251 203.548 455 205C453.054 198.416 454 190.834 454 184V144C454 138.473 456.344 125.796 452 122C453.479 121.014 453.203 121 455 121C453.231 120.221 451.964 120.088 450 120C454.81 118.565 460.069 117.928 465 119C462.674 115.694 458.843 115.533 455 115C446.985 113.889 439.08 114 431 114Z" fill="#F2662B"/>
<path d="M451.667 114.333C451.222 114.778 452.278 114.722 452.333 114.667C452.778 114.222 451.722 114.278 451.667 114.333Z" fill="#F4B59D"/>
<path d="M453.667 114.333C453.222 114.778 454.278 114.722 454.333 114.667C454.778 114.222 453.722 114.278 453.667 114.333Z" fill="#FEDDD2"/>
<path d="M507 114L508 115L507 114Z" fill="#EBB79C"/>
<path d="M525 114V117C525.696 115.446 525.696 115.554 525 114Z" fill="#EF9D70"/>
<path d="M29.333 115.667C29.278 115.722 29.222 116.778 29.667 116.333C29.722 116.278 29.778 115.222 29.333 115.667Z" fill="#F5DFDF"/>
<path d="M72 115V118C72.696 116.446 72.696 116.554 72 115Z" fill="#FF9B93"/>
<path d="M386 115L387 116L386 115Z" fill="#F79F85"/>
<path d="M458 115C459.248 115.685 459.548 115.749 461 116C459.752 115.315 459.452 115.251 458 115Z" fill="#F3BCA6"/>
<path d="M71 116V124C72.161 121.23 72.161 118.77 71 116Z" fill="#EB2F1C"/>
<path d="M227.333 116.667C227.278 116.722 227.222 117.778 227.667 117.333C227.722 117.278 227.778 116.222 227.333 116.667Z" fill="#EBAD9D"/>
<path d="M383 116L384 117L383 116Z" fill="#FFA17E"/>
<path d="M463 116C464.248 116.685 464.548 116.749 466 117C464.752 116.315 464.452 116.251 463 116Z" fill="#F49F6B"/>
<path d="M508.333 116.667C508.278 116.722 508.222 117.778 508.667 117.333C508.722 117.278 508.778 116.222 508.333 116.667Z" fill="#F88957"/>
<path d="M193 117L194 118L193 117Z" fill="#FCC3C2"/>
<path d="M380 117L381 118L380 117Z" fill="#FDBBA4"/>
<path d="M465 119C460.055 117.579 455.094 118.958 450 119C456.088 121.56 464.424 120.963 471 121C468.894 121.644 467.205 121.906 465 122C465 141.502 466.445 161.653 464 181C468.835 184.302 473.365 185.509 479 187C478.769 184.874 478.754 183.121 479 181C475.776 175.68 477 168.034 477 162V121H484C479.736 118.947 468.504 115.052 465 119Z" fill="#F2682A"/>
<path d="M470.667 117.333C470.222 117.778 471.278 117.722 471.333 117.667C471.778 117.222 470.722 117.278 470.667 117.333Z" fill="#F6CAC1"/>
<path d="M72 118V121C72.696 119.446 72.696 119.554 72 118Z" fill="#F7DED6"/>
<path d="M227.333 118.667C227.278 118.722 227.222 119.778 227.667 119.333C227.722 119.278 227.778 118.222 227.333 118.667Z" fill="#FA7253"/>
<path d="M278 118V121C278.696 119.446 278.696 119.554 278 118Z" fill="#F37C5E"/>
<path d="M378 118L379 119L378 118Z" fill="#FEA283"/>
<path d="M475.667 118.333C475.222 118.778 476.278 118.722 476.333 118.667C476.778 118.222 475.722 118.278 475.667 118.333Z" fill="#FCBCA0"/>
<path d="M54 119V122C54.696 120.446 54.696 120.554 54 119Z" fill="#FBD4D7"/>
<path d="M194 119L195 120L194 119Z" fill="#FDC5BC"/>
<path d="M252 119V126C253.059 123.466 253.059 121.534 252 119Z" fill="#FFE1D2"/>
<path d="M376 119L377 120L376 119Z" fill="#F9927A"/>
<path d="M358 136L368 130V232C368 238.665 368.073 245.335 367.996 252C367.923 258.339 366.894 263.332 372 268C374.807 262.091 378.867 255.131 380.571 248.91C381.744 244.627 381 239.407 381 235V209C381 179.432 378.294 148.325 382 119C371.719 119.533 362.476 127.039 358 136Z" fill="#F2602D"/>
<path d="M479 119C480.248 119.685 480.548 119.749 482 120C480.752 119.315 480.452 119.251 479 119Z" fill="#F18F67"/>
<path d="M507 119L508 120L507 119Z" fill="#F8CBBB"/>
<path d="M28.333 120.667C28.278 120.722 28.222 121.778 28.667 121.333C28.722 121.278 28.778 120.222 28.333 120.667Z" fill="#F56460"/>
<path d="M374 120L375 121L374 120Z" fill="#F89E86"/>
<path d="M452 121C455.98 128.156 454 139.007 454 147V205C458.961 198.062 459.703 190.341 468 186C467.188 183.218 466.547 182.373 464 181C467.49 162.201 465 141.103 465 122H471C465.535 119.648 457.786 119.973 452 121Z" fill="#F2672C"/>
<path d="M477 121V166C477 169.801 475.358 179.09 479 181C477.561 188.022 483.663 192.708 485.896 199C486.913 201.866 486.843 206.053 488.937 208.397C490.477 210.121 492.906 209.931 495 210C493.315 208.397 492.141 207.025 491 205C492.915 206.277 492.085 206.277 494 205C491.432 196.77 492 188.557 492 180V145L491.999 129C491.985 126.995 492.294 124.295 490.972 122.6C488.296 119.166 480.731 120.933 477 121Z" fill="#F3692A"/>
<path d="M485.667 120.333C485.222 120.778 486.278 120.722 486.333 120.667C486.778 120.222 485.722 120.278 485.667 120.333Z" fill="#F5B58A"/>
<path d="M227 121V130C228.256 127.006 228.256 123.994 227 121Z" fill="#EC411A"/>
<path d="M278 121V124C278.696 122.446 278.696 122.554 278 121Z" fill="#F4AAA0"/>
<path d="M372 121L373 122L372 121Z" fill="#FFBCAE"/>
<path d="M491.667 121.333C491.222 121.778 492.278 121.722 492.333 121.667C492.778 121.222 491.722 121.278 491.667 121.333Z" fill="#F4AF90"/>
<path d="M493.667 121.333C493.222 121.778 494.278 121.722 494.333 121.667C494.778 121.222 493.722 121.278 493.667 121.333Z" fill="#FFE5DC"/>
<path d="M505 121L506 122L505 121Z" fill="#F6BB8F"/>
<path d="M28.333 122.667C28.278 122.722 28.222 123.778 28.667 123.333C28.722 123.278 28.778 122.222 28.333 122.667Z" fill="#F5A397"/>
<path d="M54 122V125C54.696 123.446 54.696 123.554 54 122Z" fill="#F39F98"/>
<path d="M492 122V177C492 186.05 490.415 196.54 494 205H491C492.958 209.974 496.44 209.349 501 208C500.402 206.805 500.534 207.023 499 206L506 204C502.281 183.965 504.999 161.363 505 141C505 134.841 507.459 127.837 506 122C501.206 122.85 496.814 122.099 492 122Z" fill="#F16A2A"/>
<path d="M498 122C500.052 122.874 501.747 122.953 504 123C501.948 122.126 500.253 122.047 498 122Z" fill="#EE8452"/>
<path d="M525 122V195C527.189 189.784 526 182.619 526 177V141C526 135.113 527.292 127.462 525 122Z" fill="#F1580E"/>
<path d="M369 123L370 124L369 123Z" fill="#F0A286"/>
<path d="M197 124L198 125L197 124Z" fill="#F4A98E"/>
<path d="M228 124V127C228.696 125.446 228.696 125.554 228 124Z" fill="#FCDBD0"/>
<path d="M278 124V127C278.696 125.446 278.696 125.554 278 124Z" fill="#FFD7D5"/>
<path d="M54 125V128C54.696 126.446 54.696 126.554 54 125Z" fill="#F56758"/>
<path d="M70 125V145C72.087 140.027 72.087 129.973 70 125Z" fill="#ED3B28"/>
<path d="M71 125V131C71.951 128.715 71.951 127.285 71 125Z" fill="#F06758"/>
<path d="M277 125V131C277.951 128.715 277.951 127.285 277 125Z" fill="#E64512"/>
<path d="M366 125L367 126L366 125Z" fill="#FFBBA5"/>
<path d="M0 126L1 127L0 126Z" fill="#F98C8C"/>
<path d="M1 126V130C1.71 128.24 1.71 127.759 1 126Z" fill="#EA3123"/>
<path d="M365 126L366 127L365 126Z" fill="#F88668"/>
<path d="M199 127L200 128L199 127Z" fill="#F8B0AE"/>
<path d="M27.333 128.667C27.278 128.722 27.222 129.778 27.667 129.333C27.722 129.278 27.778 128.222 27.333 128.667Z" fill="#FB9E99"/>
<path d="M200 128L201 129L200 128Z" fill="#F58564"/>
<path d="M361 129L362 130L361 129Z" fill="#F9C7AC"/>
<path d="M1 130L2 131L1 130Z" fill="#EF7462"/>
<path d="M360 130L361 131L360 130Z" fill="#FCCFAE"/>
<path d="M367 130C363.646 131.832 360.989 133.603 358 136C358.957 134.483 359.387 133.661 360 132C356.805 134.275 354.663 136.439 353 140C355.042 139.105 356.828 138.464 359 138V142C358.014 140.521 358 140.797 358 139C355.598 141.122 354.089 142.979 353 146L357 145V200C357 206.532 358.972 216.131 354 221C359.989 230.949 364.328 240.177 361.073 252C356.299 269.344 338.771 276.554 325 264H323C321.161 267.534 321.425 271.781 318 274C320.745 276.37 327.462 279.385 324 284C339.342 287.969 360.472 286.778 369.343 271C371.452 267.249 368.535 263.784 368.037 260C367.064 252.602 368 244.47 368 237V163V142C368 138.017 368.552 133.699 367 130Z" fill="#F15F2C"/>
<path d="M1 131L2 132L1 131Z" fill="#F9BAB4"/>
<path d="M71 131V140C72.256 137.006 72.256 133.994 71 131Z" fill="#F6A498"/>
<path d="M227.333 131.667C227.278 131.722 227.222 132.778 227.667 132.333C227.722 132.278 227.778 131.222 227.333 131.667Z" fill="#FCC6C8"/>
<path d="M359 131L360 132L359 131Z" fill="#FBCDAC"/>
<path d="M53 132V135C53.696 133.446 53.696 133.554 53 132Z" fill="#FCDAD4"/>
<path d="M203 132L204 133L203 132Z" fill="#FDBEBC"/>
<path d="M277 132V138C277.951 135.715 277.951 134.285 277 132Z" fill="#E7794F"/>
<path d="M358 132L359 133L358 132Z" fill="#FFCCB1"/>
<path d="M2 133L3 134L2 133Z" fill="#EE8373"/>
<path d="M26 133L27 134L26 133Z" fill="#F7A59D"/>
<path d="M204 133L205 134L204 133Z" fill="#F7C4AC"/>
<path d="M357 133L358 134L357 133Z" fill="#F7CCAA"/>
<path d="M205 134L206 135L205 134Z" fill="#F5D5BA"/>
<path d="M226 134L227 135L226 134Z" fill="#F6AD92"/>
<path d="M356 134L357 135L356 134Z" fill="#FBCCB8"/>
<path d="M53 135V138C53.696 136.446 53.696 136.554 53 135Z" fill="#F59B8C"/>
<path d="M25 136L26 137L25 136Z" fill="#F6908E"/>
<path d="M4 137L5 138L4 137Z" fill="#FA8D82"/>
<path d="M209 137L210 138L209 137Z" fill="#FBB5B3"/>
<path d="M224 137L225 138L224 137Z" fill="#FFC4B6"/>
<path d="M253 137V154C254.883 149.514 254.883 141.486 253 137Z" fill="#F6755A"/>
<path d="M276 137V153C277.812 148.681 277.812 141.319 276 137Z" fill="#EE4B1F"/>
<path d="M53 138V141C53.696 139.446 53.696 139.554 53 138Z" fill="#F16E63"/>
<path d="M211 138L212 139L211 138Z" fill="#F19D86"/>
<path d="M254 138V182C255.552 178.301 255 173.983 255 170V150C255 146.017 255.552 141.699 254 138Z" fill="#EF4B26"/>
<path d="M277 138V149C278.431 145.59 278.431 141.41 277 138Z" fill="#F7AB93"/>
<path d="M352 140L353 143C350.549 145.086 349.736 148.87 349 152C347.521 151.014 347.797 151 346 151C346.076 153.135 345.032 154.695 345 157C344.808 170.66 345 184.338 345 198C345 204.613 343.428 212.313 351 215L347 216C348.81 217.725 353.429 222.173 355.972 219.342C359.05 215.916 357 204.401 357 200V145L353 146L357 139C357.986 140.479 358 140.203 358 142C358.683 140.494 358.826 139.685 359 138C356.416 138.322 354.398 138.973 352 140Z" fill="#F05E2D"/>
<path d="M213 139L214 140L213 139Z" fill="#F5B8A5"/>
<path d="M221 139L222 140L221 139Z" fill="#EFAA98"/>
<path d="M352 139L353 140L352 139Z" fill="#F68855"/>
<path d="M6 140L7 141L6 140Z" fill="#F3BAAD"/>
<path d="M71 140V145C71.83 142.969 71.83 142.03 71 140Z" fill="#F06E5B"/>
<path d="M217.667 140.333C217.222 140.778 218.278 140.722 218.333 140.667C218.778 140.222 217.722 140.278 217.667 140.333Z" fill="#FBE3D9"/>
<path d="M351 140L352 141L351 140Z" fill="#F89785"/>
<path d="M7 141L8 142L7 141Z" fill="#FFBDBA"/>
<path d="M350 141L351 142L350 141Z" fill="#FFBAA8"/>
<path d="M329 170L333 169V212C336.4 212.432 341.288 214.364 344 212C346.037 214.546 347.592 213.632 347 216H351C349.231 213.717 346.629 211.564 345.589 208.829C343.478 203.282 345 194.882 345 189C345 176.301 345.747 163.534 346 151L349 152L353 141C348.658 143.042 346.112 146.488 342.925 150C337.676 155.785 329.903 161.893 329 170Z" fill="#F15D2D"/>
<path d="M22 142L23 143L22 142Z" fill="#FCBDAF"/>
<path d="M349 142L350 143L349 142Z" fill="#F6CFB4"/>
<path d="M21 143L22 144L21 143Z" fill="#F7C2BB"/>
<path d="M11 144L12 145L11 144Z" fill="#FBBFBC"/>
<path d="M53 144V154C54.346 150.793 54.346 147.207 53 144Z" fill="#EE2F1C"/>
<path d="M14 145C15.769 145.779 17.036 145.912 19 146C17.231 145.221 15.964 145.088 14 145Z" fill="#F5A195"/>
<path d="M345 147L346 148L345 147Z" fill="#F88967"/>
<path d="M72 148V151C72.696 149.446 72.696 149.554 72 148Z" fill="#FDE1DD"/>
<path d="M344 148L345 149L344 148Z" fill="#F5907C"/>
<path d="M277 149V155C277.951 152.715 277.951 151.285 277 149Z" fill="#F97D58"/>
<path d="M343 149L344 150L343 149Z" fill="#FAB39E"/>
<path d="M342 150L343 151L342 150Z" fill="#FFC8AF"/>
<path d="M72 151V154C72.696 152.446 72.696 152.554 72 151Z" fill="#FD8F87"/>
<path d="M53.333 154.667C53.278 154.722 53.222 155.778 53.667 155.333C53.722 155.278 53.778 154.222 53.333 154.667Z" fill="#EE6962"/>
<path d="M253 154V178C255.349 172.403 255.349 159.597 253 154Z" fill="#F7AB92"/>
<path d="M72 155C72.117 157.73 72.499 160.314 73 163C74.038 160.102 73.433 157.696 72 155Z" fill="#F83A27"/>
<path d="M53 156V159C53.696 157.446 53.696 157.554 53 156Z" fill="#F29A94"/>
<path d="M277 156C276.086 160.101 275.491 165.714 273 169C276.625 175.518 275 184.736 275 192V243C275 249.069 277.579 262.383 272 266C274.535 267.502 276.131 267.608 279 267C282.999 272.121 292.005 271.983 298 272C295.172 270.607 292.056 269.811 289 269C291.221 268.61 292.754 268.665 295 269C295 266.353 296.539 267 299 267C297.018 258.676 298 249.518 298 241V194H302C300.752 193.315 300.452 193.251 299 193C303.488 192.433 308.094 195.465 311 191C308.636 191 308.76 190.281 308 188C304.067 189.073 300.13 191.107 296 191.235C277.087 191.82 281.571 166.869 277 156Z" fill="#F0582F"/>
<path d="M337 156L338 157L337 156Z" fill="#F6987A"/>
<path d="M73.333 157.667C73.278 157.722 73.222 158.778 73.667 158.333C73.722 158.278 73.778 157.222 73.333 157.667Z" fill="#FAA496"/>
<path d="M336 157L337 158L336 157Z" fill="#EE927B"/>
<path d="M335 158L336 159L335 158Z" fill="#FFC6BC"/>
<path d="M334 159L335 160L334 159Z" fill="#F0C7A6"/>
<path d="M278.333 160.667C278.278 160.722 278.222 161.778 278.667 161.333C278.722 161.278 278.778 160.222 278.333 160.667Z" fill="#FFDEDC"/>
<path d="M74 162L75 163L74 162Z" fill="#F7AEAA"/>
<path d="M278 162V165C278.696 163.446 278.696 163.554 278 162Z" fill="#F8AD9B"/>
<path d="M54 163V166C54.696 164.446 54.696 164.554 54 163Z" fill="#F98C83"/>
<path d="M74 163L75 164L74 163Z" fill="#F2756C"/>
<path d="M329 165L330 166L329 165Z" fill="#FD8469"/>
<path d="M75 166L76 167L75 166Z" fill="#F49587"/>
<path d="M328 166L329 167L328 166Z" fill="#FD917E"/>
<path d="M327 167L328 168L327 167Z" fill="#F58C85"/>
<path d="M328 167C326.008 169.716 324.88 171.619 325 175H322C320.972 186.323 320.999 197.582 321 209C321 212.293 319.925 218.671 323.434 220.624C326.715 222.451 330.236 219.038 333 217.68C337.988 215.229 342.858 216.128 348 215L344 212C340.974 214.014 336.503 212.277 333 212V169C330.291 169.098 329.688 168.98 328 167Z" fill="#F05C2E"/>
<path d="M326 168L327 169L326 168Z" fill="#FBCFB9"/>
<path d="M76 169L77 170L76 169Z" fill="#EC9391"/>
<path d="M325 169L326 170L325 169Z" fill="#F8CCB5"/>
<path d="M55 170L56 171L55 170Z" fill="#FBA098"/>
<path d="M279.333 170.667C279.278 170.722 279.222 171.778 279.667 171.333C279.722 171.278 279.778 170.222 279.333 170.667Z" fill="#F6A58E"/>
<path d="M311 191V244C311 252.398 309.689 261.766 311 270L305 271C311.328 276.171 317.453 282.538 326 283C324.25 278.632 322.79 275.996 318 275C319.478 274.014 319.203 274 321 274C321.041 270.3 321.683 267.437 323 264H325C325.768 265.314 325.686 265.232 327 266C321.801 255.501 318 247.987 318 236L320 237C320.84 231.398 323.645 227.046 326 222C320.279 218.29 321 213.244 321 207C321 196.293 321.826 185.571 322 175H325C325.131 173.36 325.369 172.544 326 171C320.303 173.405 314.209 180.367 310.222 185.134C308.237 187.508 307.675 190.538 311 191Z" fill="#F25B2E"/>
<path d="M56 174L57 175L56 174Z" fill="#EFA7A2"/>
<path d="M78 174L79 175L78 174Z" fill="#F3857D"/>
<path d="M79 176L80 177L79 176Z" fill="#EC8272"/>
<path d="M280.333 176.667C280.278 176.722 280.222 177.778 280.667 177.333C280.722 177.278 280.778 176.222 280.333 176.667Z" fill="#F06F48"/>
<path d="M57 177L58 178L57 177Z" fill="#FF958F"/>
<path d="M253 178V183C253.83 180.969 253.83 180.03 253 178Z" fill="#FF704A"/>
<path d="M317 178L318 179L317 178Z" fill="#F89684"/>
<path d="M81 179L82 180L81 179Z" fill="#FF9B95"/>
<path d="M281 179L282 180L281 179Z" fill="#FCCCB3"/>
<path d="M316 179L317 180L316 179Z" fill="#F59675"/>
<path d="M58 180L59 181L58 180Z" fill="#FFADAB"/>
<path d="M281 180L282 181L281 180Z" fill="#FD8359"/>
<path d="M315 180L316 181L315 180Z" fill="#F79373"/>
<path d="M314 181L315 182L314 181Z" fill="#F79A73"/>
<path d="M59 182L60 183L59 182Z" fill="#F3A297"/>
<path d="M282 182L283 183L282 182Z" fill="#F9AD95"/>
<path d="M313 182L314 183L313 182Z" fill="#F5996A"/>
<path d="M84 183L85 184L84 183Z" fill="#FA897C"/>
<path d="M60 184L61 185L60 184Z" fill="#F9A3A3"/>
<path d="M85 184L86 185L85 184Z" fill="#FF857C"/>
<path d="M283 184L284 185L283 184Z" fill="#F99B8A"/>
<path d="M86 185L87 186L86 185Z" fill="#F38682"/>
<path d="M468 185L469 186L468 185Z" fill="#FCA77F"/>
<path d="M469.667 185.333C469.222 185.778 470.278 185.722 470.333 185.667C470.778 185.222 469.722 185.278 469.667 185.333Z" fill="#F6E7DE"/>
<path d="M473 185L474 186L473 185Z" fill="#FCD3B8"/>
<path d="M474 185L475 186L474 185Z" fill="#FFA87C"/>
<path d="M61 186L62 187L61 186Z" fill="#FBCACC"/>
<path d="M252 186V189C252.696 187.446 252.696 187.554 252 186Z" fill="#FACCC4"/>
<path d="M308 186L309 187L308 186Z" fill="#FDC8B6"/>
<path d="M466 186L467 187L466 186Z" fill="#FBCABC"/>
<path d="M476 186L477 187L476 186Z" fill="#FACBB5"/>
<path d="M62 187L63 188L62 187Z" fill="#EA7B6D"/>
<path d="M307 187L308 188L307 187Z" fill="#F38869"/>
<path d="M464 187L465 188L464 187Z" fill="#F0987A"/>
<path d="M478 187L479 188L478 187Z" fill="#F3A888"/>
<path d="M89 188C88.423 190.711 88.233 191.395 91 192C90.58 195.82 88.886 205.242 92.322 207.721C95.564 210.061 107.6 209.793 108.369 214.263C109.309 219.734 98.519 221.505 95.015 221.929C93.494 222.113 91.285 222.014 90.438 223.603C89.489 225.386 90.691 228.135 90.875 230C91.303 234.345 91.685 239.456 89 243C91.939 250.761 106.365 254.856 114 256L110 252C113.77 253.548 116.011 253.963 119 251H114C117.193 240.199 115 226.248 115 215C115 210.191 115.848 205.066 113 201C115.411 200.357 117.508 199.896 120 200C117.507 196.914 112.734 196.487 109 195.421C102.048 193.437 95.651 190.766 89 188Z" fill="#EF4A34"/>
<path d="M90 188L91 189L90 188Z" fill="#F3938C"/>
<path d="M305 188L306 189L305 188Z" fill="#FBBFA6"/>
<path d="M463 188L464 189L463 188Z" fill="#FACABC"/>
<path d="M479 188L480 189L479 188Z" fill="#FDD0AE"/>
<path d="M92 189L93 190L92 189Z" fill="#FEB0A4"/>
<path d="M288 189L289 190L288 189Z" fill="#F4A387"/>
<path d="M303 189L304 190L303 189Z" fill="#FAABA0"/>
<path d="M462 189L463 190L462 189Z" fill="#FBC7B5"/>
<path d="M480 189L481 190L480 189Z" fill="#F4D2BC"/>
<path d="M64 190L65 191L64 190Z" fill="#F8C5B8"/>
<path d="M94 190L95 191L94 190Z" fill="#F7AEAA"/>
<path d="M290 190L291 191L290 190Z" fill="#F39176"/>
<path d="M300 190L301 191L300 190Z" fill="#FAAE97"/>
<path d="M461 190L462 191L461 190Z" fill="#FDB193"/>
<path d="M481 190L482 191L481 190Z" fill="#FAC2A2"/>
<path d="M65 191L66 192L65 191Z" fill="#F89F97"/>
<path d="M96 191L97 192L96 191Z" fill="#F88E85"/>
<path d="M294 191C295.248 191.685 295.549 191.749 297 192C295.752 191.315 295.452 191.251 294 191Z" fill="#F27B5E"/>
<path d="M66 192L67 193L66 192Z" fill="#F3857C"/>
<path d="M99 192L100 193L99 192Z" fill="#FBB5AD"/>
<path d="M251 192L252 193L251 192Z" fill="#F59D83"/>
<path d="M299 192C300.248 192.685 300.548 192.749 302 193L298 194V242C298 250.018 296.719 259.283 299 267C296.567 267.052 295 266.608 295 269L289 268C295.421 273.112 303.618 272.075 311 270C309.492 244.549 311 218.513 311 193C306.759 193.793 303.207 192.418 299 192Z" fill="#F15A2F"/>
<path d="M67 193L68 194L67 193Z" fill="#F6AB92"/>
<path d="M102 193L103 194L102 193Z" fill="#F7B1A9"/>
<path d="M459 193L460 194L459 193Z" fill="#F0AF98"/>
<path d="M483 193L484 194L483 193Z" fill="#FDBEA7"/>
<path d="M68 194L69 195L68 194Z" fill="#F6BDAF"/>
<path d="M105 194L106 195L105 194Z" fill="#FB948C"/>
<path d="M109 195L110 196L109 195Z" fill="#F7C6BB"/>
<path d="M250 195L251 196L250 195Z" fill="#FC907A"/>
<path d="M458 195L459 196L458 195Z" fill="#F8BD9D"/>
<path d="M484 195L485 196L484 195Z" fill="#FECAA8"/>
<path d="M525 195L526 196L525 195Z" fill="#F29565"/>
<path d="M112 196L113 197L112 196Z" fill="#F59689"/>
<path d="M72 197L73 198L72 197Z" fill="#FEAB9F"/>
<path d="M116 197L117 198L116 197Z" fill="#F99E95"/>
<path d="M457 197L458 198L457 197Z" fill="#FC9977"/>
<path d="M485 197L486 198L485 197Z" fill="#FB9767"/>
<path d="M120.667 198.333C120.222 198.778 121.278 198.722 121.333 198.667C121.778 198.222 120.722 198.278 120.667 198.333Z" fill="#F7CEC6"/>
<path d="M248 198L249 199L248 198Z" fill="#F7B3AC"/>
<path d="M75 199L76 200L75 199Z" fill="#F19888"/>
<path d="M113 201C115.74 205.927 115 211.516 115 217C115 227.976 116.55 240.288 114 251H119C115.632 253.131 113.801 253.086 110 252C113.487 257.667 120.789 259.163 127 260C123.814 246.617 126 230.729 126 217C126 211.661 126.521 206.146 125 201C130.999 202.552 140.422 202.605 145 207L149 205C145.028 203.217 140.278 202.883 136 201.997C127.959 200.332 121.001 198.042 113 201Z" fill="#EF4B32"/>
<path d="M124.667 199.333C124.222 199.778 125.278 199.722 125.333 199.667C125.778 199.222 124.722 199.278 124.667 199.333Z" fill="#F1C2BC"/>
<path d="M129 200L130 201L129 200Z" fill="#F1A698"/>
<path d="M486 200L487 201L486 200Z" fill="#FC8D64"/>
<path d="M521 200L522 201L521 200Z" fill="#FFD0B2"/>
<path d="M78 201L79 202L78 201Z" fill="#EEB5AC"/>
<path d="M125 201C129.612 220.372 122.388 241.628 127 261C131.738 259.912 135.362 260.94 140 262C139.324 260.135 138.904 260.137 140 259C136.023 254.834 137 249.412 137 244V210H141C138.987 208.775 137.341 208.355 135 208L139 207C137.542 205.919 136.752 205.564 135 205L137 204C133.322 202.232 129.007 201.777 125 201Z" fill="#F04C33"/>
<path d="M133.667 201.333C133.222 201.778 134.278 201.722 134.333 201.667C134.778 201.222 133.722 201.278 133.667 201.333Z" fill="#FAA098"/>
<path d="M456 201L457 202L456 201Z" fill="#FBB380"/>
<path d="M486 201L487 202L486 201Z" fill="#F6BEAB"/>
<path d="M518 201L519 202L518 201Z" fill="#F3B289"/>
<path d="M80 202L81 203L80 202Z" fill="#EE847B"/>
<path d="M138 202L139 203L138 202Z" fill="#F17563"/>
<path d="M139.667 202.333C139.222 202.778 140.278 202.722 140.333 202.667C140.778 202.222 139.722 202.278 139.667 202.333Z" fill="#FBCDCC"/>
<path d="M244 202L245 203L244 202Z" fill="#FFAFB0"/>
<path d="M515 202L516 203L515 202Z" fill="#ECA077"/>
<path d="M82 203L83 204L82 203Z" fill="#F27A69"/>
<path d="M143 203C144.248 203.685 144.548 203.749 146 204C144.752 203.315 144.452 203.251 143 203Z" fill="#F98975"/>
<path d="M243 203L244 204L243 203Z" fill="#F2785C"/>
<path d="M84 204L85 205L84 204Z" fill="#EF7460"/>
<path d="M135 204C136.458 205.081 137.248 205.436 139 206L135 207C139.779 209.862 144.739 208.226 150 208C148.522 208.986 148.797 209 147 209C148.248 209.685 148.548 209.749 150 210V258L146 259C147.846 259.468 149.069 259.301 151 259C149.243 260.733 148.358 261.341 146 262C158.312 270.814 180.347 270.998 195 271C193.187 269.735 192.117 268.898 191 267C187.211 267.563 181.782 269.406 178.603 266.261C176.179 263.862 177 259.08 177 256V230C177 224.347 174.759 213.398 180 210C173.078 207.014 164.399 207.284 157 206.232C152.562 205.601 148.87 204.303 145 207C143.294 203.839 138.368 204.014 135 204Z" fill="#EF4E32"/>
<path d="M149.667 204.333C149.222 204.778 150.278 204.722 150.333 204.667C150.778 204.222 149.722 204.278 149.667 204.333Z" fill="#FC7F6B"/>
<path d="M151 204C152.248 204.685 152.548 204.749 154 205C152.752 204.315 152.452 204.251 151 204Z" fill="#FFCDC0"/>
<path d="M241 204L242 205L241 204Z" fill="#F6906F"/>
<path d="M510 204L511 205L510 204Z" fill="#FBB69F"/>
<path d="M86 205L87 206L86 205Z" fill="#F6847B"/>
<path d="M152 205C153.506 205.683 154.315 205.826 156 206C154.494 205.317 153.685 205.174 152 205Z" fill="#ED381B"/>
<path d="M156 205C157.248 205.685 157.548 205.749 159 206C157.752 205.315 157.452 205.251 156 205Z" fill="#F48B78"/>
<path d="M159.667 205.333C159.222 205.778 160.278 205.722 160.333 205.667C160.778 205.222 159.722 205.278 159.667 205.333Z" fill="#FBE6DE"/>
<path d="M238 205L239 206L238 205Z" fill="#F2A090"/>
<path d="M487.333 205.667C487.278 205.722 487.222 206.778 487.667 206.333C487.722 206.278 487.778 205.222 487.333 205.667Z" fill="#FFD6CA"/>
<path d="M507 205L508 206L507 205Z" fill="#F5AF83"/>
<path d="M88 206L89 207L88 206Z" fill="#F4948C"/>
<path d="M158 206C159.769 206.779 161.036 206.912 163 207C161.231 206.221 159.964 206.088 158 206Z" fill="#ED3C17"/>
<path d="M164 206C165.248 206.685 165.548 206.749 167 207C165.752 206.315 165.452 206.251 164 206Z" fill="#FA9785"/>
<path d="M167.667 206.333C167.222 206.778 168.278 206.722 168.333 206.667C168.778 206.222 167.722 206.278 167.667 206.333Z" fill="#FBE5D9"/>
<path d="M234 206L235 207L234 206Z" fill="#F7B7A4"/>
<path d="M235 206L236 207L235 206Z" fill="#F18861"/>
<path d="M504 206L505 207L504 206Z" fill="#FB9D73"/>
<path d="M90 207L91 208L90 207Z" fill="#F5C2B6"/>
<path d="M167 207C168.769 207.779 170.036 207.912 172 208C170.231 207.221 168.964 207.088 167 207Z" fill="#F03D18"/>
<path d="M172 207C173.248 207.685 173.548 207.749 175 208C173.752 207.315 173.452 207.251 172 207Z" fill="#F3725E"/>
<path d="M175.667 207.333C175.222 207.778 176.278 207.722 176.333 207.667C176.778 207.222 175.722 207.278 175.667 207.333Z" fill="#F1AA9B"/>
<path d="M177 207C178.248 207.685 178.548 207.749 180 208C178.752 207.315 178.452 207.251 177 207Z" fill="#FAD6CF"/>
<path d="M228 207C229.248 207.685 229.548 207.749 231 208C229.752 207.315 229.452 207.251 228 207Z" fill="#FCA38F"/>
<path d="M189 210C189 229.654 186.738 250.881 191 270C195.109 270.844 198.754 271.953 203 272C202.402 270.805 202.534 271.023 201 270L207 269C203.615 262.913 202.268 244.712 209 241C205.299 236.411 196.392 231.449 195.971 225.019C195.657 220.232 201.541 219.551 205 219.33C215.056 218.689 224.849 218 235 218C235.003 214.214 235.121 210.694 236 207C229.83 207.265 224.063 209.332 218 209.896C208.485 210.781 198.557 210 189 210Z" fill="#F05131"/>
<path d="M455.333 207.667C455.278 207.722 455.222 208.778 455.667 208.333C455.722 208.278 455.778 207.222 455.333 207.667Z" fill="#F2844F"/>
<path d="M501 207L502 208L501 207Z" fill="#FA8B64"/>
<path d="M502 207L503 208L502 207Z" fill="#FFD1AE"/>
<path d="M93 208L94 209L93 208Z" fill="#FFAE9A"/>
<path d="M137 210V246C137 249.985 135.273 256.987 140 258C138.866 260.112 138.972 259.741 140 262C135.933 260.711 132.271 260.036 128 260C134.775 264.138 146.121 265.661 154 266C151.445 264.484 148.907 263.606 146 263C148.321 261.855 149.546 261.116 151 259L146 260C147.517 259.043 148.339 258.613 150 258V222C150 218.014 151.727 211.013 147 210C148.479 209.014 148.203 209 150 209C145.73 207.259 141.381 209.356 137 210Z" fill="#EE4D31"/>
<path d="M173 208C176.163 209.327 179.586 209 183 209C179.837 207.673 176.414 208 173 208Z" fill="#EB3C19"/>
<path d="M183 208C184.506 208.683 185.315 208.826 187 209C185.494 208.317 184.685 208.174 183 208Z" fill="#F26B51"/>
<path d="M187 208C188.506 208.683 189.315 208.826 191 209C189.494 208.317 188.685 208.174 187 208Z" fill="#F9ABA5"/>
<path d="M191 208C193.052 208.874 194.747 208.953 197 209C194.948 208.126 193.253 208.047 191 208Z" fill="#F8DED8"/>
<path d="M214 208C215.769 208.779 217.036 208.912 219 209C217.231 208.221 215.964 208.088 214 208Z" fill="#FFE5DE"/>
<path d="M219 208C220.248 208.685 220.548 208.749 222 209C220.752 208.315 220.452 208.251 219 208Z" fill="#F9AB93"/>
<path d="M222.667 208.333C222.222 208.778 223.278 208.722 223.333 208.667C223.778 208.222 222.722 208.278 222.667 208.333Z" fill="#FF7050"/>
<path d="M499 208L500 209L499 208Z" fill="#F4C0A3"/>
<path d="M96 209L97 210L96 209Z" fill="#F3B2AF"/>
<path d="M177 210V251C177 254.906 175.465 263.035 178.028 266.262C180.975 269.972 187.306 267.947 191 267C188.397 262.319 189 257.215 189 252V225C189 221.27 190.424 213.697 187.972 210.603C185.655 207.68 180.022 209.439 177 210Z" fill="#F04F32"/>
<path d="M188 209C191.699 210.552 196.017 210 200 210H222C218.301 208.448 213.983 209 210 209H188Z" fill="#ED3D1A"/>
<path d="M496 209L497 210L496 209Z" fill="#F6B38C"/>
<path d="M62.667 210.333C62.222 210.778 63.278 210.722 63.333 210.667C63.778 210.222 62.722 210.278 62.667 210.333Z" fill="#EFA293"/>
<path d="M100 210L101 211L100 210Z" fill="#F8968D"/>
<path d="M455 210V216C455.951 213.715 455.951 212.285 455 210Z" fill="#F25614"/>
<path d="M491.667 210.333C491.222 210.778 492.278 210.722 492.333 210.667C492.778 210.222 491.722 210.278 491.667 210.333Z" fill="#F9B693"/>
<path d="M61 211V215C61.71 213.24 61.71 212.759 61 211Z" fill="#F7CFDA"/>
<path d="M62 211C62.336 226.786 75.192 241.312 90 246L89 243C93.864 238.75 90.138 227.727 90 222C84.711 220.206 79.121 219.456 74 217.099C69.822 215.176 66.487 212.164 62 211Z" fill="#EE4734"/>
<path d="M104.667 211.333C104.222 211.778 105.278 211.722 105.333 211.667C105.778 211.222 104.722 211.278 104.667 211.333Z" fill="#F07665"/>
<path d="M66 212L67 213L66 212Z" fill="#FACEC0"/>
<path d="M67 213L68 214L67 213Z" fill="#F49F8B"/>
<path d="M456.333 214.667C456.278 214.722 456.222 215.778 456.667 215.333C456.722 215.278 456.778 214.222 456.333 214.667Z" fill="#F68B60"/>
<path d="M70 215L71 216L70 215Z" fill="#FA9489"/>
<path d="M339 215C340.248 215.685 340.549 215.749 342 216C340.752 215.315 340.452 215.251 339 215Z" fill="#FBB49C"/>
<path d="M342.667 215.333C342.222 215.778 343.278 215.722 343.333 215.667C343.778 215.222 342.722 215.278 342.667 215.333Z" fill="#ED7448"/>
<path d="M72 216L73 217L72 216Z" fill="#FDA698"/>
<path d="M335 216.653C319.059 221.651 316.108 244.914 322.328 258C326.245 266.241 335.515 273.088 345 270.362C361.276 265.684 365.268 243.82 359.522 230C355.546 220.439 345.587 213.333 335 216.653Z" fill="white"/>
<path d="M346 216L347 217L346 216Z" fill="#F89769"/>
<path d="M62 217L63 218L62 217Z" fill="#F47375"/>
<path d="M74 217L75 218L74 217Z" fill="#EE8A75"/>
<path d="M107 217L108 218L107 217Z" fill="#FFCFC4"/>
<path d="M332 217L333 218L332 217Z" fill="#F39A7B"/>
<path d="M348 217L349 218L348 217Z" fill="#F5AF9A"/>
<path d="M77 218L78 219L77 218Z" fill="#F4B1AF"/>
<path d="M106 218L107 219L106 218Z" fill="#F49692"/>
<path d="M210 218C214.215 219.769 219.464 219 224 219H250C245.785 217.231 240.536 218 236 218H210Z" fill="#F1441E"/>
<path d="M457 218L458 219L457 218Z" fill="#F29A65"/>
<path d="M80 219L81 220L80 219Z" fill="#FE9D95"/>
<path d="M104 219L105 220L104 219Z" fill="#F39B93"/>
<path d="M201 219C202.769 219.779 204.036 219.912 206 220C204.231 219.221 202.964 219.088 201 219Z" fill="#DE3F1C"/>
<path d="M207 219C208.506 219.683 209.315 219.826 211 220C209.494 219.317 208.685 219.174 207 219Z" fill="#F57255"/>
<path d="M211 219C213.332 219.985 215.457 219.981 218 220C215.668 219.015 213.543 219.019 211 219Z" fill="#F4A5A2"/>
<path d="M218 219C225.649 222.21 237.712 220 246 220C238.351 216.79 226.288 219 218 219Z" fill="#FAE1D7"/>
<path d="M246 219C247.506 219.683 248.315 219.826 250 220C248.494 219.317 247.685 219.174 246 219Z" fill="#F5AA94"/>
<path d="M250.667 219.333C250.222 219.778 251.278 219.722 251.333 219.667C251.778 219.222 250.722 219.278 250.667 219.333Z" fill="#F57152"/>
<path d="M329 219L330 220L329 219Z" fill="#F5967F"/>
<path d="M351 219L352 220L351 219Z" fill="#F0BBB1"/>
<path d="M63 220L64 221L63 220Z" fill="#FC7968"/>
<path d="M84 220C85.248 220.685 85.549 220.749 87 221C85.752 220.315 85.452 220.251 84 220Z" fill="#F7C4B9"/>
<path d="M101 220L102 221L101 220Z" fill="#FBBEAC"/>
<path d="M102 220L103 221L102 220Z" fill="#F27C6D"/>
<path d="M197 220C198.248 220.685 198.548 220.749 200 221C198.752 220.315 198.452 220.251 197 220Z" fill="#F3A999"/>
<path d="M200 220C201.248 220.685 201.548 220.749 203 221C201.752 220.315 201.452 220.251 200 220Z" fill="#FFE2DC"/>
<path d="M196 221C196.462 240.665 224.542 249.975 241 250C246.972 250.009 252.912 250.09 257.957 246.351C265.093 241.062 266.766 227.549 258.695 222.09C254.777 219.439 249.485 220 245 220H225C215.272 220 205.672 220.8 196 221Z" fill="white"/>
<path d="M255 220L256 221L255 220Z" fill="#FFACA4"/>
<path d="M328 220L329 221L328 220Z" fill="#FECCB5"/>
<path d="M458 220L459 221L458 220Z" fill="#F8C7A8"/>
<path d="M63 221L64 222L63 221Z" fill="#EAC0B7"/>
<path d="M89.667 221.333C89.222 221.778 90.278 221.722 90.333 221.667C90.778 221.222 89.722 221.278 89.667 221.333Z" fill="#E4745F"/>
<path d="M91 221C93.052 221.874 94.747 221.953 97 222C94.948 221.126 93.253 221.047 91 221Z" fill="#F6A9A0"/>
<path d="M97.667 221.333C97.222 221.778 98.278 221.722 98.333 221.667C98.778 221.222 97.722 221.278 97.667 221.333Z" fill="#FC674E"/>
<path d="M258 221L259 222L258 221Z" fill="#FD8E6F"/>
<path d="M327 221L328 222L327 221Z" fill="#F2CAB7"/>
<path d="M195 222V226C195.71 224.24 195.71 223.76 195 222Z" fill="#FFD5E3"/>
<path d="M326 222L327 223L326 222Z" fill="#FFCABE"/>
<path d="M459 222L460 223L459 222Z" fill="#FCCEB4"/>
<path d="M64 223L65 224L64 223Z" fill="#EC9D91"/>
<path d="M260 223L261 224L260 223Z" fill="#F7D0C2"/>
<path d="M325 223L326 224L325 223Z" fill="#F19079"/>
<path d="M355 223L356 224L355 223Z" fill="#F3C4B0"/>
<path d="M261 224L262 225L261 224Z" fill="#F6AA8C"/>
<path d="M356 224L357 225L356 224Z" fill="#FD9F84"/>
<path d="M460 224L461 225L460 224Z" fill="#F09D62"/>
<path d="M65 225L66 226L65 225Z" fill="#FAC1B0"/>
<path d="M461 225L462 226L461 225Z" fill="#FFC8C1"/>
<path d="M323 226L324 227L323 226Z" fill="#FEAFA6"/>
<path d="M196 227L197 228L196 227Z" fill="#FBC9B4"/>
<path d="M67 228L68 229L67 228Z" fill="#F1A3A0"/>
<path d="M263 228L264 229L263 228Z" fill="#F99079"/>
<path d="M322 228L323 229L322 228Z" fill="#FDCBB9"/>
<path d="M443 228L444 229L443 228Z" fill="#EE916E"/>
<path d="M464 228L465 229L464 228Z" fill="#FFBFA1"/>
<path d="M197 229L198 230L197 229Z" fill="#FF9B85"/>
<path d="M263 229L264 230L263 229Z" fill="#FAC3BF"/>
<path d="M441 229L442 230L441 229Z" fill="#F3B691"/>
<path d="M477 229L478 230L477 229Z" fill="#FB8461"/>
<path d="M321 230L322 231L321 230Z" fill="#FBAC94"/>
<path d="M438 230L439 231L438 230Z" fill="#F79A75"/>
<path d="M446 230L447 231L446 230Z" fill="#F48A63"/>
<path d="M468 230L469 231L468 230Z" fill="#F9CCB2"/>
<path d="M474 230L475 231L474 230Z" fill="#F7CBC9"/>
<path d="M435 231L436 232L435 231Z" fill="#FF8D5D"/>
<path d="M436 231L437 232L436 231Z" fill="#EDC7B7"/>
<path d="M478 231L479 232L478 231Z" fill="#EFC9AF"/>
<path d="M70 232L71 233L70 232Z" fill="#FBA195"/>
<path d="M264 232V236C264.71 234.241 264.71 233.759 264 232Z" fill="#F77B59"/>
<path d="M360 232L361 233L360 232Z" fill="#EBA588"/>
<path d="M433 232L434 233L433 232Z" fill="#F9BFAF"/>
<path d="M71 233L72 234L71 233Z" fill="#F88461"/>
<path d="M320 233L321 234L320 233Z" fill="#FFB8A6"/>
<path d="M430 233L431 234L430 233Z" fill="#F8B488"/>
<path d="M72 234L73 235L72 234Z" fill="#F28375"/>
<path d="M427 234L428 235L427 234Z" fill="#EEA685"/>
<path d="M476 234L477 235L476 234Z" fill="#FFC3AD"/>
<path d="M73 235L74 236L73 235Z" fill="#F68077"/>
<path d="M361 235L362 236L361 235Z" fill="#F6895D"/>
<path d="M424 235L425 236L424 235Z" fill="#F99773"/>
<path d="M475 235L476 236L475 235Z" fill="#FFD3B9"/>
<path d="M74 236L75 237L74 236Z" fill="#F38885"/>
<path d="M318 236V249C319.591 245.209 319.591 239.791 318 236Z" fill="#F14714"/>
<path d="M361 236L362 237L361 236Z" fill="#F5B49B"/>
<path d="M421 236L422 237L421 236Z" fill="#F38A64"/>
<path d="M422 236L423 237L422 236Z" fill="#EDCDB5"/>
<path d="M452 236L453 237L452 236Z" fill="#F2B493"/>
<path d="M474 236L475 237L474 236Z" fill="#FDCDBA"/>
<path d="M75 237L76 238L75 237Z" fill="#FAABA8"/>
<path d="M205 237L206 238L205 237Z" fill="#FDAE9C"/>
<path d="M319 237V240C319.696 238.446 319.696 238.554 319 237Z" fill="#FFCCC3"/>
<path d="M419 237L420 238L419 237Z" fill="#F3C3A3"/>
<path d="M454 237L455 238L454 237Z" fill="#FA9D74"/>
<path d="M472 237L473 238L472 237Z" fill="#FB986D"/>
<path d="M416 238L417 239L416 238Z" fill="#F9B692"/>
<path d="M456 238L457 239L456 238Z" fill="#F5A691"/>
<path d="M470 238L471 239L470 238Z" fill="#FD9C61"/>
<path d="M263 239L264 240L263 239Z" fill="#EB8D79"/>
<path d="M413 239L414 240L413 239Z" fill="#F19D75"/>
<path d="M459.667 239.333C459.222 239.778 460.278 239.722 460.333 239.667C460.778 239.222 459.722 239.278 459.667 239.333Z" fill="#F5B493"/>
<path d="M461 239C462.506 239.683 463.315 239.826 465 240C463.494 239.317 462.685 239.174 461 239Z" fill="#EF865D"/>
<path d="M465 239C466.248 239.685 466.549 239.749 468 240C466.752 239.315 466.452 239.251 465 239Z" fill="#FBB08F"/>
<path d="M79 240L80 241L79 240Z" fill="#EDB59F"/>
<path d="M209 240L210 241L209 240Z" fill="#F37D5F"/>
<path d="M410 240L411 241L410 240Z" fill="#FD9980"/>
<path d="M207 268L201 270C204.014 272.059 207.416 272.099 211 272.576C220.148 273.792 229.78 273 239 273V270C233.574 270.015 226.322 272.266 223 267C228.165 268.569 233.61 268.985 239 269C237.762 267.35 236.334 267.667 239 267C237.494 266.317 236.685 266.174 235 266V258C238.697 257.667 241.648 256.565 245 255C241.633 253.06 233.728 255.97 233 251C227.73 248.537 222.229 246.827 217 244.248C214.432 242.981 211.156 240.88 208.148 241.423C205.353 241.928 205.123 244.658 205.019 247.005C204.788 252.239 202.896 264.414 207 268Z" fill="#F05330"/>
<path d="M211 241L212 242L211 241Z" fill="#F2B49C"/>
<path d="M262 241L263 242L262 241Z" fill="#F4AAAB"/>
<path d="M408 241L409 242L408 241Z" fill="#FFCCBA"/>
<path d="M82 242L83 243L82 242Z" fill="#FCD0C4"/>
<path d="M362 242V245C362.696 243.446 362.696 243.554 362 242Z" fill="#F57D58"/>
<path d="M405 242L406 243L405 242Z" fill="#FFB29F"/>
<path d="M84 243L85 244L84 243Z" fill="#FC9382"/>
<path d="M402 243L403 244L402 243Z" fill="#F9A284"/>
<path d="M260 244L261 245L260 244Z" fill="#F99567"/>
<path d="M399 244L400 245L399 244Z" fill="#F49176"/>
<path d="M259 245L260 246L259 245Z" fill="#F3877B"/>
<path d="M397 245L398 246L397 245Z" fill="#F5C8B7"/>
<path d="M89 246L90 247L89 246Z" fill="#FBBEBC"/>
<path d="M221 246L222 247L221 246Z" fill="#F3AF9D"/>
<path d="M258 246L259 247L258 246Z" fill="#EC8861"/>
<path d="M231 250C232.364 251.819 232.492 251.031 232 253C236.261 254.259 240.577 254 245 254C241.732 256.053 238.823 257.404 235 258V266H239C236.926 267.659 236.163 267.433 239 268C233.797 269.495 228.203 268.253 223 267C224.334 273.257 234.257 270 239 270V273H259C259 267.042 258.64 260.958 259.054 255.015C259.282 251.741 260.613 249.252 260 246C249.655 250.3 242.051 250.872 231 250Z" fill="#F1552F"/>
<path d="M319.333 246.667C319.278 246.722 319.222 247.778 319.667 247.333C319.722 247.278 319.778 246.222 319.333 246.667Z" fill="#FEDBCC"/>
<path d="M394 246L395 247L394 246Z" fill="#F8B8A4"/>
<path d="M91 247L92 248L91 247Z" fill="#FFC5C1"/>
<path d="M223 247L224 248L223 247Z" fill="#F08463"/>
<path d="M224 247L225 248L224 247Z" fill="#F9C3B1"/>
<path d="M256 247L257 248L256 247Z" fill="#FFC4B1"/>
<path d="M391 247L392 248L391 247Z" fill="#F5AB8B"/>
<path d="M93 248L94 249L93 248Z" fill="#FFC5BB"/>
<path d="M227 248L228 249L227 248Z" fill="#FBB7AD"/>
<path d="M254 248L255 249L254 248Z" fill="#EFC3CC"/>
<path d="M319.333 248.667C319.278 248.722 319.222 249.778 319.667 249.333C319.722 249.278 319.778 248.222 319.333 248.667Z" fill="#F3A08C"/>
<path d="M388 248L389 249L388 248Z" fill="#FA9065"/>
<path d="M95 249L96 250L95 249Z" fill="#F4C1A6"/>
<path d="M230 249L231 250L230 249Z" fill="#F48165"/>
<path d="M231.667 249.333C231.222 249.778 232.278 249.722 232.333 249.667C232.778 249.222 231.722 249.278 231.667 249.333Z" fill="#FFE1DD"/>
<path d="M251 249L252 250L251 249Z" fill="#FFC6B5"/>
<path d="M252 249L253 250L252 249Z" fill="#FA7C62"/>
<path d="M361.333 249.667C361.278 249.722 361.222 250.778 361.667 250.333C361.722 250.278 361.778 249.222 361.333 249.667Z" fill="#FCB09A"/>
<path d="M386 249L387 250L386 249Z" fill="#FFC9B5"/>
<path d="M235.667 250.333C235.222 250.778 236.278 250.722 236.333 250.667C236.778 250.222 235.722 250.278 235.667 250.333Z" fill="#FA9078"/>
<path d="M237.667 250.333C237.222 250.778 238.278 250.722 238.333 250.667C238.778 250.222 237.722 250.278 237.667 250.333Z" fill="#F3AB9A"/>
<path d="M239 250C240.769 250.779 242.036 250.912 244 251C242.231 250.221 240.964 250.088 239 250Z" fill="#FBE1D6"/>
<path d="M244 250C245.248 250.685 245.548 250.749 247 251C245.752 250.315 245.452 250.251 244 250Z" fill="#F4AC9E"/>
<path d="M383 250L384 251L383 250Z" fill="#F6BBB0"/>
<path d="M100 251L101 252L100 251Z" fill="#F58979"/>
<path d="M380 251L381 252L380 251Z" fill="#F89575"/>
<path d="M102 252L103 253L102 252Z" fill="#F4BFB9"/>
<path d="M105 253L106 254L105 253Z" fill="#EF8C80"/>
<path d="M320 253L321 254L320 253Z" fill="#F79B83"/>
<path d="M377 253L378 254L377 253Z" fill="#F0A58A"/>
<path d="M107 254L108 255L107 254Z" fill="#FFC4BA"/>
<path d="M360 254L361 255L360 254Z" fill="#F3916E"/>
<path d="M110 255L111 256L110 255Z" fill="#F0B1A6"/>
<path d="M113 256L114 257L113 256Z" fill="#F2988A"/>
<path d="M321 256L322 257L321 256Z" fill="#F3957A"/>
<path d="M359 256L360 257L359 256Z" fill="#FFC2AD"/>
<path d="M116 257L117 258L116 257Z" fill="#F3A49F"/>
<path d="M376 257L377 258L376 257Z" fill="#F3A082"/>
<path d="M119 258L120 259L119 258Z" fill="#F5B5A3"/>
<path d="M322 258L323 259L322 258Z" fill="#FDB29E"/>
<path d="M358 258L359 259L358 258Z" fill="#FDC8B7"/>
<path d="M122 259L123 260L122 259Z" fill="#F6BFC2"/>
<path d="M123 259L124 260L123 259Z" fill="#FA8170"/>
<path d="M126 260L127 261L126 260Z" fill="#F9B1A6"/>
<path d="M323 260L324 261L323 260Z" fill="#FE8660"/>
<path d="M357 260L358 261L357 260Z" fill="#FBC3A6"/>
<path d="M375 260L376 261L375 260Z" fill="#F7B29A"/>
<path d="M130 261L131 262L130 261Z" fill="#F9AA9B"/>
<path d="M134 262L135 263L134 262Z" fill="#FAA094"/>
<path d="M374 262L375 263L374 262Z" fill="#FD9371"/>
<path d="M138.667 263.333C138.222 263.778 139.278 263.722 139.333 263.667C139.778 263.222 138.722 263.278 138.667 263.333Z" fill="#F87E71"/>
<path d="M355 263L356 264L355 263Z" fill="#F78E73"/>
<path d="M143 264L144 265L143 264Z" fill="#FEA593"/>
<path d="M326 264L327 265L326 264Z" fill="#F19C85"/>
<path d="M354 264L355 265L354 264Z" fill="#FBCCB1"/>
<path d="M148 265L149 266L148 265Z" fill="#FBA497"/>
<path d="M327 265L328 266L327 265Z" fill="#FF8B7F"/>
<path d="M353 265L354 266L353 265Z" fill="#F6CBBA"/>
<path d="M153.667 266.333C153.222 266.778 154.278 266.722 154.333 266.667C154.778 266.222 153.722 266.278 153.667 266.333Z" fill="#FF8675"/>
<path d="M328 266L329 267L328 266Z" fill="#F4A082"/>
<path d="M352 266L353 267L352 266Z" fill="#F5A98F"/>
<path d="M372 266L373 267L372 266Z" fill="#FD9778"/>
<path d="M158 267C159.248 267.685 159.548 267.749 161 268C159.752 267.315 159.452 267.251 158 267Z" fill="#F7A49A"/>
<path d="M165.667 268.333C165.222 268.778 166.278 268.722 166.333 268.667C166.778 268.222 165.722 268.278 165.667 268.333Z" fill="#F8A59C"/>
<path d="M331 268L332 269L331 268Z" fill="#F8B08D"/>
<path d="M349 268L350 269L349 268Z" fill="#FFC0B6"/>
<path d="M371 268L372 269L371 268Z" fill="#FECEB9"/>
<path d="M172 269C173.248 269.685 173.549 269.749 175 270C173.752 269.315 173.452 269.251 172 269Z" fill="#F4A38C"/>
<path d="M333 269L334 270L333 269Z" fill="#F2CCB5"/>
<path d="M347 269L348 270L347 269Z" fill="#F3CBBE"/>
<path d="M180 270C181.248 270.685 181.548 270.749 183 271C181.752 270.315 181.452 270.251 180 270Z" fill="#F4AE93"/>
<path d="M183.667 270.333C183.222 270.778 184.278 270.722 184.333 270.667C184.778 270.222 183.722 270.278 183.667 270.333Z" fill="#F86F5A"/>
<path d="M335 270L336 271L335 270Z" fill="#F6936F"/>
<path d="M336 270L337 271L336 270Z" fill="#FBC1AF"/>
<path d="M345 270L346 271L345 270Z" fill="#F8937A"/>
<path d="M188 271C189.248 271.685 189.548 271.749 191 272C189.752 271.315 189.452 271.251 188 271Z" fill="#F6D6D6"/>
<path d="M191.667 271.333C191.222 271.778 192.278 271.722 192.333 271.667C192.778 271.222 191.722 271.278 191.667 271.333Z" fill="#FCA295"/>
<path d="M193 271C194.248 271.685 194.549 271.749 196 272C194.752 271.315 194.452 271.251 193 271Z" fill="#F37761"/>
<path d="M200 272C201.248 272.685 201.548 272.749 203 273C201.752 272.315 201.452 272.251 200 272Z" fill="#FAE3DB"/>
<path d="M203 272C204.506 272.683 205.315 272.826 207 273C205.494 272.317 204.685 272.174 203 272Z" fill="#F9A690"/>
<path d="M207 272C208.506 272.683 209.315 272.826 211 273C209.494 272.317 208.685 272.174 207 272Z" fill="#F47258"/>
<path d="M276 272C280.974 274.087 287.638 273 293 273C288.026 270.913 281.362 272 276 272Z" fill="#F14920"/>
<path d="M293 272C294.769 272.779 296.036 272.912 298 273C296.231 272.221 294.964 272.088 293 272Z" fill="#F37B52"/>
<path d="M298 272C299.506 272.683 300.315 272.826 302 273C300.494 272.317 299.685 272.174 298 272Z" fill="#FBB295"/>
<path d="M302 272C303.248 272.685 303.549 272.749 305 273C303.752 272.315 303.451 272.251 302 272Z" fill="#F6E1CD"/>
<path d="M368 272L369 273L368 272Z" fill="#FBCCB8"/>
<path d="M216 273C217.769 273.779 219.036 273.912 221 274C219.231 273.221 217.964 273.088 216 273Z" fill="#FCE3D8"/>
<path d="M221 273C223.332 273.985 225.457 273.981 228 274C225.668 273.015 223.543 273.019 221 273Z" fill="#FAA595"/>
<path d="M228 273C231.432 274.44 235.3 274 239 274C235.568 272.56 231.7 273 228 273Z" fill="#F37355"/>
<path d="M239 273C245.687 275.806 255.767 274 263 274C256.313 271.194 246.233 273 239 273Z" fill="#EE4116"/>
<path d="M265 273C268.163 274.327 271.586 274 275 274C271.837 272.673 268.414 273 265 273Z" fill="#F67152"/>
<path d="M275 273C277.332 273.985 279.457 273.981 282 274C279.668 273.015 277.543 273.019 275 273Z" fill="#F0AB97"/>
<path d="M282 273C284.052 273.874 285.747 273.953 288 274C285.948 273.126 284.253 273.047 282 273Z" fill="#F5DFD9"/>
<path d="M367 273L368 274L367 273Z" fill="#F9B29D"/>
<path d="M366 274L367 275L366 274Z" fill="#F49870"/>
<path d="M365 275L366 276L365 275Z" fill="#EC986E"/>
<path d="M364 276L365 277L364 276Z" fill="#F5C3A3"/>
<path d="M363 277L364 278L363 277Z" fill="#F8C7BC"/>
<path d="M314 278L315 279L314 278Z" fill="#F99E94"/>
<path d="M315 279L316 280L315 279Z" fill="#FED3BD"/>
<path d="M360 279L361 280L360 279Z" fill="#F28B66"/>
<path d="M317 280L318 281L317 280Z" fill="#F28565"/>
<path d="M359 280L360 281L359 280Z" fill="#F7BC9E"/>
<path d="M357 281L358 282L357 281Z" fill="#EF8564"/>
<path d="M320 282L321 283L320 282Z" fill="#F3BEAC"/>
<path d="M356 282L357 283L356 282Z" fill="#FAD1B6"/>
<path d="M323 283L324 284L323 283Z" fill="#EE795B"/>
<path d="M325 284L326 285L325 284Z" fill="#FCB79E"/>
<path d="M351 284L352 285L351 284Z" fill="#FCBBA1"/>
<path d="M328 285L329 286L328 285Z" fill="#FBCBC0"/>
<path d="M329.667 285.333C329.222 285.778 330.278 285.722 330.333 285.667C330.778 285.222 329.722 285.278 329.667 285.333Z" fill="#F36D45"/>
<path d="M347 285L348 286L347 285Z" fill="#FBA990"/>
<path d="M332.667 286.333C332.222 286.778 333.278 286.722 333.333 286.667C333.778 286.222 332.722 286.278 332.667 286.333Z" fill="#FFDFD6"/>
<path d="M334 286C336.89 287.213 339.874 286.998 343 287C340.11 285.787 337.126 286.002 334 286Z" fill="#F4AD97"/>
</svg>
