<svg width="368" height="600" viewBox="0 0 368 600" fill="none" xmlns="http://www.w3.org/2000/svg">
<path d="M0 0V287.5V600H368C368 600 356.5 416 305.9 302.5C255.3 189 368 0 368 0H0Z" fill="#E3E3E3"/>
<path d="M173 58C180.737 53.1333 188.115 54 197 54H235C243.572 54 250.166 53.173 257 59C255.558 51.0139 245.349 52 239 52H191C183.966 52 176.586 50.7318 173 58Z" fill="#CED5EB"/>
<path d="M177.019 55.0278C170.245 58.5682 172 67.6652 172 74V122C172 127.49 170.389 136.151 173.742 140.867C177.679 146.402 186.119 145 192 145H234C239.387 145 247.061 146.363 251.985 143.821C259.217 140.087 258 131.829 258 125V78C258 72.0993 259.651 63.2032 256.107 58.1088C252.174 52.4564 243.972 54 238 54H195C189.753 54 181.79 52.5346 177.019 55.0278Z" fill="#E7EBF2"/>
<path d="M172 57C168.801 63.6476 170 71.7662 170 79V123C170 130.025 168.376 139.638 175.105 144.258C178.944 146.893 184.592 146 189 146H218H243C247.622 145.998 252.238 146.305 255.772 142.772C260.932 137.611 259 127.662 259 121V80C259 72.8693 260.03 64.8679 258 58C256.713 63.3569 258 70.3815 258 76V116C258 122.422 259.791 132.139 256.821 137.996C253.122 145.291 246.032 145 239 145H191C183.764 145 176.268 145.486 172.457 137.995C169.362 131.911 171 122.645 171 116V73C171 67.9657 172.99 61.6955 172 57Z" fill="#C2CBE7"/>
<path d="M259 61V137C261.395 131.293 260 123.154 260 117V79C260 73.3808 261.189 66.2165 259 61ZM171 62V137C173.189 131.783 172 124.619 172 119V82C172 75.8459 173.395 67.7073 171 62Z" fill="#D9DEEE"/>
<path d="M180 62C184.612 65.4943 192.408 64 198 64H230C236.239 64 242.988 64.7772 249 63V136C251.701 129.564 250 119.951 250 113V62H180Z" fill="#CED5EB"/>
<path d="M180 63V136H249V63C246.299 69.4361 248 79.0491 248 86V135H181V86C181 79.049 182.701 69.4362 180 63Z" fill="#C2CBE7"/>
<path d="M181 64V135C183.085 130.031 182 123.35 182 118V83C182 77.113 183.292 69.4625 181 64Z" fill="#D9DFEE"/>
<path d="M182 64V135H248V64H182Z" fill="#E7EBF2"/>
<path d="M191 97H200V87C192.027 87.0282 191.006 89.3425 191 97Z" fill="#B7C1E4"/>
<path d="M200 87V97H190C194.974 99.0872 201.638 98 207 98V109C208.44 105.568 208 101.7 208 98H214V109C215.44 105.568 215 101.7 215 98H221V109C222.44 105.568 222 101.7 222 98H239C235.837 96.6726 232.414 97.0004 229 97V87C227.673 90.1633 228 93.5856 228 97H222V87C220.673 90.1633 221 93.5856 221 97H215V87C213.673 90.1633 214 93.5856 214 97H208V87C206.673 90.1633 207 93.5855 207 97H201C201 93.5855 201.327 90.1633 200 87Z" fill="#625F97"/>
<path d="M201 87V97C202.346 93.7929 202.346 90.2071 201 87Z" fill="#9599C5"/>
<path d="M202 87V97H207V87H202Z" fill="#B7C1E4"/>
<path d="M208 87V97C209.346 93.7929 209.346 90.2071 208 87Z" fill="#9599C5"/>
<path d="M209 87V97H214V87H209Z" fill="#B7C1E4"/>
<path d="M215 87V97C216.346 93.7929 216.346 90.2071 215 87Z" fill="#9599C5"/>
<path d="M216 87V97H221V87H216Z" fill="#B7C1E4"/>
<path d="M222 87V97C223.346 93.7929 223.346 90.2071 222 87Z" fill="#8E92BF"/>
<path d="M223 87V97H228V87H223Z" fill="#B7C1E4"/>
<path d="M229 87V97C230.346 93.7929 230.346 90.2071 229 87Z" fill="#8E92BF"/>
<path d="M230 87V97H239C238.975 89.8356 237.48 87.0884 230 87Z" fill="#B7C1E4"/>
<path d="M190 98V108C191.346 104.793 191.346 101.207 190 98Z" fill="#D7DDED"/>
<path d="M191 98C195.724 99.9822 201.91 99 207 99C202.276 97.0178 196.09 98 191 98ZM208 98V109C209.327 105.837 209 102.414 209 99H214C211.948 98.1257 210.253 98.0472 208 98ZM215 98V109C216.327 105.837 216 102.414 216 99H221C218.948 98.1257 217.253 98.0472 215 98ZM222 98V109C223.327 105.837 223 102.414 223 99H239C234.026 96.9128 227.362 98 222 98Z" fill="#9599C5"/>
<path d="M191 99V108C195.256 108.306 198.794 110.644 203 110L202 107C199.908 107.406 199.98 107.217 199 109C199.535 104.344 203.658 107.288 207 108V99H191ZM209 99V108H214V99H209ZM216 99V108H221V99H216ZM223 99C223.005 104.898 223.498 111.126 231 110V108C228.792 107.547 228.449 107.354 227 109C227.562 104.112 234.142 107.937 238 108V99H223Z" fill="#B7C1E4"/>
<path d="M238 99V108H232C234.332 108.985 236.457 108.981 239 109C239 105.586 239.327 102.163 238 99Z" fill="#C3CBE7"/>
<path d="M198 109C200.198 107.991 201.58 107.84 204 108C201.312 105.333 199.28 105.187 198 109Z" fill="#6F6DA3"/>
<path d="M227 105C228.59 106.752 229.954 107.794 232 109C230.627 106.453 229.782 105.812 227 105Z" fill="#7372A6"/>
<path d="M226 106V109C227.015 107.861 227.309 107.388 228 106H226Z" fill="#5C5892"/>
<path d="M202.667 108.333C202.222 108.778 203.278 108.722 203.333 108.667C203.778 108.222 202.722 108.278 202.667 108.333Z" fill="#8D8CB5"/>
<path d="M180 136C186.194 138.599 195.314 137 202 137H249C242.806 134.401 233.686 136 227 136H180ZM179 146C185.194 148.599 194.314 147 201 147H249C242.806 144.401 233.686 146 227 146H179Z" fill="#DDE2EF"/>
<path d="M207 150V155H181V157H249V155H223V150H221V155H208C207.912 153.036 207.779 151.769 207 150Z" fill="#C9D1E9"/>
<path d="M206 161V226C207.981 221.28 207 215.08 207 210V178C207 172.65 208.085 165.969 206 161Z" fill="#DBE0EF"/>
<path d="M207 161V226C208.981 221.28 208 215.08 208 210V178C208 172.65 209.085 165.969 207 161Z" fill="#C1CAE7"/>
<path d="M221 161V259H223V161H221Z" fill="#C9D1E9"/>
<path d="M128 214C133.661 209.435 138.079 203.343 143 198C139.79 193.798 135.884 190.526 133 186C126.764 187.987 121.393 192.362 116 196C120.93 190.62 128.418 186.114 135 183C135.372 189.797 139.048 193.166 145 196C145.604 194.16 145.949 191.789 147.014 190.148C151.467 183.283 156.452 193.308 158 197C164.839 195.508 162.46 189.408 161.59 184C159.647 171.941 153.043 168.886 142 165.232C130.796 161.525 121.745 172.078 113 177.651C109.741 179.728 105.016 180.566 102.318 183.314C99.854 185.824 99.646 189.762 100.573 192.999C103.085 201.774 109.929 198.546 115.721 202.179C118.033 203.629 118.216 206.311 119.894 208.224C121.912 210.524 125.612 211.945 128 214Z" fill="#B7C1E4"/>
<path d="M130 187L134 185C134.688 191.172 138.425 194.638 144 197C140.812 191.725 135.752 189.748 135 183C132.363 183.939 131.382 184.58 130 187Z" fill="#69679D"/>
<path d="M132 185C132.545 186.635 132.365 186.455 134 187V185H132Z" fill="#A0A7CF"/>
<path d="M116 196C121.156 193.561 126.352 190.414 130 186C124.895 187.935 118.875 191.261 116 196Z" fill="#605C95"/>
<path d="M99 187V191C99.71 189.24 99.71 188.759 99 187Z" fill="#CED5EB"/>
<path d="M146 194C150.68 186.833 153.539 191.164 157 197C158.377 188.722 146.834 183.071 146 194Z" fill="#6C6AA0"/>
<path d="M148 200C146.543 198.897 146.103 198.457 145 197C139.596 202.136 134.712 208.214 130 214L135 220C131.439 217.174 127.859 214.403 124 212C124.618 215.48 125.788 220.65 128.699 222.992C131.251 225.045 134.446 225.716 136.999 228.059C140.592 231.355 143.23 235.546 148 237C149.376 230.998 151.233 225.17 151.83 219C152.181 215.374 151.561 211.581 152.278 208C153.053 204.124 155.944 201.108 155.84 197C155.782 194.664 152.531 185.739 149.024 189.662C147.032 191.89 148 197.233 148 200Z" fill="#B7C1E4"/>
<path d="M147 190V193C147.696 191.446 147.696 191.554 147 190Z" fill="#9EA4CE"/>
<path d="M147 193L146 197C147.146 195.359 147.393 194.924 147 193Z" fill="#8486B6"/>
<path d="M145 195L144 197H146C146 195.147 146.3 195.65 145 195Z" fill="#D8DCED"/>
<path d="M147 195L145 199C147.649 198.432 148.355 197.412 147 195Z" fill="#66639B"/>
<path d="M156 196V199C156.696 197.446 156.696 197.554 156 196Z" fill="#9FA5CE"/>
<path d="M161 196C162.223 197.195 162.42 197.316 164 198C163.02 196.217 163.092 196.406 161 196Z" fill="#7A7AAD"/>
<path d="M164 196C161.556 197.917 158.511 198.46 156.634 201.148C153.241 206.01 154.359 211.468 153.83 217C153.311 222.435 151.789 227.634 151 233C159.364 225.146 164.439 212.865 172 204C167.646 212.751 153.79 222.989 159 233C165.425 230.137 170.748 224.624 175.995 220C177.928 218.296 181.453 215.997 180.654 212.965C180.053 210.681 177.739 208.993 176.124 207.443C172.115 203.594 168.088 199.762 164 196Z" fill="#B7C1E4"/>
<path d="M143 197C138.767 201.596 133.644 206.329 131 212C135.4 208.899 143.191 202.804 143 197Z" fill="#E7EAF6"/>
<path d="M153 216C155.744 209.461 153.267 200.724 162 198C152.638 194.383 153 210.66 153 216Z" fill="#615E97"/>
<path d="M146.667 199.333C146.222 199.778 147.278 199.722 147.333 199.667C147.778 199.222 146.722 199.278 146.667 199.333Z" fill="#8A8DBB"/>
<path d="M109 201C110.769 201.779 112.036 201.912 114 202C110.49 202.965 107.577 202.45 104 202C108.392 205.819 112.842 204.635 118 203C115.15 201.053 112.41 201.03 109 201Z" fill="#C7CFE9"/>
<path d="M171 204C169.952 205.856 169.487 206.944 169 209C170.693 207.218 171.375 206.419 171 204Z" fill="#7575A9"/>
<path d="M152 205V217C153.512 213.396 153.512 208.604 152 205Z" fill="#9FA5CE"/>
<path d="M168 208C163.492 214.294 157.786 220.756 155 228C159.62 224.239 168.907 214.261 168 208Z" fill="#68659C"/>
<path d="M122.333 209.667C122.278 209.722 122.222 210.778 122.667 210.333C122.722 210.278 122.778 209.222 122.333 209.667Z" fill="#8C8AB0"/>
<path d="M123 210L124 211L123 210Z" fill="#59548E"/>
<path d="M123 211L124 212L123 211Z" fill="#9395BE"/>
<path d="M124 211C126.983 214.889 130.755 217.581 135 220C132.663 215.663 128.487 212.897 124 211Z" fill="#6E6CA2"/>
<path d="M129 214C130.58 213.316 130.777 213.195 132 212C130.42 212.684 130.223 212.805 129 214Z" fill="#D5DBF0"/>
<path d="M176 223C183.226 228.501 195.51 236.38 198.991 245C201.097 250.215 199.068 256.763 197.88 262C195.314 273.319 192.914 284.665 190.424 296C189.095 302.053 188.417 308.193 182.907 312.03C173.869 318.324 156.559 315 146 315V323H173C179.78 323 186.635 322.945 191.786 317.786C195.482 314.085 196.42 308.788 198.001 304C200.965 295.021 203.686 285.975 206.667 277C208.147 272.544 208.88 267.571 212 264C210.724 267.921 207.4 273.804 211 277C209.219 280.13 204.551 284.819 205.712 288.7C206.552 291.504 210.188 293.763 212 296C209.029 293.979 206.446 292.107 203 291C202.395 293.647 200.81 297.111 201.697 299.816C203.422 305.079 213.303 309.778 218 312C222.518 303.515 222 295.356 222 286C222 281.419 222.488 276.498 221.471 272C220.078 265.833 216.872 259.92 214.681 254C212.247 247.422 210.061 240.062 206.471 234.015C202.99 228.151 196.274 224.138 191 220.004C189.039 218.466 186.673 216.127 184 216.128C180.144 216.129 177.469 219.987 176 223Z" fill="#B7C1E4"/>
<path d="M153 216C152.598 217.944 152.598 218.056 153 220C153.71 218.24 153.71 217.76 153 216Z" fill="#7676A9"/>
<path d="M152 219V224C152.83 221.969 152.83 221.03 152 219Z" fill="#5C5791"/>
<path d="M159 220L160 221L159 220Z" fill="#8B8FBD"/>
<path d="M151 221V224C151.696 222.446 151.696 222.554 151 221Z" fill="#9EA4CD"/>
<path d="M172 278C175.42 270.072 173.846 261.075 172 253C172.957 254.517 173.387 255.339 174 257C175.759 254.446 176.104 251.459 178 249C175.415 262.874 174.348 277.026 172.424 291C171.882 294.934 172.424 302.492 168.683 304.972C166.553 306.384 163.42 305.995 161 306C155.894 306.01 151.033 306.066 146 307V313H170C174.252 313 179.117 313.541 182.811 310.991C187.615 307.674 188.25 300.285 189.26 295C191.564 282.949 194.515 271.015 197.003 259C198.22 253.121 200.288 247.438 196.347 242.09C192.617 237.028 186.696 233.085 182 228.951C180.036 227.221 177.736 224.599 175 224.176C172.148 223.735 169.963 226.178 168 227.85C163.779 231.444 158.516 234.934 158.024 241.001C157.695 245.055 160.334 249.339 161.8 253C165.141 261.345 168.344 269.793 172 278Z" fill="#B7C1E4"/>
<path d="M151.667 224.333C151.222 224.778 152.278 224.722 152.333 224.667C152.778 224.222 151.722 224.278 151.667 224.333Z" fill="#7372A6"/>
<path d="M151 225V228C151.696 226.446 151.696 226.554 151 225Z" fill="#5B5691"/>
<path d="M152.333 225.667C152.278 225.722 152.222 226.778 152.667 226.333C152.722 226.278 152.778 225.222 152.333 225.667Z" fill="#9DA3CD"/>
<path d="M150 227C150.684 228.58 150.805 228.777 152 230C151.316 228.42 151.195 228.223 150 227Z" fill="#7B7CAE"/>
<path d="M150 229C149.149 231.673 148.41 234.225 148 237C150.037 234.439 151.098 232.167 150 229Z" fill="#6A689E"/>
<path d="M149 235L150 236L149 235Z" fill="#9FA0C3"/>
<path d="M156 243V245H158V243H156Z" fill="#4E4885"/>
<path d="M158 244C156.521 244.986 156.797 245 155 245C153.238 258.939 156.216 270.517 162.824 283C164.782 286.698 172.697 292.599 168 296C169.507 298.706 169.91 300.913 170 304C167.151 304.021 164.729 304.19 162 305C164.905 305.894 167.948 305.129 171 305C171.431 294.972 173.793 285.051 174 275L172 278C168.451 267.11 164.337 253.542 158 244Z" fill="#69679D"/>
<path d="M154 246C141.202 259.717 147.825 272.167 154 287C150.664 285.611 147.132 284.188 144.515 281.61C141.93 279.064 140.35 275.052 136.826 273.603C131.714 271.501 126.371 274.713 122 277C124.021 283.026 129.81 278.742 134 277C132.777 278.195 132.58 278.316 131 279C132.317 281.393 134.15 282.987 136 285C133.316 283.645 130.953 282.564 128 282C127.942 284.804 126.72 289.072 128.117 291.61C129.419 293.974 132.717 295.115 135 296.244C141.376 299.396 148.173 303.033 155 305C155 298.968 155.405 292.901 154 287C159.754 291.499 163.351 294.836 171 295C169.642 290.161 165.846 287.269 163.363 283C159.998 277.213 157.716 270.283 155.436 264C154.302 260.875 153.083 257.371 153.299 254C153.487 251.079 154.795 248.858 154 246ZM157 246C152.966 259.647 159.384 281.62 171 290C173.012 279.158 167.557 269.89 163.6 260C161.703 255.257 160.227 249.995 157 246Z" fill="#B7C1E4"/>
<path d="M176 249L177 252C177.685 250.752 177.749 250.452 178 249H176Z" fill="#878AB9"/>
<path d="M155 250V258C156.161 255.23 156.161 252.77 155 250Z" fill="#A9B1D7"/>
<path d="M176 250V256C176.951 253.715 176.951 252.285 176 250Z" fill="#5B5691"/>
<path d="M153 251V258C154.059 255.466 154.059 253.534 153 251Z" fill="#A4ABD3"/>
<path d="M172 253C172.44 256.206 172.784 258.059 176 259C174.725 256.883 173.625 254.847 172 253Z" fill="#66639B"/>
<path d="M175 255C175.028 257.324 175.156 257.597 177 259C176.489 257.048 176.267 256.543 175 255Z" fill="#7B7CAE"/>
<path d="M174 259L175 265C176.039 262.471 176.093 260.824 174 259Z" fill="#4E4885"/>
<path d="M174 261V264C174.696 262.446 174.696 262.554 174 261Z" fill="#9AA0CA"/>
<path d="M174 264C174.684 265.58 174.805 265.777 176 267C175.316 265.42 175.195 265.223 174 264Z" fill="#7A7BAD"/>
<path d="M210 264L205 282L208 283C208.89 281.255 209.453 279.875 210 278C208.805 279.223 208.684 279.42 208 281C207.627 275.189 210.697 269.632 212 264H210Z" fill="#6B699F"/>
<path d="M124 266C122.988 268.373 122.378 270.449 122 273C119.31 273.418 118.446 273.717 117 276C119.134 275.342 120.772 275.048 123 275C119.107 279.298 122.049 281.622 127 282L126 291C127.535 288.114 127.858 285.252 128 282L136 284C134.369 282.634 132.962 281.858 131 281C131.545 279.365 131.365 279.545 133 279C131.057 278.378 130.051 278.564 128 279C128.65 280.3 128.147 280 130 280C126.216 280.595 123.974 280.433 122 277C125.741 275.641 129.051 273.712 133 273C129.553 271.668 126.464 273.084 123 274C123.889 271.183 124.844 268.851 124 266Z" fill="#65629A"/>
<path d="M125 266C124.499 268.686 124.117 271.27 124 274L133 271C130.552 268.95 127.828 267.492 125 266Z" fill="#B7C1E4"/>
<path d="M174 266V272C174.951 269.715 174.951 268.285 174 266Z" fill="#5B5791"/>
<path d="M111 283C113.597 281.67 114.591 280.564 116 278C116.99 281.35 116.998 284.514 117 288L125 291L127 282C123.079 281.63 121.325 280.13 119 277L123 276C120.677 275.078 119.419 275.313 117 276C117.572 273.623 117.89 271.442 118 269H120V273C122.221 271.325 122.562 269.743 123 267C113.245 268.321 111.724 273.899 111 283Z" fill="#B7C1E4"/>
<path d="M118.667 269.333C118.222 269.778 119.278 269.722 119.333 269.667C119.778 269.222 118.722 269.278 118.667 269.333Z" fill="#979CC7"/>
<path d="M118 270V273H120V270H118Z" fill="#7676A9"/>
<path d="M129 271C130.248 271.685 130.548 271.749 132 272C130.752 271.315 130.452 271.251 129 271Z" fill="#9BA1CB"/>
<path d="M132 271C133.789 272.422 134.706 272.697 137 273V271H132Z" fill="#7777AA"/>
<path d="M173 271C173.307 273.123 173.382 273.686 175 275C174.489 273.048 174.267 272.543 173 271Z" fill="#7271A6"/>
<path d="M123.333 272.667C123.278 272.722 123.222 273.778 123.667 273.333C123.722 273.278 123.778 272.222 123.333 272.667Z" fill="#9EA4CD"/>
<path d="M101 273V277C101.71 275.24 101.71 274.76 101 273Z" fill="#C2CBE7"/>
<path d="M97 274C97.936 275.949 98.392 276.55 100 278C99.064 276.051 98.608 275.45 97 274Z" fill="#C5CDE8"/>
<path d="M119.667 274.333C119.222 274.778 120.278 274.722 120.333 274.667C120.778 274.222 119.722 274.278 119.667 274.333Z" fill="#9BA1CB"/>
<path d="M208 275L207 281C208.425 279.97 209.32 279.399 211 279C210.157 277.231 209.459 276.312 208 275Z" fill="#A5ACD4"/>
<path d="M119.333 277.667C119.278 277.722 119.222 278.778 119.667 278.333C119.722 278.278 119.778 277.222 119.333 277.667Z" fill="#969BC6"/>
<path d="M132 277C132.545 278.635 132.365 278.455 134 279V277H132Z" fill="#8F93C0"/>
<path d="M95 278V280H99V278H95Z" fill="#D3DAEC"/>
<path d="M127 280C128.248 280.685 128.548 280.749 130 281C128.752 280.315 128.452 280.251 127 280Z" fill="#463E7E"/>
<path d="M173.333 281.667C173.278 281.722 173.222 282.778 173.667 282.333C173.722 282.278 173.778 281.222 173.333 281.667Z" fill="#7D7EB0"/>
<path d="M123.667 282.333C123.222 282.778 124.278 282.722 124.333 282.667C124.778 282.222 123.722 282.278 123.667 282.333Z" fill="#898BBA"/>
<path d="M205 282V285C206.195 283.777 206.316 283.58 207 282H205Z" fill="#4A4281"/>
<path d="M82 283C83.248 283.685 83.548 283.749 85 284C83.752 283.315 83.452 283.251 82 283Z" fill="#CCCEDF"/>
<path d="M204 283V287C205.084 285.138 205.073 284.882 204 283Z" fill="#5C5892"/>
<path d="M81 284L82 285L81 284Z" fill="#9D9CBD"/>
<path d="M82 284C83.693 285.062 85.04 285.52 87 286C85.212 284.579 84.294 284.303 82 284Z" fill="#716C9C"/>
<path d="M126.333 284.667C126.278 284.722 126.222 285.778 126.667 285.333C126.722 285.278 126.778 284.222 126.333 284.667Z" fill="#8B8EBC"/>
<path d="M134.667 284.333C134.222 284.778 135.278 284.722 135.333 284.667C135.778 284.222 134.722 284.278 134.667 284.333Z" fill="#9FA5CE"/>
<path d="M80 285L81 286L80 285Z" fill="#A5A4C2"/>
<path d="M81 285L82 286L81 285Z" fill="#615B91"/>
<path d="M82 285C82.969 290.956 88.279 292.511 92.961 295.449C102.431 301.391 108.475 306 120 306C114.116 299.933 102.927 294.885 95 292V294C91.893 292.696 89.371 291.398 87 289L93 291C89.924 287.882 86.266 285.976 82 285Z" fill="#E7EBF2"/>
<path d="M87 285L88 286L87 285Z" fill="#AAA9C6"/>
<path d="M80.333 286.667C80.278 286.722 80.222 287.778 80.667 287.333C80.722 287.278 80.778 286.222 80.333 286.667Z" fill="#6A6598"/>
<path d="M81.333 286.667C81.278 286.722 81.222 287.778 81.667 287.333C81.722 287.278 81.778 286.222 81.333 286.667Z" fill="#B8B9D0"/>
<path d="M86 286L87 287L86 286Z" fill="#A4A3C2"/>
<path d="M87 286C89.162 288.171 91.059 289.129 94 290C91.838 287.829 89.941 286.871 87 286Z" fill="#7C79A5"/>
<path d="M203 286L204 290C201.653 290 201.71 291.613 201 294C202.783 293.02 202.594 293.092 203 291L208 292C206.448 289.846 204.9 287.846 203 286Z" fill="#7171A5"/>
<path d="M127.333 287.667C127.278 287.722 127.222 288.778 127.667 288.333C127.722 288.278 127.778 287.222 127.333 287.667Z" fill="#989DC8"/>
<path d="M154 287C154.684 288.58 154.805 288.777 156 290L157 289L156 287H154Z" fill="#7D7EB0"/>
<path d="M171 287V290C171.696 288.446 171.696 288.554 171 287Z" fill="#8A8DBB"/>
<path d="M80 288C83.213 291.877 87.04 294.105 92 295C88.489 291.949 84.364 289.598 80 288Z" fill="#7D79A5"/>
<path d="M137 292C139.467 291.159 141.699 290.222 144 289C140.877 288.353 138.778 289.402 137 292Z" fill="#625E97"/>
<path d="M203.333 288.667C203.278 288.722 203.222 289.778 203.667 289.333C203.722 289.278 203.778 288.222 203.333 288.667Z" fill="#4A4381"/>
<path d="M87 289V291C88.635 290.455 88.455 290.635 89 289H87Z" fill="#9695B8"/>
<path d="M94 289L95 290L94 289Z" fill="#AFAFC9"/>
<path d="M125 289C125.406 291.092 125.217 291.02 127 292C126.309 290.612 126.015 290.139 125 289Z" fill="#9798BF"/>
<path d="M156 289V291H158C157.455 289.365 157.635 289.545 156 289Z" fill="#473F7F"/>
<path d="M88.667 290.333C88.222 290.778 89.278 290.722 89.333 290.667C89.778 290.222 88.722 290.278 88.667 290.333Z" fill="#696397"/>
<path d="M89 291C90.735 292.05 90.932 292.046 93 292C91.265 290.95 91.069 290.954 89 291Z" fill="#BFC0D5"/>
<path d="M93 290L94 291L93 290Z" fill="#9F9EBE"/>
<path d="M94 290C97.104 293.201 100.616 295.155 105 296C101.743 293.17 98.138 291.217 94 290Z" fill="#7975A2"/>
<path d="M155 290V306C156.812 301.681 156.812 294.319 155 290Z" fill="#8E92BF"/>
<path d="M93 291L94 294C94.685 292.752 94.749 292.452 95 291H93Z" fill="#D0D3E2"/>
<path d="M156 291V306H162C160.231 305.221 158.964 305.088 157 305V292C160.3 294.147 163.064 295.573 167 296C163.738 293.464 160.06 291.774 156 291Z" fill="#615E96"/>
<path d="M92 292C92.545 293.635 92.365 293.455 94 294V292H92Z" fill="#8986AE"/>
<path d="M157 292V305C161.377 304.447 165.578 304.003 170 304V297C165.171 296.273 161.369 294.03 157 292Z" fill="#B7C1E4"/>
<path d="M207 292C208.686 293.656 209.746 294.251 212 295C210.314 293.344 209.254 292.749 207 292Z" fill="#625E97"/>
<path d="M98 293L99 294L98 293Z" fill="#ADADC8"/>
<path d="M101 293L102 294L101 293Z" fill="#B4B4CD"/>
<path d="M201 294C199.383 298.968 197.457 303.765 197 309C198.663 306.778 199.355 304.705 200 302C202.01 303.261 203.778 304.19 206 305C204.471 308.935 202.192 311.307 199 314C201.926 315.966 204.702 317.752 208 319C206.599 316.835 205.357 316.094 203 315C204.776 311.819 206.853 308.938 209 306C203.7 301.896 202.931 299.948 201 294Z" fill="#615E96"/>
<path d="M90 295L91 296L90 295Z" fill="#B6B7CF"/>
<path d="M91.667 295.333C91.222 295.778 92.278 295.722 92.333 295.667C92.778 295.222 91.722 295.278 91.667 295.333Z" fill="#686296"/>
<path d="M93 295L94 296L93 295Z" fill="#ABABC7"/>
<path d="M166 296C167.846 296.468 169.069 296.301 171 296C168.956 295.226 168.155 295.408 166 296Z" fill="#7A7BAD"/>
<path d="M210.667 295.333C210.222 295.778 211.278 295.722 211.333 295.667C211.778 295.222 210.722 295.278 210.667 295.333Z" fill="#9397C3"/>
<path d="M92 296L93 297L92 296Z" fill="#A3A2C1"/>
<path d="M93 296C94.223 297.195 94.42 297.316 96 298C94.777 296.805 94.58 296.684 93 296Z" fill="#7571A0"/>
<path d="M104.667 296.333C104.222 296.778 105.278 296.722 105.333 296.667C105.778 296.222 104.722 296.278 104.667 296.333Z" fill="#656094"/>
<path d="M106 296L107 297L106 296Z" fill="#A5A5C3"/>
<path d="M96 297L95 299H97C97 297.147 97.3 297.65 96 297Z" fill="#A6AACE"/>
<path d="M105 297L106 298L105 297Z" fill="#A8A8C5"/>
<path d="M106 297C107.393 298.434 108.233 299.045 110 300C108.771 298.13 108.132 297.776 106 297Z" fill="#716D9D"/>
<path d="M110 298C112.304 301.589 116.145 303.339 120 305C110.344 307.853 104.876 300.711 96 299C96.175 304.353 98.337 305.588 102 309C105.879 308.855 107.598 309.994 110 313C107.885 311.427 106.53 310.648 104 310C104.824 313.561 105.643 318.855 108.51 321.397C111.16 323.746 115.74 323 119 323H144V307C135.491 306.971 132.262 302.453 125 299.14C120.555 297.112 114.707 297.223 110 298ZM200 302C199.235 304.413 197.48 308.027 198.643 310.547C201.143 315.963 205.501 307.092 206 305L200 302Z" fill="#B7C1E4"/>
<path d="M160 304C161.248 304.685 161.548 304.749 163 305C161.752 304.315 161.452 304.251 160 304Z" fill="#9094C1"/>
<path d="M165 305C166.769 305.779 168.036 305.912 170 306C168.231 305.221 166.964 305.088 165 305Z" fill="#9EA4CE"/>
<path d="M144 306C145.769 306.779 147.036 306.912 149 307C147.231 306.221 145.964 306.088 144 306Z" fill="#D2D8EC"/>
<path d="M144 307V324C145.883 319.514 145.883 311.487 144 307Z" fill="#625F97"/>
<path d="M145 307V313C145.951 310.715 145.951 309.285 145 307Z" fill="#9599C5"/>
<path d="M207 307C208.506 307.683 209.315 307.826 211 308C209.494 307.317 208.685 307.174 207 307Z" fill="#7575A8"/>
<path d="M103 308C105.127 310.055 107.44 311.502 110 313C108.302 309.758 106.573 308.726 103 308Z" fill="#6B6AA0"/>
<path d="M196 308L197 312C194.215 313.765 192.513 316.508 189.958 318.607C187.567 320.571 184.829 321.503 183 324C190.196 321.922 193.519 315.02 200 313C198.765 311.152 197.576 309.558 196 308Z" fill="#6F6DA3"/>
<path d="M203 315C204.745 315.89 206.125 316.453 208 317L212 311C207.752 306.841 204.78 310.459 203 315Z" fill="#B7C1E4"/>
<path d="M210 308C211.45 309.608 212.051 310.064 214 311C212.55 309.392 211.948 308.936 210 308Z" fill="#544F8B"/>
<path d="M213 309L214 310L213 309Z" fill="#8081B2"/>
<path d="M196.333 310.667C196.278 310.722 196.222 311.778 196.667 311.333C196.722 311.278 196.778 310.222 196.333 310.667Z" fill="#4A4382"/>
<path d="M214 310C215.226 312.035 215.703 312.326 218 313C216.607 311.566 215.767 310.955 214 310Z" fill="#7272A6"/>
<path d="M211 311C209.347 313.709 208.408 315.854 208 319C210.128 316.551 211.624 313.938 213 311H211Z" fill="#7170A5"/>
<path d="M213 311C211.286 313.624 209.944 316.013 209 319L212 322C213.966 319.17 215.447 316.364 218 314L213 311Z" fill="#B7C1E4"/>
<path d="M145.333 313.667C145.278 313.722 145.222 314.778 145.667 314.333C145.722 314.278 145.778 313.222 145.333 313.667Z" fill="#B4B4D1"/>
<path d="M196 313C188.192 328.007 170.211 325 156 325V327H188C194.659 327 201.487 326.449 208 328C209.183 325.672 210.223 323.489 211 321C206.013 318.224 201.62 314.321 196 313Z" fill="#B7C1E4"/>
<path d="M145 315V324C146.256 321.006 146.256 317.994 145 315Z" fill="#9599C5"/>
<path d="M221 317V538C216.587 539.243 214.243 541.587 213 546C219.431 540.465 224.808 536.456 230 546C231.254 541.225 227.189 538.853 223 538V317H221Z" fill="#C9D1E9"/>
<path d="M208 319C209.393 320.434 210.233 321.045 212 322C210.771 320.13 210.132 319.776 208 319Z" fill="#5D5993"/>
<path d="M110 323C113.699 324.552 118.017 324 122 324H144C140.301 322.448 135.983 323 132 323H110ZM146 323C148.89 324.213 151.874 323.998 155 324C152.11 322.787 149.126 323.002 146 323Z" fill="#C7CFE9"/>
<path d="M156 323C163.409 326.109 174.975 324 183 324C175.591 320.891 164.025 323 156 323Z" fill="#605D96"/>
<path d="M156 324C163.169 327.008 174.239 325 182 325C174.831 321.992 163.761 324 156 324Z" fill="#9A9FC9"/>
<path d="M156 327C160.969 329.085 167.65 328 173 328H207C202.031 325.915 195.35 327 190 327H156Z" fill="#9599C5"/>
<path d="M156 328C160.969 330.085 167.65 329 173 329H207C202.031 326.915 195.35 328 190 328H156Z" fill="#5D5993"/>
<path d="M207 328L208 329L207 328Z" fill="#8B89B1"/>
<path d="M156 329V338H207V330H176C169.341 330 162.513 330.551 156 329Z" fill="#B7C1E4"/>
<path d="M157 329C161.72 330.981 167.92 330 173 330H207C202.28 328.019 196.08 329 191 329H157Z" fill="#AFB8DD"/>
<path d="M207 329V338C208.256 335.006 208.256 331.994 207 329Z" fill="#D7DDED"/>
<path d="M156 338V340H207V338H156Z" fill="#7675A9"/>
<path d="M207.333 338.667C207.278 338.722 207.222 339.778 207.667 339.333C207.722 339.278 207.778 338.222 207.333 338.667Z" fill="#9D9DC0"/>
<path d="M156 340C155.516 346.484 149.863 350.353 151 357C145.214 360.5 140.997 368.767 136.576 374C128.432 383.639 120.343 393.321 112.246 403C105.305 411.298 98.861 418.436 101.529 430C105.262 446.176 121.999 457.305 127 473C130.827 465.96 134.257 455.006 134.907 447C135.929 434.397 133.47 423.128 145 415C141.399 421.333 138.576 428.782 137.439 436C136.812 439.981 137.319 444.053 136.482 448C134.206 458.734 129.253 468.749 125.709 479.015C123.406 485.687 116.2 493.333 118.319 500.812C119.903 506.405 131.139 509.114 136 511C129.699 510.418 124.094 506.667 118 505C115.969 509.977 114.494 515.248 112 520C110.538 517.567 109.712 516.823 107 516C105.987 517.651 103.648 519.968 103.667 522C103.692 524.736 107.542 528.044 109.222 530C113.978 535.537 126.134 548.432 133 538C135.911 542.036 145.498 542.429 149.816 539.972C153.041 538.137 155.009 533.986 157 531C161.093 524.861 166.375 518.923 169 512C163.58 512.112 158.326 513.31 153 514.25C150.787 514.641 147.545 514.826 146.028 516.738C143.831 519.506 145 525.665 145 529L152 530V532C143.05 530.801 139.609 532.034 132 537L129 530L119 534C117.302 529.361 114.575 525.207 112 521C115.384 524.124 117.468 528.174 120 532C127.531 529.449 129.981 526.261 133 519C127.249 517.427 120.313 515.185 116 511C121.356 513.855 127.14 516.397 133 518C137.589 509.571 141.081 500.634 145.258 492C148.133 486.059 152.012 480.282 154 474C154.009 480.38 148.768 485.863 147 492C150.431 490.019 156.077 486.949 157.212 482.83C158.285 478.939 155.575 475.16 156.97 471C159.087 464.684 163.271 458.937 166.247 453C175.465 434.61 184.823 416.281 194.258 398C198.017 390.719 204.545 382.962 206.467 375C209.049 364.303 207 350.986 207 340H156Z" fill="#B7C1E4"/>
<path d="M207 340V373C208.328 369.834 208 366.419 208 363C208 356.049 209.701 346.436 207 340Z" fill="#D2D8EC"/>
<path d="M176 345C184.058 345.343 193.876 357.301 195 365C199.405 358.817 189.256 350.945 185 347.059C182.316 344.607 178.892 341.764 176 345Z" fill="#EAEDF7"/>
<path d="M156 360L157 361L156 360Z" fill="#8B8EBC"/>
<path d="M155 361V364C155.696 362.446 155.696 362.554 155 361Z" fill="#9599C5"/>
<path d="M156 361C156.041 365.884 158.169 370.292 158.292 375C158.373 378.088 156.929 380.886 157 384C161.952 376.541 159.465 368.651 156 361Z" fill="#65639A"/>
<path d="M157.333 365.667C157.278 365.722 157.222 366.778 157.667 366.333C157.722 366.278 157.778 365.222 157.333 365.667Z" fill="#8385B5"/>
<path d="M207 382V546C208.661 542.041 208 537.26 208 533V509V424V396C208 391.464 208.769 386.215 207 382Z" fill="#C1CAE7"/>
<path d="M154 383L155 384L154 383Z" fill="#888BBA"/>
<path d="M155 383C155.545 384.635 155.365 384.455 157 385V383H155Z" fill="#453D7D"/>
<path d="M128 399C137.271 395.626 146.478 389.974 155 385C152.036 384.506 149.687 385.911 147 387.248C141.204 390.134 131.577 393.539 128 399Z" fill="#605C95"/>
<path d="M155 384C155.684 385.58 155.805 385.777 157 387C156.316 385.42 156.195 385.223 155 384Z" fill="#8284B4"/>
<path d="M155 386C153.311 390.355 152.125 395.504 148 398C149.736 403.259 145.793 408.703 145 414C149.057 408.978 150.636 401.954 153 396C154.315 392.687 156.033 389.503 155 386Z" fill="#65639A"/>
<path d="M139 391L140 392L139 391Z" fill="#8C8FBD"/>
<path d="M143 398C144.248 398.685 144.548 398.749 146 399C144.752 398.315 144.452 398.251 143 398Z" fill="#9DA3CD"/>
<path d="M146 398V400H148V398H146Z" fill="#6F6EA3"/>
<path d="M137 399C138.248 399.685 138.549 399.749 140 400C138.752 399.315 138.452 399.251 137 399Z" fill="#9EA4CE"/>
<path d="M137 400C139.3 400.916 140.377 400.879 142 399L137 400Z" fill="#6F6EA3"/>
<path d="M142 399C143.506 399.683 144.315 399.826 146 400C144.494 399.317 143.685 399.174 142 399Z" fill="#5B5791"/>
<path d="M148 399C148.545 400.635 148.365 400.455 150 401V399H148Z" fill="#989DC8"/>
<path d="M137 434C140.567 428.357 142.459 421.194 145 415C138.012 418.261 132.628 426.556 137 434Z" fill="#E7EBF2"/>
<path d="M100 420V428C101.161 425.23 101.161 422.77 100 420Z" fill="#CCD4EA"/>
<path d="M129 422C131.013 423.225 132.659 423.645 135 424C132.958 422.584 131.489 422.255 129 422Z" fill="#64629A"/>
<path d="M130.667 423.333C130.222 423.778 131.278 423.722 131.333 423.667C131.778 423.222 130.722 423.278 130.667 423.333Z" fill="#898CBA"/>
<path d="M136.667 434.333C136.222 434.778 137.278 434.722 137.333 434.667C137.778 434.222 136.722 434.278 136.667 434.333Z" fill="#979AC3"/>
<path d="M42 443H38C40.314 444.591 42.19 444.858 45 445V541H47V445H84V524H86V445H104V443H58C55.281 443 44.207 444.508 44.207 440C44.207 435.611 54.37 437 57 437H99V435H57C49.615 435 42.303 433.745 42 443Z" fill="#CCD3EA"/>
<path d="M136 435C134.872 439.736 134.614 444.311 136 449C137.796 444.721 136.909 439.581 138 435H136Z" fill="#7575A9"/>
<path d="M152.667 439.333C152.222 439.778 153.278 439.722 153.333 439.667C153.778 439.222 152.722 439.278 152.667 439.333Z" fill="#8E92BF"/>
<path d="M145 442C148.121 443.083 150.864 441.829 154 441C150.846 439.881 148.131 441.008 145 442Z" fill="#67649C"/>
<path d="M144 442C144.98 443.783 144.908 443.594 147 444C145.861 442.985 145.388 442.691 144 442Z" fill="#999EC8"/>
<path d="M38 444V543C40.297 543.674 40.774 543.965 42 546C42.685 544.752 42.749 544.452 43 543H57V541H39V478C39 467.024 37.45 454.712 40 444H38Z" fill="#C3CBE7"/>
<path d="M61 444V537C63.599 530.806 62 521.686 62 515V468C62 460.784 63.802 450.678 61 444Z" fill="#C1CAE7"/>
<path d="M39 445V541C41.599 534.806 40 525.686 40 519V470C40 462.52 41.903 451.919 39 445Z" fill="#DBE0EF"/>
<path d="M40 445V541H45V445H40Z" fill="#E7EBF2"/>
<path d="M135 448L127 474C129.414 472.187 130.015 469.893 130.859 466.999C132.457 461.515 136.974 453.565 135 448Z" fill="#69679E"/>
<path d="M108 452V510C109.981 505.28 109 499.08 109 494V466C109 461.464 109.769 456.215 108 452Z" fill="#C0C9E7"/>
<path d="M154 474L151 482C153.379 479.617 154.923 477.372 154 474Z" fill="#5C5892"/>
<path d="M151 479L152 480L151 479Z" fill="#8E91BF"/>
<path d="M150 481L151 482L150 481Z" fill="#8B8EBC"/>
<path d="M150.333 482.667C150.278 482.722 150.222 483.778 150.667 483.333C150.722 483.278 150.778 482.222 150.333 482.667Z" fill="#5E5A94"/>
<path d="M149 483L150 484L149 483Z" fill="#888BBA"/>
<path d="M158 483C157.014 484.479 157 484.203 157 486C158.289 484.557 158.401 484.766 158 483Z" fill="#7A7AAB"/>
<path d="M149 484C146.923 487.596 145.577 489.997 147 494C150.587 491.756 153.487 489.412 156 486C152.603 487.512 149.899 489.671 147 492C148.107 489.276 149.487 486.906 149 484Z" fill="#68669D"/>
<path d="M155 485L156 486L155 485Z" fill="#8588B7"/>
<path d="M156 485L157 486L156 485Z" fill="#56518C"/>
<path d="M148 505H143C143.23 507.611 143.356 511.241 145.703 512.968C148.07 514.711 151.483 513.326 154 512.745C159.392 511.499 165.516 510.131 171 511C173.839 505.901 177.738 501.377 180 496C174.286 494.817 168.79 492.78 163 492C163 495.323 163.981 500.812 161.397 503.397C158.661 506.133 152.526 505 149 505V503H161C161 498.761 160.362 494.482 163 491L159 485C154.833 487.15 146.737 491.884 146.018 497.004C145.666 499.512 147.451 502.561 148 505Z" fill="#B7C1E4"/>
<path d="M161 491V503H153C155.89 504.213 158.874 503.998 162 504C162 499.737 162.661 494.959 161 491Z" fill="#5E5A94"/>
<path d="M162 491V504C163.591 500.209 163.591 494.791 162 491Z" fill="#8E92BF"/>
<path d="M145 492L144 496C145.628 494.283 145.954 494.101 145 492Z" fill="#4E4885"/>
<path d="M144 493L145 494L144 493Z" fill="#7C7DAF"/>
<path d="M146 494L147 495L146 494Z" fill="#7D7EB0"/>
<path d="M143 495V497H145C144.455 495.365 144.635 495.545 143 495Z" fill="#A2A5C9"/>
<path d="M145 495L146 496L145 495Z" fill="#8C90BE"/>
<path d="M117 496V501C117.83 498.97 117.83 498.03 117 496Z" fill="#D2D8EC"/>
<path d="M180.667 496.333C180.222 496.778 181.278 496.722 181.333 496.667C181.778 496.222 180.722 496.278 180.667 496.333Z" fill="#8B89B1"/>
<path d="M143 497C136.783 507.652 125.35 525.129 132 537C135.576 535.417 141.748 532.585 143.397 528.787C144.951 525.206 144 519.839 144 516C152.677 514.879 161.225 512.181 170 512V510C164.698 510.422 159.209 511.418 154 512.51C151.62 513.009 148.736 514.316 146.418 512.932C143.644 511.276 142.784 506.866 142 504H148C147.383 501.296 146.456 499.37 145 497H143Z" fill="#E7EBF2"/>
<path d="M180 497C173.288 505.709 164.913 515.677 161 526C166.978 521.059 170.666 513.289 175.141 507C177.298 503.969 180.328 500.816 180 497Z" fill="#66639B"/>
<path d="M181 497C174.654 508.387 166.428 519.37 158.859 530C156.247 533.668 153.616 539.607 149.674 541.972C145.894 544.241 139.264 543 135 543V546C139.852 546 147.479 547.436 151.816 544.972C155.038 543.141 157.215 538.955 159.28 536C163.926 529.352 168.435 522.608 173.141 516C176.145 511.782 186.633 501.25 181 497Z" fill="#B7C1E4"/>
<path d="M177 500L178 501L177 500Z" fill="#8D90BE"/>
<path d="M118 503V505C119.635 504.455 119.455 504.635 120 503H118Z" fill="#8180AF"/>
<path d="M149 505L153 504C150.954 503.249 150.404 503.344 149 505Z" fill="#7777AA"/>
<path d="M175 503L176 504L175 503Z" fill="#898BBA"/>
<path d="M119 504C123.313 508.185 130.249 510.427 136 512C131.709 507.836 124.78 505.373 119 504Z" fill="#625F97"/>
<path d="M142 507C144.075 505.83 145.637 505.308 148 505C145.238 503.409 142.714 503.669 142 507Z" fill="#CAD1E9"/>
<path d="M152 504C153.769 504.779 155.036 504.912 157 505C155.231 504.221 153.964 504.088 152 504Z" fill="#8B8EBC"/>
<path d="M157 504C158.769 504.779 160.036 504.912 162 505C160.231 504.221 158.964 504.088 157 504Z" fill="#A7AFD6"/>
<path d="M116 511C119.208 515.703 127.55 518.062 133 519C128.272 515.18 121.65 513.192 116 511Z" fill="#6A689F"/>
<path d="M144 516V529C145.591 525.209 145.591 519.791 144 516Z" fill="#D2D8EC"/>
<path d="M112 521C112.858 522.962 113.634 524.369 115 526C114.759 523.262 114.332 522.479 112 521Z" fill="#7675A9"/>
<path d="M162 522L163 523L162 522Z" fill="#8D91BE"/>
<path d="M64 540C68.969 542.085 75.65 541 81 541H117C113.641 535.921 107.781 526.517 101.961 524.212C98.517 522.848 94.171 525.381 91 526.576C81.254 530.252 72.674 534.153 64 540Z" fill="#B7C1E4"/>
<path d="M115 525C117.419 533.115 122.005 533.251 129 530C125.742 529.096 123.004 530.604 120 532C118.657 529.185 117.292 527.111 115 525Z" fill="#69679E"/>
<path d="M160 525L161 526L160 525Z" fill="#8A8CBB"/>
<path d="M158 531C159.752 529.41 160.794 528.046 162 526C159.453 527.373 158.812 528.218 158 531Z" fill="#7474A8"/>
<path d="M149.667 527.333C149.222 527.778 150.278 527.722 150.333 527.667C150.778 527.222 149.722 527.278 149.667 527.333Z" fill="#8B8EBC"/>
<path d="M149 528C151.046 528.751 151.596 528.656 153 527L149 528Z" fill="#706FA4"/>
<path d="M153 527C154.506 527.683 155.315 527.826 157 528C155.494 527.317 154.685 527.174 153 527Z" fill="#5D5992"/>
<path d="M153.667 528.333C153.222 528.778 154.278 528.722 154.333 528.667C154.778 528.222 153.722 528.278 153.667 528.333Z" fill="#9AA0CA"/>
<path d="M144 529V531H146V529H144Z" fill="#7675A9"/>
<path d="M146.667 529.333C146.222 529.778 147.278 529.722 147.333 529.667C147.778 529.222 146.722 529.278 146.667 529.333Z" fill="#9FA5CE"/>
<path d="M146 530C147.506 530.683 148.315 530.826 150 531C148.494 530.317 147.685 530.174 146 530Z" fill="#5B5690"/>
<path d="M148 531C150.046 531.751 150.596 531.656 152 530L148 531Z" fill="#8283B4"/>
<path d="M157 530C154.664 533.463 152.344 538.771 148.674 540.972C144.894 543.241 138.264 542 134 542L133 538C132.594 539.659 132.691 540.242 133 542H61C68.4 545.105 79.993 543 88 543C107.393 543 127.656 544.708 146.96 542.941C152.231 542.459 157.742 535.117 157 530Z" fill="#6B699F"/>
<path d="M119.667 533.333C119.222 533.778 120.278 533.722 120.333 533.667C120.778 533.222 119.722 533.278 119.667 533.333Z" fill="#8B8EBC"/>
<path d="M214 546H230C226.725 536.813 218.044 538.297 214 546Z" fill="#E7EBF2"/>
<path d="M132 540C124.565 542.198 115.722 541 108 541H61C65.027 543.32 72.289 542 77 542H116C120.322 542 124.681 542.167 129 542C130.987 541.923 132.812 541.967 132 540ZM134 541C138.724 542.982 144.91 542 150 542C145.276 540.018 139.09 541 134 541Z" fill="#888BB9"/>
<path d="M61 543V546H133V543H61Z" fill="#B7C1E4"/>
<path d="M133 543V546H135V543H133Z" fill="#7C7CAE"/>
<path d="M25 546V548H259V546L71 547L25 546Z" fill="#8A87AF"/>
<path d="M62 546C68.194 548.599 77.314 547 84 547H133C126.806 544.401 117.686 546 111 546H62Z" fill="#7B7CAE"/>
<path d="M133.667 546.333C133.222 546.778 134.278 546.722 134.333 546.667C134.778 546.222 133.722 546.278 133.667 546.333Z" fill="#5D5A93"/>
<path d="M135 546C139.974 548.087 146.638 547 152 547C147.026 544.913 140.362 546 135 546Z" fill="#7B7CAE"/>
<path d="M152 546C157.216 548.189 164.381 547 170 547H206C200.784 544.811 193.619 546 188 546H152Z" fill="#9391B5"/>
</svg>
