<svg width="800" height="600" viewBox="0 0 800 600" fill="none" xmlns="http://www.w3.org/2000/svg">
<path d="M332.762 306V335C335.054 329.538 333.762 321.887 333.762 316C333.762 312.581 334.09 309.166 332.762 306Z" fill="#FFEFDF"/>
<path d="M333.762 306V336C338.473 329.782 335.762 315.649 335.762 308H349.762V334C352.77 326.831 350.762 315.761 350.762 308H388.762V316H381.762V334C383.849 329.026 382.762 322.362 382.762 317C385.176 317.009 388.326 316.609 390.444 318.028C394.731 320.898 392.762 331.498 392.762 336C395.057 330.531 393.762 322.901 393.762 317H418.762V336H420.762V316H389.762V306H333.762Z" fill="#053547"/>
<path d="M335.762 308V335H348.762V308H335.762Z" fill="#999999"/>
<path d="M348.762 308V335C351.303 328.945 351.303 314.055 348.762 308Z" fill="#597174"/>
<path d="M350.762 308V336H381.762C373.634 332.589 360.576 335 351.762 335C351.762 326.975 353.871 315.409 350.762 308Z" fill="#6D848C"/>
<path d="M351.762 309V335H380.762V319C378.886 323.471 379.762 329.183 379.762 334H352.762C352.762 326.503 354.669 315.928 351.762 309Z" fill="#CCC9C8"/>
<path d="M352.762 309V334H379.762C379.762 326.449 377.766 315.762 387.762 315C387.762 311.184 386.284 310.911 386.762 309H352.762Z" fill="#C1C1C1"/>
<path d="M540.762 312V335C543.046 329.557 543.046 317.443 540.762 312Z" fill="#E2D6C5"/>
<path d="M420.762 315V335C422.849 330.027 422.849 319.973 420.762 315Z" fill="#FEF1DD"/>
<path d="M380.762 316V335C382.782 330.187 382.782 320.813 380.762 316Z" fill="#7B8E95"/>
<path d="M382.762 317V335C384.714 330.349 384.714 321.651 382.762 317Z" fill="#335561"/>
<path d="M393.762 317V336H418.762C412.075 333.194 401.995 335 394.762 335V318H418.762C411.834 315.093 401.259 317 393.762 317Z" fill="#6F838A"/>
<path d="M383.762 318V335H391.762V318H383.762Z" fill="#999999"/>
<path d="M391.762 318V335H383.762C386.652 336.213 389.636 335.998 392.762 336C392.762 330.368 393.953 323.222 391.762 318Z" fill="#597076"/>
<path d="M394.762 318C395.443 323.388 395.762 328.563 395.762 334H417.762C417.762 330.232 419.193 322.708 416.734 319.603C415.356 317.864 412.743 318.042 410.761 318.005C405.432 317.904 400.092 318 394.762 318Z" fill="#C1C1C1"/>
<path d="M416.762 318C418.02 323.282 417.762 328.6 417.762 334H395.762V321C393.993 325.217 394.762 330.459 394.762 335H418.762C418.762 330.233 420.548 321.308 416.762 318Z" fill="#CCC9C8"/>
<path d="M526.762 323V331H518.762C521.652 332.213 524.636 331.998 527.762 332C527.76 328.874 527.975 325.89 526.762 323Z" fill="#D2C6B6"/>
<path d="M375.762 337C367.607 333.578 357.79 338.464 349.762 334C344.522 336.796 339.479 335.539 333.762 335.745C330.72 335.855 326.894 336.684 324.141 334.972C317.902 331.094 316.623 324.38 307.762 324.459C261.463 324.873 215.097 325 168.762 325C172.461 326.552 176.779 326 180.762 326H201.762H278.762C292.845 326 312.394 321.832 320.762 336C265.512 336.152 210.016 338.373 154.762 336C155.042 327.383 160.096 326.006 167.762 326C164.812 324.751 159.913 323.791 156.871 325.269C153.438 326.936 151.219 333.139 153.79 336.397C156.223 339.479 164.292 338 167.762 338H208.762C264.517 338 320.191 337 375.762 337Z" fill="#114251"/>
<path d="M154.762 335H167.762C172.808 324.773 193.981 329 203.762 329H272.762C287.496 329 302.302 328.017 316.762 331C310.106 323.458 292.133 327 282.762 327H189.762H166.762C163.839 327 159.652 326.32 157.08 328.028C154.718 329.596 154.843 332.5 154.762 335Z" fill="#8B898D"/>
<path d="M167.762 335H319.762C315.232 326.584 298.012 330 289.762 330H200.762H177.762C172.953 330.01 169.307 329.909 167.762 335Z" fill="#ADAFAB"/>
<path d="M321.762 333L322.762 334L321.762 333Z" fill="#677C7D"/>
<path d="M319.762 334C314.037 335.692 307.702 335 301.762 335H270.762H167.762C170.578 336.622 174.456 336 177.762 336H200.762H284.762H311.762C313.874 336 321.009 337.022 319.762 334Z" fill="#929C9A"/>
<path d="M381.762 334V338L420.762 337C408.905 332.025 393.963 339.17 381.762 334Z" fill="#0F414F"/>
<path d="M143.762 335C146.652 336.213 149.636 335.998 152.762 336C149.872 334.787 146.888 335.002 143.762 335Z" fill="#C1BEB6"/>
<path d="M154.762 335C158.721 336.661 163.499 336 167.762 336C163.803 334.339 159.025 335 154.762 335Z" fill="#77807E"/>
<path d="M322.762 335C324.268 335.683 325.077 335.826 326.762 336C325.256 335.317 324.447 335.174 322.762 335Z" fill="#98B09D"/>
<path d="M326.762 335C329.094 335.985 331.219 335.981 333.762 336C331.43 335.015 329.305 335.019 326.762 335Z" fill="#C2B9BE"/>
<path d="M335.762 335C339.721 336.661 344.499 336 348.762 336C344.803 334.339 340.025 335 335.762 335Z" fill="#597076"/>
<path d="M428.762 335C434.224 337.292 441.875 336 447.762 336H486.762C481.299 333.708 473.649 335 467.762 335H428.762Z" fill="#BFC0B8"/>
<path d="M486.762 335C492.224 337.292 499.875 336 505.762 336H544.762C539.3 333.708 531.649 335 525.762 335H486.762Z" fill="#A4A096"/>
<path d="M544.762 335C546.455 336.062 547.802 336.52 549.762 337C548.222 335.197 547.165 335.168 544.762 335Z" fill="#CDBDB2"/>
<path d="M142.762 336L143.762 337L142.762 336Z" fill="#778384"/>
<path d="M173.762 454C161.632 448.91 137.616 460.829 132.486 443C131.738 440.403 131.784 437.675 131.762 435H176.762C172.293 433.125 166.571 434 161.762 434H131.762V414H512.762C507.299 411.708 499.649 413 493.762 413H452.762H311.762V390C307.64 395.441 309.762 406.353 309.762 413H174.762V390C172.203 396.099 176.412 405.171 172.734 410.682C170.843 413.516 166.708 412.994 163.762 413H141.762C139.103 412.995 135.436 413.467 133.365 411.397C131.494 409.526 131.779 406.418 131.763 404L131.762 388C131.762 369.246 125.615 337.578 152.762 337C143.895 333.281 133.122 339.892 131.241 349C129.547 357.202 130.762 366.648 130.762 375V426C130.762 433.569 128.337 445.936 134.976 451.347C138.622 454.319 143.347 453.998 147.762 454H173.762Z" fill="#023643"/>
<path d="M159.762 336C164.231 337.875 169.953 337 174.762 337H205.762H312.762C308.293 335.125 302.571 336 297.762 336H266.762H159.762Z" fill="#0A3C4B"/>
<path d="M350.762 337C359.129 340.511 372.686 338 381.762 338V336L350.762 337Z" fill="#1C4B57"/>
<path d="M420.762 336C424.977 337.769 430.227 337 434.762 337H460.762H514.762C523.794 337 533.856 335.764 542.762 337.329C547.816 338.216 551.938 341.473 556.762 343C548.581 332.581 531.551 336 519.762 336H420.762Z" fill="#023649"/>
<path d="M546.762 336L547.762 337L546.762 336Z" fill="#4D6D6F"/>
<path d="M145.762 337C148.375 338.098 150.926 337.993 153.762 338C151.149 336.902 148.598 337.007 145.762 337Z" fill="#35555F"/>
<path d="M322.762 337C326.194 338.44 330.062 338 333.762 338C330.33 336.56 326.462 337 322.762 337Z" fill="#325868"/>
<path d="M396.762 337C403.449 339.806 413.529 338 420.762 338C414.075 335.194 403.995 337 396.762 337Z" fill="#1C4B57"/>
<path d="M420.762 337C424.721 338.661 429.502 338 433.762 338H458.762H544.762C540.803 336.339 536.022 337 531.762 337H506.762H420.762Z" fill="#345C63"/>
<path d="M549.762 337L550.762 338L549.762 337Z" fill="#87948E"/>
<path d="M142.762 338L143.762 339L142.762 338Z" fill="#416F77"/>
<path d="M133.762 386C138.973 373.582 130.569 354.019 144.802 345.228C153.04 340.139 163.644 342.535 172.762 341.91C198.808 340.127 224.699 342 250.762 342C309.095 342 367.429 341.906 425.762 342C448.691 342.037 471.75 343.968 494.762 342.961C504.453 342.536 514.067 340.416 523.762 340C516.603 336.996 505.506 339 497.762 339H438.762H234.762H168.762C163.099 339 157.423 339.115 151.762 338.985C147.93 338.898 144.37 338.117 140.766 339.854C137.438 341.458 134.402 344.275 133.585 348.001C132.776 351.684 133.761 356.218 133.762 360V386Z" fill="#A1B5B4"/>
<path d="M145.762 338C149.461 339.552 153.779 339 157.762 339H179.762H257.762H440.762H500.762C510.325 339 520.285 340.002 529.762 339C526.063 337.448 521.745 338 517.762 338H495.762H417.762H145.762Z" fill="#B1C2BF"/>
<path d="M138.762 384C138.768 374.588 139.148 357.124 146.951 350.569C154.396 344.314 166.783 346 175.762 346C198.598 346 221.984 344.53 244.762 346.09C268.059 347.685 292.284 346.009 315.762 346H460.762H512.762C521.978 346 532.439 345.865 539.418 352.935C543.937 357.514 542.762 364.077 542.762 370V411H550.762C543.333 396.877 545.762 380.65 545.762 365C545.762 360.574 544.176 352.231 546.79 348.434C548.87 345.411 553.583 346.009 556.762 346C548.976 335.521 536.126 337.493 524.762 339.537C504.126 343.25 481.74 344.879 460.762 343.961C393.652 341.022 325.99 343.004 258.762 343C234.169 342.998 209.434 342 184.762 342C174.337 342 163.087 340.808 152.762 342.3C137.747 344.47 136.98 356.53 135.338 369C134.671 374.065 132.832 382.032 138.762 384Z" fill="#D0E5E8"/>
<path d="M546.762 338L547.762 339L546.762 338Z" fill="#698A90"/>
<path d="M551.762 338L552.762 339L551.762 338Z" fill="#7B8E97"/>
<path d="M548.762 339L549.762 340L548.762 339Z" fill="#9DBEC8"/>
<path d="M550.762 340L551.762 341L550.762 340Z" fill="#91B0B1"/>
<path d="M175.762 341C179.461 342.552 183.779 342 187.762 342H207.762C204.063 340.448 199.745 341 195.762 341H175.762Z" fill="#B9CDCE"/>
<path d="M207.762 341C212.984 343.191 220.13 342 225.762 342C220.54 339.809 213.394 341 207.762 341Z" fill="#AABEBF"/>
<path d="M507.762 341C509.531 341.779 510.798 341.912 512.762 342C510.993 341.221 509.726 341.088 507.762 341Z" fill="#B8CCCD"/>
<path d="M555.762 341L556.762 342L555.762 341Z" fill="#9DA9AA"/>
<path d="M247.762 342C252.731 344.085 259.412 343 264.762 343H300.762H425.762C420.793 340.915 414.112 342 408.762 342H372.762H247.762Z" fill="#C6DBDC"/>
<path d="M425.762 342C428.652 343.213 431.636 342.998 434.762 343C431.872 341.787 428.888 342.002 425.762 342Z" fill="#B7CCCD"/>
<path d="M553.762 342L554.762 343L553.762 342Z" fill="#638491"/>
<path d="M455.762 343C463.411 346.21 475.474 344 483.762 344C476.113 340.79 464.05 343 455.762 343Z" fill="#C6DBDC"/>
<path d="M554.762 343L555.762 344L554.762 343Z" fill="#597A84"/>
<path d="M555.762 343C556.375 344.661 556.805 345.483 557.762 347L546.762 348V390C546.762 396.816 545.844 404.189 550.4 409.891C553.614 413.914 559.27 414.901 563.762 417L564.762 416C560.776 408.753 561.762 401.058 561.762 393V353C564.696 353.071 568.049 353.004 570.159 355.434C572.327 357.931 571.761 361.945 571.762 365V389C584.129 386.753 580.762 372.666 580.762 363C580.762 359.274 581.806 353.48 579.159 350.434C575.274 345.963 567.853 349.024 562.866 347.683C560.109 346.941 558.22 344.345 555.762 343Z" fill="#0F404E"/>
<path d="M558.762 345L559.762 346L558.762 345Z" fill="#7C918F"/>
<path d="M559.762 345C562.963 348.663 571.161 347 575.762 347C570.901 344.96 564.968 346.24 559.762 345Z" fill="#F5EBDA"/>
<path d="M156.762 346C164.401 349.206 176.491 347 184.762 347H248.762C241.123 343.794 229.033 346 220.762 346H156.762Z" fill="#DCEFF2"/>
<path d="M255.762 346C260.482 347.981 266.682 347 271.762 347H304.762C300.042 345.019 293.842 346 288.762 346H255.762Z" fill="#DCEFF1"/>
<path d="M305.762 346C311.713 348.497 320.342 347 326.762 347H370.762H525.762C519.811 344.503 511.182 346 504.762 346H460.762H305.762Z" fill="#DCEFF2"/>
<path d="M547.762 346C550.652 347.213 553.636 346.998 556.762 347C553.872 345.787 550.888 346.002 547.762 346Z" fill="#E2FBF4"/>
<path d="M556.762 346L557.762 347L556.762 346Z" fill="#A0BABC"/>
<path d="M152.762 347C160.641 350.306 173.228 348 181.762 348H248.762H478.762C470.883 344.694 458.296 347 449.762 347H382.762H152.762Z" fill="#74959B"/>
<path d="M479.429 347.333C478.984 347.778 480.04 347.722 480.095 347.667C480.54 347.222 479.484 347.278 479.429 347.333Z" fill="#53737A"/>
<path d="M480.762 347C485.231 348.875 490.953 348 495.762 348H525.762C521.293 346.125 515.571 347 510.762 347H480.762Z" fill="#74959B"/>
<path d="M525.762 347C527.01 347.685 527.31 347.749 528.762 348C527.514 347.315 527.214 347.251 525.762 347Z" fill="#40616C"/>
<path d="M529.429 347.333C528.984 347.778 530.04 347.722 530.095 347.667C530.54 347.222 529.484 347.278 529.429 347.333Z" fill="#99B2BB"/>
<path d="M545.762 347V403C547.637 398.531 546.762 392.809 546.762 388V361C546.762 356.465 547.531 351.215 545.762 347Z" fill="#E9F6FA"/>
<path d="M546.762 347L547.762 348L546.762 347Z" fill="#799BA0"/>
<path d="M547.762 347C549.531 347.779 550.798 347.912 552.762 348C550.993 347.221 549.726 347.088 547.762 347Z" fill="#3B656B"/>
<path d="M559.762 347C563.979 348.769 569.221 348 573.762 348C569.545 346.231 564.303 347 559.762 347Z" fill="#436069"/>
<path d="M148.762 348L149.762 349L148.762 348Z" fill="#90A9B3"/>
<path d="M247.762 389C242.793 386.915 236.112 388 230.762 388H196.762V349H249.762V378C249.762 380.853 248.67 386.834 251.365 388.782C254.183 390.818 261.372 389.001 264.762 389C276.621 388.995 288.958 388.028 300.762 389.17C317.984 390.835 336.25 389 353.762 389H463.762C459.042 387.019 452.842 388 447.762 388H416.762V349H470.762V388H465.762C469.461 389.552 473.779 389 477.762 389H497.762C490.593 385.992 479.523 388 471.762 388V349H516.762C524.114 349 532.319 348.726 537.444 355.055C541.056 359.514 539.762 366.631 539.762 372V412C533.04 412.531 526.528 413 519.762 413C523.461 414.552 527.779 414 531.762 414H554.762C550.803 412.339 546.025 413 541.762 413V368C541.762 361.677 542.772 354.181 536.657 350.228C530.121 346.004 519.2 348 511.762 348H453.762H233.762H168.762C161.47 348 150.407 345.778 145.195 352.109C140.257 358.106 139.74 373.416 139.792 381C139.815 384.395 140.451 387.636 143.871 389.106C147.41 390.628 152.006 390 155.762 390C163.855 390 171.715 389.641 179.762 389.09C202.211 387.552 225.257 389 247.762 389Z" fill="#063B49"/>
<path d="M532.762 348L533.762 349L532.762 348Z" fill="#547D84"/>
<path d="M151.762 349C155.977 350.769 161.226 350 165.762 350H194.762C190.547 348.231 185.298 349 180.762 349H151.762ZM196.762 349C201.731 351.085 208.412 350 213.762 350H249.762C244.793 347.915 238.112 349 232.762 349H196.762ZM251.762 349C256.731 351.085 263.412 350 268.762 350H304.762C299.793 347.915 293.112 349 287.762 349H251.762Z" fill="#526F71"/>
<path d="M304.762 349V388C306.203 384.565 305.762 380.702 305.762 377C305.762 368.729 307.968 356.639 304.762 349Z" fill="#335967"/>
<path d="M306.762 349C311.731 351.085 318.412 350 323.762 350H359.762C354.793 347.915 348.112 349 342.762 349H306.762Z" fill="#526F71"/>
<path d="M359.762 349V388C361.314 384.301 360.762 379.983 360.762 376C360.762 367.174 359.709 357.624 361.762 349H359.762Z" fill="#315A63"/>
<path d="M361.762 349C366.731 351.085 373.412 350 378.762 350H414.762C409.793 347.915 403.112 349 397.762 349H361.762ZM416.762 349V369C419.057 363.531 417.762 355.901 417.762 350H469.762V369C472.16 363.285 470.762 355.169 470.762 349H416.762ZM471.762 349V369C474.057 363.531 472.762 355.901 472.762 350H525.762C520.546 347.811 513.381 349 507.762 349H471.762Z" fill="#526F71"/>
<path d="M525.762 349C527.01 349.685 527.31 349.749 528.762 350C527.514 349.315 527.214 349.251 525.762 349Z" fill="#35555A"/>
<path d="M560.762 349C564.721 350.661 569.499 350 573.762 350C569.803 348.339 565.025 349 560.762 349Z" fill="#36616F"/>
<path d="M145.762 350L146.762 351L145.762 350Z" fill="#8CADB6"/>
<path d="M149.762 350L150.762 351L149.762 350Z" fill="#4F6B6F"/>
<path d="M142.762 369H194.762V350H161.762C157.094 350 151.029 349.12 147.334 352.653C143.368 356.444 143.704 363.944 142.762 369ZM196.762 350V369H249.762V350H196.762ZM251.762 350V369H304.762V350H251.762Z" fill="#919596"/>
<path d="M306.762 350V369C308.782 364.187 308.782 354.813 306.762 350Z" fill="#7A8487"/>
<path d="M307.762 350V369H359.762V350H307.762Z" fill="#919596"/>
<path d="M361.762 350V369C363.782 364.187 363.782 354.813 361.762 350Z" fill="#7B8688"/>
<path d="M362.762 350V369H414.762V350H362.762Z" fill="#919596"/>
<path d="M414.762 350V369C416.782 364.187 416.782 354.813 414.762 350Z" fill="#536F72"/>
<path d="M417.762 350V369H469.762V350H417.762ZM472.762 350V369H539.762C539.762 364.246 540.857 358.05 537.444 354.214C532.736 348.921 525.113 350 518.762 350H472.762Z" fill="#919596"/>
<path d="M536.762 350L537.762 351L536.762 350Z" fill="#71919D"/>
<path d="M548.762 350V369C550.782 364.187 550.782 354.813 548.762 350Z" fill="#5F7377"/>
<path d="M549.762 350V369H559.762C559.762 364.498 561.731 353.898 557.444 351.028C555.326 349.609 552.176 350.009 549.762 350Z" fill="#919596"/>
<path d="M560.762 350L561.762 351L560.762 350Z" fill="#7EA1A9"/>
<path d="M561.762 350C564.375 351.098 566.926 350.993 569.762 351C567.149 349.902 564.598 350.007 561.762 350Z" fill="#F6FFFF"/>
<path d="M144.762 351L145.762 352L144.762 351Z" fill="#90B7BF"/>
<path d="M147.762 351L148.762 352L147.762 351Z" fill="#486671"/>
<path d="M533.762 351L534.762 352L533.762 351Z" fill="#486571"/>
<path d="M539.762 353L540.762 354L539.762 353Z" fill="#557B81"/>
<path d="M561.762 353L562.762 354L561.762 353Z" fill="#9EA8A2"/>
<path d="M562.762 353V398C562.762 402.577 561.104 410.803 564.762 414C561.435 400.024 563.762 383.34 563.762 369C563.762 364.096 562.198 356.959 566.762 354C565.256 353.317 564.447 353.174 562.762 353Z" fill="#F8EBDE"/>
<path d="M142.762 354L143.762 355L142.762 354Z" fill="#7BA4AA"/>
<path d="M559.762 354V391C559.762 398.281 560.457 405.88 558.762 413C562.161 410.03 560.762 403.241 560.762 399V369C560.762 364.191 561.637 358.469 559.762 354Z" fill="#325865"/>
<path d="M561.762 354V413C563.531 408.785 562.762 403.535 562.762 399V370C562.762 364.92 563.743 358.72 561.762 354Z" fill="#3E636B"/>
<path d="M540.762 355L541.762 356L540.762 355Z" fill="#3F716F"/>
<path d="M541.762 355V412H551.762C548.872 410.787 545.888 411.002 542.762 411V373C542.762 367.381 543.951 360.216 541.762 355Z" fill="#E6F8F7"/>
<path d="M144.095 358.667C144.04 358.722 143.984 359.778 144.429 359.333C144.484 359.278 144.54 358.222 144.095 358.667Z" fill="#597175"/>
<path d="M142.762 364V367C143.458 365.446 143.458 365.554 142.762 364Z" fill="#44636E"/>
<path d="M142.762 369C142.669 373.529 139.9 381.58 142.79 385.527C145.09 388.668 152.373 387.001 155.762 387H193.762V369H142.762Z" fill="#A9ADAE"/>
<path d="M193.762 369V387H145.762C150.482 388.981 156.682 388 161.762 388H194.762C194.762 382.099 196.057 374.469 193.762 369ZM196.762 369V388H249.762V369C247.571 374.222 248.762 381.368 248.762 387H197.762C197.762 381.368 198.953 374.222 196.762 369Z" fill="#BABBB9"/>
<path d="M197.762 369V387H248.762V369H197.762Z" fill="#A9ADAE"/>
<path d="M251.762 369V388H304.762V369C302.571 374.222 303.762 381.368 303.762 387H252.762C252.762 381.368 253.953 374.222 251.762 369Z" fill="#BABBB9"/>
<path d="M252.762 369V387H303.762V369H252.762Z" fill="#A9ADAE"/>
<path d="M306.762 369V388C308.782 383.187 308.782 373.813 306.762 369Z" fill="#8C989A"/>
<path d="M307.762 369V387H358.762V369H307.762Z" fill="#A9ADAE"/>
<path d="M358.762 369V387H307.762C312.731 389.085 319.412 388 324.762 388H359.762C359.762 382.099 361.057 374.469 358.762 369Z" fill="#BABBB9"/>
<path d="M361.762 369V388C363.782 383.187 363.782 373.813 361.762 369Z" fill="#8D999E"/>
<path d="M362.762 369V387C380.131 387 397.472 386.635 414.762 388V369H362.762Z" fill="#A9ADAE"/>
<path d="M414.762 369V388C416.782 383.187 416.782 373.813 414.762 369Z" fill="#617A7D"/>
<path d="M416.762 369V388C418.782 383.187 418.782 373.813 416.762 369Z" fill="#5F7B7E"/>
<path d="M417.762 369V387H469.762V369H417.762Z" fill="#A9ADAE"/>
<path d="M469.762 369V388C471.782 383.187 471.782 373.813 469.762 369Z" fill="#5F7B7E"/>
<path d="M471.762 369V388C473.782 383.187 473.782 373.813 471.762 369Z" fill="#617A7D"/>
<path d="M472.762 369V388C480.634 387.379 493.412 384.303 500.758 388.028C507.833 391.615 510.691 402.75 511.762 410C513.062 409.35 512.762 409.853 512.762 408C516.67 413.938 532.108 411 538.762 411V369H472.762Z" fill="#A9ADAE"/>
<path d="M538.762 369V411C532.396 411 517.519 413.795 513.762 408C513.079 409.506 512.936 410.315 512.762 412H539.762V383C539.762 378.465 540.531 373.215 538.762 369Z" fill="#BBBAB6"/>
<path d="M548.762 369V403C551.564 396.323 549.762 386.215 549.762 379C549.762 375.581 550.09 372.165 548.762 369Z" fill="#6B8287"/>
<path d="M549.762 369V395C549.762 398.688 549.111 403.433 551.219 406.696C552.778 409.11 555.808 409.185 557.762 411C559.531 406.785 558.762 401.535 558.762 397V369H549.762Z" fill="#A9ADAE"/>
<path d="M558.762 369V411C557.025 409.744 555.881 409.346 553.762 409C555.742 410.884 557.072 411.469 559.762 412V383C559.762 378.465 560.531 373.215 558.762 369Z" fill="#B7B7B6"/>
<path d="M134.762 383V411H171.762V391C164.026 391 153.295 392.938 145.933 390.486C141.671 389.067 139.028 384.746 134.762 383Z" fill="#E5E5E5"/>
<path d="M143.762 387L144.762 388L143.762 387Z" fill="#56746A"/>
<path d="M362.762 387C367.482 388.981 373.682 388 378.762 388H410.762C406.042 386.019 399.842 387 394.762 387H362.762ZM417.762 387C422.731 389.085 429.412 388 434.762 388H469.762C464.793 385.915 458.112 387 452.762 387H417.762ZM476.762 387C483.69 389.907 494.265 388 501.762 388C494.834 385.093 484.259 387 476.762 387Z" fill="#BABBB9"/>
<path d="M175.762 389C182.44 391.802 192.546 390 199.762 390H251.762C246.572 386.771 235.919 389 229.762 389H175.762ZM366.762 389C370.197 390.441 374.06 390 377.762 390H398.762H470.762H490.762C493.924 390 497.715 389.507 500.707 390.742C508.913 394.13 505.9 407.304 512.762 412C511.324 405.788 508.788 392.345 502.704 389.194C499.64 387.607 496.012 388.82 492.762 388.961C485.191 389.289 477.327 389.342 469.762 388.914C435.745 386.99 400.891 389 366.762 389Z" fill="#003341"/>
<path d="M501.762 388L502.762 389L501.762 388Z" fill="#5D7175"/>
<path d="M143.762 389L144.762 390L143.762 389Z" fill="#5E8192"/>
<path d="M254.762 389C259.482 390.981 265.682 390 270.762 390H303.762C299.042 388.019 292.842 389 287.762 389H254.762ZM312.762 389C317.731 391.085 324.412 390 329.762 390H365.762C360.793 387.915 354.112 389 348.762 389H312.762Z" fill="#003341"/>
<path d="M143.762 390C151.411 393.21 163.474 391 171.762 391V411H134.762C138.721 412.661 143.502 412 147.762 412H172.762V390H143.762Z" fill="#F9F4F0"/>
<path d="M172.762 390V412C174.981 406.713 174.981 395.287 172.762 390Z" fill="#3D656F"/>
<path d="M174.762 390V412C176.981 406.713 176.981 395.287 174.762 390Z" fill="#C0C5CD"/>
<path d="M175.762 390C179.977 391.769 185.227 391 189.762 391H215.762H308.762V412C311.365 405.798 309.762 396.702 309.762 390H175.762ZM311.762 390V412C314.262 406.041 312.762 397.436 312.762 391H499.762C494.546 388.811 487.381 390 481.762 390H443.762H311.762Z" fill="#FFF9FA"/>
<path d="M498.762 391C502.526 394.215 504.224 397.324 505.762 402C507.261 396.931 504.128 391.245 498.762 391Z" fill="#F0F0EE"/>
<path d="M500.762 390L501.762 391L500.762 390Z" fill="#9DADBB"/>
<path d="M175.762 391V411H308.762V391H175.762ZM312.762 391V411H509.762C508.959 405.573 505.703 395.155 500.629 392.318C496.956 390.265 491.803 391 487.762 391H460.762H312.762Z" fill="#E5E5E5"/>
<path d="M502.762 391L503.762 392L502.762 391Z" fill="#647778"/>
<path d="M503.762 392L504.762 393L503.762 392Z" fill="#476B75"/>
<path d="M507.095 394.667C507.04 394.722 506.984 395.778 507.429 395.333C507.484 395.278 507.54 394.222 507.095 394.667Z" fill="#4F706D"/>
<path d="M504.762 395L505.762 396L504.762 395Z" fill="#718294"/>
<path d="M505.762 398L506.762 399L505.762 398Z" fill="#798C95"/>
<path d="M508.762 400L509.762 401L508.762 400Z" fill="#798A91"/>
<path d="M506.762 401L507.762 402L506.762 401Z" fill="#668E8C"/>
<path d="M508.762 401L509.762 402L508.762 401Z" fill="#446070"/>
<path d="M509.762 403L510.762 404L509.762 403Z" fill="#768F89"/>
<path d="M507.762 404L508.762 405L507.762 404Z" fill="#8A9CA4"/>
<path d="M546.762 404L547.762 405L546.762 404Z" fill="#6A8E93"/>
<path d="M510.762 406L511.762 407L510.762 406Z" fill="#79888F"/>
<path d="M547.762 406L548.762 407L547.762 406Z" fill="#3B696E"/>
<path d="M508.762 407L509.762 408L508.762 407Z" fill="#89A3A6"/>
<path d="M548.762 408L549.762 409L548.762 408Z" fill="#437374"/>
<path d="M552.762 409L553.762 410L552.762 409Z" fill="#617C83"/>
<path d="M509.762 410L510.762 411L509.762 410Z" fill="#8FA6AE"/>
<path d="M175.762 411C179.977 412.769 185.226 412 189.762 412H215.762H308.762C304.547 410.231 299.298 411 294.762 411H268.762H175.762ZM312.762 411C318.224 413.292 325.875 412 331.762 412H371.762H510.762C505.299 409.708 497.649 411 491.762 411H451.762H312.762Z" fill="#F9F4F0"/>
<path d="M555.762 411L556.762 412L555.762 411Z" fill="#5A747B"/>
<path d="M132.762 412C136.977 413.769 142.226 413 146.762 413H172.762C168.547 411.231 163.298 412 158.762 412H132.762ZM174.762 412C178.977 413.769 184.227 413 188.762 413H215.762H309.762C305.547 411.231 300.298 412 295.762 412H268.762H174.762ZM311.762 412C317.224 414.292 324.875 413 330.762 413H370.762H510.762C505.299 410.708 497.649 412 491.762 412H451.762H311.762Z" fill="#3C646E"/>
<path d="M510.762 412C516.693 416.051 528.639 413 535.762 413C528.834 410.093 518.259 412 510.762 412Z" fill="#114251"/>
<path d="M541.762 412C545.194 413.44 549.062 413 552.762 413C549.33 411.56 545.462 412 541.762 412Z" fill="#366469"/>
<path d="M134.762 414C138.461 415.552 142.779 415 146.762 415H167.762H244.762H511.762C508.063 413.448 503.745 414 499.762 414H478.762H401.762H134.762Z" fill="#ACC5CC"/>
<path d="M511.762 414C519.65 417.31 532.211 415 540.762 415C532.874 411.69 520.313 414 511.762 414Z" fill="#80A1AB"/>
<path d="M540.762 414C545.486 415.982 551.672 415 556.762 415C552.038 413.018 545.852 414 540.762 414Z" fill="#ADC8CE"/>
<path d="M557.429 414.333C556.984 414.778 558.04 414.722 558.095 414.667C558.54 414.222 557.484 414.278 557.429 414.333Z" fill="#486F7E"/>
<path d="M134.762 415V432C149.313 432 164.261 431.002 178.762 432C190.791 415.287 212.951 417.628 224.762 433C235.785 423.502 247.046 415.534 261.762 423.327C266.187 425.67 270.063 431.581 274.852 432.643C278.217 433.389 282.312 432.045 285.762 432.004C295.426 431.889 305.098 432 314.762 432H422.762C440.926 432 459.611 433.278 477.723 431.946C487.959 431.193 494.818 419.441 505.801 419.233C516.005 419.04 521.564 428.104 529.932 431.4C533.13 432.66 537.389 432 540.762 432H563.762C563.762 427.72 565.414 418.84 561.328 416.028C559.035 414.449 555.387 415.001 552.762 415H534.762H463.762H134.762Z" fill="#D0E5E8"/>
<path d="M563.762 416C564.779 420.447 567.591 427.401 564.734 431.682C562.844 434.516 558.708 433.994 555.762 434H530.762C534.461 435.552 538.779 435 542.762 435H565.762V453H533.762C533.761 447.731 533.627 442.981 531.762 438C530.284 442.867 532.741 448.65 531.762 454C543.583 454 554.994 454.929 566.762 454V429C566.762 424.122 567.257 419.73 563.762 416Z" fill="#043745"/>
<path d="M564.762 416L565.762 417L564.762 416Z" fill="#7F9597"/>
<path d="M562.762 417L563.762 418L562.762 417Z" fill="#A3BEB9"/>
<path d="M563.762 418L564.762 419L563.762 418Z" fill="#3E666A"/>
<path d="M501.762 419C504.375 420.098 506.926 419.993 509.762 420C507.149 418.902 504.597 419.007 501.762 419Z" fill="#E1F4F4"/>
<path d="M563.762 419L564.762 420L563.762 419Z" fill="#99BCBF"/>
<path d="M196.429 420.333C195.984 420.778 197.04 420.722 197.095 420.667C197.54 420.222 196.484 420.278 196.429 420.333Z" fill="#7699A2"/>
<path d="M197.762 420C199.814 420.874 201.509 420.953 203.762 421C201.71 420.126 200.015 420.047 197.762 420Z" fill="#396574"/>
<path d="M203.762 420C205.01 420.685 205.31 420.749 206.762 421C205.514 420.315 205.214 420.251 203.762 420Z" fill="#74959E"/>
<path d="M244.429 420.333C243.984 420.778 245.04 420.722 245.095 420.667C245.54 420.222 244.484 420.278 244.429 420.333Z" fill="#7699A2"/>
<path d="M245.762 420C247.814 420.874 249.509 420.953 251.762 421C249.71 420.126 248.015 420.047 245.762 420Z" fill="#396574"/>
<path d="M251.762 420C253.01 420.685 253.31 420.749 254.762 421C253.514 420.315 253.214 420.251 251.762 420Z" fill="#74959F"/>
<path d="M502.429 420.333C501.984 420.778 503.04 420.722 503.095 420.667C503.54 420.222 502.484 420.278 502.429 420.333Z" fill="#6594A0"/>
<path d="M503.762 420C505.268 420.683 506.077 420.826 507.762 421C506.256 420.317 505.447 420.174 503.762 420Z" fill="#3E646E"/>
<path d="M508.429 420.333C507.984 420.778 509.04 420.722 509.095 420.667C509.54 420.222 508.484 420.278 508.429 420.333Z" fill="#6E8F98"/>
<path d="M510.429 420.333C509.984 420.778 511.04 420.722 511.095 420.667C511.54 420.222 510.484 420.278 510.429 420.333Z" fill="#ADCAD3"/>
<path d="M563.762 420V432H529.762C533.461 433.552 537.779 433 541.762 433H564.762C564.762 428.737 565.423 423.959 563.762 420Z" fill="#DCEEF5"/>
<path d="M191.762 421L192.762 422L191.762 421Z" fill="#9EBABF"/>
<path d="M192.762 421L193.762 422L192.762 421Z" fill="#57787E"/>
<path d="M173.762 455C175.438 452.101 174.573 449.285 174.951 446C175.403 442.067 177.179 438.294 179.311 435.001C191.424 416.287 213.429 420.418 224.762 437C231.867 430.696 236.542 423.761 246.762 422.302C263.73 419.878 278.556 438.064 274.762 454H473.762C466.834 451.093 456.259 453 448.762 453V435H481.762C476.3 432.708 468.649 434 462.762 434H423.762H285.762C282.242 434 278.012 434.596 274.762 432.972C269.91 430.548 266.782 425.714 261.762 423.328C249.065 417.293 233.689 421.78 225.762 433C221.521 428.771 217.464 424.659 211.762 422.468C198.49 417.369 182.168 423.123 175.901 436C173.015 441.93 173.762 448.594 173.762 455Z" fill="#043A48"/>
<path d="M208.762 421L209.762 422L208.762 421Z" fill="#4C717A"/>
<path d="M209.762 421L210.762 422L209.762 421Z" fill="#90ADB5"/>
<path d="M239.762 421L240.762 422L239.762 421Z" fill="#9EBAC0"/>
<path d="M240.762 421L241.762 422L240.762 421Z" fill="#57787E"/>
<path d="M256.762 421L257.762 422L256.762 421Z" fill="#4C727B"/>
<path d="M257.762 421L258.762 422L257.762 421Z" fill="#91B1B8"/>
<path d="M496.762 421L497.762 422L496.762 421Z" fill="#98B1B8"/>
<path d="M497.762 421L498.762 422L497.762 421Z" fill="#557B84"/>
<path d="M478.762 453H473.762C475.703 453.951 477.66 454.439 479.762 455L480.762 454C476.689 436.885 493.774 417.62 511.762 422.789C520.894 425.413 524.191 433.861 531.762 438C520.597 407.965 471.453 421.194 478.762 453Z" fill="#0C3D4F"/>
<path d="M513.762 421L514.762 422L513.762 421Z" fill="#82A5AA"/>
<path d="M564.762 421V433C566.274 429.396 566.274 424.604 564.762 421Z" fill="#3D646D"/>
<path d="M189.762 422L190.762 423L189.762 422Z" fill="#517883"/>
<path d="M196.762 422C199.375 423.098 201.926 422.993 204.762 423C202.149 421.902 199.598 422.007 196.762 422Z" fill="#709795"/>
<path d="M205.429 422.333C204.984 422.778 206.04 422.722 206.095 422.667C206.54 422.222 205.484 422.278 205.429 422.333Z" fill="#335A5F"/>
<path d="M211.762 422L212.762 423L211.762 422Z" fill="#61828B"/>
<path d="M237.762 422L238.762 423L237.762 422Z" fill="#61868E"/>
<path d="M244.762 422C247.375 423.098 249.927 422.993 252.762 423C250.149 421.902 247.598 422.007 244.762 422Z" fill="#709795"/>
<path d="M253.429 422.333C252.984 422.778 254.04 422.722 254.095 422.667C254.54 422.222 253.484 422.278 253.429 422.333Z" fill="#335A5F"/>
<path d="M259.762 422L260.762 423L259.762 422Z" fill="#5B7C86"/>
<path d="M494.762 422L495.762 423L494.762 422Z" fill="#5A7C86"/>
<path d="M501.429 422.333C500.984 422.778 502.04 422.722 502.095 422.667C502.54 422.222 501.484 422.278 501.429 422.333Z" fill="#4B6D6E"/>
<path d="M502.762 422C504.531 422.779 505.798 422.912 507.762 423C505.993 422.221 504.726 422.088 502.762 422Z" fill="#709696"/>
<path d="M508.429 422.333C507.984 422.778 509.04 422.722 509.095 422.667C509.54 422.222 508.484 422.278 508.429 422.333Z" fill="#567D82"/>
<path d="M510.429 422.333C509.984 422.778 511.04 422.722 511.095 422.667C511.54 422.222 510.484 422.278 510.429 422.333Z" fill="#264D54"/>
<path d="M516.762 422L517.762 423L516.762 422Z" fill="#8CB0B3"/>
<path d="M187.762 423L188.762 424L187.762 423Z" fill="#597D80"/>
<path d="M192.762 423L193.762 424L192.762 423Z" fill="#477379"/>
<path d="M175.762 454H178.762C178.787 445.185 181.637 437.076 188.777 431.394C199.206 423.093 214.227 427.754 220.345 439C222.913 443.721 222.761 448.796 222.762 454H227.762C227.763 443.857 230.048 434.708 239.762 429.417C255.497 420.847 274.721 437.316 270.762 454H274.762C274.762 448.764 275.511 442.92 273.395 438C267.729 424.826 250.742 418.776 237.762 424.92C232.263 427.523 228.661 432.537 224.762 437C216.06 420 191.93 417.743 180.295 433.001C175.489 439.304 175.762 446.474 175.762 454Z" fill="#8CABA5"/>
<path d="M213.762 423L214.762 424L213.762 423Z" fill="#41626C"/>
<path d="M235.762 423L236.762 424L235.762 423Z" fill="#5B7D86"/>
<path d="M240.762 423L241.762 424L240.762 423Z" fill="#477379"/>
<path d="M256.762 423L257.762 424L256.762 423Z" fill="#598180"/>
<path d="M261.762 423L262.762 424L261.762 423Z" fill="#4B6C75"/>
<path d="M480.762 454H484.762C484.219 449.405 484.048 445.358 485.976 441C496.709 416.734 532.795 428.59 526.762 454H531.762C531.762 445.133 531.256 436.864 524.577 430.185C514.875 420.483 496.653 420.033 487.091 430.185C481.121 436.522 479.24 445.679 480.762 454Z" fill="#8CABA6"/>
<path d="M513.429 423.333C512.984 423.778 514.04 423.722 514.095 423.667C514.54 423.222 513.484 423.278 513.429 423.333Z" fill="#396369"/>
<path d="M518.762 423L519.762 424L518.762 423Z" fill="#8FB2BC"/>
<path d="M185.762 424L186.762 425L185.762 424Z" fill="#7A97A2"/>
<path d="M211.762 424L212.762 425L211.762 424Z" fill="#3B6A71"/>
<path d="M215.762 424L216.762 425L215.762 424Z" fill="#678992"/>
<path d="M233.762 424L234.762 425L233.762 424Z" fill="#779697"/>
<path d="M259.762 424L260.762 425L259.762 424Z" fill="#3D6971"/>
<path d="M263.762 424L264.762 425L263.762 424Z" fill="#678992"/>
<path d="M490.762 424L491.762 425L490.762 424Z" fill="#5F848D"/>
<path d="M494.762 424L495.762 425L494.762 424Z" fill="#426F77"/>
<path d="M515.762 424L516.762 425L515.762 424Z" fill="#56787F"/>
<path d="M517.762 425L518.762 426L517.762 425Z" fill="#5C8389"/>
<path d="M182.762 426L183.762 427L182.762 426Z" fill="#8CAFAF"/>
<path d="M218.762 426L219.762 427L218.762 426Z" fill="#8CADB1"/>
<path d="M230.762 426L231.762 427L230.762 426Z" fill="#9CBBBF"/>
<path d="M266.762 426L267.762 427L266.762 426Z" fill="#8CADB1"/>
<path d="M487.762 426L488.762 427L487.762 426Z" fill="#739595"/>
<path d="M181.762 427L182.762 428L181.762 427Z" fill="#8AADB0"/>
<path d="M206.762 471C206.112 469.7 206.615 470 204.762 470C212.956 466.738 219.525 463.146 222.125 454C226.626 438.161 211.311 423.829 195.762 427.532C180.653 431.131 175.396 450.093 184.551 461.907C189.78 468.654 198.67 470.994 206.762 471Z" fill="#0D414F"/>
<path d="M219.762 427L220.762 428L219.762 427Z" fill="#567282"/>
<path d="M229.762 427L230.762 428L229.762 427Z" fill="#8AAAB1"/>
<path d="M254.762 471C254.112 469.7 254.615 470 252.762 470C260.956 466.738 267.525 463.146 270.125 454C274.518 438.541 260.163 424.249 244.762 427.38C229.14 430.555 223.021 449.609 232.551 461.907C237.78 468.654 246.67 470.994 254.762 471Z" fill="#104454"/>
<path d="M253.762 427L254.762 428L253.762 427Z" fill="#486C73"/>
<path d="M267.762 427L268.762 428L267.762 427Z" fill="#56737B"/>
<path d="M486.762 427L487.762 428L486.762 427Z" fill="#507984"/>
<path d="M489.762 427L490.762 428L489.762 427Z" fill="#496B6C"/>
<path d="M510.762 471C509.256 470.317 508.447 470.174 506.762 470C514.481 467.649 521.439 466.214 525.204 457.996C532.531 442.003 519.077 424.314 501.762 427.329C487.181 429.868 480.021 447.667 487.757 459.996C492.56 467.652 502.14 470.97 510.762 471Z" fill="#104152"/>
<path d="M510.429 427.333C509.984 427.778 511.04 427.722 511.095 427.667C511.54 427.222 510.484 427.278 510.429 427.333Z" fill="#547E80"/>
<path d="M520.762 427L521.762 428L520.762 427Z" fill="#4C7274"/>
<path d="M524.762 427L525.762 428L524.762 427Z" fill="#91B2B9"/>
<path d="M180.762 428L181.762 429L180.762 428Z" fill="#96B9BC"/>
<path d="M183.762 428L184.762 429L183.762 428Z" fill="#436D6E"/>
<path d="M208.762 428L209.762 429L208.762 428Z" fill="#3D7072"/>
<path d="M217.762 428L218.762 429L217.762 428Z" fill="#578087"/>
<path d="M220.762 428L221.762 429L220.762 428Z" fill="#5D7883"/>
<path d="M228.762 428L229.762 429L228.762 428Z" fill="#8EACB1"/>
<path d="M231.762 428L232.762 429L231.762 428Z" fill="#436D6E"/>
<path d="M240.762 428L241.762 429L240.762 428Z" fill="#4C7473"/>
<path d="M265.762 428L266.762 429L265.762 428Z" fill="#578082"/>
<path d="M268.762 428L269.762 429L268.762 428Z" fill="#5D797E"/>
<path d="M485.762 428L486.762 429L485.762 428Z" fill="#5B7F8C"/>
<path d="M513.762 428L514.762 429L513.762 428Z" fill="#467376"/>
<path d="M525.762 428L526.762 429L525.762 428Z" fill="#97B8C1"/>
<path d="M179.762 429L180.762 430L179.762 429Z" fill="#8CB0B1"/>
<path d="M182.762 429L183.762 430L182.762 429Z" fill="#5C838B"/>
<path d="M196.762 429.532C172.261 435.36 181.629 473.208 205.762 467.468C230.252 461.643 221.118 423.74 196.762 429.532Z" fill="#7D7E7E"/>
<path d="M221.762 429L222.762 430L221.762 429Z" fill="#5C7C8A"/>
<path d="M227.762 429L228.762 430L227.762 429Z" fill="#89A8AC"/>
<path d="M230.762 429L231.762 430L230.762 429Z" fill="#527A7F"/>
<path d="M243.762 429C245.01 429.685 245.31 429.749 246.762 430C245.514 429.315 245.214 429.251 243.762 429Z" fill="#4B6771"/>
<path d="M246.762 429.479C221.637 432.455 227.238 470.788 251.762 467.814C276.607 464.801 271.682 426.528 246.762 429.479Z" fill="#7F7F7F"/>
<path d="M250.762 429C252.01 429.685 252.31 429.749 253.762 430C252.514 429.315 252.214 429.251 250.762 429Z" fill="#647877"/>
<path d="M269.762 429L270.762 430L269.762 429Z" fill="#5C7D84"/>
<path d="M484.762 429L485.762 430L484.762 429Z" fill="#4C7A83"/>
<path d="M500.762 429C502.01 429.685 502.31 429.749 503.762 430C502.514 429.315 502.214 429.251 500.762 429Z" fill="#56686F"/>
<path d="M503.762 429.479C496.213 430.364 489.305 435.431 487.32 443C484.153 455.075 493.603 469.243 506.762 467.707C512.259 467.065 517.413 465.27 520.973 460.826C531.584 447.577 520.645 427.5 503.762 429.479Z" fill="#7E7E7E"/>
<path d="M507.762 429C509.01 429.685 509.31 429.749 510.762 430C509.514 429.315 509.214 429.251 507.762 429Z" fill="#5D6E76"/>
<path d="M515.762 429L516.762 430L515.762 429Z" fill="#487371"/>
<path d="M526.762 429L527.762 430L526.762 429Z" fill="#95B3B8"/>
<path d="M178.762 430L179.762 431L178.762 430Z" fill="#98B9BD"/>
<path d="M181.762 430L182.762 431L181.762 430Z" fill="#5A8088"/>
<path d="M188.762 430L189.762 431L188.762 430Z" fill="#507877"/>
<path d="M212.762 430L213.762 431L212.762 430Z" fill="#53797C"/>
<path d="M219.762 430L220.762 431L219.762 430Z" fill="#5C8783"/>
<path d="M222.762 430L223.762 431L222.762 430Z" fill="#8BAEB1"/>
<path d="M226.762 430L227.762 431L226.762 430Z" fill="#9EBCC0"/>
<path d="M229.762 430L230.762 431L229.762 430Z" fill="#4E787C"/>
<path d="M236.762 430L237.762 431L236.762 430Z" fill="#4D7575"/>
<path d="M260.762 430L261.762 431L260.762 430Z" fill="#53797C"/>
<path d="M267.762 430L268.762 431L267.762 430Z" fill="#5C868A"/>
<path d="M270.762 430L271.762 431L270.762 430Z" fill="#8BAEB1"/>
<path d="M481.762 430C477.501 433.228 470.924 432 465.762 432H427.762H278.762C283.482 433.981 289.682 433 294.762 433H325.762H435.762H470.762C475.449 433 480.773 434.145 483.762 430H481.762Z" fill="#DCEEF5"/>
<path d="M483.762 430L484.762 431L483.762 430Z" fill="#61838D"/>
<path d="M176.762 431C164.282 434.689 147.773 432 134.762 432C137.578 433.622 141.456 433 144.762 433H167.762C169.936 433 178.038 434.09 176.762 431Z" fill="#DCEEF5"/>
<path d="M220.762 431L221.762 432L220.762 431Z" fill="#4F7B82"/>
<path d="M268.762 431L269.762 432L268.762 431Z" fill="#4F7C7D"/>
<path d="M482.762 431L483.762 432L482.762 431Z" fill="#98BCC1"/>
<path d="M518.762 431L519.762 432L518.762 431Z" fill="#42757A"/>
<path d="M484.762 432L485.762 433L484.762 432Z" fill="#486D73"/>
<path d="M528.762 432L529.762 433L528.762 432Z" fill="#4B7079"/>
<path d="M132.762 433C137.231 434.875 142.953 434 147.762 434H177.762C173.293 432.125 167.571 433 162.762 433H132.762ZM273.762 433C279.469 435.395 287.608 434 293.762 434H335.762H481.762C476.055 431.605 467.916 433 461.762 433H419.762H273.762ZM529.762 433C533.461 434.552 537.779 434 541.762 434H564.762C561.063 432.448 556.745 433 552.762 433H529.762Z" fill="#72999A"/>
<path d="M178.762 434L179.762 435L178.762 434Z" fill="#5E7E7E"/>
<path d="M226.762 434L227.762 435L226.762 434Z" fill="#547471"/>
<path d="M132.762 435C136.977 436.769 142.226 436 146.762 436H175.762C171.547 434.231 166.298 435 161.762 435H132.762ZM274.762 435C278.461 436.552 282.779 436 286.762 436H309.762C306.063 434.448 301.745 435 297.762 435H274.762ZM311.762 435C317.713 437.497 326.342 436 332.762 436H378.762C372.811 433.503 364.182 435 357.762 435H311.762Z" fill="#5D7E83"/>
<path d="M379.762 435V453C381.714 448.349 381.714 439.651 379.762 435Z" fill="#345969"/>
<path d="M380.762 435C386.713 437.497 395.342 436 401.762 436H446.762V453C448.953 447.778 447.762 440.632 447.762 435H380.762ZM448.762 435V453C450.849 448.026 449.762 441.362 449.762 436C459.822 436 470.94 434.662 480.762 437C478.486 434.396 475.079 435.001 471.762 435H448.762Z" fill="#5D7E83"/>
<path d="M482.762 435L483.762 436L482.762 435Z" fill="#497076"/>
<path d="M522.762 435L523.762 436L522.762 435Z" fill="#507678"/>
<path d="M530.762 437C541.477 434.449 553.782 436 564.762 436C557.846 433.098 547.24 434.997 539.762 435C536.445 435.001 533.038 434.396 530.762 437Z" fill="#5D7E83"/>
<path d="M564.762 435V453C566.714 448.349 566.714 439.651 564.762 435Z" fill="#325B62"/>
<path d="M132.762 436C132.765 440.276 132.29 445.282 135.276 448.772C138.225 452.219 142.628 451.993 146.762 452H172.762C172.809 446.337 174.045 441.369 175.762 436H132.762Z" fill="#A1B5B4"/>
<path d="M197.762 436C199.814 436.874 201.509 436.953 203.762 437C201.71 436.126 200.015 436.047 197.762 436Z" fill="#D4D7D2"/>
<path d="M218.762 436L219.762 437L218.762 436Z" fill="#597E81"/>
<path d="M245.762 436C247.814 436.874 249.509 436.953 251.762 437C249.71 436.126 248.015 436.047 245.762 436Z" fill="#CDD0CB"/>
<path d="M274.762 436C276.776 441.404 277.746 446.229 277.762 452H309.762V436H274.762ZM311.762 436V452H377.762V436H311.762Z" fill="#A1B5B4"/>
<path d="M377.762 436V452H311.762C317.713 454.497 326.342 453 332.762 453H378.762C378.762 447.638 379.849 440.974 377.762 436Z" fill="#899EA2"/>
<path d="M380.762 436V452C382.638 447.529 381.762 441.817 381.762 437H445.762V451H383.762C389.469 453.395 397.608 452 403.762 452H446.762V436H380.762Z" fill="#AABCBA"/>
<path d="M449.762 436V452H476.762C476.813 446.314 478.934 441.526 479.762 436H449.762Z" fill="#A1B5B4"/>
<path d="M502.762 436C504.531 436.779 505.798 436.912 507.762 437C505.993 436.221 504.726 436.088 502.762 436Z" fill="#D4D5D7"/>
<path d="M508.429 436.333C507.984 436.778 509.04 436.722 509.095 436.667C509.54 436.222 508.484 436.278 508.429 436.333Z" fill="#AEA5A8"/>
<path d="M531.762 436C535.461 437.552 539.779 437 543.762 437H563.762V451H546.762C551.984 453.191 559.13 452 564.762 452V436H531.762Z" fill="#AEBFBD"/>
<path d="M174.762 437L175.762 438L174.762 437Z" fill="#5E797C"/>
<path d="M195.802 437.858C188.991 440.763 187.671 451.424 192.335 456.772C195.535 460.441 202.366 460.985 206.747 459.258C213.208 456.71 214.792 446.53 211.02 441.109C207.93 436.668 200.57 435.825 195.802 437.858Z" fill="#E7E7E7"/>
<path d="M243.802 437.858C237.065 440.731 235.602 451.38 240.335 456.656C243.617 460.315 250.285 461.017 254.747 459.258C261.208 456.71 262.792 446.53 259.02 441.109C255.93 436.668 248.57 435.825 243.802 437.858Z" fill="#EBE7E8"/>
<path d="M274.762 437L275.762 438L274.762 437Z" fill="#4C6E6F"/>
<path d="M381.762 437V452C389.988 450.473 398.423 451 406.762 451H445.762V437H381.762Z" fill="#A1B5B4"/>
<path d="M481.762 437L482.762 438L481.762 437Z" fill="#527A7F"/>
<path d="M499.762 437L500.762 438L499.762 437Z" fill="#B7B8B8"/>
<path d="M500.777 437.742C485.963 443.574 497.244 465.361 511.719 459.142C518.403 456.27 519.765 445.618 515.109 440.394C511.893 436.786 505.153 436.02 500.777 437.742Z" fill="#EBE9E9"/>
<path d="M510.762 437L511.762 438L510.762 437Z" fill="#BEBFBC"/>
<path d="M531.762 437C533.363 442.007 534.652 446.717 534.762 452L563.762 451V437H531.762Z" fill="#A1B5B4"/>
<path d="M193.762 438L194.762 439L193.762 438Z" fill="#C3C0C2"/>
<path d="M241.762 438L242.762 439L241.762 438Z" fill="#B8B6B7"/>
<path d="M512.762 438L513.762 439L512.762 438Z" fill="#AEAEAE"/>
<path d="M524.762 438L525.762 439L524.762 438Z" fill="#5B8182"/>
<path d="M529.762 438L530.762 439L529.762 438Z" fill="#3D6970"/>
<path d="M531.762 438L532.762 439L531.762 438Z" fill="#486C72"/>
<path d="M199.762 439C201.01 439.685 201.31 439.749 202.762 440C201.514 439.315 201.214 439.251 199.762 439Z" fill="#BFCCCE"/>
<path d="M247.762 439C249.01 439.685 249.31 439.749 250.762 440C249.514 439.315 249.214 439.251 247.762 439Z" fill="#BAC4CB"/>
<path d="M275.762 439L276.762 440L275.762 439Z" fill="#759093"/>
<path d="M478.762 439L479.762 440L478.762 439Z" fill="#567475"/>
<path d="M481.095 439.667C481.04 439.722 480.984 440.778 481.429 440.333C481.484 440.278 481.54 439.222 481.095 439.667Z" fill="#6F8D8B"/>
<path d="M485.762 439L486.762 440L485.762 439Z" fill="#537373"/>
<path d="M505.429 439.333C504.984 439.778 506.04 439.722 506.095 439.667C506.54 439.222 505.484 439.278 505.429 439.333Z" fill="#B6BEC0"/>
<path d="M176.095 440.667C176.04 440.722 175.984 441.778 176.429 441.333C176.484 441.278 176.54 440.222 176.095 440.667Z" fill="#779590"/>
<path d="M198.762 440C200.268 440.683 201.077 440.826 202.762 441C201.256 440.317 200.447 440.174 198.762 440Z" fill="#012A47"/>
<path d="M246.762 442L250.762 441C248.716 440.249 248.166 440.344 246.762 442Z" fill="#062F48"/>
<path d="M250.762 440L251.762 441L250.762 440Z" fill="#9EB1B5"/>
<path d="M503.095 440.667C503.04 440.722 502.984 441.778 503.429 441.333C503.484 441.278 503.54 440.222 503.095 440.667Z" fill="#B8C8D4"/>
<path d="M503.762 442L507.762 441C505.715 440.249 505.166 440.344 503.762 442Z" fill="#003847"/>
<path d="M190.762 441L191.762 442L190.762 441Z" fill="#B8BEBF"/>
<path d="M196.429 441.333C195.984 441.778 197.04 441.722 197.095 441.667C197.54 441.222 196.484 441.278 196.429 441.333Z" fill="#547577"/>
<path d="M199.429 441.333C198.984 441.778 200.04 441.722 200.095 441.667C200.54 441.222 199.484 441.278 199.429 441.333Z" fill="#174C53"/>
<path d="M201.429 441.333C200.984 441.778 202.04 441.722 202.095 441.667C202.54 441.222 201.484 441.278 201.429 441.333Z" fill="#4E636D"/>
<path d="M203.762 441L204.762 442L203.762 441Z" fill="#445F64"/>
<path d="M204.762 441C205.661 443.124 205.638 443.101 207.762 444C206.86 442.077 206.686 442.001 204.762 441Z" fill="#11353C"/>
<path d="M205.762 441L206.762 442L205.762 441Z" fill="#5A808A"/>
<path d="M238.762 441L239.762 442L238.762 441Z" fill="#B0BFBA"/>
<path d="M244.429 441.333C243.984 441.778 245.04 441.722 245.095 441.667C245.54 441.222 244.484 441.278 244.429 441.333Z" fill="#537476"/>
<path d="M249.429 441.333C248.984 441.778 250.04 441.722 250.095 441.667C250.54 441.222 249.484 441.278 249.429 441.333Z" fill="#546774"/>
<path d="M251.762 441L252.762 442L251.762 441Z" fill="#48676A"/>
<path d="M252.762 441C253.661 443.124 253.638 443.101 255.762 444C254.86 442.077 254.686 442.001 252.762 441Z" fill="#0E353A"/>
<path d="M253.762 441L254.762 442L253.762 441Z" fill="#5B828C"/>
<path d="M500.762 441L501.762 442L500.762 441Z" fill="#425457"/>
<path d="M502.095 441.667C502.04 441.722 501.984 442.778 502.429 442.333C502.484 442.278 502.54 441.222 502.095 441.667Z" fill="#7D8C9C"/>
<path d="M504.762 441C506.01 441.685 506.31 441.749 507.762 442C506.514 441.315 506.214 441.251 504.762 441Z" fill="#446273"/>
<path d="M508.762 441C509.865 442.457 510.305 442.897 511.762 444C510.863 441.876 510.886 441.899 508.762 441Z" fill="#003745"/>
<path d="M510.762 441L511.762 442L510.762 441Z" fill="#A6A8B8"/>
<path d="M531.095 441.667C531.04 441.722 530.984 442.778 531.429 442.333C531.484 442.278 531.54 441.222 531.095 441.667Z" fill="#698B85"/>
<path d="M533.095 441.667C533.04 441.722 532.984 442.778 533.429 442.333C533.484 442.278 533.54 441.222 533.095 441.667Z" fill="#2B596D"/>
<path d="M194.762 442L195.762 443L194.762 442Z" fill="#627B80"/>
<path d="M194.762 445C196.219 443.897 196.659 443.457 197.762 442C195.638 442.899 195.661 442.876 194.762 445Z" fill="#0A3B3A"/>
<path d="M203.762 442L204.762 443L203.762 442Z" fill="#A3BABC"/>
<path d="M242.762 442L243.762 443L242.762 442Z" fill="#627B80"/>
<path d="M242.762 445C244.219 443.897 244.659 443.457 245.762 442C243.638 442.899 243.661 442.876 242.762 445Z" fill="#0A3B3A"/>
<path d="M251.762 442L252.762 443L251.762 442Z" fill="#9EB9BA"/>
<path d="M275.095 442.667C275.04 442.722 274.984 443.778 275.429 443.333C275.484 443.278 275.54 442.222 275.095 442.667Z" fill="#335A5F"/>
<path d="M478.095 442.667C478.04 442.722 477.984 443.778 478.429 443.333C478.484 443.278 478.54 442.222 478.095 442.667Z" fill="#5A848D"/>
<path d="M494.762 442L495.762 443L494.762 442Z" fill="#BBBBBC"/>
<path d="M498.762 444C500.854 443.594 500.782 443.783 501.762 442C500.182 442.684 499.985 442.805 498.762 444Z" fill="#00374E"/>
<path d="M508.762 442L509.762 443L508.762 442Z" fill="#73858C"/>
<path d="M511.762 442L512.762 443L511.762 442Z" fill="#6C939D"/>
<path d="M174.762 443V446C175.458 444.446 175.458 444.554 174.762 443Z" fill="#3F6D78"/>
<path d="M180.095 443.667C180.04 443.722 179.984 444.778 180.429 444.333C180.484 444.278 180.54 443.222 180.095 443.667Z" fill="#335C60"/>
<path d="M194.095 443.667C194.04 443.722 193.984 444.778 194.429 444.333C194.484 444.278 194.54 443.222 194.095 443.667Z" fill="#768B91"/>
<path d="M228.095 443.667C228.04 443.722 227.984 444.778 228.429 444.333C228.484 444.278 228.54 443.222 228.095 443.667Z" fill="#355E63"/>
<path d="M242.095 443.667C242.04 443.722 241.984 444.778 242.429 444.333C242.484 444.278 242.54 443.222 242.095 443.667Z" fill="#768B91"/>
<path d="M277.095 443.667C277.04 443.722 276.984 444.778 277.429 444.333C277.484 444.278 277.54 443.222 277.095 443.667Z" fill="#54757D"/>
<path d="M479.762 443V446C480.458 444.446 480.458 444.554 479.762 443Z" fill="#6E928E"/>
<path d="M509.762 443L510.762 444L509.762 443Z" fill="#7A9499"/>
<path d="M511.762 443L512.762 444L511.762 443Z" fill="#3D585D"/>
<path d="M516.762 443L517.762 444L516.762 443Z" fill="#ABAAAD"/>
<path d="M173.095 444.667C173.04 444.722 172.984 445.778 173.429 445.333C173.484 445.278 173.54 444.222 173.095 444.667Z" fill="#587A81"/>
<path d="M220.095 444.667C220.04 444.722 219.984 445.778 220.429 445.333C220.484 445.278 220.54 444.222 220.095 444.667Z" fill="#617574"/>
<path d="M268.095 444.667C268.04 444.722 267.984 445.778 268.429 445.333C268.484 445.278 268.54 444.222 268.095 444.667Z" fill="#627676"/>
<path d="M270.762 444V453C272.018 450.006 272.018 446.994 270.762 444Z" fill="#9BB9A7"/>
<path d="M274.762 444V451C275.821 448.466 275.821 446.534 274.762 444Z" fill="#729899"/>
<path d="M476.762 444V452C477.923 449.23 477.923 446.77 476.762 444Z" fill="#B4C3C5"/>
<path d="M478.095 444.667C478.04 444.722 477.984 445.778 478.429 445.333C478.484 445.278 478.54 444.222 478.095 444.667Z" fill="#2D5B64"/>
<path d="M499.429 444.333C498.984 444.778 500.04 444.722 500.095 444.667C500.54 444.222 499.484 444.278 499.429 444.333Z" fill="#456371"/>
<path d="M526.762 444V453C528.018 450.006 528.018 446.994 526.762 444Z" fill="#34606B"/>
<path d="M178.762 445V454C180.018 451.006 180.018 447.994 178.762 445Z" fill="#99B6B0"/>
<path d="M188.762 445V450C189.592 447.97 189.592 447.03 188.762 445Z" fill="#D1D1D1"/>
<path d="M207.762 445V453C209.927 450.128 209.927 447.872 207.762 445Z" fill="#003444"/>
<path d="M208.762 445L209.762 446L208.762 445Z" fill="#426470"/>
<path d="M212.762 445V451C213.713 448.715 213.713 447.285 212.762 445Z" fill="#D7CFD1"/>
<path d="M237.095 445.667C237.04 445.722 236.984 446.778 237.429 446.333C237.484 446.278 237.54 445.222 237.095 445.667Z" fill="#B7B7B7"/>
<path d="M255.762 445V453C257.749 450.074 257.887 447.848 255.762 445Z" fill="#003140"/>
<path d="M256.762 445L257.762 446L256.762 445Z" fill="#486A75"/>
<path d="M260.762 445V452C261.821 449.466 261.821 447.534 260.762 445Z" fill="#D0D7D1"/>
<path d="M276.762 445V453C277.923 450.23 277.923 447.77 276.762 445Z" fill="#355C66"/>
<path d="M492.762 445C492.653 447.442 492.334 449.623 491.762 452C494.055 449.997 493.902 447.734 492.762 445Z" fill="#737273"/>
<path d="M512.095 445.667C512.04 445.722 511.984 446.778 512.429 446.333C512.484 446.278 512.54 445.222 512.095 445.667Z" fill="#81959D"/>
<path d="M512.762 445V452C514.353 449.286 514.564 447.588 512.762 445Z" fill="#063F4F"/>
<path d="M513.762 445L514.762 446L513.762 445Z" fill="#9BB6B7"/>
<path d="M524.762 445V452C525.822 449.466 525.821 447.534 524.762 445Z" fill="#446465"/>
<path d="M531.762 445V452C532.822 449.466 532.821 447.534 531.762 445Z" fill="#2B5761"/>
<path d="M533.762 445V453H549.762C545.291 451.124 539.579 452 534.762 452C534.743 449.457 534.747 447.332 533.762 445Z" fill="#899EA2"/>
<path d="M133 462C132.79 463.847 132.806 465.143 133 467C133.83 464.969 133.83 464.03 133 462Z" fill="#A29E84"/>
<path d="M136.333 462.667C136.278 462.722 136.222 463.778 136.667 463.333C136.722 463.278 136.778 462.222 136.333 462.667Z" fill="#709A96"/>
<path d="M563 462L564 463L563 462Z" fill="#A8AFA9"/>
<path d="M592 462L593 463L592 462Z" fill="#4B696E"/>
<path d="M67 463L68 464L67 463Z" fill="#959C8F"/>
<path d="M69.3333 463.667C69.2778 463.722 69.2222 464.778 69.6667 464.333C69.7223 464.278 69.7778 463.222 69.3333 463.667Z" fill="#5F726D"/>
<path d="M167 467H186C181.529 465.124 175.817 466 171 466L172 463C169.643 464.104 168.624 464.956 167 467Z" fill="#B9E6E2"/>
<path d="M260 463L261 464L260 463Z" fill="#4A6C6E"/>
<path d="M308 463L309 464L308 463Z" fill="#4A6B6E"/>
<path d="M591 463L592 464L591 463Z" fill="#83969B"/>
<path d="M67 464L68 465L67 464Z" fill="#52717F"/>
<path d="M118.333 464.667C118.278 464.722 118.222 465.778 118.667 465.333C118.722 465.278 118.778 464.222 118.333 464.667Z" fill="#5B726B"/>
<path d="M120 464L121 465L120 464Z" fill="#8A8970"/>
<path d="M130 466C132.092 465.594 132.02 465.783 133 464C131.42 464.684 131.223 464.805 130 466Z" fill="#839684"/>
<path d="M185.333 464.667C185.278 464.722 185.222 465.778 185.667 465.333C185.722 465.278 185.778 464.222 185.333 464.667Z" fill="#668E91"/>
<path d="M187.333 464.667C187.278 464.722 187.222 465.778 187.667 465.333C187.722 465.278 187.778 464.222 187.333 464.667Z" fill="#607E7F"/>
<path d="M261 464L262 465L261 464Z" fill="#93A19A"/>
<path d="M285 464L286 465L285 464Z" fill="#89969D"/>
<path d="M309 464L310 465L309 464Z" fill="#99A1A0"/>
<path d="M333 464L334 465L333 464Z" fill="#87939D"/>
<path d="M566 464L567 465L566 464Z" fill="#4E686D"/>
<path d="M263 465L264 466L263 465Z" fill="#4F6465"/>
<path d="M283 465L284 466L283 465Z" fill="#4B656A"/>
<path d="M311 465L312 466L311 465Z" fill="#647370"/>
<path d="M331 465L332 466L331 465Z" fill="#4F646A"/>
<path d="M580.667 465.333C580.222 465.778 581.278 465.722 581.333 465.667C581.778 465.222 580.722 465.278 580.667 465.333Z" fill="#536972"/>
<path d="M588 465L589 466L588 465Z" fill="#839C94"/>
<path d="M132 466L133 467L132 466Z" fill="#E8CDA7"/>
<path d="M135.333 466.667C135.278 466.722 135.222 467.778 135.667 467.333C135.722 467.278 135.778 466.222 135.333 466.667Z" fill="#365B59"/>
<path d="M265 466L266 467L265 466Z" fill="#7D8988"/>
<path d="M281 466L282 467L281 466Z" fill="#758E8D"/>
<path d="M313 466L314 467L313 466Z" fill="#7B8685"/>
<path d="M329 466L330 467L329 466Z" fill="#768E8F"/>
<path d="M327 467C333.436 469.701 343.049 468 350 468H400H573C567.748 465.174 558.936 467 553 467H504H327Z" fill="#BEC0BC"/>
<path d="M570 466L571 467L570 466Z" fill="#557476"/>
<path d="M584 467C590.436 469.701 600.049 468 607 468H657C650.564 465.299 640.951 467 634 467C617.673 467 600.174 465.193 584 467Z" fill="#BEC0BC"/>
<path d="M66 467L67 468L66 467Z" fill="#899492"/>
<path d="M69 467C72.9586 468.661 77.7397 468 82 468H108C104.041 466.339 99.2604 467 95 467H69Z" fill="#4E6B74"/>
<path d="M108 467C111.432 468.44 115.3 468 119 468C115.568 466.56 111.7 467 108 467Z" fill="#2C5051"/>
<path d="M121 467C122.769 467.779 124.036 467.912 126 468C124.231 467.221 122.964 467.088 121 467Z" fill="#6B7D77"/>
<path d="M126 467C127.506 467.683 128.315 467.826 130 468C128.494 467.317 127.685 467.174 126 467Z" fill="#536F6D"/>
<path d="M130 467C131.248 467.685 131.549 467.749 133 468C131.752 467.315 131.452 467.251 130 467Z" fill="#797D6C"/>
<path d="M133 467C129.518 469.638 125.239 469 121 469C123.506 470.21 134.786 471.737 133 467Z" fill="#1A4B58"/>
<path d="M136 467C138.89 468.213 141.874 467.998 145 468C142.11 466.787 139.126 467.002 136 467Z" fill="#3B7475"/>
<path d="M145 467C149.471 468.876 155.183 468 160 468C155.529 466.124 149.817 467 145 467Z" fill="#5C8F98"/>
<path d="M160 467C161.769 467.779 163.036 467.912 165 468C163.231 467.221 161.964 467.088 160 467Z" fill="#3F6F77"/>
<path d="M165 467C170.959 469.5 179.564 468 186 468C180.041 465.5 171.436 467 165 467Z" fill="#5A8D97"/>
<path d="M188 467C194.919 469.903 205.52 468 213 468H268C261.081 465.097 250.48 467 243 467H188Z" fill="#BEC0BC"/>
<path d="M268.667 467.333C268.222 467.778 269.278 467.722 269.333 467.667C269.778 467.222 268.722 467.278 268.667 467.333Z" fill="#4F7175"/>
<path d="M277.667 467.333C277.222 467.778 278.278 467.722 278.333 467.667C278.778 467.222 277.722 467.278 277.667 467.333Z" fill="#728084"/>
<path d="M279 467C282.959 468.661 287.74 468 292 468H316C312.041 466.339 307.26 467 303 467H279Z" fill="#BEC0BC"/>
<path d="M316.667 467.333C316.222 467.778 317.278 467.722 317.333 467.667C317.778 467.222 316.722 467.278 316.667 467.333Z" fill="#4F7275"/>
<path d="M325.667 467.333C325.222 467.778 326.278 467.722 326.333 467.667C326.778 467.222 325.722 467.278 325.667 467.333Z" fill="#728084"/>
<path d="M573.667 467.333C573.222 467.778 574.278 467.722 574.333 467.667C574.778 467.222 573.722 467.278 573.667 467.333Z" fill="#4F6E76"/>
<path d="M579 467C580.506 467.683 581.315 467.826 583 468C581.494 467.317 580.685 467.174 579 467Z" fill="#2C5563"/>
<path d="M583 467L584 468L583 467Z" fill="#8A979E"/>
<path d="M107 468C95.0779 471.524 79.4259 469 67 469C69.8156 470.622 73.6945 470 77 470H98C100.174 470 108.276 471.09 107 468Z" fill="#1B4A5A"/>
<path d="M188 468C194.919 470.903 205.52 469 213 469H270C263.081 466.097 252.48 468 245 468H188ZM279 468C282.959 469.661 287.74 469 292 469H318C314.041 467.339 309.26 468 305 468H279ZM327 468C333.436 470.701 343.049 469 350 469H400H575C568.564 466.299 558.951 468 552 468H502H327Z" fill="#033243"/>
<path d="M146 469C150.724 470.982 156.91 470 162 470C157.276 468.018 151.09 469 146 469Z" fill="#244B5C"/>
<path d="M163 469C169.928 471.907 180.503 470 188 470C181.072 467.093 170.497 469 163 469Z" fill="#234A5B"/>
<path d="M66 470.213C70.4513 471.527 76.9055 470.739 81.7078 470.739H114.619H229.062H493.102H580.617C595 470.739 609.661 471.327 624 470.739C619.731 469.478 613.643 470.213 609.04 470.213H576.129H461.686H66Z" fill="white"/>
<path d="M351.561 306.445L351.671 311.171L354.172 311.201L354.062 306.476L351.561 306.445ZM248.939 327.952C251.26 331.961 249.921 336.502 242.913 337.525C238.49 338.171 235.398 334.543 231.612 335.333C228.354 336.013 225.158 337.832 222.324 339.075C217.241 341.304 212.003 343.4 206.851 345.557C188.922 353.063 171.003 360.582 153 368.007C156.601 368.779 161.912 366.992 165.463 366.392C175.905 364.625 186.551 362.086 197.211 360.99C199.421 360.763 201.299 361.556 203.473 361.497C208.314 361.365 214.444 360.009 219.005 358.967C221.922 358.3 223.3 356.376 226.466 355.877C228.812 355.508 230.45 356.201 232.727 356.326C234.868 356.444 237.55 355.811 239.545 355.353C241.816 354.832 242.978 353.384 245.155 352.751C249.573 351.466 255.327 350.661 260.081 350.076C264.224 349.566 264.552 351.756 267.172 353.326C269 354.422 271.699 354.639 273.917 354.174C279.71 352.959 276.026 348.587 280.082 346.859C283.427 345.435 288.643 345.197 292.45 344.498C301.33 342.868 310.675 340.722 319.845 339.985C318.249 335.603 321.38 331.766 326.471 329.329C325.391 327.101 323.249 325.253 321.456 323.256C318.186 319.613 314.855 316.005 311.501 312.398C309.584 310.336 307.892 307.426 304.068 306.844C298.337 305.972 292.447 309.849 287.934 311.68C274.836 316.994 261.964 322.561 248.939 327.952ZM344.724 308.08C345.287 310.355 347.233 311.787 350.451 312.444C349.889 310.169 347.943 308.737 344.724 308.08ZM355.453 312.505C358.642 311.926 360.522 310.541 360.979 308.278C357.789 308.858 355.909 310.243 355.453 312.505Z" fill="#DEEFDF"/>
<path d="M342.57 312.882L342.601 314.192L350.199 314.285L350.169 312.975L342.57 312.882ZM357.767 313.068L357.798 314.377L365.396 314.47L365.366 313.161L357.767 313.068Z" fill="#DEEFDF"/>
<path d="M342.602 314.235C344.628 315.882 346.77 315.508 348.916 315.535C346.89 313.888 344.748 314.262 342.602 314.235ZM357.687 314.42C359.713 316.066 361.855 315.693 364.001 315.719C361.975 314.072 359.833 314.446 357.687 314.42Z" fill="#EFF7EF"/>
<path d="M345.568 319.278C348.645 318.777 350.461 317.573 350.906 315.603C347.829 316.104 346.013 317.308 345.568 319.278ZM355.728 315.662C356.265 317.644 358.138 318.893 361.24 319.47C360.703 317.488 358.83 316.238 355.728 315.662ZM352.137 316.74L352.234 320.856L354.645 320.885L354.549 316.769L352.137 316.74Z" fill="#DEEFDF"/>
<path d="M262.23 353.247C264.882 357.804 274.249 359.277 279.572 356.319C282.751 354.553 283.736 351.933 283.755 349.164C288.989 348.927 294.093 347.569 299.14 346.694C307.343 345.271 315.593 343.926 323.749 342.39C328.225 341.547 333.236 340.136 337.899 339.935C342.147 339.751 343.17 342.89 344.296 345.115C344.816 346.142 345.859 347.563 347.764 347.051C349.708 346.528 348.929 344.507 348.544 343.436C347.398 340.245 345.366 337.188 340.29 336.526C335.142 335.856 328.576 337.972 323.666 338.852L294.754 344.017C290.447 344.788 284.503 345.05 280.7 346.65C278.54 347.559 279.39 348.944 278.952 350.409C278.479 351.997 276.659 353.453 274.603 354.127C268.209 356.224 266.992 349.518 261.534 349.971C256.557 350.385 250.901 351.456 246.19 352.585C244.595 352.967 242.958 354.119 244.386 355.374C245.565 356.411 247.872 355.826 249.312 355.569C253.62 354.8 257.936 354.049 262.23 353.247Z" fill="#333333"/>
<path d="M341.696 336.439L343.151 337.766L341.696 336.439Z" fill="#A6A6A6"/>
<path d="M331.754 337.627L333.209 338.954L331.754 337.627Z" fill="#8C8C8C"/>
<path d="M344.576 337.783L346.031 339.11L344.576 337.783Z" fill="#A6A6A6"/>
<path d="M320.387 338.797L321.842 340.124L320.387 338.797Z" fill="#666666"/>
<path d="M284.323 349.327C283.397 354.631 276.826 359.743 268.313 357.428C265.45 356.649 263.13 353.98 260.076 353.917C255.733 353.828 251.374 355.634 247.096 355.977C245.03 356.144 243.47 355.193 241.469 355.109C238.614 354.989 235.523 355.981 232.776 356.38C231.965 358.398 229.657 359.247 226.618 359.474C224.404 359.64 222.566 358.632 220.37 358.708C214.337 358.915 208.275 360.791 202.368 361.557C201.651 363.789 199.198 364.215 196.213 364.772C191.282 365.692 186.278 366.386 181.317 367.225C166.608 369.714 152.02 372.527 137.261 374.9C133.526 375.5 129.786 376.145 126.092 376.844C124.342 377.174 122.161 377.437 121.166 378.587C119.064 381.019 122.783 386.233 123.878 388.767C139.124 385.597 154.953 383.423 170.418 380.735C191.869 377.006 213.282 372.788 234.955 369.638C234.574 368.325 234.219 367.098 234.743 365.794C237.773 358.253 251.908 358.556 256.044 365.627C260.499 365.432 264.799 364.463 269.083 363.717C270.699 363.436 273.047 363.333 274.277 362.498C275.361 361.763 274.897 360.788 274.601 359.879C277.123 359.853 277.951 360.35 278.39 362.059C294.432 359.974 310.404 356.748 326.174 353.926C333.649 352.588 341.432 350.738 349.137 350.12C348.529 348.313 346.631 347.725 345.265 346.208C343.703 344.475 343.933 341.394 340.746 340.534C338.985 340.059 336.922 340.549 335.213 340.829C331.684 341.405 328.168 342.048 324.665 342.689C316.233 344.232 307.685 345.542 299.222 347.013C294.346 347.861 289.387 349.105 284.323 349.327Z" fill="#B1DBB5"/>
<path d="M316.143 340.054L317.598 341.381L316.143 340.054Z" fill="#737A74"/>
<path d="M310.475 341.294L311.93 342.621L310.475 341.294Z" fill="#939D94"/>
<path d="M299.108 342.465L300.563 343.792L299.108 342.465Z" fill="#737A74"/>
<path d="M294.864 343.722L296.319 345.049L294.864 343.722Z" fill="#899189"/>
<path d="M289.196 344.962L290.651 346.289L289.196 344.962Z" fill="#9EA99F"/>
<path d="M292.183 350.89L293.541 355.49C301.764 354.702 309.737 352.469 317.828 351.204C317.603 349.625 316.986 348.149 316.47 346.605C308.206 347.321 300.281 349.624 292.183 350.89Z" fill="#90BA93"/>
<path d="M297.852 346.813C297.593 347.393 298.238 347.327 298.27 347.256C298.528 346.676 297.884 346.742 297.852 346.813ZM345.803 346.963C346.588 347.87 346.773 347.956 347.67 348.296C346.885 347.389 346.699 347.303 345.803 346.963Z" fill="#728774"/>
<path d="M293.71 347.754C293.026 349.175 294.723 349.016 294.808 348.841C295.491 347.419 293.794 347.578 293.71 347.754Z" fill="#829C84"/>
<path d="M277.89 348.752L277.951 351.371C279.824 350.242 279.816 349.928 277.89 348.752Z" fill="#5E625E"/>
<path d="M279.862 364.421L276.761 364.817C275.925 362.317 273.53 362.676 270.502 363.165C266.005 363.893 261.491 365.178 256.87 365.443C256.995 370.992 250.651 377.751 241.523 374.201C238.699 373.101 236.905 371.378 235.194 369.524C211.393 373.554 187.715 377.88 163.949 382.001C152.453 383.994 140.393 385.44 129.259 388.22C129.977 391.294 131.482 394.39 132.764 397.389C133.319 398.687 133.568 400.411 134.735 401.537C135.829 402.592 138.007 402.891 139.568 403.48C142.857 404.72 147.406 406.449 150.195 408.176C160.495 414.557 154.887 423.278 144.464 426.648C147.681 434.177 151.035 441.739 153.703 449.359C160.226 449.066 166.608 447.323 172.915 446.28C185.96 444.122 198.984 441.826 211.945 439.457C219.426 438.089 227.174 436.274 234.87 435.576C235.148 428.46 242.546 421.913 253.208 421.719C257.444 421.642 261.828 422.883 265.098 424.789C267.107 425.96 269.272 428.588 272.057 428.715C276.105 428.901 281.165 427.247 285.046 426.578C286.642 426.303 288.902 426.209 290.158 425.414C291.473 424.582 291.409 423.013 292.136 421.935C293.663 419.667 296.905 417.814 300.378 417.164C303.673 416.547 307.05 417.371 309.738 418.842C311.329 419.712 312.677 421.115 314.835 421.198C320.733 421.427 327.638 418.92 333.369 418.108C335.874 417.752 337.782 418.781 340.225 418.694C344.239 418.552 347.982 417.213 352.005 417.017C353.376 413.525 360.539 413.318 364.964 412.556C366.631 412.269 368.787 412.047 369.791 410.968C371.624 408.999 369.15 405.42 368.48 403.312C354.915 404.426 341.89 409.523 328.198 409.773C327.657 407.265 326.572 404.793 325.536 402.352C331.856 401.011 338.347 400.095 344.74 398.926C351.43 397.704 358.302 396.074 365.186 395.449C364.322 393.428 363.823 389.898 361.822 388.283C360.691 387.37 358.442 387.484 356.908 387.235C353.961 386.757 351.173 385.913 348.762 384.589C337.579 378.446 339.701 367.095 351.99 363.129C351.063 360.479 349.056 357.559 348.963 354.836C348.899 353.007 350.113 351.55 349.809 349.631C342.773 349.797 335.469 351.784 328.739 353.042C317.646 355.115 306.312 356.645 295.284 358.884C291.622 359.628 287.84 360.223 284.134 360.872C282.778 361.11 280.715 361.158 279.88 362.056C279.248 362.737 279.682 363.681 279.862 364.421Z" fill="#F6F7ED"/>
<path d="M262.218 348.56C262.831 349.465 262.976 349.55 263.673 349.887C263.06 348.983 262.915 348.897 262.218 348.56Z" fill="#899189"/>
<path d="M283.589 348.821L283.65 351.441C285.518 350.107 285.52 350.201 283.589 348.821Z" fill="#92B195"/>
<path d="M264.386 349.896L265.113 350.56L264.386 349.896ZM256.565 350.455L257.293 351.119L256.565 350.455Z" fill="#939D94"/>
<path d="M265.098 349.905L266.553 351.232L265.098 349.905Z" fill="#B3C0B4"/>
<path d="M252.306 351.058L253.761 352.385L252.306 351.058Z" fill="#A9B4A9"/>
<path d="M349.585 353.851C348.449 354.434 348.839 355.595 349.095 356.406C349.674 358.246 352.239 361.448 351.117 363.231C350.286 364.55 347.687 365.324 346.219 366.301C343.472 368.129 341.631 370.455 341.264 373.08C340.481 378.661 344.289 384.18 352.444 386.567C355.13 387.353 359.684 386.893 361.806 388.212C363.841 389.477 364.295 392.313 364.97 394.011C366.871 398.797 370.099 403.82 371.045 408.706C371.883 413.038 361.474 413.456 356.964 414.179C355.224 414.458 351.043 415.102 352.596 416.949C353.626 418.175 356.107 417.742 357.687 417.517C362.353 416.853 369.226 416.401 373.047 414.471C376.366 412.794 376.599 410.052 375.75 407.474C374.029 402.246 371.467 397.068 369.261 391.914C368.445 390.006 367.895 386.203 365.6 384.824C363.734 383.703 360.454 384.597 358.204 384.325C353.397 383.743 348.524 380.933 346.825 377.879C344.666 373.997 346.928 370.647 351.371 368.136C353.208 367.097 357.067 366.488 357.345 364.653C357.723 362.167 355.175 357.507 353.637 355.196C352.996 354.231 351.223 353.011 349.585 353.851Z" fill="#333333"/>
<path d="M261.064 352.592C260.38 354.014 262.077 353.854 262.162 353.679C262.845 352.257 261.148 352.416 261.064 352.592Z" fill="#5A685C"/>
<path d="M266.584 352.541L268.039 353.869L266.584 352.541Z" fill="#5E625E"/>
<path d="M255.395 353.832C254.712 355.254 256.409 355.094 256.493 354.919C257.177 353.497 255.48 353.656 255.395 353.832Z" fill="#7A927C"/>
<path d="M269.464 353.886L270.919 355.213L269.464 353.886Z" fill="#5E625E"/>
<path d="M270.889 353.903C271.92 354.936 272.647 355.119 273.769 355.248C272.737 354.215 272.01 354.032 270.889 353.903Z" fill="#899189"/>
<path d="M347.823 354.844L349.278 356.171L347.823 354.844Z" fill="#646462"/>
<path d="M353.522 354.914L354.977 356.241L353.522 354.914Z" fill="#808080"/>
<path d="M229.13 356.047C227.734 356.202 225.367 356.508 224.471 357.39C223.064 358.778 225.011 360.014 226.878 359.902C228.37 359.811 230.725 359.419 231.78 358.599C233.812 357.02 231.208 355.816 229.13 356.047Z" fill="#333333"/>
<path d="M266.676 356.47L268.131 357.798L266.676 356.47Z" fill="#7A927C"/>
<path d="M355.008 357.55L356.463 358.877L355.008 357.55Z" fill="#999999"/>
<path d="M232.513 357.362L233.968 358.689L232.513 357.362Z" fill="#829C84"/>
<path d="M349.339 358.79L350.795 360.117L349.339 358.79Z" fill="#B9BAB3"/>
<path d="M231.119 358.654L232.574 359.982L231.119 358.654Z" fill="#829C84"/>
<path d="M275.317 360.545C275.527 361.361 275.565 362.005 275.369 362.813C276.267 363.37 276.593 363.717 277.01 364.453L279.674 364.161C279.205 362.394 278.911 360.222 275.317 360.545Z" fill="#D6E9D7"/>
<path d="M244.702 360.143C231.229 360.514 233.352 376.477 246.847 375.838C259.711 375.229 257.775 359.782 244.702 360.143Z" fill="#FFEC00"/>
<path d="M239.698 360.069L241.153 361.396L239.698 360.069Z" fill="#E2E644"/>
<path d="M350.825 361.427L352.281 362.754L350.825 361.427Z" fill="#A1A19C"/>
<path d="M128.017 401.507C127.237 396.109 123.941 390.477 121.669 385.246C120.854 383.369 118.566 380.295 120.376 378.512C121.505 377.4 123.703 377.011 125.537 376.657C129.484 375.897 133.52 375.269 137.522 374.634C152.716 372.222 167.733 369.371 182.939 366.99C187.801 366.229 192.613 365.348 197.446 364.517C199.095 364.234 202.11 364.066 202.628 362.724C203.27 361.059 200.305 360.763 198.628 360.926C193.567 361.419 188.411 362.541 183.489 363.431C166.965 366.418 150.249 368.998 133.657 371.829C128.305 372.742 118.655 373.109 115.768 376.675C114.005 378.851 115.052 381.605 115.973 383.899C117.868 388.62 119.927 393.329 121.968 398.026C122.748 399.823 123.027 402.756 124.97 404.194C127.074 405.751 132.813 404.812 135.713 405.639C140.667 407.053 141.244 409.867 144.627 412.098C145.53 412.693 147.056 412.846 147.877 412.137C149.419 410.806 147.327 408.453 146.22 407.266C142.148 402.903 135.119 401.607 128.017 401.507Z" fill="#333333"/>
<path d="M357.402 362.817C358.696 366.805 352.611 366.807 349.581 369.308C345.936 372.318 346.476 376.162 348.205 379.725C352.922 377.142 365.492 374.29 363.664 369.003C363.216 367.706 361.954 366.576 360.881 365.48C359.831 364.405 358.977 363.518 357.402 362.817Z" fill="#DEEFDF"/>
<path d="M194.137 360.821L195.593 362.148L194.137 360.821Z" fill="#9EA99F"/>
<path d="M188.469 362.061L189.924 363.388L188.469 362.061Z" fill="#686E69"/>
<path d="M254.006 362.862L255.461 364.189L254.006 362.862Z" fill="#E2E644"/>
<path d="M348.037 364.012L349.492 365.339L348.037 364.012Z" fill="#646462"/>
<path d="M178.527 363.249L179.982 364.576L178.527 363.249Z" fill="#9EA99F"/>
<path d="M355.191 365.408L356.647 366.735L355.191 365.408Z" fill="#939D94"/>
<path d="M270.185 323.781L271.64 325.108L270.185 323.781Z" fill="#737A74"/>
<path d="M347.538 369.243L348.175 369.905L347.538 369.243ZM157.263 367.571L157.9 368.234L157.263 367.571Z" fill="#A9B4A9"/>
<path d="M248.906 327.449L250.361 328.776L248.906 327.449Z" fill="#899189"/>
<path d="M269.031 327.813C268.347 329.234 270.044 329.075 270.129 328.899C270.812 327.478 269.115 327.637 269.031 327.813Z" fill="#8AA78C"/>
<path d="M280.881 374.974L284.191 374.612C283.784 372.946 283.097 371.331 282.086 369.752C278.264 370.646 280.394 372.985 280.881 374.974Z" fill="#D6E9D7"/>
<path d="M244.663 328.706L246.118 330.033L244.663 328.706Z" fill="#808080"/>
<path d="M264.787 329.07C264.104 330.492 265.801 330.332 265.885 330.157C266.569 328.735 264.872 328.895 264.787 329.07Z" fill="#7A927C"/>
<path d="M346.796 371.852L348.251 373.179L346.796 371.852Z" fill="#9EA99F"/>
<path d="M233.295 329.876L234.751 331.204L233.295 329.876Z" fill="#CCCCCC"/>
<path d="M229.052 331.134L230.507 332.461L229.052 331.134Z" fill="#808080"/>
<path d="M224.946 338.285L226.234 342.883C234.021 342.162 241.477 339.726 249.166 338.581L247.878 333.983C240.201 335.052 232.466 336.728 224.946 338.285Z" fill="white"/>
<path d="M341.219 377.021L342.675 378.348L341.219 377.021Z" fill="#70706D"/>
<path d="M346.918 377.091L348.374 378.418L346.918 377.091Z" fill="#686E69"/>
<path d="M226.473 335.148C225.789 336.57 227.486 336.411 227.571 336.235C228.254 334.813 226.557 334.973 226.473 335.148Z" fill="#728774"/>
<path d="M210.653 336.146L212.108 337.473L210.653 336.146Z" fill="#666666"/>
<path d="M282.898 380.236L284.352 385.491C288.831 385.054 286.969 382.479 286.227 380.277L282.898 380.236Z" fill="#D6E9D7"/>
<path d="M213.533 337.491L214.988 338.818L213.533 337.491Z" fill="#627264"/>
<path d="M344.161 380.985L345.616 382.312L344.161 380.985Z" fill="#646462"/>
<path d="M345.616 382.312L347.071 383.639L345.616 382.312Z" fill="#959590"/>
<path d="M347.071 383.639L348.526 384.966L347.071 383.639Z" fill="#7C7D79"/>
<path d="M357.223 383.881C356.539 385.303 358.236 385.144 358.321 384.968C359.004 383.546 357.307 383.706 357.223 383.881Z" fill="#666666"/>
<path d="M358.469 383.779C359.501 384.811 360.227 384.994 361.349 385.123C360.317 384.091 359.591 383.907 358.469 383.779Z" fill="#999999"/>
<path d="M209.351 341.367L210.806 342.695L209.351 341.367Z" fill="#808080"/>
<path d="M248.027 343.268C247.343 344.689 249.041 344.53 249.125 344.354C249.809 342.933 248.111 343.092 248.027 343.268Z" fill="#D8EBD5"/>
<path d="M354.256 386.346L355.711 387.673L354.256 386.346Z" fill="#A1A19C"/>
<path d="M220.866 371.622C223.121 371.381 225.17 370.651 227.462 370.537C230.854 370.367 233.9 371.207 237.123 371.821C236.114 368.376 231.871 365.922 226.739 365.37C224.215 365.098 221.176 365.856 219.327 364.286C217.594 362.816 217.3 360.42 216.524 358.677C214.552 354.247 213.17 349.623 210.62 345.311C207.144 346.008 202.427 347.621 202.441 350.448C202.454 352.88 205.766 355.377 207.636 357.36C212.079 362.07 216.902 366.733 220.866 371.622Z" fill="#DEEFDF"/>
<path d="M361.41 387.742L362.865 389.069L361.41 387.742Z" fill="#7C7D79"/>
<path d="M210.867 345.314L212.322 346.641L210.867 345.314Z" fill="#B3C0B4"/>
<path d="M287.386 389.456C287.857 391.683 288.238 394.266 291.783 394.747C291.686 392.915 291.048 391.274 290.439 389.493L287.386 389.456Z" fill="#D6E9D7"/>
<path d="M362.896 390.379L364.351 391.706L362.896 390.379Z" fill="#646462"/>
<path d="M218.073 348.921L223.375 362.488C225.075 362.377 226.652 362.424 228.361 362.549C227.336 357.653 224.673 352.898 223.038 348.081C221.337 348.299 219.708 348.537 218.073 348.921Z" fill="white"/>
<path d="M212.353 347.951L213.808 349.278L212.353 347.951Z" fill="#9EA99F"/>
<path d="M364.412 394.326L365.868 395.653L364.412 394.326Z" fill="#ADAEA7"/>
<path d="M328.693 409.601C342.367 408.546 355.221 404.369 368.895 403.314C368.516 400.67 367.028 398.24 366.155 395.656C356.298 397.035 346.558 398.812 336.806 400.445C334.24 400.874 328.211 401.153 326.653 402.672C325.078 404.208 327.88 407.986 328.693 409.601Z" fill="#FE8602"/>
<path d="M219.629 354.586L221.085 355.913L219.629 354.586Z" fill="#A6A6A6"/>
<path d="M336.142 403.582L337.435 407.089C344.75 405.483 352.707 403.654 360.342 403.004C360.279 401.789 360.075 400.692 359.655 399.505C352.038 400.153 343.303 401.709 336.142 403.582Z" fill="white"/>
<path d="M221.115 357.223L222.571 358.55L221.115 357.223Z" fill="#BFBFBF"/>
<path d="M290.482 400.059L292.74 405.233L296.291 404.848C295.74 402.61 295.213 399.451 290.482 400.059Z" fill="#D6E9D7"/>
<path d="M215.447 358.463L216.902 359.79L215.447 358.463Z" fill="#939D94"/>
<path d="M338.951 401.87L339.578 403.187L338.951 401.87ZM358.445 402.544C358.193 403.124 358.821 403.058 358.852 402.987C359.104 402.407 358.476 402.473 358.445 402.544Z" fill="#FEB361"/>
<path d="M216.933 361.1L218.388 362.427L216.933 361.1Z" fill="#737A74"/>
<path d="M222.632 361.169L224.087 362.496L222.632 361.169Z" fill="#666666"/>
<path d="M358.928 403.424L360.383 404.751L358.928 403.424Z" fill="#FBB769"/>
<path d="M336.193 404.879C336.164 404.941 336.161 406.148 336.399 405.642C336.428 405.58 336.431 404.373 336.193 404.879ZM341.427 404.561C341.189 405.067 341.781 405.01 341.81 404.947C342.048 404.442 341.457 404.498 341.427 404.561Z" fill="#FEAC51"/>
<path d="M353.259 404.664L354.715 405.991L353.259 404.664Z" fill="#FCA94B"/>
<path d="M232.635 362.601L234.091 363.928L232.635 362.601Z" fill="#888984"/>
<path d="M218.419 363.736L219.874 365.063L218.419 363.736Z" fill="#737A74"/>
<path d="M327.808 407.133C327.618 407.212 327.458 408.773 328.999 408.133C329.189 408.054 329.349 406.493 327.808 407.133Z" fill="#F8DBB2"/>
<path d="M219.874 365.064L221.329 366.391L219.874 365.064Z" fill="#939D94"/>
<path d="M226.998 365.151L228.453 366.478L226.998 365.151Z" fill="#B3C0B4"/>
<path d="M232.727 366.53L234.182 367.857L232.727 366.53Z" fill="#5E625E"/>
<path d="M295 410.547L296.693 414.447L299.357 414.126C298.728 412.247 298.521 410.198 295 410.547Z" fill="#D6E9D7"/>
<path d="M241.306 367.944L242.761 369.271L241.306 367.944Z" fill="#CCCCCC"/>
<path d="M364.81 411.351L366.265 412.678L364.81 411.351Z" fill="#7C7D79"/>
<path d="M242.792 370.581L244.247 371.908L242.792 370.581Z" fill="#CCCCCC"/>
<path d="M354.898 413.849L356.354 415.176L354.898 413.849Z" fill="#ADAEA7"/>
<path d="M240.004 373.165L241.459 374.492L240.004 373.165Z" fill="#899189"/>
<path d="M363.477 415.263L364.932 416.59L363.477 415.263Z" fill="#CCCCCC"/>
<path d="M361.46 416.548L362.098 417.21L361.46 416.548ZM352.125 417.088L352.764 417.751L352.125 417.088Z" fill="#BFBFBF"/>
<path d="M359.233 416.52L360.689 417.847L359.233 416.52Z" fill="#B3B3B3"/>
<path d="M298.001 417.081L299.457 418.408L298.001 417.081Z" fill="#646462"/>
<path d="M291.615 425.742C282.838 426.464 274.105 428.634 265.581 430.151C250.921 432.761 236.238 435.284 221.578 437.893C203.835 441.05 186.108 444.34 168.278 447.274C164.134 447.957 160.014 448.707 155.882 449.422C153.773 449.787 151.696 450.249 149.825 449.088C147.63 447.726 147.072 445.011 146.328 443.139C144.417 438.324 140.799 432.775 140.326 427.821C140.113 425.586 143.38 425.29 144.948 423.806C145.765 423.034 146.082 421.64 144.445 421.181C142.091 420.521 134.812 423.464 134.463 425.174C134.064 427.126 135.973 429.802 136.726 431.692C138.764 436.802 140.736 441.94 142.938 447.02C144.01 449.491 145.244 452.007 149.12 452.911C153.547 453.944 158.554 452.494 162.782 451.781C172.511 450.142 182.252 448.43 191.911 446.621C215.353 442.228 239.035 438.355 262.563 434.168C270.197 432.809 277.889 431.576 285.495 430.151C288.42 429.603 291.994 429.39 294.698 428.458C297.043 427.649 296.339 426.022 296.707 424.497C297.066 423.007 298.372 421.825 300.228 421.094C306.185 418.751 307.413 423.605 311.641 424.846C313.51 425.394 315.906 424.783 317.723 424.479C322.491 423.681 327.228 422.79 331.977 421.944C333.747 421.628 337.018 421.501 337.745 420.092C338.94 417.773 334.222 418.102 332.515 418.349C326.054 419.285 319.787 420.786 313.301 421.649C310.425 416.729 300.656 415.801 295.308 419.047C292.458 420.776 291.634 423.17 291.615 425.742Z" fill="#333333"/>
<path d="M306.55 417.186L308.005 418.513L306.55 417.186Z" fill="#ADAEA7"/>
<path d="M333.619 417.517L335.075 418.844L333.619 417.517Z" fill="#C5C6BF"/>
<path d="M335.044 417.534C335.658 418.438 335.802 418.524 336.499 418.861C335.886 417.957 335.741 417.871 335.044 417.534Z" fill="#70706D"/>
<path d="M336.469 417.551L337.924 418.878L336.469 417.551Z" fill="#C5C6BF"/>
<path d="M322.252 418.687L323.707 420.014L322.252 418.687Z" fill="#A1A19C"/>
<path d="M337.924 418.879L339.379 420.206L337.924 418.879Z" fill="#999999"/>
<path d="M292.364 419.631L293.819 420.958L292.364 419.631Z" fill="#70706D"/>
<path d="M300.912 419.735C302.006 420.643 302.586 420.837 303.792 421.08C302.698 420.172 302.118 419.978 300.912 419.735Z" fill="#999999"/>
<path d="M318.009 419.944L319.464 421.271L318.009 419.944Z" fill="#C5C6BF"/>
<path d="M312.34 421.184L313.796 422.511L312.34 421.184Z" fill="#70706D"/>
<path d="M313.765 421.202L315.22 422.529L313.765 421.202Z" fill="#7C7D79"/>
<path d="M332.286 421.428L333.742 422.755L332.286 421.428Z" fill="#808080"/>
<path d="M235.882 379.661C236.496 380.566 236.64 380.651 237.338 380.989C236.724 380.084 236.58 379.999 235.882 379.661Z" fill="#666666"/>
<path d="M237.307 379.679L238.762 381.006L237.307 379.679Z" fill="#BFBFBF"/>
<path d="M235.742 434.65L237.574 434.673C237.941 432.014 240.084 431.392 243.59 430.92L243.65 433.472C245.754 432.434 249.46 427.336 251.548 431.868L253.98 431.472L253.31 428.913C255.031 428.773 256.557 428.529 258.175 428.122C259.115 429.467 259.771 430.016 261.888 430.293L260.607 427.727C264.59 427.377 265.66 427.869 269.186 429.107L269.786 428.689C265.662 421.527 251.064 419.894 242.818 423.955C237.801 426.425 235.694 430.442 235.742 434.65Z" fill="#FE8602"/>
<path d="M320.919 422.599L322.374 423.926L320.919 422.599Z" fill="#A6A6A6"/>
<path d="M255.413 423.107L258.762 425.767L262.58 425.065C260.48 423.872 258.079 423.299 255.413 423.107Z" fill="#F6F7ED"/>
<path d="M257.016 423.245C256.333 424.666 258.03 424.507 258.114 424.331C258.798 422.91 257.101 423.069 257.016 423.245Z" fill="#FD9B2E"/>
<path d="M316.675 423.856L318.131 425.183L316.675 423.856Z" fill="#808080"/>
<path d="M231.669 382.229L233.125 383.556L231.669 382.229Z" fill="#666666"/>
<path d="M249.744 424.347L249.775 425.657C250.931 425.314 250.806 425.43 251.169 424.364L249.744 424.347Z" fill="#FABF78"/>
<path d="M251.169 424.364L251.943 426.993C253.681 426.973 255.232 426.873 256.921 426.679C255.257 425.548 253.678 424.904 251.169 424.364Z" fill="#F6F7ED"/>
<path d="M256.868 424.434L257.433 425.75L256.868 424.434ZM260.608 424.48L261.173 425.796L260.608 424.48Z" fill="#F9CD95"/>
<path d="M289.637 424.835L291.092 426.162L289.637 424.835Z" fill="#C5C6BF"/>
<path d="M311.007 425.096C311.621 426 311.765 426.086 312.463 426.423C311.849 425.519 311.705 425.433 311.007 425.096Z" fill="#999999"/>
<path d="M247.574 425.63C247.222 426.513 247.047 427.282 246.987 428.241C248.548 427.914 248.509 427.1 248.222 425.638L247.574 425.63Z" fill="#F6F7ED"/>
<path d="M235.974 383.59L237.429 384.918L235.974 383.59Z" fill="#808080"/>
<path d="M244.024 425.586C242.035 426.735 240.685 427.785 239.894 429.464L243.504 429.115C243.72 427.934 244.281 426.771 244.024 425.586Z" fill="#F6F7ED"/>
<path d="M180.143 424.924C179.459 426.345 181.156 426.186 181.241 426.01C181.924 424.589 180.227 424.748 180.143 424.924Z" fill="#7C7D79"/>
<path d="M281.119 426.04L282.574 427.367L281.119 426.04Z" fill="#70706D"/>
<path d="M234.58 384.883L236.035 386.21L234.58 384.883Z" fill="#CCCCCC"/>
<path d="M270.198 385.318L271.653 386.645L270.198 385.318Z" fill="#B9BAB3"/>
<path d="M151.629 431.265L152.968 434.948L182.919 429.357L182.217 426.14C171.944 426.342 161.665 429.868 151.629 431.265Z" fill="#333333"/>
<path d="M236.983 426.81L238.439 428.137L236.983 426.81Z" fill="#FAC686"/>
<path d="M251.23 426.984C252.119 427.892 252.33 427.978 253.347 428.319C252.458 427.411 252.248 427.325 251.23 426.984ZM263.524 427.57C263.228 428.149 263.961 428.085 263.997 428.013C264.293 427.434 263.561 427.499 263.524 427.57Z" fill="#F8DBB2"/>
<path d="M261.209 427.336C262.186 430.45 265.057 430.035 268.37 429.023C266.61 426.694 264.371 427.084 261.209 427.336Z" fill="#F6F7ED"/>
<path d="M276.875 427.297L278.331 428.624L276.875 427.297Z" fill="#888984"/>
<path d="M239.863 428.154L240.647 428.6L239.863 428.154ZM243.733 428.202L243.764 429.511C244.287 428.839 244.288 428.887 243.733 428.202Z" fill="#FBB05A"/>
<path d="M256.96 428.363C257.373 429.439 257.242 429.319 258.415 429.69C258.002 428.615 258.133 428.734 256.96 428.363Z" fill="#FCA94B"/>
<path d="M252.728 430.101L253.347 432.247L258.456 431.454C257.285 429.165 255.43 429.495 252.728 430.101Z" fill="#F6F7ED"/>
<path d="M288.304 428.746L289.759 430.073L288.304 428.746Z" fill="#B3B3B3"/>
<path d="M154.666 439.333L155.372 442.833C165.629 441.902 175.884 439.371 185.873 437.598C195.74 435.847 206.214 434.67 215.745 432.224L214.423 429.153C194.085 430.822 174.959 437.491 154.666 439.333Z" fill="#333333"/>
<path d="M254.587 387.746L256.042 389.073L254.587 387.746Z" fill="#ADAEA7"/>
<path d="M247.033 430.206L247.079 432.17L251.33 431.24L250.817 429.597L247.033 430.206Z" fill="#F6F7ED"/>
<path d="M178.631 428.715L180.086 430.042L178.631 428.715Z" fill="#A1A19C"/>
<path d="M207.125 429.063L208.581 430.39L207.125 429.063Z" fill="#646462"/>
<path d="M258.415 429.69L259.87 431.017L258.415 429.69Z" fill="#EEAB5D"/>
<path d="M260.018 429.828C259.335 431.249 261.032 431.09 261.117 430.914C261.8 429.493 260.103 429.652 260.018 429.828Z" fill="#7F5221"/>
<path d="M278.361 429.934L279.817 431.261L278.361 429.934Z" fill="#737373"/>
<path d="M279.165 429.944L279.801 430.606L279.165 429.944ZM134.48 428.83L135.117 429.492L134.48 428.83Z" fill="#A6A6A6"/>
<path d="M250.343 389.003L251.799 390.33L250.343 389.003Z" fill="#646462"/>
<path d="M270.29 389.247L271.745 390.574L270.29 389.247Z" fill="#B9BAB3"/>
<path d="M202.882 430.321L204.337 431.648L202.882 430.321Z" fill="#7C7D79"/>
<path d="M241.349 430.791L242.526 432.115C243.144 431.188 242.644 431.013 241.349 430.791Z" fill="#F8DBB2"/>
<path d="M255.596 430.965L257.052 432.292L255.596 430.965Z" fill="#A1A19C"/>
<path d="M275.542 431.209L276.998 432.536L275.542 431.209Z" fill="#BFBFBF"/>
<path d="M237.11 432.215L237.167 434.668L244.271 433.937C243.297 431.741 240.818 432.024 237.11 432.215Z" fill="#F6F7ED"/>
<path d="M229.003 390.052L230.459 391.379L229.003 390.052Z" fill="#B3B3B3"/>
<path d="M260.347 390.435L261.802 391.762L260.347 390.435Z" fill="#888984"/>
<path d="M190.09 431.474L191.545 432.801L190.09 431.474Z" fill="#C5C6BF"/>
<path d="M191.515 431.491L192.15 432.808L191.515 431.491ZM210.856 431.727L211.491 433.045L210.856 431.727Z" fill="#959590"/>
<path d="M211.461 431.735L212.916 433.062L211.461 431.735Z" fill="#C5C6BF"/>
<path d="M244.408 432.256C243.724 433.677 245.421 433.518 245.506 433.342C246.189 431.921 244.492 432.08 244.408 432.256Z" fill="#7F5221"/>
<path d="M262.75 432.362L264.206 433.689L262.75 432.362Z" fill="#808080"/>
<path d="M254.679 391.675L256.134 393.002L254.679 391.675Z" fill="#C5C6BF"/>
<path d="M185.847 432.731L187.302 434.058L185.847 432.731Z" fill="#7C7D79"/>
<path d="M205.793 432.975L207.248 434.302L205.793 432.975Z" fill="#ADAEA7"/>
<path d="M238.561 433.375L240.016 434.703L238.561 433.375Z" fill="#C5C6BF"/>
<path d="M239.986 433.393L241.441 434.72L239.986 433.393Z" fill="#646462"/>
<path d="M258.507 433.619L259.962 434.946L258.507 433.619Z" fill="#CCCCCC"/>
<path d="M249.011 392.915L250.466 394.242L249.011 392.915Z" fill="#ADAEA7"/>
<path d="M181.603 433.988L183.058 435.316L181.603 433.988Z" fill="#959590"/>
<path d="M201.549 434.232L203.004 435.559L201.549 434.232Z" fill="#888984"/>
<path d="M254.263 434.877L255.719 436.204L254.263 434.877Z" fill="#B3B3B3"/>
<path d="M267.562 394.451L269.018 395.778L267.562 394.451Z" fill="#888984"/>
<path d="M246.54 436.092L247.186 436.754L246.54 436.092ZM137.483 435.413L138.128 436.076L137.483 435.413Z" fill="#A6A6A6"/>
<path d="M190.182 435.403L191.637 436.73L190.182 435.403Z" fill="#ADAEA7"/>
<path d="M222.95 435.803L224.406 437.13L222.95 435.803Z" fill="#C5C6BF"/>
<path d="M242.896 436.047L244.352 437.374L242.896 436.047Z" fill="#999999"/>
<path d="M260.469 395.674L261.925 397.001L260.469 395.674Z" fill="#B9BAB3"/>
<path d="M218.707 437.061L220.162 438.388L218.707 437.061Z" fill="#70706D"/>
<path d="M237.228 437.287L238.683 438.614L237.228 437.287Z" fill="#808080"/>
<path d="M232.006 396.635L233.461 397.962L232.006 396.635Z" fill="#808080"/>
<path d="M236.28 396.687L237.735 398.014L236.28 396.687Z" fill="#737373"/>
<path d="M256.226 396.931L257.681 398.258L256.226 396.931Z" fill="#70706D"/>
<path d="M161.749 437.674L162.402 438.991L161.749 437.674ZM181.071 437.91L181.725 439.227L181.071 437.91Z" fill="#7C7D79"/>
<path d="M214.463 438.318L215.918 439.645L214.463 438.318Z" fill="#959590"/>
<path d="M235.209 438.572L235.849 439.234L235.209 438.572ZM144.667 438.12L145.307 438.782L144.667 438.12Z" fill="#CCCCCC"/>
<path d="M168.903 439.07L169.567 440.388L168.903 439.07ZM202.463 439.481L203.126 440.798L202.463 439.481Z" fill="#A1A19C"/>
<path d="M203.096 439.488L204.551 440.815L203.096 439.488Z" fill="#70706D"/>
<path d="M221.617 439.715L223.073 441.042L221.617 439.715Z" fill="#808080"/>
<path d="M233.492 399.272L234.947 400.599L233.492 399.272Z" fill="#666666"/>
<path d="M237.766 399.324L239.221 400.651L237.766 399.324Z" fill="#8C8C8C"/>
<path d="M260.561 399.603L262.016 400.93L260.561 399.603Z" fill="#C5C6BF"/>
<path d="M197.428 440.728L198.883 442.056L197.428 440.728Z" fill="#888984"/>
<path d="M215.949 440.955L217.404 442.282L215.949 440.955Z" fill="#666666"/>
<path d="M247.769 400.756L249.225 402.083L247.769 400.756Z" fill="#959590"/>
<path d="M157.566 441.55L158.242 442.868L157.566 441.55ZM191.114 441.961L191.79 443.278L191.114 441.961Z" fill="#B9BAB3"/>
<path d="M211.08 442.205L211.721 442.867L211.08 442.205ZM140.485 441.996L141.125 442.659L140.485 441.996Z" fill="#A6A6A6"/>
<path d="M239.252 401.961L240.707 403.288L239.252 401.961Z" fill="#A6A6A6"/>
<path d="M181.817 443.156L183.272 444.483L181.817 443.156Z" fill="#888984"/>
<path d="M200.338 443.383L201.794 444.71L200.338 443.383Z" fill="#737373"/>
<path d="M235.008 403.218L236.463 404.545L235.008 403.218Z" fill="#BFBFBF"/>
<path d="M272.051 403.671L273.506 404.998L272.051 403.671Z" fill="#C5C6BF"/>
<path d="M199.739 444.685L200.384 445.347L199.739 444.685ZM146.245 444.685L146.89 445.348L146.245 444.685Z" fill="#CCCCCC"/>
<path d="M196.095 444.64L197.55 445.967L196.095 444.64Z" fill="#BFBFBF"/>
<path d="M267.807 404.928L269.262 406.255L267.807 404.928Z" fill="#7C7D79"/>
<path d="M189.002 445.863L190.457 447.19L189.002 445.863Z" fill="#8C8C8C"/>
<path d="M180.484 447.068L181.939 448.395L180.484 447.068Z" fill="#A9B4A9"/>
<path d="M162.057 450.884C169.239 457.317 176.525 450.029 183.338 447.311C180.902 446.641 178.197 447.593 175.818 448.156C171.369 449.208 166.687 450.589 162.057 450.884Z" fill="#DEEFDF"/>
<path d="M252.196 407.356L253.652 408.683L252.196 407.356Z" fill="#70706D"/>
<path d="M270.718 407.583L272.173 408.91L270.718 407.583Z" fill="#737A74"/>
<path d="M246.528 408.596L247.983 409.923L246.528 408.596Z" fill="#C6C7C0"/>
<path d="M266.474 408.84L267.929 410.167L266.474 408.84Z" fill="#5E625E"/>
<path d="M255.107 410.01L256.562 411.337L255.107 410.01Z" fill="#808080"/>
<path d="M249.439 411.25L250.894 412.577L249.439 411.25Z" fill="#666666"/>
<path d="M149.637 451.928C150.746 452.284 151.537 452.352 152.76 452.405C151.651 452.05 150.861 451.982 149.637 451.928ZM88.3487 466.108C92.0844 467.251 97.4265 466.658 101.433 466.707C97.6978 465.563 92.3557 466.157 88.3487 466.108ZM118.856 466.481C123.795 467.993 131.608 467.076 136.921 467.141L178.013 467.643L320.587 469.386C315.648 467.874 307.835 468.791 302.522 468.726L261.431 468.223L118.856 466.481Z" fill="#999999"/>
<path d="M329.121 468.847C331.763 470.053 335.001 469.583 337.816 469.617C335.174 468.411 331.936 468.882 329.121 468.847ZM352.681 469.135C356.562 470.907 362.192 469.915 366.337 469.966L396.098 470.329C392.217 468.557 386.587 469.55 382.442 469.499L352.681 469.135Z" fill="#999999"/>
<path d="M182.238 426.958C180.653 427.857 181.753 429.232 183.275 429.592C185.695 430.166 192.873 430.578 194.94 429.406C196.525 428.507 195.424 427.133 193.903 426.772C191.483 426.198 184.305 425.786 182.238 426.958Z" fill="#333333"/>
<path d="M367.74 467.766C366.311 468.265 366.816 469.144 368.29 469.496C370.217 469.957 373.027 469.748 375.076 469.773L406.334 470.155L524.49 471.599L559.5 472.027C562.301 472.062 569.575 472.81 571.577 471.662C572.794 470.964 571.447 470.227 570.04 470.011C567.579 469.633 564.477 469.841 561.948 469.81L526.939 469.382L410.033 467.953L379.399 467.579C376.381 467.542 370.286 466.876 367.74 467.766Z" fill="#333333"/>
<path d="M328.501 470.314C327.262 470.8 327.636 471.749 329.017 472.104C330.863 472.578 336.763 472.719 338.396 472.078C339.635 471.591 339.26 470.642 337.88 470.288C336.034 469.814 330.134 469.673 328.501 470.314Z" fill="#333333"/>
<path d="M351.584 470.615C347.975 472.094 354.811 472.619 356.317 472.639L386.752 473.011C389.287 473.042 395.261 473.678 397.099 472.611C398.097 472.032 397.346 471.317 396.117 471.019C394.162 470.547 391.312 470.762 389.234 470.737L361.969 470.403C359.375 470.372 353.688 469.752 351.584 470.615Z" fill="#333333"/>
<path d="M327.75 471.126L327.78 472.436C328.176 471.762 328.177 471.809 327.75 471.126ZM338.993 471.263L339.023 472.573C339.419 471.9 339.42 471.947 338.993 471.263ZM350.236 471.401L350.267 472.711C350.663 472.037 350.664 472.084 350.236 471.401Z" fill="#666666"/>
<path d="M181.481 428.75L182.138 430.067L181.481 428.75ZM196.526 428.934L197.183 430.251L196.526 428.934ZM212.197 429.125L212.855 430.443L212.197 429.125Z" fill="#808080"/>
<path d="M365.437 467.909C369.177 469.231 374.517 468.531 378.524 468.58C374.784 467.258 369.445 467.958 365.437 467.909ZM395.945 468.282C400.89 470.031 408.699 468.949 414.012 469.014L455.103 469.516L597.678 471.259C592.733 469.511 584.924 470.592 579.611 470.527L538.519 470.025L395.945 468.282Z" fill="#999999"/>
<path d="M329.212 472.776C331.854 473.982 335.093 473.512 337.908 473.546C335.266 472.34 332.028 472.811 329.212 472.776ZM352.773 473.064C356.654 474.836 362.283 473.844 366.429 473.895L396.19 474.258C392.309 472.486 386.679 473.479 382.534 473.428L352.773 473.064Z" fill="#999999"/>
<path d="M184.318 407.869L191.46 406.503C193.369 406.137 196.315 406.783 196.742 409.011C197.188 411.345 194.587 412.502 192.678 412.867L185.535 414.234L184.318 407.869ZM182.444 398.075L189.586 396.708C192.556 396.14 193.841 397.874 194.057 399.005C194.328 400.419 193.61 401.84 190.675 402.401L183.533 403.768L182.444 398.075ZM188.774 392.465C184.85 393.216 180.925 393.967 177.035 394.711L181.771 419.462C185.696 418.712 189.585 417.967 193.51 417.216C198.637 416.236 202.436 413.676 201.38 408.16C201.083 406.604 199.433 403.731 196.365 403.402C198.467 401.937 199.034 399.922 198.669 398.013C197.715 393.027 193.654 391.532 188.774 392.465ZM213.231 387.273C204.675 388.91 201.754 396.25 202.998 402.756C204.243 409.262 209.472 414.749 218.17 413.085C226.868 411.421 229.568 404.27 228.415 397.856C227.247 391.372 221.753 385.643 213.231 387.273ZM214.043 391.516C219.877 390.4 223.104 394.621 223.831 398.807C224.539 402.886 223.185 407.69 217.351 408.806C211.517 409.923 208.493 405.993 207.609 401.947C206.704 397.795 208.209 392.632 214.043 391.516ZM240.993 381.961C232.437 383.599 229.516 390.938 230.761 397.444C232.005 403.95 237.234 409.437 245.932 407.773C254.63 406.109 257.33 398.958 256.177 392.545C255.009 386.061 249.515 380.331 240.993 381.961ZM241.805 386.204C247.639 385.088 250.866 389.309 251.594 393.495C252.301 397.575 250.947 402.379 245.113 403.495C239.279 404.611 236.255 400.681 235.371 396.635C234.466 392.483 235.971 387.321 241.805 386.204ZM277.089 375.569L271.29 376.678L263.887 388.944L261.884 378.478L257.217 379.371L261.953 404.122L266.62 403.229L264.523 392.267L276.98 401.246L282.744 400.144L282.689 399.861L268.386 389.659L277.116 375.71L277.089 375.569ZM302.7 391.561L288.804 394.219L287.735 388.633L301.136 386.069L300.304 381.72L286.903 384.284L285.814 378.591L299.71 375.932L298.844 371.406L280.316 374.951C281.892 383.19 283.475 391.464 285.052 399.702L303.579 396.157L302.7 391.561ZM311.857 368.917C308.816 369.498 305.174 370.195 302.133 370.777L306.869 395.528C309.909 394.946 313.551 394.249 316.592 393.668C325.255 392.01 327.863 384.95 326.559 378.712C325.283 372.615 320.343 367.293 311.857 368.917ZM307.611 374.311L312.702 373.336C318.077 372.308 321.077 375.729 321.921 379.563C322.798 383.574 321.355 388.101 315.733 389.177L310.641 390.151L307.611 374.311Z" fill="#FE3131" fill-opacity="0.7"/>
</svg>
