<svg width="700" height="300" viewBox="0 0 700 300" fill="none" xmlns="http://www.w3.org/2000/svg">
<g id="Frame 1">
<g clip-path="url(#clip0)">
<rect width="700" height="300" fill="white"/>
<path id="Vector 1" d="M25.0986 77.7288C2.72243 99.0078 -41.2307 94.9398 -60.4102 90.2459L-70 10.4495L40.2824 -67C72.2483 -51.6144 136.34 -18.8092 136.979 -10.6731C137.778 -0.502983 115.402 30.0074 85.0347 38.6129C54.667 47.2184 53.0687 51.13 25.0986 77.7288Z" fill="#EDF4FF"/>
<path id="Vector 3" d="M667.409 22.7277C690.035 12.0194 713.012 25.4872 721.673 33.5597L736.501 53.4563C737.528 55.7818 733.018 63.083 706.759 73.6841C680.5 84.2853 662.611 71.9988 656.949 64.5304C651.008 55.058 644.783 33.4361 667.409 22.7277Z" fill="#F99746" fill-opacity="0.87"/>
</g>
</g>
<defs>
<clipPath id="clip0">
<rect width="700" height="300" fill="white"/>
</clipPath>
</defs>
</svg>
